<svg width="25" height="25" viewBox="0 0 25 25" fill="none" xmlns="http://www.w3.org/2000/svg">
<path d="M12.5 0C5.59668 0 0 5.59668 0 12.5C0 19.4033 5.59668 25 12.5 25C19.4033 25 25 19.4033 25 12.5C25 5.59668 19.4033 0 12.5 0ZM7.32422 19.75C6.91444 19.7501 6.51383 19.6287 6.17307 19.4011C5.8323 19.1735 5.56668 18.85 5.4098 18.4714C5.25292 18.0928 5.21182 17.6763 5.2917 17.2743C5.37159 16.8724 5.56887 16.5032 5.85859 16.2134C6.14831 15.9236 6.51747 15.7263 6.91937 15.6463C7.32127 15.5663 7.73786 15.6073 8.11645 15.7641C8.49505 15.9209 8.81864 16.1864 9.04632 16.5272C9.27399 16.8679 9.39551 17.2684 9.39551 17.6782C9.39551 18.2276 9.1773 18.7545 8.78887 19.143C8.40044 19.5315 7.8736 19.7499 7.32422 19.75ZM7.32422 14.5713C6.91445 14.5718 6.51375 14.4507 6.17281 14.2234C5.83187 13.9961 5.566 13.6728 5.40886 13.2943C5.25171 12.9159 5.21035 12.4994 5.28999 12.0974C5.36964 11.6955 5.56671 11.3262 5.85629 11.0362C6.14587 10.7463 6.51493 10.5488 6.91679 10.4687C7.31865 10.3886 7.73524 10.4294 8.11386 10.5861C8.49248 10.7428 8.81612 11.0083 9.04382 11.349C9.27153 11.6897 9.39307 12.0902 9.39307 12.5C9.39294 13.0489 9.17501 13.5753 8.78712 13.9636C8.39923 14.352 7.8731 14.5705 7.32422 14.5713ZM7.32422 9.39551C6.91431 9.39609 6.51345 9.27506 6.17235 9.04774C5.83126 8.82042 5.56525 8.49703 5.40801 8.11848C5.25077 7.73994 5.20935 7.32326 5.289 6.92117C5.36865 6.51907 5.56578 6.14965 5.85546 5.85963C6.14513 5.56961 6.51433 5.37204 6.91633 5.29192C7.31832 5.2118 7.73505 5.25272 8.11378 5.40952C8.49251 5.56632 8.81622 5.83193 9.04394 6.17276C9.27166 6.51359 9.39316 6.91431 9.39307 7.32422C9.39229 7.87267 9.17408 8.39844 8.78626 8.78626C8.39844 9.17408 7.87267 9.39229 7.32422 9.39307V9.39551ZM12.5 19.75C12.0902 19.7501 11.6896 19.6287 11.3488 19.4011C11.0081 19.1735 10.7425 18.85 10.5856 18.4714C10.4287 18.0928 10.3876 17.6763 10.4675 17.2743C10.5474 16.8724 10.7446 16.5032 11.0344 16.2134C11.3241 15.9236 11.6932 15.7263 12.0951 15.6463C12.497 15.5663 12.9136 15.6073 13.2922 15.7641C13.6708 15.9209 13.9944 16.1864 14.2221 16.5272C14.4498 16.8679 14.5713 17.2684 14.5713 17.6782C14.5713 18.2276 14.3531 18.7545 13.9647 19.143C13.5762 19.5315 13.0494 19.7499 12.5 19.75ZM12.5 9.39307C12.0901 9.39316 11.6894 9.27166 11.3485 9.04394C11.0077 8.81622 10.7421 8.49251 10.5853 8.11378C10.4285 7.73505 10.3876 7.31832 10.4677 6.91633C10.5478 6.51433 10.7454 6.14513 11.0354 5.85546C11.3254 5.56578 11.6949 5.36865 12.0969 5.289C12.499 5.20935 12.9157 5.25077 13.2943 5.40801C13.6728 5.56525 13.9962 5.83126 14.2235 6.17235C14.4508 6.51345 14.5719 6.91431 14.5713 7.32422C14.5706 7.87314 14.3521 8.39935 13.9638 8.78726C13.5754 9.17518 13.0489 9.39307 12.5 9.39307ZM17.6782 19.75C17.2685 19.75 16.8679 19.6285 16.5272 19.4008C16.1865 19.1732 15.921 18.8496 15.7642 18.4711C15.6073 18.0925 15.5663 17.6759 15.6463 17.274C15.7262 16.8722 15.9235 16.503 16.2133 16.2133C16.503 15.9235 16.8722 15.7262 17.274 15.6463C17.6759 15.5663 18.0925 15.6073 18.4711 15.7642C18.8496 15.921 19.1732 16.1865 19.4008 16.5272C19.6285 16.8679 19.75 17.2685 19.75 17.6782C19.75 18.2277 19.5317 18.7547 19.1432 19.1432C18.7547 19.5317 18.2277 19.75 17.6782 19.75ZM17.6782 14.5713C17.2686 14.5712 16.8682 14.4496 16.5276 14.222C16.1871 13.9943 15.9216 13.6708 15.7649 13.2923C15.6083 12.9138 15.5673 12.4974 15.6473 12.0956C15.7273 11.6939 15.9246 11.3248 16.2143 11.0352C16.504 10.7456 16.873 10.5484 17.2748 10.4685C17.6766 10.3886 18.093 10.4296 18.4715 10.5864C18.8499 10.7432 19.1734 11.0087 19.401 11.3493C19.6285 11.6899 19.75 12.0904 19.75 12.5C19.75 12.772 19.6964 13.0414 19.5923 13.2928C19.4882 13.5441 19.3355 13.7725 19.1432 13.9648C18.9508 14.1571 18.7224 14.3097 18.471 14.4138C18.2197 14.5178 17.9503 14.5714 17.6782 14.5713ZM17.6782 9.39551C17.2684 9.39551 16.8679 9.27399 16.5272 9.04632C16.1864 8.81864 15.9209 8.49505 15.7641 8.11645C15.6073 7.73786 15.5663 7.32127 15.6463 6.91937C15.7263 6.51747 15.9236 6.14831 16.2134 5.85859C16.5032 5.56887 16.8724 5.37159 17.2743 5.2917C17.6763 5.21182 18.0928 5.25292 18.4714 5.4098C18.85 5.56668 19.1735 5.8323 19.4011 6.17307C19.6287 6.51383 19.7501 6.91444 19.75 7.32422C19.7492 7.87318 19.5306 8.39939 19.1422 8.78729C18.7537 9.17519 18.2272 9.39307 17.6782 9.39307V9.39551Z" fill="#0A472E"/>
<path d="M10.4287 12.5C10.4287 12.0903 10.5502 11.6899 10.7778 11.3493C11.0054 11.0086 11.3289 10.7432 11.7074 10.5864C12.0858 10.4296 12.5023 10.3886 12.9041 10.4685C13.3059 10.5484 13.6749 10.7457 13.9646 11.0354C14.2543 11.3251 14.4516 11.6941 14.5315 12.0959C14.6114 12.4977 14.5704 12.9142 14.4136 13.2926C14.2569 13.6711 13.9914 13.9946 13.6507 14.2222C13.3101 14.4498 12.9097 14.5713 12.5 14.5713C11.9507 14.5713 11.4238 14.3531 11.0354 13.9646C10.6469 13.5762 10.4287 13.0493 10.4287 12.5Z" fill="#A8B324"/>
</svg>
