<svg width="20" height="20" viewBox="0 0 20 20" fill="none" xmlns="http://www.w3.org/2000/svg">
<path d="M18.8117 0.360859C18.735 0.249609 18.6324 0.158644 18.5128 0.0957863C18.3932 0.0329284 18.2601 5.76856e-05 18.125 0L9.16675 0C7.78843 0 6.66675 1.12168 6.66675 2.5V3.1491C6.69925 3.1784 6.73663 3.20082 6.76745 3.23258L10.1009 6.56586C10.5733 7.0375 10.8333 7.66586 10.8333 8.33328C10.8333 9.00086 10.5733 9.62922 10.1009 10.1009L6.76745 13.4341C6.73663 13.465 6.69925 13.4875 6.66675 13.5175V15C6.66675 16.3783 7.78843 17.5 9.16675 17.5H12.0833C12.4292 17.5 12.7392 17.2867 12.8617 16.9634L18.9034 1.13008C19.0016 0.87418 18.9667 0.586719 18.8117 0.360859Z" fill="#A0AD24"/>
<path d="M4.68078 12.4366C4.52867 12.3733 4.3987 12.2664 4.30722 12.1294C4.21574 11.9924 4.16685 11.8314 4.16672 11.6666V9.16664H0.833281C0.373398 9.16664 0 8.79324 0 8.3332C0 7.87332 0.373398 7.49992 0.833281 7.49992H4.16672V4.99992C4.16684 4.83518 4.21572 4.67416 4.3072 4.53715C4.39868 4.40013 4.52867 4.29326 4.68078 4.23C4.83309 4.16687 5.0007 4.15035 5.1624 4.18253C5.3241 4.21471 5.47261 4.29415 5.58914 4.41078L8.92242 7.74406C9.24836 8.07 9.24836 8.59656 8.92242 8.92235L5.58914 12.2558C5.4726 12.3724 5.32409 12.4518 5.16239 12.484C5.0007 12.5162 4.8331 12.4997 4.68078 12.4366Z" fill="#19512D"/>
<path d="M17.8025 0.0825619L12.7959 1.7517C12.1201 1.98502 11.6667 2.62084 11.6667 3.3333V18.3333C11.6667 19.2525 12.4141 20 13.3333 20C13.5117 20 13.6809 19.9742 13.8642 19.9175L18.8709 18.2483C19.5467 18.015 20 17.3792 20 16.6667V1.66674C20 0.569163 18.9325 -0.265016 17.8025 0.0825619Z" fill="#164F2D"/>
</svg>
