<svg width="20" height="20" viewBox="0 0 20 20" fill="none" xmlns="http://www.w3.org/2000/svg">
<path d="M7.14288 2.85714C7.14288 1.27929 8.42217 0 10 0C11.5779 0 12.8572 1.27929 12.8572 2.85714C12.8572 4.435 11.5779 5.71429 10 5.71429C8.42217 5.71429 7.14288 4.435 7.14288 2.85714Z" fill="white"/>
<path d="M7.14288 10C7.14288 8.42214 8.42217 7.14285 10 7.14285C11.5779 7.14285 12.8572 8.42214 12.8572 10C12.8572 11.5779 11.5779 12.8571 10 12.8571C8.42217 12.8571 7.14288 11.5779 7.14288 10Z" fill="white"/>
<path d="M7.14288 17.1428C7.14288 15.565 8.42217 14.2857 10 14.2857C11.5779 14.2857 12.8572 15.565 12.8572 17.1428C12.8572 18.7207 11.5779 20 10 20C8.42217 20 7.14288 18.7207 7.14288 17.1428Z" fill="white"/>
<path d="M0 2.85714C0 1.27929 1.27929 0 2.85714 0C4.435 0 5.71429 1.27929 5.71429 2.85714C5.71429 4.435 4.435 5.71429 2.85714 5.71429C1.27929 5.71429 0 4.435 0 2.85714Z" fill="white"/>
<path d="M0 10C0 8.42214 1.27929 7.14285 2.85714 7.14285C4.435 7.14285 5.71429 8.42214 5.71429 10C5.71429 11.5779 4.435 12.8571 2.85714 12.8571C1.27929 12.8571 0 11.5779 0 10Z" fill="white"/>
<path d="M0 17.1428C0 15.565 1.27929 14.2857 2.85714 14.2857C4.435 14.2857 5.71429 15.565 5.71429 17.1428C5.71429 18.7207 4.435 20 2.85714 20C1.27929 20 0 18.7207 0 17.1428Z" fill="white"/>
<path d="M14.2857 2.85714C14.2857 1.27929 15.565 0 17.1428 0C18.7207 0 20 1.27929 20 2.85714C20 4.435 18.7207 5.71429 17.1428 5.71429C15.565 5.71429 14.2857 4.435 14.2857 2.85714Z" fill="white"/>
<path d="M20 10C20 11.5779 18.7207 12.8571 17.1428 12.8571C15.565 12.8571 14.2857 11.5779 14.2857 10C14.2857 8.42214 15.565 7.14285 17.1428 7.14285C18.7207 7.14285 20 8.42214 20 10Z" fill="white"/>
<path d="M20 17.1428C20 18.7207 18.7207 20 17.1428 20C15.565 20 14.2857 18.7207 14.2857 17.1428C14.2857 15.565 15.565 14.2857 17.1428 14.2857C18.7207 14.2857 20 15.565 20 17.1428Z" fill="white"/>
</svg>
