<svg id="Layer_1" height="512" viewBox="0 0 512 512" width="512" xmlns="http://www.w3.org/2000/svg" xmlns:xlink="http://www.w3.org/1999/xlink" data-name="Layer 1"><linearGradient id="linear-gradient" gradientUnits="userSpaceOnUse" x1="229.333" x2="229.333" y1="255.429" y2="403.844"><stop offset="0" stop-color="#fed200"/><stop offset="1" stop-color="#f59815"/></linearGradient><linearGradient id="linear-gradient-2" gradientUnits="userSpaceOnUse" x1="229.333" x2="229.333" y1="258" y2="323.571"><stop offset="0" stop-color="#fd9b02"/><stop offset="1" stop-color="#ff7302"/></linearGradient><linearGradient id="linear-gradient-3" gradientUnits="userSpaceOnUse" x1="218.675" x2="218.675" y1="353.143" y2="486.863"><stop offset="0" stop-color="#f1d2bd"/><stop offset="1" stop-color="#feb592"/></linearGradient><linearGradient id="linear-gradient-4" gradientUnits="userSpaceOnUse" x1="53.333" x2="53.333" y1="346.393" y2="484.501"><stop offset="0" stop-color="#34ca82"/><stop offset="1" stop-color="#37a477"/></linearGradient><linearGradient id="linear-gradient-5" x1="303.058" x2="303.058" xlink:href="#linear-gradient-3" y1="18.857" y2="174.514"/><linearGradient id="linear-gradient-6" x1="115.245" x2="386.209" xlink:href="#linear-gradient-4" y1="103.647" y2="227.075"/><linearGradient id="linear-gradient-7" gradientUnits="userSpaceOnUse" x1="105.97" x2="361.506" y1="133.967" y2="263.181"><stop offset="0" stop-color="#37aa79"/><stop offset="1" stop-color="#398a70"/></linearGradient><linearGradient id="linear-gradient-8" x1="139.636" x2="395.172" xlink:href="#linear-gradient-7" y1="67.388" y2="196.603"/><linearGradient id="linear-gradient-9" x1="124.199" x2="377.807" xlink:href="#linear-gradient-7" y1="98.974" y2="232.046"/><linearGradient id="linear-gradient-10" x1="337.36" x2="337.36" xlink:href="#linear-gradient-3" y1="18.857" y2="174.514"/><linearGradient id="linear-gradient-11" x1="458.667" x2="458.667" xlink:href="#linear-gradient-4" y1="26.25" y2="176.691"/><path d="m320 256h-181.333a21.356 21.356 0 0 0 -21.334 21.333v149.334a10.667 10.667 0 0 0 10.667 10.666h202.667a10.667 10.667 0 0 0 10.666-10.666v-149.334a21.355 21.355 0 0 0 -21.333-21.333z" fill="url(#linear-gradient)"/><path d="m202.667 256v58.658a5.333 5.333 0 0 0 8.077 4.574l18.589-11.154 18.59 11.154a5.333 5.333 0 0 0 8.077-4.574v-58.658z" fill="url(#linear-gradient-2)"/><path d="m371.458 406.583a29.514 29.514 0 0 0 -31.812-18.75l-77.287 11.456a28.893 28.893 0 0 0 -19.291-26.924l-66.417-21.765a59.522 59.522 0 0 0 -37.141.1l-68.218 22.766a10.666 10.666 0 0 0 -7.292 10.117v79.081a10.669 10.669 0 0 0 12.427 10.521l50.089-8.391a17.592 17.592 0 0 1 10.781 1.623l32.734 16.367a74.2 74.2 0 0 0 57.011 4.052l126.2-42.068a29.381 29.381 0 0 0 18.218-38.185z" fill="url(#linear-gradient-3)"/><rect fill="url(#linear-gradient-4)" height="138.667" rx="21.333" width="64" x="21.333" y="346.667"/><path d="m439.651 53.862-137.292-30.531a74.543 74.543 0 0 0 -50.213 5.729l-41.563 19.055a75.136 75.136 0 0 0 -25.083 20.362l-25.068 31.554a10.669 10.669 0 0 0 8.354 17.3h268.547a10.667 10.667 0 0 0 10.667-10.664v-42.394a10.665 10.665 0 0 0 -8.349-10.411z" fill="url(#linear-gradient-5)"/><rect fill="url(#linear-gradient-6)" height="138.667" rx="21.333" width="266.667" x="117.333" y="96"/><path d="m181.333 208h-26.666a10.667 10.667 0 0 1 -10.667-10.667v-64a10.667 10.667 0 0 1 10.667-10.666h26.666a10.667 10.667 0 1 1 0 21.333h-16v42.667h16a10.667 10.667 0 1 1 0 21.333z" fill="url(#linear-gradient-7)"/><path d="m320 208h26.667a10.667 10.667 0 0 0 10.666-10.667v-64a10.667 10.667 0 0 0 -10.666-10.666h-26.667a10.667 10.667 0 1 0 0 21.333h16v42.667h-16a10.667 10.667 0 1 0 0 21.333z" fill="url(#linear-gradient-8)"/><circle cx="250.667" cy="165.333" fill="url(#linear-gradient-9)" r="42.667"/><path d="m437.333 74.667h-80a10.676 10.676 0 0 0 -10.026 7.021l-7.682 21.13a32.13 32.13 0 0 1 -24.172 20.515l-70.3 13.18a22.6 22.6 0 0 0 4.167 44.82h110.352a74.161 74.161 0 0 0 30.484-6.507l51.526-23a10.664 10.664 0 0 0 6.318-9.74v-56.753a10.667 10.667 0 0 0 -10.667-10.666z" fill="url(#linear-gradient-10)"/><rect fill="url(#linear-gradient-11)" height="138.667" rx="21.333" width="64" x="426.667" y="32"/></svg>