<svg width="147" height="40" viewBox="0 0 147 40" fill="none" xmlns="http://www.w3.org/2000/svg">
<rect x="0.5" y="0.5" width="146" height="39" rx="19.5" fill="#FFD8D8"/>
<rect x="0.5" y="0.5" width="146" height="39" rx="19.5" stroke="#FA3532"/>
<path d="M29.9998 28.3332C34.5832 28.3332 38.3332 24.5832 38.3332 19.9998C38.3332 15.4165 34.5832 11.6665 29.9998 11.6665C25.4165 11.6665 21.6665 15.4165 21.6665 19.9998C21.6665 24.5832 25.4165 28.3332 29.9998 28.3332Z" stroke="#FA3532" stroke-linecap="round" stroke-linejoin="round"/>
<path d="M27.6416 22.3583L32.3583 17.6416" stroke="#FA3532" stroke-linecap="round" stroke-linejoin="round"/>
<path d="M32.3583 22.3583L27.6416 17.6416" stroke="#FA3532" stroke-linecap="round" stroke-linejoin="round"/>
<path d="M52.8671 25.168C51.9337 25.168 51.1031 24.9533 50.3751 24.524C49.6471 24.0853 49.0777 23.488 48.6671 22.732C48.2564 21.9667 48.0511 21.0893 48.0511 20.1C48.0511 19.1107 48.2564 18.238 48.6671 17.482C49.0777 16.7167 49.6424 16.1193 50.3611 15.69C51.0797 15.2513 51.9057 15.032 52.8391 15.032C53.4457 15.032 54.0244 15.144 54.5751 15.368C55.1257 15.5827 55.6157 15.886 56.0451 16.278C56.4837 16.6607 56.8197 17.1087 57.0531 17.622L55.8211 18.182C55.6437 17.7993 55.4011 17.468 55.0931 17.188C54.7851 16.908 54.4351 16.6887 54.0431 16.53C53.6604 16.3713 53.2591 16.292 52.8391 16.292C52.1857 16.292 51.6024 16.4553 51.0891 16.782C50.5757 17.1087 50.1744 17.5567 49.8851 18.126C49.5957 18.6953 49.4511 19.3533 49.4511 20.1C49.4511 20.8467 49.5957 21.5093 49.8851 22.088C50.1837 22.6667 50.5897 23.1193 51.1031 23.446C51.6257 23.7633 52.2184 23.922 52.8811 23.922C53.3104 23.922 53.7164 23.838 54.0991 23.67C54.4817 23.4927 54.8224 23.2547 55.1211 22.956C55.4291 22.648 55.6764 22.298 55.8631 21.906L57.0951 22.452C56.8617 22.984 56.5304 23.4553 56.1011 23.866C55.6717 24.2767 55.1771 24.5987 54.6171 24.832C54.0664 25.056 53.4831 25.168 52.8671 25.168ZM62.3666 25L62.3106 23.782V21.346C62.3106 20.8327 62.2499 20.4033 62.1286 20.058C62.0166 19.7127 61.8393 19.4513 61.5966 19.274C61.3633 19.0967 61.0506 19.008 60.6586 19.008C60.2946 19.008 59.9773 19.0827 59.7066 19.232C59.4453 19.3813 59.2259 19.6147 59.0486 19.932L57.8726 19.484C58.0406 19.1667 58.2506 18.8867 58.5026 18.644C58.7546 18.392 59.0579 18.196 59.4126 18.056C59.7673 17.9067 60.1826 17.832 60.6586 17.832C61.3213 17.832 61.8719 17.9627 62.3106 18.224C62.7493 18.4853 63.0759 18.8633 63.2906 19.358C63.5146 19.8527 63.6219 20.464 63.6126 21.192L63.5986 25H62.3666ZM60.3086 25.168C59.4779 25.168 58.8293 24.9813 58.3626 24.608C57.9053 24.2253 57.6766 23.698 57.6766 23.026C57.6766 22.3073 57.9146 21.7613 58.3906 21.388C58.8759 21.0053 59.5479 20.814 60.4066 20.814H62.3526V21.864H60.7706C60.1266 21.864 59.6739 21.9667 59.4126 22.172C59.1513 22.368 59.0206 22.6433 59.0206 22.998C59.0206 23.3247 59.1419 23.5813 59.3846 23.768C59.6366 23.9453 59.9819 24.034 60.4206 24.034C60.8033 24.034 61.1346 23.9547 61.4146 23.796C61.6946 23.628 61.9139 23.3947 62.0726 23.096C62.2313 22.7973 62.3106 22.4567 62.3106 22.074H62.7726C62.7726 23.026 62.5673 23.782 62.1566 24.342C61.7553 24.8927 61.1393 25.168 60.3086 25.168ZM64.8793 25V18H66.1253L66.2093 19.288V25H64.8793ZM69.7233 25V21.416H71.0533V25H69.7233ZM69.7233 21.416C69.7233 20.7813 69.6487 20.3007 69.4993 19.974C69.3593 19.638 69.1587 19.4047 68.8973 19.274C68.6453 19.1433 68.3513 19.0733 68.0153 19.064C67.446 19.064 67.0027 19.2647 66.6853 19.666C66.368 20.0673 66.2093 20.632 66.2093 21.36H65.6353C65.6353 20.6227 65.7427 19.9927 65.9573 19.47C66.1813 18.938 66.494 18.532 66.8953 18.252C67.306 17.972 67.7913 17.832 68.3513 17.832C68.902 17.832 69.378 17.944 69.7793 18.168C70.19 18.392 70.5027 18.742 70.7173 19.218C70.9413 19.6847 71.0533 20.3007 71.0533 21.066V21.416H69.7233ZM75.511 25.168C74.811 25.168 74.1903 25.014 73.649 24.706C73.1077 24.3887 72.683 23.9547 72.375 23.404C72.0763 22.8533 71.927 22.2187 71.927 21.5C71.927 20.7813 72.0763 20.1467 72.375 19.596C72.683 19.0453 73.103 18.616 73.635 18.308C74.1763 17.9907 74.7923 17.832 75.483 17.832C76.1643 17.832 76.7757 17.9907 77.317 18.308C77.8677 18.6253 78.2783 19.078 78.549 19.666L77.345 20.17C77.1677 19.8247 76.911 19.554 76.575 19.358C76.2483 19.162 75.8703 19.064 75.441 19.064C75.021 19.064 74.6477 19.1667 74.321 19.372C73.9943 19.5773 73.7377 19.8667 73.551 20.24C73.3643 20.604 73.271 21.024 73.271 21.5C73.271 21.976 73.3643 22.396 73.551 22.76C73.7377 23.124 73.999 23.4133 74.335 23.628C74.671 23.8333 75.049 23.936 75.469 23.936C75.8983 23.936 76.281 23.8287 76.617 23.614C76.953 23.39 77.205 23.0913 77.373 22.718L78.591 23.208C78.3203 23.824 77.9097 24.3047 77.359 24.65C76.8177 24.9953 76.2017 25.168 75.511 25.168ZM82.5929 25.168C81.9116 25.168 81.3096 25.014 80.7869 24.706C80.2642 24.3887 79.8536 23.9547 79.5549 23.404C79.2562 22.8533 79.1069 22.2187 79.1069 21.5C79.1069 20.7813 79.2562 20.1467 79.5549 19.596C79.8536 19.0453 80.2642 18.616 80.7869 18.308C81.3189 17.9907 81.9256 17.832 82.6069 17.832C83.2509 17.832 83.8156 17.9953 84.3009 18.322C84.7862 18.6393 85.1642 19.0967 85.4349 19.694C85.7149 20.282 85.8549 20.9773 85.8549 21.78H80.1989L80.4509 21.57C80.4509 22.0647 80.5489 22.494 80.7449 22.858C80.9409 23.222 81.2069 23.502 81.5429 23.698C81.8789 23.8847 82.2616 23.978 82.6909 23.978C83.1576 23.978 83.5449 23.8707 83.8529 23.656C84.1702 23.432 84.4176 23.152 84.5949 22.816L85.7429 23.348C85.5562 23.712 85.3136 24.034 85.0149 24.314C84.7162 24.5847 84.3616 24.7947 83.9509 24.944C83.5496 25.0933 83.0969 25.168 82.5929 25.168ZM80.5349 20.94L80.2689 20.73H84.6929L84.4409 20.94C84.4409 20.5293 84.3569 20.1793 84.1889 19.89C84.0209 19.5913 83.7969 19.3673 83.5169 19.218C83.2369 19.0593 82.9242 18.98 82.5789 18.98C82.2429 18.98 81.9162 19.0593 81.5989 19.218C81.2909 19.3673 81.0342 19.5867 80.8289 19.876C80.6329 20.1653 80.5349 20.52 80.5349 20.94ZM86.7608 25V15.2H88.0908V25H86.7608ZM97.0987 25.168C96.1467 25.168 95.302 24.9533 94.5647 24.524C93.8273 24.0947 93.2487 23.4973 92.8287 22.732C92.418 21.9667 92.2127 21.0893 92.2127 20.1C92.2127 19.1107 92.418 18.238 92.8287 17.482C93.2487 16.7167 93.8227 16.1193 94.5507 15.69C95.2787 15.2513 96.1187 15.032 97.0707 15.032C98.0227 15.032 98.8627 15.2513 99.5907 15.69C100.319 16.1193 100.888 16.7167 101.299 17.482C101.709 18.238 101.915 19.1107 101.915 20.1C101.915 21.0893 101.709 21.9667 101.299 22.732C100.888 23.4973 100.319 24.0947 99.5907 24.524C98.872 24.9533 98.0413 25.168 97.0987 25.168ZM97.0987 23.908C97.7707 23.908 98.3633 23.7447 98.8767 23.418C99.39 23.0913 99.7913 22.6433 100.081 22.074C100.37 21.5047 100.515 20.8467 100.515 20.1C100.515 19.3627 100.365 18.7093 100.067 18.14C99.7773 17.5613 99.3713 17.1087 98.8487 16.782C98.3353 16.4553 97.7427 16.292 97.0707 16.292C96.3987 16.292 95.8013 16.4553 95.2787 16.782C94.756 17.1087 94.3453 17.5613 94.0467 18.14C93.7573 18.7093 93.6127 19.3627 93.6127 20.1C93.6127 20.8467 93.762 21.5047 94.0607 22.074C94.3593 22.6433 94.77 23.0913 95.2927 23.418C95.8247 23.7447 96.4267 23.908 97.0987 23.908ZM103.849 21.234C103.849 20.478 103.993 19.862 104.283 19.386C104.572 18.91 104.945 18.5553 105.403 18.322C105.86 18.0887 106.341 17.972 106.845 17.972V19.232C106.425 19.232 106.023 19.2973 105.641 19.428C105.267 19.5493 104.959 19.7547 104.717 20.044C104.483 20.324 104.367 20.7067 104.367 21.192L103.849 21.234ZM103.037 25V18H104.367V25H103.037ZM112.634 25L112.578 23.698V15.2H113.894V25H112.634ZM110.282 25.168C109.647 25.168 109.092 25.014 108.616 24.706C108.149 24.398 107.78 23.9687 107.51 23.418C107.248 22.8673 107.118 22.228 107.118 21.5C107.118 20.7627 107.248 20.1233 107.51 19.582C107.78 19.0313 108.149 18.602 108.616 18.294C109.092 17.986 109.647 17.832 110.282 17.832C110.87 17.832 111.378 17.986 111.808 18.294C112.246 18.602 112.582 19.0313 112.816 19.582C113.049 20.1233 113.166 20.7627 113.166 21.5C113.166 22.228 113.049 22.8673 112.816 23.418C112.582 23.9687 112.246 24.398 111.808 24.706C111.378 25.014 110.87 25.168 110.282 25.168ZM110.59 23.964C110.982 23.964 111.327 23.8613 111.626 23.656C111.924 23.4413 112.158 23.152 112.326 22.788C112.494 22.4147 112.578 21.9853 112.578 21.5C112.578 21.0147 112.494 20.59 112.326 20.226C112.158 19.8527 111.924 19.5633 111.626 19.358C111.327 19.1433 110.977 19.036 110.576 19.036C110.165 19.036 109.801 19.1433 109.484 19.358C109.166 19.5633 108.919 19.8527 108.742 20.226C108.564 20.59 108.476 21.0147 108.476 21.5C108.476 21.9853 108.564 22.4147 108.742 22.788C108.928 23.152 109.18 23.4413 109.498 23.656C109.815 23.8613 110.179 23.964 110.59 23.964ZM118.426 25.168C117.745 25.168 117.143 25.014 116.62 24.706C116.097 24.3887 115.687 23.9547 115.388 23.404C115.089 22.8533 114.94 22.2187 114.94 21.5C114.94 20.7813 115.089 20.1467 115.388 19.596C115.687 19.0453 116.097 18.616 116.62 18.308C117.152 17.9907 117.759 17.832 118.44 17.832C119.084 17.832 119.649 17.9953 120.134 18.322C120.619 18.6393 120.997 19.0967 121.268 19.694C121.548 20.282 121.688 20.9773 121.688 21.78H116.032L116.284 21.57C116.284 22.0647 116.382 22.494 116.578 22.858C116.774 23.222 117.04 23.502 117.376 23.698C117.712 23.8847 118.095 23.978 118.524 23.978C118.991 23.978 119.378 23.8707 119.686 23.656C120.003 23.432 120.251 23.152 120.428 22.816L121.576 23.348C121.389 23.712 121.147 24.034 120.848 24.314C120.549 24.5847 120.195 24.7947 119.784 24.944C119.383 25.0933 118.93 25.168 118.426 25.168ZM116.368 20.94L116.102 20.73H120.526L120.274 20.94C120.274 20.5293 120.19 20.1793 120.022 19.89C119.854 19.5913 119.63 19.3673 119.35 19.218C119.07 19.0593 118.757 18.98 118.412 18.98C118.076 18.98 117.749 19.0593 117.432 19.218C117.124 19.3673 116.867 19.5867 116.662 19.876C116.466 20.1653 116.368 20.52 116.368 20.94ZM123.406 21.234C123.406 20.478 123.551 19.862 123.84 19.386C124.129 18.91 124.503 18.5553 124.96 18.322C125.417 18.0887 125.898 17.972 126.402 17.972V19.232C125.982 19.232 125.581 19.2973 125.198 19.428C124.825 19.5493 124.517 19.7547 124.274 20.044C124.041 20.324 123.924 20.7067 123.924 21.192L123.406 21.234ZM122.594 25V18H123.924V25H122.594Z" fill="#FA3532"/>
</svg>
