<svg xmlns="http://www.w3.org/2000/svg" width="7.806" height="9.356" viewBox="0 0 7.806 9.356"><defs><style>.a{fill:#79b553;}</style></defs><path class="a" d="M89.285,4.507a2.18,2.18,0,0,0,1.593-.66,2.18,2.18,0,0,0,.66-1.593A2.181,2.181,0,0,0,90.878.66a2.253,2.253,0,0,0-3.187,0,2.181,2.181,0,0,0-.66,1.593,2.18,2.18,0,0,0,.66,1.593A2.181,2.181,0,0,0,89.285,4.507Zm0,0" transform="translate(-85.441 0)"/><path class="a" d="M7.787,249.991a5.572,5.572,0,0,0-.076-.591,4.671,4.671,0,0,0-.145-.594,2.929,2.929,0,0,0-.244-.555,2.1,2.1,0,0,0-.368-.48,1.63,1.63,0,0,0-.529-.333,1.832,1.832,0,0,0-.676-.122.688.688,0,0,0-.366.155L5,247.718a2.174,2.174,0,0,1-.494.217,1.919,1.919,0,0,1-1.208,0,2.172,2.172,0,0,1-.493-.217c-.142-.09-.27-.173-.382-.246a.683.683,0,0,0-.366-.155,1.827,1.827,0,0,0-.676.122,1.622,1.622,0,0,0-.529.333,2.087,2.087,0,0,0-.368.48,2.939,2.939,0,0,0-.244.555,4.683,4.683,0,0,0-.145.594,5.549,5.549,0,0,0-.076.592c-.012.179-.019.365-.019.552a1.554,1.554,0,0,0,.461,1.176,1.662,1.662,0,0,0,1.189.434h4.5a1.66,1.66,0,0,0,1.189-.434,1.553,1.553,0,0,0,.461-1.176c0-.188-.006-.374-.019-.553Zm0,0" transform="translate(0 -242.797)"/></svg>