<svg width="156" height="60" viewBox="0 0 156 60" fill="none" xmlns="http://www.w3.org/2000/svg">
<g clip-path="url(#clip0_1662_23554)">
<path d="M19.1315 27.0406C19.0739 27.0995 19.031 27.1572 19.0036 27.2138C18.9452 27.3589 18.9023 27.4948 18.8729 27.6244C18.844 27.753 18.7871 27.8896 18.7008 28.0348C18.068 29.1555 17.2843 30.3638 16.3501 31.657C15.4146 32.9515 14.3874 34.2535 13.2652 35.5611C12.1439 36.8688 10.9858 38.1419 9.79367 39.3773C8.60029 40.6146 7.42724 41.7216 6.27843 42.6991C6.16278 42.6428 6.06226 42.598 5.97645 42.5703C5.89107 42.5421 5.7891 42.4987 5.67366 42.441C5.96113 41.2614 6.25729 40.0981 6.55864 38.9466C6.8606 37.7971 7.16899 36.7186 7.48569 35.7123C7.80112 34.7062 8.11698 33.7923 8.4349 32.9731C8.75013 32.153 9.06578 31.485 9.3835 30.9677C9.44113 30.8234 9.51283 30.7009 9.59926 30.6C9.68486 30.4993 9.78599 30.3768 9.90205 30.234C9.95926 30.1762 9.98744 30.1043 9.98744 30.0176C9.98744 29.8448 9.82973 29.6587 9.51283 29.4571C9.19635 29.2564 8.83718 29.0688 8.4349 28.8963C8.03159 28.7243 7.61459 28.5731 7.18433 28.4433C6.75201 28.3149 6.43593 28.2499 6.2347 28.2499C5.91863 28.2499 5.55139 28.7243 5.13459 29.673C4.71843 30.6218 4.27884 31.8512 3.81894 33.3613C3.35946 34.8705 2.90661 36.5745 2.45999 38.472C2.01439 40.3692 1.6119 42.2822 1.25335 44.209C0.892106 46.1365 0.605682 47.9758 0.390759 49.7306C0.175008 51.4849 0.0664062 52.966 0.0664062 54.1737C0.0664062 54.4042 0.166925 54.6338 0.368376 54.8644C0.56962 55.0936 0.814179 55.2941 1.10247 55.4672C1.38889 55.6396 1.69791 55.784 2.02931 55.8984C2.35967 56.0131 2.65438 56.0711 2.91387 56.0711C3.25915 56.0711 3.43118 55.8984 3.43118 55.5537C3.43118 54.6913 3.56713 53.382 3.84092 51.6293C4.11407 49.8745 4.46619 47.9615 4.89687 45.891C5.12797 46.0067 5.3147 46.0786 5.45832 46.1076C5.60277 46.3381 5.75304 46.5599 5.91139 46.7753C6.06869 46.9911 6.21978 47.2143 6.36423 47.4442C7.48569 48.9967 8.65729 50.5432 9.87987 52.0814C11.1016 53.6203 12.2451 54.9851 13.3085 56.1793C14.3719 57.3714 15.307 58.3214 16.1129 59.0265C16.9171 59.7302 17.4503 60.0098 17.708 59.8674C17.8812 59.7807 18.1258 59.5929 18.4422 59.3062C18.7582 59.0178 19.0607 58.7094 19.3474 58.3793C19.6348 58.0477 19.8722 57.732 20.06 57.4295C20.2464 57.128 20.3113 56.9048 20.2527 56.7617C20.1954 56.6736 20.1382 56.6315 20.0807 56.6315C19.9364 56.5743 19.8077 56.5095 19.6938 56.4375C19.578 56.3651 19.448 56.2863 19.3052 56.1997C18.4422 55.5681 17.5499 54.8138 16.6297 53.9362C15.7101 53.0592 14.7903 52.1103 13.8699 51.0896C12.9487 50.0688 12.0434 49.004 11.1522 47.8964C10.2604 46.7901 9.41148 45.6764 8.60672 44.5536C9.12527 44.1526 9.63532 43.7284 10.1377 43.2815C10.6413 42.8362 11.1367 42.3832 11.6262 41.9231C13.0355 40.6284 14.4305 39.2848 15.8107 37.8896C17.1907 36.4964 18.4056 35.1947 19.4552 33.9855C20.505 32.7785 21.3251 31.7365 21.9142 30.8585C22.5027 29.9818 22.7123 29.415 22.5402 29.1555C22.4245 28.9824 22.208 28.7602 21.8929 28.4867C21.5757 28.2139 21.2384 27.9544 20.8784 27.7109C20.5195 27.4657 20.1742 27.2724 19.8447 27.1283C19.6367 27.038 19.466 26.993 19.3319 26.993C19.2522 26.993 19.1853 27.0089 19.1315 27.0406Z" fill="url(#paint0_radial_1662_23554)"/>
<path d="M23.2273 38.9461C22.1629 39.5224 21.2206 40.3772 20.4021 41.5135C19.5818 42.6493 18.8986 43.8992 18.3527 45.2649C17.806 46.6315 17.426 48.0333 17.2093 49.4701C16.994 50.9092 16.958 52.2182 17.1024 53.396C17.1882 54.1732 17.4689 54.8133 17.9433 55.3156C18.418 55.8196 19.0864 56.0706 19.9488 56.0706C20.9259 56.0706 21.8177 55.5892 22.6235 54.6263C23.4269 53.6625 24.1472 52.5196 24.7796 51.196C24.7796 51.341 24.7643 51.441 24.736 51.4976C24.679 51.7856 24.6442 52.0589 24.6291 52.3181C24.6139 52.5776 24.5778 52.8499 24.5215 53.1379C24.492 53.4824 24.5273 53.8273 24.6291 54.1732C24.7287 54.5179 24.8879 54.8347 25.1037 55.1204C25.3189 55.4089 25.5782 55.6391 25.8796 55.8112C26.1816 55.9837 26.5196 56.0706 26.8939 56.0706C27.4979 56.0706 28.1007 55.8256 28.7051 55.338C29.3088 54.8481 29.8914 54.2238 30.4522 53.4609C31.0134 52.6994 31.5443 51.8433 32.048 50.8946C32.5503 49.9449 33.0181 49.0035 33.45 48.0693C33.8806 47.1345 34.2479 46.2654 34.5499 45.4602C34.8518 44.6549 35.1033 44.0089 35.3041 43.5191C35.3627 43.3458 35.3545 43.1882 35.2825 43.0446C35.2116 42.9 35.1033 42.7997 34.9594 42.7432C34.8151 42.6841 34.6721 42.6841 34.5282 42.7432C34.3852 42.7997 34.2692 42.9146 34.1828 43.0864C33.896 43.8354 33.5719 44.6838 33.2121 45.6323C32.8528 46.5808 32.4434 47.5455 31.9836 48.5216C31.5235 49.5003 31.0134 50.4418 30.4522 51.3477C29.8914 52.253 29.2794 53.0369 28.6191 53.6986C28.4464 53.8704 28.2877 53.9428 28.1452 53.9139C27.9997 53.8864 27.9565 53.713 28.0143 53.396C28.159 52.6206 28.3314 51.7351 28.5327 50.7432C28.7333 49.7512 28.9637 48.7239 29.223 47.6596C29.481 46.5954 29.7689 45.5311 30.0858 44.4662C30.4017 43.4036 30.7323 42.3973 31.0783 41.4486C31.1641 41.2181 31.2785 40.9811 31.4225 40.7366C31.5661 40.4925 31.5235 40.2833 31.2938 40.1106C31.1492 39.9964 30.9694 39.867 30.7542 39.7226C30.5386 39.5789 30.3011 39.4416 30.0425 39.3135C29.7838 39.1837 29.5171 39.0752 29.2441 38.989C28.9702 38.9027 28.7333 38.8595 28.5327 38.8595C28.2732 38.8595 28.0578 39.0479 27.8856 39.4215C27.857 39.508 27.8282 39.6089 27.7992 39.7226C27.7696 39.8381 27.727 39.9246 27.6701 39.9821C27.2668 39.7805 26.8786 39.5789 26.5056 39.3768C26.131 39.1766 25.757 39.0107 25.3842 38.8825C25.0096 38.7522 24.6442 38.6806 24.2837 38.6661C24.2601 38.665 24.2365 38.6646 24.2128 38.6646C23.8777 38.6646 23.5494 38.7595 23.2273 38.9461ZM20.8116 53.568C20.7247 53.3959 20.6672 53.2016 20.6396 52.9871C20.6108 52.7703 20.6023 52.5483 20.6172 52.3181C20.6321 52.0882 20.6396 51.9155 20.6396 51.7999C20.6968 50.8801 20.8758 49.7801 21.178 48.5C21.48 47.2209 21.875 45.9987 22.3648 44.8341C22.8527 43.6702 23.4218 42.6841 24.0677 41.88C24.7143 41.075 25.4116 40.6713 26.1594 40.6713C26.62 40.6713 26.9647 40.8591 27.1959 41.2327C27.1087 41.4039 27.0294 41.5843 26.9584 41.7718C26.8858 41.9586 26.8211 42.1536 26.7642 42.3541C26.6483 42.6985 26.4835 43.2171 26.2682 43.9065C26.0525 44.5971 25.7938 45.3671 25.4918 46.2146C25.189 47.063 24.866 47.9392 24.5215 48.8457C24.1761 49.7512 23.8092 50.5705 23.4218 51.3042C23.0332 52.0368 22.6516 52.641 22.2782 53.1165C21.9041 53.591 21.5442 53.8273 21.2002 53.8273C21.0279 53.8273 20.8974 53.7404 20.8116 53.568Z" fill="url(#paint1_radial_1662_23554)"/>
<path d="M42.0755 39.1619C41.5582 39.5943 41.0331 40.1539 40.5014 40.8431C39.9693 41.5337 39.4452 42.296 38.9271 43.131C38.4098 43.964 37.9134 44.8267 37.4394 45.7188C36.9656 46.6098 36.5401 47.4723 36.1664 48.3067C36.4532 47.1283 36.7776 45.9481 37.1369 44.7692C37.4966 43.5907 37.8775 42.4838 38.2811 41.4485C38.3673 41.218 38.4814 40.981 38.6251 40.7365C38.769 40.4924 38.7264 40.2832 38.4963 40.1105C38.3518 39.9963 38.1723 39.8669 37.9567 39.7225C37.7415 39.5788 37.4966 39.4415 37.222 39.3134C36.9505 39.1836 36.6771 39.0751 36.4041 38.9889C36.1304 38.9026 35.8929 38.8594 35.6925 38.8594C35.4342 38.8594 35.2326 39.0478 35.0885 39.4214C34.6277 40.4551 34.2035 41.5842 33.8162 42.8069C33.4284 44.029 33.0758 45.2805 32.759 46.5593C32.4415 47.8379 32.1699 49.1181 31.9396 50.3983C31.7092 51.6785 31.5513 52.8784 31.4648 53.9996C31.4648 54.2309 31.5581 54.4684 31.7451 54.7121C31.9315 54.9562 32.1623 55.1795 32.4348 55.3796C32.7082 55.5818 33.0029 55.746 33.3194 55.8773C33.6353 56.0052 33.9233 56.0705 34.1823 56.0705C34.3249 56.0705 34.4485 56.0489 34.5488 56.0052C34.6492 55.9629 34.7008 55.8255 34.7008 55.5966C34.7282 55.1072 34.8503 54.4902 35.0661 53.7403C35.2823 52.9928 35.5626 52.182 35.9073 51.3041C36.2527 50.4273 36.641 49.5134 37.0724 48.5648C37.5039 47.616 37.9633 46.6964 38.4519 45.8045C38.9409 44.9128 39.4363 44.0868 39.9407 43.3239C40.4429 42.5626 40.9405 41.9225 41.4295 41.4038C41.1126 42.3248 40.8042 43.3095 40.5014 44.3592C40.2003 45.4092 39.9192 46.4811 39.6612 47.5729C39.4019 48.666 39.1784 49.7446 38.9916 50.8079C38.8046 51.8722 38.6535 52.8641 38.5392 53.7838C38.4814 54.359 38.6966 54.884 39.1865 55.358C39.6746 55.8325 40.292 56.0705 41.0404 56.0705C41.6456 56.0705 42.2554 55.8255 42.8746 55.3379C43.4922 54.848 44.0877 54.2237 44.6641 53.4608C45.239 52.6993 45.7856 51.8432 46.3029 50.8945C46.8214 49.9448 47.2954 49.0034 47.7267 48.0692C48.1591 47.1344 48.5316 46.2653 48.8485 45.4602C49.1644 44.6548 49.4238 44.0088 49.6245 43.519C49.6815 43.3457 49.6741 43.1881 49.6027 43.0445C49.5306 42.8999 49.4238 42.7996 49.2792 42.7431C49.1356 42.684 48.9917 42.684 48.8485 42.7431C48.7037 42.7996 48.5886 42.9145 48.5033 43.0863C48.2151 43.8353 47.8775 44.6837 47.4889 45.6322C47.1012 46.5807 46.6694 47.5454 46.1955 48.5216C45.7212 49.5002 45.1957 50.4417 44.6212 51.3476C44.0448 52.2529 43.4268 53.0368 42.7658 53.6985C42.5358 53.9296 42.3629 54.0143 42.2487 53.9573C42.1335 53.9007 42.1044 53.713 42.1623 53.3959C42.2779 52.6494 42.4427 51.8073 42.6584 50.8727C42.8746 49.9389 43.1111 48.9686 43.3702 47.9609C43.6287 46.9556 43.9092 45.9422 44.2113 44.92C44.5131 43.8991 44.8374 42.9288 45.1815 42.0077C45.268 41.8075 45.3455 41.6197 45.419 41.4485C45.4909 41.2751 45.5701 41.1024 45.6556 40.9298C45.7427 40.7579 45.7856 40.6003 45.7856 40.4551C45.7856 40.2549 45.662 40.0614 45.419 39.8742C45.1733 39.6865 44.8868 39.5138 44.5557 39.3565C44.2251 39.1979 43.9012 39.0751 43.5855 38.9889C43.2688 38.9026 43.0386 38.8594 42.8956 38.8594C42.5502 38.8594 42.2779 38.9615 42.0755 39.1619Z" fill="url(#paint2_radial_1662_23554)"/>
<path d="M51.9981 38.9461C50.9331 39.5224 49.9903 40.3772 49.1719 41.5135C48.3515 42.6493 47.6676 43.8992 47.1228 45.2649C46.5767 46.6315 46.1957 48.0333 45.9792 49.4701C45.7634 50.9092 45.7277 52.2182 45.8716 53.396C45.9582 54.1732 46.2386 54.8133 46.7132 55.3156C47.1879 55.8196 47.8563 56.0706 48.719 56.0706C49.6964 56.0706 50.5871 55.5892 51.3922 54.6263C52.198 53.6625 52.9169 52.5196 53.5493 51.196C53.5493 51.341 53.5344 51.441 53.5059 51.4976C53.449 51.7856 53.4133 52.0589 53.399 52.3181C53.3837 52.5776 53.3477 52.8499 53.2919 53.1379C53.2619 53.4824 53.2979 53.8273 53.399 54.1732C53.4978 54.5179 53.6573 54.8347 53.8728 55.1204C54.089 55.4089 54.3484 55.6391 54.6493 55.8112C54.9514 55.9837 55.289 56.0706 55.6639 56.0706C56.2678 56.0706 56.8703 55.8256 57.4749 55.338C58.0787 54.8481 58.6614 54.2238 59.2224 53.4609C59.7826 52.6994 60.314 51.8433 60.8177 50.8946C61.3201 49.9449 61.7889 49.0035 62.2199 48.0693C62.6506 47.1345 63.0182 46.2654 63.3196 45.4602C63.621 44.6549 63.873 44.0089 64.0738 43.5191C64.1324 43.3458 64.1244 43.1882 64.0522 43.0446C63.9817 42.9 63.873 42.7997 63.7286 42.7432C63.585 42.6841 63.4417 42.6841 63.2979 42.7432C63.1549 42.7997 63.0392 42.9146 62.9526 43.0864C62.666 43.8354 62.3411 44.6838 61.9818 45.6323C61.6229 46.5808 61.2131 47.5455 60.753 48.5216C60.2928 49.5003 59.7826 50.4418 59.2224 51.3477C58.6614 52.253 58.0494 53.0369 57.3891 53.6986C57.2163 53.8704 57.0574 53.9428 56.915 53.9139C56.7694 53.8864 56.7273 53.713 56.7845 53.396C56.9281 52.6206 57.1014 51.7351 57.3024 50.7432C57.5024 49.7512 57.7337 48.7239 57.9932 47.6596C58.2509 46.5954 58.5383 45.5311 58.8555 44.4662C59.1714 43.4036 59.5022 42.3973 59.8482 41.4486C59.934 41.2181 60.0468 40.9811 60.1923 40.7366C60.3352 40.4925 60.2928 40.2833 60.0622 40.1106C59.9191 39.9964 59.7394 39.867 59.5239 39.7226C59.3087 39.5789 59.0711 39.4416 58.8123 39.3135C58.5537 39.1837 58.2869 39.0752 58.0146 38.989C57.74 38.9027 57.5024 38.8595 57.3024 38.8595C57.0437 38.8595 56.8277 39.0479 56.6551 39.4215C56.6268 39.508 56.5978 39.6089 56.569 39.7226C56.5395 39.8381 56.4971 39.9246 56.4403 39.9821C56.0371 39.7805 55.6485 39.5789 55.2753 39.3768C54.9008 39.1766 54.5268 39.0107 54.1532 38.8825C53.7795 38.7522 53.4133 38.6806 53.0533 38.6661C53.0296 38.665 53.0059 38.6646 52.9822 38.6646C52.6476 38.6646 52.319 38.7595 51.9981 38.9461ZM49.5814 53.568C49.4949 53.3959 49.4369 53.2016 49.4085 52.9871C49.3808 52.7703 49.3721 52.5483 49.3871 52.3181C49.4021 52.0882 49.4085 51.9155 49.4085 51.7999C49.4666 50.8801 49.6459 49.7801 49.9482 48.5C50.2502 47.2209 50.6449 45.9987 51.1339 44.8341C51.6224 43.6702 52.1903 42.6841 52.8375 41.88C53.484 41.075 54.1816 40.6713 54.9291 40.6713C55.3897 40.6713 55.7346 40.8591 55.965 41.2327C55.8792 41.4039 55.7996 41.5843 55.7284 41.7718C55.6566 41.9586 55.591 42.1536 55.5339 42.3541C55.4191 42.6985 55.2528 43.2171 55.0382 43.9065C54.8222 44.5971 54.5635 45.3671 54.2607 46.2146C53.9596 47.063 53.6359 47.9392 53.2919 48.8457C52.9457 49.7512 52.5789 50.5705 52.1903 51.3042C51.8029 52.0368 51.4218 52.641 51.0481 53.1165C50.6738 53.591 50.3141 53.8273 49.9687 53.8273C49.7971 53.8273 49.6672 53.7404 49.5814 53.568Z" fill="url(#paint3_radial_1662_23554)"/>
<path d="M62.3938 39.4644C62.1055 40.4996 61.8543 41.6076 61.6388 42.7863C61.4234 43.9651 61.2429 45.1726 61.1001 46.4094C60.9549 47.6463 60.848 48.8758 60.7762 50.097C60.7034 51.3212 60.668 52.4915 60.668 53.6138C60.668 53.9584 60.7982 54.2811 61.0559 54.5839C61.3155 54.8851 61.6389 55.1446 62.027 55.3591C62.4157 55.5744 62.8241 55.7471 63.2561 55.8784C63.6871 56.0063 64.0608 56.0716 64.3765 56.0716C64.6933 56.0716 65.0027 55.9572 65.3048 55.7253C65.6066 55.4963 65.8589 55.2529 66.0605 54.9927C66.7504 54.1597 67.455 53.1811 68.1736 52.0599C68.892 50.9391 69.5825 49.7738 70.2443 48.5659C70.7895 48.9106 71.4661 49.0129 72.2716 48.8673C73.1051 48.7249 73.9323 48.2286 74.7518 47.3808C75.5702 46.5315 76.4407 45.2586 77.3607 43.5622C77.4478 43.3903 77.461 43.2324 77.4052 43.0874C77.3459 42.9444 77.2533 42.8366 77.1235 42.7647C76.9942 42.6936 76.8498 42.672 76.6926 42.6995C76.5341 42.7299 76.4116 42.8295 76.3258 43.0008C75.4914 44.526 74.7434 45.6539 74.0834 46.3877C73.4208 47.1215 72.746 47.5596 72.0562 47.7027C71.6239 47.7899 71.2073 47.7327 70.8039 47.5306C71.3509 46.5243 71.8546 45.5466 72.3148 44.5981C72.7735 43.6481 73.1766 42.7717 73.522 41.967C73.7228 41.4784 73.7012 40.9597 73.4576 40.4144C73.2123 39.868 72.8321 39.4369 72.3148 39.1198C72.0562 38.9755 71.7967 38.8978 71.5389 38.8835C71.2786 38.8689 71.0489 39.0198 70.8475 39.3358C70.0724 40.4562 69.5318 41.5145 69.2299 42.5065C68.9279 43.4985 68.7624 44.3808 68.7339 45.1592C68.4181 45.7633 68.0805 46.4461 67.7212 47.2076C67.3609 47.9705 66.9717 48.7322 66.5559 49.4929C66.1385 50.2557 65.7226 50.9968 65.3048 51.7151C64.8877 52.4338 64.4927 53.0523 64.1198 53.569C63.9742 53.7706 63.8676 53.8513 63.7957 53.8065C63.7227 53.7647 63.7009 53.6424 63.7305 53.4403C63.7587 52.6645 63.8455 51.7434 63.9886 50.6797C64.1337 49.6154 64.3064 48.5093 64.5077 47.3593C64.7072 46.2085 64.9242 45.0801 65.1544 43.9723C65.3839 42.8656 65.6139 41.881 65.8441 41.0169C65.9013 40.8167 65.9803 40.5797 66.0813 40.3051C66.1817 40.0322 66.1176 39.8248 65.887 39.6801C65.6001 39.4801 65.1756 39.2853 64.6141 39.0982C64.0541 38.9118 63.5584 38.8184 63.1273 38.8184C62.7812 38.8184 62.5375 39.0329 62.3938 39.4644Z" fill="url(#paint4_radial_1662_23554)"/>
<path d="M84.7374 39.4214C84.5358 39.8812 84.3487 40.3555 84.1768 40.8431C84.0048 41.3329 83.8317 41.8353 83.6585 42.354C83.5441 42.6984 83.3703 43.217 83.142 43.9064C82.9108 44.597 82.6377 45.367 82.3219 46.2145C82.0042 47.0629 81.6605 47.9391 81.2868 48.8456C80.9131 49.7511 80.532 50.5704 80.1445 51.3041C79.756 52.0367 79.3673 52.6409 78.9787 53.1164C78.5913 53.5909 78.2249 53.8272 77.8796 53.8272C77.6493 53.8272 77.4695 53.6912 77.3392 53.4175C77.2102 53.145 77.2029 52.7632 77.3184 52.2745C77.4616 51.4975 77.6413 50.6498 77.8565 49.7299C78.074 48.8097 78.3107 47.8743 78.5696 46.9269C78.8282 45.9768 79.1078 45.0356 79.4097 44.1002C79.7116 43.1659 80.0203 42.2816 80.3368 41.4485C80.4243 41.218 80.5376 40.981 80.6829 40.7365C80.8258 40.4924 80.7835 40.2832 80.553 40.1105C80.4092 39.9963 80.2303 39.8669 80.0137 39.7225C79.7986 39.5788 79.5608 39.4415 79.3021 39.3134C79.0435 39.1836 78.7771 39.0751 78.5047 38.9889C78.2307 38.9026 77.9932 38.8594 77.7922 38.8594C77.5345 38.8594 77.3184 39.0478 77.1459 39.4214C76.3973 41.1459 75.7363 43.0805 75.1612 45.2226C74.5867 47.3641 74.14 49.457 73.8247 51.4975C73.7666 51.7855 73.7315 52.0588 73.7167 52.318C73.7018 52.5775 73.6659 52.8498 73.608 53.1378C73.5798 53.4537 73.644 53.7838 73.8023 54.1298C73.9617 54.4746 74.1836 54.7915 74.4704 55.0786C74.758 55.3667 75.0959 55.6036 75.4855 55.7907C75.8736 55.9765 76.2686 56.0705 76.6718 56.0705C77.6493 56.0705 78.5322 55.5891 79.3239 54.6262C80.1151 53.6624 80.8404 52.5195 81.5026 51.1959C81.4746 51.2551 81.4601 51.3041 81.4601 51.3476C81.4601 51.3904 81.4452 51.4409 81.4168 51.4975C81.3872 51.7855 81.3577 52.0588 81.3294 52.318C81.2999 52.5775 81.2576 52.8498 81.2002 53.1378C81.1432 53.8272 81.3359 54.4902 81.7833 55.1203C82.228 55.7545 82.8255 56.0705 83.5721 56.0705C84.1767 56.0705 84.7879 55.8255 85.4077 55.3379C86.0246 54.848 86.6207 54.2237 87.1957 53.4608C87.771 52.6993 88.3177 51.8432 88.8342 50.8945C89.3532 49.9448 89.827 49.0034 90.2591 48.0692C90.6914 47.1344 91.0634 46.2653 91.3805 45.4602C91.697 44.6548 91.9555 44.0088 92.1564 43.519C92.2143 43.3457 92.2059 43.1881 92.135 43.0445C92.0624 42.8999 91.9555 42.7996 91.8118 42.7431C91.6682 42.684 91.5244 42.684 91.3805 42.7431C91.2362 42.7996 91.1215 42.9145 91.0359 43.0863C90.7478 43.8353 90.4102 44.6837 90.0219 45.6322C89.6332 46.5807 89.2015 47.5454 88.7281 48.5216C88.2533 49.5002 87.7286 50.4417 87.1531 51.3476C86.5768 52.2529 85.9735 53.0368 85.3412 53.6985C85.1397 53.8703 84.9676 53.9427 84.824 53.9138C84.6794 53.8863 84.6361 53.713 84.695 53.3959C84.8377 52.6205 85.0183 51.735 85.2344 50.7431C85.4489 49.7511 85.7004 48.7238 85.9884 47.6595C86.2755 46.5953 86.5851 45.531 86.9155 44.4661C87.2451 43.4035 87.5988 42.3972 87.9732 41.4485C88.0295 41.218 88.1308 40.981 88.2745 40.7365C88.4183 40.4924 88.3747 40.2832 88.1445 40.1105C88.0011 39.9963 87.8215 39.8669 87.6061 39.7225C87.3899 39.5788 87.1531 39.4415 86.8937 39.3134C86.6357 39.1836 86.3696 39.0751 86.0971 38.9889C85.8226 38.9026 85.5854 38.8594 85.3847 38.8594C85.126 38.8594 84.9098 39.0478 84.7374 39.4214Z" fill="url(#paint5_radial_1662_23554)"/>
<path d="M103.777 29.3039C102.382 30.0089 101.159 30.9265 100.111 32.0614C99.0599 33.1938 98.2618 34.4584 97.7169 35.8502C97.1693 37.2433 96.9822 38.6276 97.1547 40.0064C97.3276 41.2117 97.7081 42.1885 98.2978 42.9343C98.8873 43.6807 99.5923 44.3057 100.412 44.8073C101.231 45.3107 102.116 45.7695 103.065 46.1858C104.014 46.6027 104.92 47.0831 105.782 47.628C106.904 48.3753 107.464 49.2641 107.464 50.2983C107.464 51.1022 107.212 51.7987 106.71 52.3875C106.206 52.9757 105.588 53.4724 104.854 53.8732C104.122 54.2744 103.346 54.5755 102.525 54.7773C101.707 54.9783 100.979 55.0788 100.347 55.0788C100.03 55.0788 99.6918 55.0425 99.3346 54.9716C98.9735 54.9001 98.6438 54.7931 98.3404 54.6512C98.0392 54.5065 97.787 54.308 97.5865 54.0518C97.3845 53.7951 97.2842 53.4669 97.2842 53.0659C97.2842 52.6111 97.4068 52.1677 97.6506 51.739C97.8959 51.3117 98.2058 50.9264 98.5787 50.5837C98.9516 50.2417 99.3696 49.9639 99.8298 49.7493C100.289 49.5354 100.735 49.4276 101.167 49.4276C101.339 49.4276 101.426 49.3568 101.426 49.2122C101.426 49.0686 101.41 48.9256 101.383 48.7804C101.296 48.5217 101.145 48.2491 100.93 47.9611C100.714 47.674 100.462 47.4089 100.175 47.1629C99.887 46.9201 99.5774 46.7183 99.2479 46.5595C98.9163 46.4025 98.6075 46.3216 98.3193 46.3216C98.0898 46.3216 97.8452 46.3868 97.5865 46.5161C97.3276 46.6462 97.0834 46.8114 96.8535 47.0123C96.6233 47.2139 96.4143 47.4147 96.2278 47.6161C96.0407 47.8179 95.8897 48.0041 95.7747 48.177C95.1716 48.9818 94.7538 49.8884 94.5243 50.8947C94.2943 51.9299 94.3235 52.8643 94.6102 53.6987C94.8991 54.5325 95.351 55.2302 95.969 55.7909C96.5877 56.35 97.3276 56.7828 98.1906 57.0843C99.0531 57.3853 99.9595 57.5373 100.908 57.5373C102.059 57.5373 103.222 57.3853 104.402 57.0843C105.581 56.7828 106.673 56.3146 107.68 55.6827C108.686 55.0498 109.564 54.2744 110.311 53.3536C111.059 52.4329 111.563 51.3694 111.821 50.1623C112.079 48.8664 111.885 47.7609 111.239 46.8402C110.592 45.9192 109.721 45.1868 108.629 44.639C107.997 44.3233 107.277 44.0292 106.472 43.7567C105.666 43.4831 104.905 43.1517 104.186 42.7638C103.467 42.3744 102.863 41.9015 102.374 41.3405C101.886 40.7797 101.641 40.0398 101.641 39.1188C101.641 38.1702 101.893 37.1998 102.397 36.2079C102.898 35.2157 103.539 34.3092 104.315 33.4902C105.093 32.6715 105.941 32.0025 106.861 31.4845C107.781 30.9672 108.643 30.708 109.449 30.708C110.081 30.708 110.52 30.9166 110.764 31.3338C111.008 31.75 111.131 32.203 111.131 32.6918C111.131 33.3536 110.9 33.9938 110.44 34.6108C109.981 35.2305 109.484 35.856 108.953 36.4877C108.42 37.1205 107.924 37.7824 107.464 38.4716C107.004 39.1621 106.774 39.8957 106.774 40.6714C106.774 40.9886 106.874 41.297 107.076 41.5997C107.277 41.9015 107.522 42.1681 107.81 42.3974C108.097 42.6278 108.405 42.8071 108.737 42.9361C109.067 43.0664 109.363 43.1312 109.621 43.1312C109.764 43.1312 109.837 43.0303 109.837 42.8286C109.837 42.0512 110.066 41.2471 110.527 40.4135C110.987 39.5789 111.483 38.7466 112.014 37.9109C112.547 37.0773 113.043 36.244 113.503 35.4096C113.963 34.5759 114.194 33.7701 114.194 32.9945C114.194 32.6788 114.107 32.3398 113.935 31.9795C113.762 31.6218 113.518 31.3117 113.202 31.0524C112.828 30.1327 112.194 29.4349 111.303 28.9617C110.411 28.4862 109.363 28.2495 108.154 28.2495C106.631 28.2495 105.17 28.6014 103.777 29.3039Z" fill="url(#paint6_radial_1662_23554)"/>
<path d="M116.695 39.4214C115.947 41.1459 115.285 43.0805 114.711 45.2226C114.135 47.3641 113.69 49.457 113.375 51.4975C113.316 51.7855 113.281 52.0588 113.266 52.318C113.251 52.5775 113.215 52.8498 113.158 53.1378C113.129 53.4823 113.165 53.8272 113.266 54.1731C113.366 54.5178 113.525 54.8346 113.74 55.1203C113.956 55.4088 114.215 55.639 114.517 55.8111C114.819 55.9836 115.157 56.0705 115.531 56.0705C116.134 56.0705 116.745 55.8255 117.363 55.3379C117.981 54.848 118.578 54.2237 119.153 53.4608C119.729 52.6993 120.275 51.8432 120.792 50.8945C121.31 49.9448 121.785 49.0034 122.216 48.0692C122.647 47.1344 123.02 46.2653 123.338 45.4602C123.654 44.6548 123.912 44.0088 124.113 43.519C124.171 43.3457 124.164 43.1881 124.092 43.0445C124.021 42.8999 123.912 42.7996 123.769 42.7431C123.625 42.684 123.481 42.684 123.338 42.7431C123.193 42.7996 123.079 42.9145 122.992 43.0863C122.704 43.8353 122.367 44.6837 121.979 45.6322C121.59 46.5807 121.159 47.5454 120.685 48.5216C120.21 49.5002 119.685 50.4417 119.11 51.3476C118.535 52.2529 117.917 53.0368 117.256 53.6985C117.084 53.8703 116.925 53.9427 116.78 53.9138C116.636 53.8863 116.594 53.713 116.652 53.3959C116.796 52.6205 116.976 51.735 117.191 50.7431C117.406 49.7511 117.657 48.7238 117.946 47.6595C118.233 46.5953 118.542 45.531 118.872 44.4661C119.203 43.4035 119.555 42.3972 119.93 41.4485C119.986 41.218 120.088 40.981 120.232 40.7365C120.375 40.4924 120.333 40.2832 120.102 40.1105C119.958 39.9963 119.779 39.8669 119.563 39.7225C119.348 39.5788 119.11 39.4415 118.852 39.3134C118.593 39.1836 118.327 39.0751 118.053 38.9889C117.78 38.9026 117.543 38.8594 117.341 38.8594C117.084 38.8594 116.867 39.0478 116.695 39.4214Z" fill="url(#paint7_radial_1662_23554)"/>
<path d="M125.496 29.4145C125.122 30.1903 124.727 31.2253 124.31 32.5185C123.893 33.813 123.476 35.2883 123.06 36.9405C122.642 38.5942 122.262 40.2906 121.915 42.0312C121.571 43.7715 121.261 45.4958 120.988 47.2067C120.715 48.9169 120.521 50.4635 120.407 51.8433C120.377 52.2747 120.363 52.7356 120.363 53.2249C120.363 53.7131 120.429 54.1661 120.557 54.583C120.686 55.0007 120.909 55.3524 121.226 55.6392C121.542 55.9266 122.002 56.0707 122.606 56.0707C123.239 56.0707 123.857 55.8257 124.461 55.3381C125.065 54.8482 125.655 54.2239 126.229 53.461C126.804 52.6995 127.35 51.8433 127.868 50.8947C128.385 49.9449 128.86 49.0036 129.292 48.0694C129.722 47.1346 130.096 46.2655 130.413 45.4603C130.729 44.655 130.989 44.009 131.19 43.5192C131.276 43.3459 131.276 43.1883 131.19 43.0446C131.103 42.9001 130.989 42.7998 130.845 42.7432C130.699 42.6842 130.557 42.6842 130.413 42.7432C130.27 42.7998 130.155 42.9147 130.068 43.0865C129.81 43.8072 129.493 44.6261 129.119 45.5457C128.746 46.467 128.328 47.4004 127.868 48.349C127.408 49.2989 126.905 50.2257 126.359 51.1313C125.811 52.0369 125.222 52.8209 124.59 53.4825C124.274 53.7996 124.057 53.9211 123.943 53.8504C123.827 53.777 123.799 53.4972 123.857 53.0081C124.057 51.4844 124.367 49.6653 124.784 47.5513C125.2 45.4381 125.675 43.3097 126.208 41.1679C126.739 39.0251 127.301 37.035 127.89 35.1943C128.479 33.3536 129.047 31.9446 129.594 30.9672C129.681 30.823 129.766 30.7005 129.852 30.5996C129.939 30.4989 130.039 30.3764 130.155 30.2336C130.212 30.1757 130.24 30.1039 130.24 30.0172C130.24 29.8443 130.082 29.6583 129.766 29.4567C129.449 29.256 129.083 29.0684 128.666 28.8958C128.25 28.7239 127.832 28.5727 127.415 28.4429C126.999 28.3145 126.689 28.2495 126.488 28.2495C126.2 28.2495 125.869 28.6373 125.496 29.4145Z" fill="url(#paint8_radial_1662_23554)"/>
<path d="M132.462 29.651C132.045 30.5852 131.607 31.8007 131.146 33.2957C130.687 34.792 130.235 36.4804 129.788 38.3636C129.343 40.248 128.94 42.1537 128.581 44.0783C128.22 46.0062 127.934 47.8529 127.718 49.6218C127.502 51.3905 127.395 52.9076 127.395 54.1732C127.395 54.4038 127.494 54.6333 127.697 54.864C127.897 55.0931 128.142 55.2937 128.43 55.4668C128.717 55.6392 129.026 55.7836 129.357 55.898C129.688 56.0127 129.982 56.0707 130.241 56.0707C130.587 56.0707 130.758 55.898 130.758 55.5532C130.758 55.2937 130.773 55.0293 130.802 54.7543C130.83 54.4819 130.873 54.2168 130.932 53.9575C131.219 52.462 131.765 50.8515 132.571 49.1256C132.628 49.7586 132.772 50.478 133.001 51.2827C133.232 52.0883 133.541 52.8427 133.93 53.5478C134.316 54.2528 134.776 54.8482 135.309 55.3381C135.842 55.8257 136.438 56.0707 137.099 56.0707C137.703 56.0707 138.3 55.8257 138.89 55.3381C139.478 54.8482 140.046 54.2239 140.593 53.461C141.139 52.6995 141.642 51.8433 142.103 50.8947C142.562 49.9449 142.995 49.0036 143.397 48.0694C143.799 47.1346 144.144 46.2655 144.432 45.4603C144.72 44.655 144.964 44.009 145.166 43.5192C145.252 43.3459 145.252 43.1883 145.166 43.0446C145.079 42.9001 144.964 42.7998 144.82 42.7432C144.677 42.6842 144.532 42.6842 144.39 42.7432C144.245 42.7998 144.13 42.9147 144.044 43.0865C143.756 43.8355 143.447 44.6839 143.117 45.6324C142.786 46.5809 142.412 47.5456 141.996 48.5217C141.578 49.5004 141.11 50.4419 140.593 51.3478C140.077 52.2531 139.5 53.037 138.868 53.6987C138.638 53.8704 138.48 53.9575 138.394 53.9575C138.049 53.9575 137.739 53.6842 137.466 53.138C137.192 52.5905 136.962 51.959 136.776 51.2395C136.589 50.5213 136.445 49.8377 136.345 49.1904C136.244 48.5432 136.194 48.1053 136.194 47.8745C137.113 47.3584 137.955 46.7326 138.717 45.9988C139.478 45.265 140.147 44.4968 140.723 43.6907C141.04 43.2315 141.233 42.7793 141.306 42.3323C141.377 41.886 141.298 41.4197 141.068 40.93C140.896 40.5277 140.672 40.1541 140.399 39.8096C140.126 39.4634 139.817 39.191 139.472 38.989C139.041 38.7019 138.588 38.6807 138.114 38.9244C137.638 39.1694 137.199 39.4925 136.797 39.8957C135.705 40.9886 134.77 42.2463 133.993 43.6703C133.218 45.0923 132.498 46.4945 131.837 47.8745C132.124 46.3216 132.462 44.7128 132.851 43.0446C133.238 41.3766 133.648 39.7732 134.08 38.2338C134.511 36.6968 134.95 35.2883 135.396 34.0081C135.842 32.729 136.28 31.7152 136.712 30.9672C136.769 30.823 136.842 30.7005 136.927 30.5996C137.013 30.4989 137.113 30.3764 137.229 30.2336C137.286 30.1757 137.316 30.1039 137.316 30.0172C137.316 29.8443 137.158 29.6583 136.842 29.4567C136.524 29.256 136.165 29.0684 135.763 28.8958C135.36 28.7239 134.942 28.5727 134.511 28.4429C134.08 28.3145 133.763 28.2495 133.563 28.2495C133.247 28.2495 132.879 28.7168 132.462 29.651ZM134.9 44.5111C135.504 43.3894 136.222 42.3685 137.056 41.4487C137.43 41.0447 137.66 40.9378 137.747 41.1243C137.833 41.3113 137.833 41.5496 137.747 41.8355C137.602 42.4118 137.35 42.9999 136.992 43.6052C136.631 44.2086 136.237 44.7764 135.806 45.3082C135.375 45.841 134.921 46.3303 134.447 46.7749C133.972 47.221 133.548 47.5731 133.174 47.8324C133.72 46.7399 134.295 45.6324 134.9 44.5111Z" fill="url(#paint9_radial_1662_23554)"/>
<path d="M146.133 38.8605C145.572 39.061 145.069 39.3481 144.624 39.7204C144.177 40.0941 143.818 40.5523 143.545 41.0977C143.271 41.6426 143.135 42.2604 143.135 42.9483C143.135 43.78 143.292 44.5187 143.609 45.1653C143.925 45.8101 144.278 46.4126 144.666 46.9714C145.054 47.5306 145.435 48.0907 145.809 48.6498C146.184 49.21 146.414 49.8038 146.5 50.4349C146.097 50.521 145.659 50.5801 145.185 50.6074C144.709 50.6363 144.228 50.6797 143.739 50.7361C143.135 50.7933 142.567 50.9377 142.036 51.1667C141.503 51.3966 141.08 51.7846 140.763 52.3281C140.476 52.7581 140.325 53.2111 140.31 53.6851C140.296 54.1571 140.411 54.5883 140.654 54.9753C140.9 55.3633 141.259 55.6863 141.734 55.9429C142.208 56.2002 142.79 56.3309 143.48 56.3309C144.313 56.3309 145.162 56.193 146.026 55.9205C146.888 55.6471 147.665 55.2458 148.354 54.7132C149.045 54.1813 149.584 53.5412 149.972 52.7931C150.36 52.0459 150.496 51.197 150.381 50.2484C151.675 49.5579 152.754 48.6671 153.616 47.574C154.48 46.4822 155.184 45.116 155.729 43.4767C155.79 43.3036 155.774 43.1464 155.689 43.0008C155.602 42.8584 155.487 42.7647 155.342 42.7213C155.198 42.6776 155.054 42.6851 154.911 42.7442C154.766 42.8007 154.666 42.9156 154.609 43.0874C154.177 44.3808 153.601 45.5408 152.884 46.5604C152.166 47.5813 151.201 48.4227 149.994 49.0838C149.763 48.5948 149.47 48.1207 149.109 47.6606C148.75 47.2003 148.397 46.7408 148.052 46.2795C147.708 45.8205 147.405 45.3377 147.146 44.8351C146.888 44.3315 146.758 43.7926 146.758 43.2181C146.758 43.0166 146.786 42.7717 146.845 42.4849C146.903 42.1965 146.997 41.9091 147.125 41.6208C147.255 41.334 147.42 41.0892 147.621 40.889C147.821 40.688 148.052 40.5865 148.311 40.5865C148.541 40.5865 148.713 40.6819 148.829 40.8691C148.944 41.059 149.001 41.2835 149.001 41.5454C149.001 41.9522 148.872 42.3877 148.613 42.8531C148.354 43.3179 148.038 43.5498 147.665 43.5498C147.606 43.6073 147.578 43.6664 147.578 43.7242C147.578 43.9568 147.836 44.1971 148.354 44.443C148.872 44.6895 149.375 44.8135 149.865 44.8135C150.008 44.8135 150.173 44.7268 150.36 44.5541C150.548 44.3808 150.72 44.1663 150.878 43.9075C151.036 43.648 151.166 43.3757 151.267 43.0874C151.367 42.8007 151.417 42.5426 151.417 42.3116C151.417 41.9379 151.302 41.5288 151.072 41.0817C150.842 40.6362 150.554 40.2271 150.209 39.8523C149.865 39.4801 149.483 39.1703 149.066 38.9253C148.65 38.6816 148.255 38.5591 147.88 38.5591C147.277 38.5591 146.694 38.6598 146.133 38.8605ZM146.456 51.6716C146.284 52.2483 145.953 52.8004 145.464 53.3326C144.975 53.8658 144.429 54.2466 143.825 54.4757C143.308 54.6473 142.891 54.6411 142.575 54.4538C142.257 54.2668 142.057 54.008 141.971 53.678C141.884 53.3477 141.927 53.0163 142.1 52.685C142.273 52.3552 142.603 52.1326 143.093 52.0177C143.581 51.8733 144.149 51.8084 144.796 51.8227C144.868 51.8244 144.939 51.8251 145.009 51.8251C145.565 51.8251 146.048 51.7738 146.456 51.6716Z" fill="url(#paint10_radial_1662_23554)"/>
<path d="M115.782 34.3087C115.457 34.3169 115.148 34.4431 115.126 34.8067C115.105 35.2105 115.443 35.3497 115.772 35.3654C116.442 35.3977 117.116 35.3745 117.809 35.3745V34.304C117.404 34.304 117.003 34.2995 116.604 34.2995C116.329 34.2995 116.055 34.3015 115.782 34.3087Z" fill="url(#paint11_radial_1662_23554)"/>
<path d="M118.782 36.2869C117.799 36.2869 116.813 36.2861 115.83 36.2883C115.348 36.2906 115.086 36.4927 115.116 36.8502C115.15 37.271 115.442 37.3739 115.827 37.3726C116.958 37.3694 118.09 37.3694 119.221 37.3695C120.088 37.3695 120.956 37.3698 121.824 37.3681C122.273 37.3681 122.521 37.1696 122.523 36.8302C122.523 36.4913 122.277 36.2906 121.827 36.2883C121.406 36.2863 120.984 36.2856 120.562 36.2856C119.969 36.2856 119.376 36.2869 118.782 36.2869Z" fill="url(#paint12_radial_1662_23554)"/>
<path d="M115.123 32.8338C115.095 33.1904 115.359 33.4006 115.837 33.4018C117.821 33.4049 119.803 33.4049 121.785 33.4018C122.274 33.4018 122.53 33.205 122.53 32.8545C122.53 32.5049 122.279 32.3221 121.785 32.321C120.801 32.3175 119.817 32.321 118.834 32.321C117.835 32.321 116.835 32.3259 115.835 32.3159C115.83 32.3159 115.826 32.3159 115.822 32.3159C115.444 32.3159 115.156 32.4135 115.123 32.8338Z" fill="url(#paint13_radial_1662_23554)"/>
<path d="M118.969 33.9507C118.462 33.9601 118.072 34.359 118.082 34.8545C118.092 35.3448 118.512 35.7388 119.012 35.7245C119.515 35.7123 119.91 35.305 119.899 34.8138C119.887 34.3262 119.491 33.9505 118.99 33.9505C118.983 33.9505 118.976 33.9505 118.969 33.9507Z" fill="url(#paint14_radial_1662_23554)"/>
<path d="M120.176 34.3049V35.3712C120.732 35.3712 121.311 35.3951 121.887 35.3614C122.2 35.341 122.524 35.1983 122.512 34.8248C122.501 34.4606 122.193 34.3241 121.869 34.3119C121.633 34.3019 121.398 34.299 121.164 34.299C120.833 34.299 120.504 34.3049 120.176 34.3049Z" fill="url(#paint15_radial_1662_23554)"/>
<path d="M84.1444 11.434C84.0951 12.8151 84.5269 13.7289 85.6292 14.6128C91.3352 19.1955 94.948 25.1061 96.4895 32.2717C96.5798 32.6942 96.7624 33.0965 96.9491 33.6468C102.439 22.1774 97.933 6.71645 87.3373 0.0509644C85.2892 3.67397 84.2882 7.41842 84.1444 11.434Z" fill="url(#paint16_radial_1662_23554)"/>
<path d="M58.4062 29.3067C60.404 32.8506 63.2569 35.548 66.6536 37.7504C67.6469 38.3938 68.5262 38.472 69.6511 38.007C73.852 36.2736 78.2512 35.4639 82.7837 35.9297C85.7805 36.2361 88.7465 36.8663 91.7973 37.3624C88.4973 30.8557 77.8055 26.4664 68.7562 26.467C64.7081 26.4671 60.9873 27.3458 58.4062 29.3067Z" fill="url(#paint17_radial_1662_23554)"/>
<path d="M68.9795 10.8459C68.9111 14.8749 70.037 18.46 71.7052 21.9409C72.3681 23.3242 73.3169 23.9219 74.8446 24.1609C81.7443 25.2357 87.6117 28.3497 92.3901 33.4644C92.8228 33.9277 93.1713 34.4719 93.7727 35.2558C94.7382 24.6329 80.8269 10.8154 69.8491 10.8162C69.5571 10.8162 69.2668 10.826 68.9795 10.8459Z" fill="url(#paint18_radial_1662_23554)"/>
</g>
<defs>
<radialGradient id="paint0_radial_1662_23554" cx="0" cy="0" r="1" gradientUnits="userSpaceOnUse" gradientTransform="translate(11.3323 43.4483) scale(14.1014)">
<stop stop-color="#FF0000"/>
<stop offset="1" stop-color="#660C0D"/>
</radialGradient>
<radialGradient id="paint1_radial_1662_23554" cx="0" cy="0" r="1" gradientUnits="userSpaceOnUse" gradientTransform="translate(26.1792 47.3677) scale(8.93624)">
<stop stop-color="#FF0000"/>
<stop offset="1" stop-color="#660C0D"/>
</radialGradient>
<radialGradient id="paint2_radial_1662_23554" cx="0" cy="0" r="1" gradientUnits="userSpaceOnUse" gradientTransform="translate(40.5637 47.4647) scale(8.85564 8.85564)">
<stop stop-color="#FF0000"/>
<stop offset="1" stop-color="#660C0D"/>
</radialGradient>
<radialGradient id="paint3_radial_1662_23554" cx="0" cy="0" r="1" gradientUnits="userSpaceOnUse" gradientTransform="translate(54.949 47.3677) scale(8.93624)">
<stop stop-color="#FF0000"/>
<stop offset="1" stop-color="#660C0D"/>
</radialGradient>
<radialGradient id="paint4_radial_1662_23554" cx="0" cy="0" r="1" gradientUnits="userSpaceOnUse" gradientTransform="translate(69.0535 47.445) scale(8.50676 8.50676)">
<stop stop-color="#FF0000"/>
<stop offset="1" stop-color="#660C0D"/>
</radialGradient>
<radialGradient id="paint5_radial_1662_23554" cx="0" cy="0" r="1" gradientUnits="userSpaceOnUse" gradientTransform="translate(82.8979 47.4647) scale(8.95785)">
<stop stop-color="#FF0000"/>
<stop offset="1" stop-color="#660C0D"/>
</radialGradient>
<radialGradient id="paint6_radial_1662_23554" cx="0" cy="0" r="1" gradientUnits="userSpaceOnUse" gradientTransform="translate(104.283 42.8934) scale(12.5035)">
<stop stop-color="#FF0000"/>
<stop offset="1" stop-color="#660C0D"/>
</radialGradient>
<radialGradient id="paint7_radial_1662_23554" cx="0" cy="0" r="1" gradientUnits="userSpaceOnUse" gradientTransform="translate(118.65 47.4647) scale(7.22243)">
<stop stop-color="#FF0000"/>
<stop offset="1" stop-color="#660C0D"/>
</radialGradient>
<radialGradient id="paint8_radial_1662_23554" cx="0" cy="0" r="1" gradientUnits="userSpaceOnUse" gradientTransform="translate(125.809 42.1602) scale(10.5631)">
<stop stop-color="#FF0000"/>
<stop offset="1" stop-color="#660C0D"/>
</radialGradient>
<radialGradient id="paint9_radial_1662_23554" cx="0" cy="0" r="1" gradientUnits="userSpaceOnUse" gradientTransform="translate(136.312 42.1602) scale(11.6841 11.6841)">
<stop stop-color="#FF0000"/>
<stop offset="1" stop-color="#660C0D"/>
</radialGradient>
<radialGradient id="paint10_radial_1662_23554" cx="0" cy="0" r="1" gradientUnits="userSpaceOnUse" gradientTransform="translate(148.037 47.4448) scale(8.3273)">
<stop stop-color="#FF0000"/>
<stop offset="1" stop-color="#660C0D"/>
</radialGradient>
<radialGradient id="paint11_radial_1662_23554" cx="0" cy="0" r="1" gradientUnits="userSpaceOnUse" gradientTransform="translate(116.467 34.8411) scale(1.02323 1.02323)">
<stop stop-color="#FFF100"/>
<stop offset="1" stop-color="#FBB017"/>
</radialGradient>
<radialGradient id="paint12_radial_1662_23554" cx="0" cy="0" r="1" gradientUnits="userSpaceOnUse" gradientTransform="translate(118.818 36.8292) scale(2.64791 2.64793)">
<stop stop-color="#FFF100"/>
<stop offset="1" stop-color="#FBB017"/>
</radialGradient>
<radialGradient id="paint13_radial_1662_23554" cx="0" cy="0" r="1" gradientUnits="userSpaceOnUse" gradientTransform="translate(118.826 32.86) scale(2.64757 2.64757)">
<stop stop-color="#FFF100"/>
<stop offset="1" stop-color="#FBB017"/>
</radialGradient>
<radialGradient id="paint14_radial_1662_23554" cx="0" cy="0" r="1" gradientUnits="userSpaceOnUse" gradientTransform="translate(118.991 34.8378) scale(0.897993 0.897997)">
<stop stop-color="#FF0000"/>
<stop offset="1" stop-color="#670000"/>
</radialGradient>
<radialGradient id="paint15_radial_1662_23554" cx="0" cy="0" r="1" gradientUnits="userSpaceOnUse" gradientTransform="translate(121.344 34.8394) scale(0.909914 0.90991)">
<stop stop-color="#FFF100"/>
<stop offset="1" stop-color="#FBB017"/>
</radialGradient>
<radialGradient id="paint16_radial_1662_23554" cx="0" cy="0" r="1" gradientUnits="userSpaceOnUse" gradientTransform="translate(91.7198 16.8488) scale(13.0309 13.0309)">
<stop stop-color="#FFF100"/>
<stop offset="1" stop-color="#FBB017"/>
</radialGradient>
<radialGradient id="paint17_radial_1662_23554" cx="0" cy="0" r="1" gradientUnits="userSpaceOnUse" gradientTransform="translate(75.1018 32.3854) scale(12.5253 12.5253)">
<stop stop-color="#FF0000"/>
<stop offset="1" stop-color="#670000"/>
</radialGradient>
<radialGradient id="paint18_radial_1662_23554" cx="0" cy="0" r="1" gradientUnits="userSpaceOnUse" gradientTransform="translate(81.3984 23.036) scale(12.3213 12.3213)">
<stop stop-color="#37B34A"/>
<stop offset="1" stop-color="#006838"/>
</radialGradient>
<clipPath id="clip0_1662_23554">
<rect width="155.907" height="60" fill="white"/>
</clipPath>
</defs>
</svg>
