<svg width="30" height="30" viewBox="0 0 30 30" fill="none" xmlns="http://www.w3.org/2000/svg">
<path d="M15 0.000976562C6.7166 0.000976562 0 6.71655 0 15.001C0 23.2854 6.71594 30.001 15 30.001C23.2847 30.001 30 23.2854 30 15.001C30 6.71655 23.2847 0.000976562 15 0.000976562ZM15 4.48615C17.7409 4.48615 19.962 6.70798 19.962 9.44771C19.962 12.1881 17.7409 14.4093 15 14.4093C12.2604 14.4093 10.0393 12.1881 10.0393 9.44771C10.0393 6.70798 12.2604 4.48615 15 4.48615ZM14.9967 26.0792C12.263 26.0792 9.75929 25.0836 7.82812 23.4356C7.35768 23.0344 7.08623 22.446 7.08623 21.8286C7.08623 19.05 9.33497 16.8261 12.1141 16.8261H17.8872C20.667 16.8261 22.9072 19.05 22.9072 21.8286C22.9072 22.4466 22.637 23.0337 22.1659 23.435C20.2354 25.0836 17.731 26.0792 14.9967 26.0792Z" fill="black"/>
</svg>
