<svg width="300" height="300" viewBox="0 0 300 300" fill="none" xmlns="http://www.w3.org/2000/svg">
<g clip-path="url(#clip0_2148_26199)">
<mask id="mask0_2148_26199" style="mask-type:luminance" maskUnits="userSpaceOnUse" x="0" y="0" width="300" height="300">
<path d="M300 0H0V300H300V0Z" fill="white"/>
</mask>
<g mask="url(#mask0_2148_26199)">
<path d="M150 269C216.27 269 270 215.27 270 149C270 82.73 216.27 29 150 29C83.73 29 30 82.73 30 149C30 215.27 83.73 269 150 269Z" fill="url(#paint0_linear_2148_26199)"/>
<path d="M105 64H197.54C206.38 64 213.54 71.16 213.54 80V203.03C213.54 211.87 206.38 219.03 197.54 219.03H105C96.16 219.03 89 211.87 89 203.03V80C89 71.16 96.16 64 105 64Z" fill="white"/>
<path d="M105.059 64H197.941C206.814 64 214 67.741 214 72.3597V136.64C214 141.259 206.814 145 197.941 145H105.059C96.1864 145 89 141.259 89 136.64V72.3597C89 67.741 96.1864 64 105.059 64Z" fill="#D5D5D5"/>
<path d="M150 111C157.723 111 164 104.723 164 97C164 89.2767 157.723 83 150 83C142.277 83 136 89.2767 136 97C136 104.723 142.277 111 150 111Z" fill="white"/>
<path d="M150.5 154C165.119 154 177 142.119 177 127.5C177 112.881 165.119 101 150.5 101C135.881 101 124 112.881 124 127.5C124 142.119 135.881 154 150.5 154Z" fill="white"/>
<path d="M104.9 166.96H195.1C197.81 166.96 200 169.15 200 171.86C200 174.57 197.81 176.76 195.1 176.76H104.9C102.19 176.76 100 174.57 100 171.86C100 169.15 102.19 166.96 104.9 166.96Z" fill="#D5D5D5"/>
<path d="M104.9 194.76H195.1C197.81 194.76 200 196.95 200 199.66C200 202.37 197.81 204.56 195.1 204.56H104.9C102.19 204.56 100 202.37 100 199.66C100 196.95 102.19 194.76 104.9 194.76Z" fill="#D5D5D5"/>
<path fill-rule="evenodd" clip-rule="evenodd" d="M185.111 225.56C197.991 225.56 209.961 221.66 219.911 214.99L260.611 253.84L275.371 236.71L236.101 199.22C243.351 189.01 247.621 176.53 247.621 163.06C247.621 128.54 219.641 100.56 185.121 100.56C150.601 100.56 122.621 128.54 122.621 163.06C122.621 197.58 150.591 225.56 185.111 225.56ZM238.421 163.06C238.421 192.28 214.731 215.97 185.511 215.97C156.291 215.97 132.601 192.28 132.601 163.06C132.601 133.84 156.291 110.15 185.511 110.15C214.731 110.15 238.421 133.84 238.421 163.06Z" fill="#CCC6D9"/>
<path d="M185.5 217C215.6 217 240 192.82 240 163C240 133.18 215.6 109 185.5 109C155.4 109 131 133.18 131 163C131 192.82 155.4 217 185.5 217Z" fill="white" fill-opacity="0.3"/>
<path d="M194.923 163L208.113 149.86C209.353 148.56 210.023 146.83 210.003 145.04C209.983 143.25 209.253 141.55 207.983 140.28C206.713 139.02 204.993 138.29 203.193 138.27C201.393 138.25 199.653 138.92 198.343 140.15L185.123 153.29L171.933 140.15C171.303 139.48 170.533 138.95 169.693 138.58C168.843 138.21 167.933 138.01 167.013 138C166.093 137.99 165.173 138.16 164.313 138.5C163.453 138.85 162.683 139.36 162.023 140.01C161.373 140.66 160.853 141.43 160.503 142.28C160.153 143.13 159.983 144.04 159.993 144.96C160.003 145.88 160.203 146.78 160.573 147.63C160.943 148.47 161.483 149.23 162.153 149.86L175.383 163L162.173 176.14C161.503 176.77 160.963 177.53 160.593 178.37C160.223 179.21 160.023 180.12 160.013 181.04C160.003 181.96 160.173 182.87 160.523 183.72C160.873 184.57 161.383 185.34 162.043 185.99C162.693 186.64 163.473 187.15 164.333 187.5C165.193 187.85 166.103 188.02 167.033 188C167.963 187.98 168.873 187.79 169.713 187.42C170.563 187.05 171.323 186.52 171.953 185.85L185.173 172.71L198.393 185.85C199.713 187 201.423 187.62 203.183 187.56C204.943 187.5 206.613 186.78 207.853 185.55C209.093 184.31 209.813 182.65 209.863 180.9C209.913 179.15 209.293 177.45 208.123 176.14L194.923 163Z" fill="#FF2828"/>
<path d="M260.602 253.84L275.362 236.71L277.582 238.83C279.742 240.89 281.032 243.76 281.172 246.83C281.312 249.89 280.292 252.89 278.342 255.16C276.382 257.43 273.652 258.79 270.742 258.94C267.832 259.09 264.982 258.02 262.832 255.96L260.602 253.84Z" fill="#E1DCEB"/>
<path fill-rule="evenodd" clip-rule="evenodd" d="M69.3151 55.5974C69.2951 54.1674 69.1151 52.7374 68.7651 51.2874C67.5051 46.2074 61.9151 42.9474 55.9551 42.1774C49.9951 41.4074 43.8051 43.1574 41.4151 47.5774C40.0451 50.1074 39.8651 52.2874 40.4151 54.1174C40.9751 55.9474 42.2851 57.4574 44.0751 58.6374C49.0651 61.9274 57.7951 62.5974 61.7851 61.2174C63.6251 60.5774 65.4251 59.8174 67.1851 58.9374C66.1851 64.6874 62.4451 70.1274 57.4651 75.0274C46.6251 85.6874 29.8151 93.7774 20.6551 96.7574C20.1651 96.9174 19.8851 97.4574 20.0451 97.9774C20.1951 98.4874 20.7251 98.7774 21.2151 98.6174C30.5551 95.5874 47.6951 87.3174 58.7451 76.4474C64.4551 70.8274 68.5251 64.5074 69.2151 57.8674C82.1151 50.6674 92.7151 37.5974 101.775 26.6074C102.115 26.2074 102.065 25.5874 101.675 25.2374C101.285 24.8874 100.695 24.9274 100.355 25.3374C91.6751 35.8874 81.5851 48.4274 69.3151 55.5974ZM67.4451 56.6474C67.5151 55.0474 67.3651 53.4174 66.9551 51.7774C65.8651 47.3774 60.8851 44.7774 55.7251 44.1174C52.5651 43.7074 49.3151 44.0474 46.7651 45.2374C45.1651 45.9874 43.8451 47.0674 43.0451 48.5474C42.0051 50.4774 41.7751 52.1374 42.2051 53.5374C42.6351 54.9474 43.6951 56.0874 45.0851 56.9974C49.6351 59.9974 57.5851 60.6274 61.2151 59.3774C63.3451 58.6374 65.4251 57.7174 67.4451 56.6474Z" fill="#011625"/>
<path d="M285 190C288.314 190 291 187.314 291 184C291 180.686 288.314 178 285 178C281.686 178 279 180.686 279 184C279 187.314 281.686 190 285 190Z" fill="#FF2828"/>
<path fill-rule="evenodd" clip-rule="evenodd" d="M58.3817 225.39C59.4517 224.99 60.5817 224.46 61.4517 223.68C62.4817 222.76 62.9017 221.58 63.1817 220.34C63.5417 218.74 63.6917 217.04 64.1317 215.44C64.2917 214.84 64.6017 214.62 64.7417 214.52C65.0817 214.27 65.4217 214.2 65.7417 214.23C66.1217 214.26 66.6517 214.41 66.9917 215.09C67.0417 215.19 67.1017 215.33 67.1517 215.54C67.1817 215.69 67.2017 216.15 67.2417 216.34C67.3217 216.81 67.3917 217.28 67.4617 217.75C67.6817 219.32 67.8017 220.65 68.4917 222.09C69.4217 224.05 70.3517 225.24 71.6217 225.77C72.8417 226.28 74.3117 226.19 76.1817 225.78C76.3617 225.73 76.5317 225.7 76.7117 225.66C77.5317 225.51 78.3217 226.08 78.4817 226.94C78.6417 227.8 78.1217 228.64 77.3017 228.83C77.1317 228.87 76.9617 228.91 76.8017 228.94C74.2717 229.6 71.3517 231.95 69.6517 234C69.1317 234.63 68.3617 236.41 67.5817 237.54C67.0017 238.37 66.3517 238.92 65.8117 239.12C65.4417 239.25 65.1417 239.23 64.8817 239.16C64.5117 239.06 64.2017 238.85 63.9717 238.52C63.8417 238.34 63.7217 238.09 63.6717 237.78C63.6417 237.63 63.6417 237.25 63.6417 237.07C63.4817 236.49 63.2917 235.93 63.1417 235.35C62.8017 233.96 62.1417 233.08 61.3517 231.92C60.6117 230.83 59.8217 230.15 58.6517 229.6C58.5017 229.56 57.2817 229.25 56.8517 229.07C56.2217 228.81 55.9217 228.36 55.8117 228.12C55.6217 227.72 55.6117 227.36 55.6417 227.07C55.6917 226.63 55.8817 226.26 56.2117 225.96C56.4117 225.77 56.7217 225.59 57.1317 225.5C57.4317 225.44 58.2717 225.4 58.3817 225.39ZM65.5517 223.13C65.6117 223.26 65.6717 223.4 65.7317 223.53C67.0917 226.4 68.6217 228 70.4717 228.77L70.5317 228.8C69.2917 229.77 68.1717 230.85 67.3117 231.89C66.9617 232.32 66.4917 233.21 65.9817 234.12C65.5217 232.55 64.7717 231.44 63.8317 230.05C63.1117 228.99 62.3517 228.19 61.4217 227.54C62.1417 227.15 62.8317 226.69 63.4317 226.16C64.4317 225.27 65.0917 224.25 65.5517 223.13Z" fill="#FF2828"/>
</g>
</g>
<defs>
<linearGradient id="paint0_linear_2148_26199" x1="149.072" y1="-10.0749" x2="151.53" y2="411.347" gradientUnits="userSpaceOnUse">
<stop stop-color="#F2F2F2"/>
<stop offset="1" stop-color="#EFEFEF"/>
</linearGradient>
<clipPath id="clip0_2148_26199">
<rect width="300" height="300" fill="white"/>
</clipPath>
</defs>
</svg>
