<svg width="30" height="30" viewBox="0 0 30 30" fill="none" xmlns="http://www.w3.org/2000/svg">
<path d="M15 30C23.2843 30 30 23.2843 30 15C30 6.71573 23.2843 0 15 0C6.71573 0 0 6.71573 0 15C0 23.2843 6.71573 30 15 30Z" fill="url(#paint0_linear_289_554)"/>
<path d="M11.8804 19.6875H19.6705C20.8303 19.6875 21.8577 18.911 22.167 17.8029L23.8205 12.0305C23.8427 11.9531 23.8467 11.8717 23.8321 11.7925C23.8174 11.7134 23.7846 11.6387 23.7362 11.5744C23.6877 11.5101 23.6249 11.4579 23.5529 11.422C23.4808 11.386 23.4013 11.3673 23.3208 11.3672H10.2203L9.60734 8.51678C9.31227 7.14668 8.08127 6.15234 6.68018 6.15234C6.39271 6.15234 6.16016 6.3849 6.16016 6.67236C6.16016 6.95982 6.39271 7.19238 6.68018 7.19238C7.59477 7.19238 8.39814 7.84137 8.59063 8.73516L10.5041 17.6339C10.604 18.0984 10.8306 18.5105 11.1388 18.8436C10.6538 19.1085 10.3203 19.6171 10.3203 20.2075C10.3203 20.9265 10.8117 21.5275 11.4748 21.7073C11.4024 21.8871 11.3603 22.0822 11.3603 22.2876C11.3603 23.1479 12.0601 23.8477 12.9204 23.8477C13.7806 23.8477 14.4804 23.1479 14.4804 22.2876C14.4804 22.1031 14.4426 21.9284 14.3835 21.764L18.7394 21.7579C18.6789 21.924 18.6406 22.1007 18.6406 22.2876C18.6406 23.1479 19.3404 23.8477 20.2006 23.8477C21.0609 23.8477 21.7607 23.1479 21.7607 22.2876C21.7607 22.0993 21.722 21.921 21.6606 21.7538L22.2812 21.7529C22.5687 21.7523 22.8012 21.5193 22.8007 21.2323C22.8006 21.0945 22.7458 20.9623 22.6483 20.8649C22.5507 20.7675 22.4185 20.7128 22.2807 20.7128L11.8804 20.7275C11.5934 20.7275 11.3604 20.4945 11.3604 20.2075C11.3604 19.9206 11.5934 19.6875 11.8804 19.6875ZM18.6477 16.9874L19.1677 13.8673C19.2144 13.5839 19.4806 13.3884 19.766 13.4396C20.0493 13.4869 20.2408 13.7545 20.1936 14.0379L19.6736 17.158C19.6258 17.4463 19.3504 17.6338 19.0753 17.5856C18.7919 17.5384 18.6005 17.2707 18.6477 16.9874ZM16.0405 13.9526C16.0405 13.6652 16.273 13.4326 16.5605 13.4326C16.8479 13.4326 17.0805 13.6652 17.0805 13.9526V17.0728C17.0805 17.1411 17.0671 17.2087 17.041 17.2718C17.0149 17.3349 16.9766 17.3923 16.9283 17.4405C16.88 17.4888 16.8226 17.5271 16.7595 17.5533C16.6964 17.5794 16.6288 17.5928 16.5605 17.5928C16.4922 17.5928 16.4245 17.5794 16.3614 17.5533C16.2983 17.5271 16.241 17.4888 16.1927 17.4405C16.1444 17.3923 16.1061 17.3349 16.08 17.2718C16.0539 17.2087 16.0404 17.1411 16.0405 17.0728V13.9526ZM13.3551 13.4397C13.637 13.3889 13.9061 13.5839 13.9534 13.8673L14.4734 16.9874C14.5206 17.2708 14.3292 17.5385 14.0458 17.5857C13.7702 17.634 13.4953 17.4462 13.4475 17.1581L12.9275 14.0379C12.8803 13.7545 13.0717 13.4869 13.3551 13.4397ZM10.5042 17.6339C10.5041 17.6339 10.5041 17.6338 10.5042 17.6339C10.5052 17.6389 10.5052 17.6388 10.5042 17.6339Z" fill="url(#paint1_linear_289_554)"/>
<defs>
<linearGradient id="paint0_linear_289_554" x1="15" y1="30" x2="15" y2="0" gradientUnits="userSpaceOnUse">
<stop stop-color="#F4F4F4"/>
</linearGradient>
<linearGradient id="paint1_linear_289_554" x1="15.0004" y1="6.15234" x2="15.0004" y2="23.8477" gradientUnits="userSpaceOnUse">
<stop stop-color="#FD5900"/>
<stop offset="1" stop-color="#FFDE00"/>
</linearGradient>
</defs>
</svg>
