<svg width="34" height="34" viewBox="0 0 34 34" fill="none" xmlns="http://www.w3.org/2000/svg">
<path d="M17.0013 8.50033C17.0013 9.25177 17.2998 9.97244 17.8312 10.5038C18.3625 11.0351 19.0832 11.3337 19.8346 11.3337C20.5861 11.3337 21.3068 11.0351 21.8381 10.5038C22.3695 9.97244 22.668 9.25177 22.668 8.50033M17.0013 8.50033C17.0013 7.74888 17.2998 7.02821 17.8312 6.49686C18.3625 5.9655 19.0832 5.66699 19.8346 5.66699C20.5861 5.66699 21.3068 5.9655 21.8381 6.49686C22.3695 7.02821 22.668 7.74888 22.668 8.50033M17.0013 8.50033H5.66797M22.668 8.50033H28.3346M8.5013 17.0003C8.5013 17.7518 8.79981 18.4724 9.33117 19.0038C9.86252 19.5351 10.5832 19.8337 11.3346 19.8337C12.0861 19.8337 12.8068 19.5351 13.3381 19.0038C13.8695 18.4724 14.168 17.7518 14.168 17.0003M8.5013 17.0003C8.5013 16.2489 8.79981 15.5282 9.33117 14.9969C9.86252 14.4655 10.5832 14.167 11.3346 14.167C12.0861 14.167 12.8068 14.4655 13.3381 14.9969C13.8695 15.5282 14.168 16.2489 14.168 17.0003M8.5013 17.0003H5.66797M14.168 17.0003H28.3346M21.2513 25.5003C21.2513 26.2518 21.5498 26.9724 22.0812 27.5038C22.6125 28.0351 23.3332 28.3337 24.0846 28.3337C24.8361 28.3337 25.5568 28.0351 26.0881 27.5038C26.6195 26.9724 26.918 26.2518 26.918 25.5003M21.2513 25.5003C21.2513 24.7489 21.5498 24.0282 22.0812 23.4969C22.6125 22.9655 23.3332 22.667 24.0846 22.667C24.8361 22.667 25.5568 22.9655 26.0881 23.4969C26.6195 24.0282 26.918 24.7489 26.918 25.5003M21.2513 25.5003H5.66797M26.918 25.5003H28.3346" stroke="#252525" stroke-width="1.5" stroke-linecap="round" stroke-linejoin="round"/>
</svg>
