<svg width="30" height="30" viewBox="0 0 30 30" fill="none" xmlns="http://www.w3.org/2000/svg">
<circle cx="15" cy="15" r="15" fill="#F4F4F4"/>
<path d="M20.7244 6.23464C20.4463 6.13376 20.1518 6.06956 19.8492 6.03287C15.9883 5.59264 14.9985 9.71981 14.9985 9.71981C14.9985 9.71981 14.0088 5.59264 10.1561 6.03287C6.57333 6.43642 4.69197 11.4991 7.03958 15.7546C7.71032 16.9744 8.75734 18.286 9.87798 19.5058C12.1274 21.9546 14.6632 23.9906 14.9985 23.9906C15.5057 23.9906 20.9289 19.4324 22.9575 15.7638C25.1088 11.8659 23.7182 7.28936 20.7244 6.23464Z" fill="#FC4F4F"/>
<path opacity="0.15" d="M22.9565 15.7549C25.1078 11.8662 23.7172 7.28958 20.7234 6.23486C20.7234 6.23486 23.709 9.46322 21.9913 12.7833C20.2735 16.1034 14.5313 20.2305 13.7215 20.3773C13.0507 20.4965 11.3493 20.3223 9.87695 19.5152C12.1264 21.964 14.6622 24 14.9975 24C15.5047 23.9909 20.9279 19.4326 22.9565 15.7549Z" fill="black"/>
<path opacity="0.3" d="M9.45497 10.0058C10.1805 9.04216 10.4162 7.92729 9.98127 7.51564C9.54639 7.10399 8.60568 7.55142 7.88013 8.51502C7.15458 9.47862 6.91895 10.5935 7.35383 11.0051C7.78871 11.4168 8.72942 10.9693 9.45497 10.0058Z" fill="white"/>
</svg>
