<svg width="30" height="30" viewBox="0 0 30 30" fill="none" xmlns="http://www.w3.org/2000/svg">
<path d="M15 30C23.2843 30 30 23.2843 30 15C30 6.71573 23.2843 0 15 0C6.71573 0 0 6.71573 0 15C0 23.2843 6.71573 30 15 30Z" fill="#F4F4F4"/>
<path d="M14.651 8.35056C14.8509 8.51145 15.1491 8.51145 15.3491 8.35056C17.3825 6.71673 20.3048 6.37375 22.2514 8.39608C23.8745 10.0829 24.3901 12.75 23.7035 14.8292C22.6403 18.0513 19.6073 20.6224 16.44 22.5917C15.5645 23.1361 14.435 23.1361 13.5594 22.5917C10.3922 20.6224 7.35918 18.0513 6.29591 14.8292C5.60999 12.75 6.12555 10.0829 7.74874 8.39608C9.69463 6.37375 12.6177 6.71673 14.651 8.35056Z" fill="#FE4F60"/>
<path d="M23.7031 14.8324C22.6424 18.0502 19.6082 20.6256 16.4389 22.59C15.6419 23.0888 14.6326 23.1325 13.7969 22.7147C13.874 22.6773 13.9511 22.6399 14.0283 22.59C17.1975 20.6256 20.2317 18.0502 21.2924 14.8324C21.9803 12.7495 21.466 10.0806 19.8396 8.39686C19.2224 7.76078 18.5154 7.35544 17.7632 7.15589C19.3317 6.7755 20.9903 7.09353 22.2502 8.39686C23.8767 10.0806 24.391 12.7495 23.7031 14.8324Z" fill="#E54756"/>
<path d="M11.2063 8.03711C10.1836 8.03711 9.30091 8.41501 8.5835 9.16021C8.37908 9.37286 8.18879 9.61171 8.01972 9.8705C7.9008 10.0526 7.95608 10.2933 8.14315 10.4087C8.21001 10.4498 8.28458 10.4698 8.3585 10.4698C8.49157 10.4698 8.62142 10.4055 8.69793 10.2889C8.84128 10.07 9.00006 9.86987 9.17106 9.69215C9.73097 9.11095 10.4156 8.81599 11.207 8.81599C11.4287 8.81599 11.6087 8.64138 11.6087 8.42624C11.6087 8.2111 11.4287 8.03711 11.2063 8.03711Z" fill="#FF6D7A"/>
<path d="M8.02449 10.641C7.81749 10.5624 7.58413 10.6629 7.50443 10.8643C7.40479 11.115 7.31993 11.3769 7.25372 11.6419C7.20101 11.8508 7.33407 12.0616 7.54942 12.1127C7.58156 12.1202 7.61307 12.1239 7.64457 12.1239C7.82585 12.1239 7.99042 12.0042 8.03477 11.8259C8.09263 11.5933 8.16655 11.365 8.25398 11.1462C8.33434 10.9447 8.23084 10.719 8.02449 10.641Z" fill="#FF6D7A"/>
</svg>
