<svg width="30" height="30" viewBox="0 0 30 30" fill="none" xmlns="http://www.w3.org/2000/svg">
<path d="M18.7245 15.3369L20.4284 13.065C20.5523 13.6835 20.625 14.33 20.625 15C20.625 19.1357 18.1017 22.5 15 22.5C14.4975 22.5 14.0126 22.4031 13.5487 22.2378L15.2527 19.966C17.1157 19.7966 18.5974 17.821 18.7245 15.3369ZM29.8819 14.3929C29.7666 14.1163 28.1311 10.2954 24.9342 7.05725L23.5699 8.87631C25.901 11.1616 27.378 13.8269 27.9595 15.0019C26.8484 17.2578 22.4895 25 15 25C13.8769 25 12.8325 24.8085 11.8498 24.5028L10.3092 26.5569C11.7255 27.1359 13.2823 27.5 15 27.5C24.814 27.5 29.6796 16.0925 29.8819 15.6072C30.0394 15.2294 30.0394 14.7707 29.8819 14.3929ZM25.9753 2.13382L5.35031 29.6338C5.16727 29.8778 4.92727 30 4.6875 30C4.44773 30 4.20773 29.8778 4.02469 29.6338C3.65836 29.1453 3.65836 28.3544 4.02469 27.8663L6.64875 24.3675C2.40656 20.9528 0.251016 15.9263 0.118125 15.6072C-0.039375 15.2294 -0.039375 14.7704 0.118125 14.3925C0.320391 13.9075 5.18602 2.50007 15 2.50007C17.5376 2.50007 19.7355 3.27194 21.6145 4.41319L24.6497 0.366327C25.016 -0.122109 25.6092 -0.122109 25.9753 0.366327C26.3414 0.854763 26.3416 1.6457 25.9753 2.13382ZM8.0468 22.5035L10.4203 19.3388C9.76477 18.1125 9.375 16.6172 9.375 15C9.375 10.8644 11.8983 7.50006 15 7.50006C16.2129 7.50006 17.3344 8.01974 18.2541 8.89349L20.1734 6.33444C18.657 5.52475 16.9338 5.00007 15 5.00007C7.51055 5.00007 3.15164 12.7422 2.0407 14.9982C2.74617 16.4238 4.77398 20.0325 8.0468 22.5035ZM11.7813 17.5238L16.8928 10.7085C16.3352 10.2694 15.6933 10.0001 15 10.0001C12.9323 10.0001 11.25 12.2432 11.25 15C11.25 15.9244 11.452 16.7803 11.7813 17.5238Z" fill="black"/>
</svg>
