<svg width="30" height="30" viewBox="0 0 30 30" fill="none" xmlns="http://www.w3.org/2000/svg">
<path fill-rule="evenodd" clip-rule="evenodd" d="M27.9347 15.8289C25.3211 22.8145 20.3644 27.1541 15.0017 27.1541C9.63555 27.1541 4.67898 22.8145 2.06529 15.8289C1.86399 15.2865 1.86399 14.7131 2.06529 14.1711C4.67898 7.18554 9.63555 2.8465 15.0017 2.8465C20.3644 2.8465 25.321 7.18554 27.9347 14.1711C28.1396 14.7131 28.1396 15.2865 27.9347 15.8289ZM29.6043 12.7861C26.6539 4.89899 21.0587 0 15.0017 0C8.94133 0 3.34607 4.89899 0.395698 12.7861C-0.131899 14.1933 -0.131899 15.8067 0.395698 17.2129C3.34607 25.1 8.94133 30 15.0017 30C21.0587 30 26.6539 25.1 29.6043 17.2129C30.1319 15.8068 30.1319 14.1933 29.6043 12.7861ZM15.0017 20.839C17.1642 20.839 18.924 18.2198 18.924 14.9998C18.924 11.7798 17.1642 9.16054 15.0017 9.16054C12.8358 9.16054 11.076 11.7798 11.076 14.9998C11.076 18.2198 12.8359 20.839 15.0017 20.839ZM15.0017 6.31404C11.7806 6.31404 9.1635 10.2108 9.1635 14.9999C9.1635 19.7899 11.7807 23.6851 15.0017 23.6851C18.2194 23.6851 20.8365 19.7898 20.8365 14.9999C20.8365 10.2108 18.2194 6.31404 15.0017 6.31404Z" fill="black"/>
</svg>
