<svg width="25" height="26" viewBox="0 0 25 26" fill="none" xmlns="http://www.w3.org/2000/svg">
<path d="M10.7129 0.931217H9.96288C9.89199 0.931216 9.82211 0.913671 9.75903 0.88003C9.69594 0.846389 9.64146 0.79762 9.60009 0.737752C9.4118 0.497223 9.17232 0.305501 8.90056 0.177721C8.6288 0.0499416 8.3322 -0.0103984 8.03418 0.00146445C7.73615 -0.0103984 7.43955 0.0499416 7.16779 0.177721C6.89603 0.305501 6.65655 0.497223 6.46826 0.737752C6.42689 0.79762 6.37241 0.846389 6.30932 0.88003C6.24624 0.913671 6.17636 0.931216 6.10547 0.931217H5.35547V2.78818H10.7129V0.931217Z" fill="black"/>
<path d="M12.0547 10.6799C12.0552 11.1888 12.1723 11.6901 12.3965 12.1424L12.9448 12.4272L14.3291 11.7067C14.4532 11.643 14.5897 11.6099 14.728 11.6099C14.8664 11.6099 15.0029 11.643 15.1269 11.7067L16.5112 12.4277L17.2515 12.0423C17.3857 11.403 17.5478 10.7647 17.7397 10.1437C17.8247 9.86546 17.9141 9.59583 18.0073 9.33127C17.762 8.76406 17.3641 8.28284 16.8615 7.94575C16.359 7.60865 15.7733 7.43009 15.1753 7.43165C14.3478 7.4338 13.5548 7.77682 12.9699 8.38561C12.3851 8.99441 12.056 9.81938 12.0547 10.6799Z" fill="black"/>
<path d="M15.1772 3.25193V6.50175C15.4779 6.50535 15.7773 6.54384 16.0698 6.61651V2.32471C16.0699 2.2028 16.0468 2.08207 16.002 1.96942C15.9572 1.85677 15.8914 1.75442 15.8085 1.66821C15.7256 1.582 15.6272 1.51363 15.5189 1.46701C15.4106 1.42038 15.2945 1.39642 15.1772 1.39648H11.6055V2.32471H14.2842C14.5208 2.32471 14.7477 2.42235 14.9151 2.5962C15.0826 2.77004 15.1769 3.00588 15.1772 3.25193Z" fill="black"/>
<path d="M20.0854 12.4274L21.4692 11.7068C21.5934 11.643 21.7301 11.6097 21.8686 11.6097C22.0072 11.6097 22.1439 11.643 22.2681 11.7068L23.6074 12.403C23.6377 12.3101 23.6699 12.2217 23.6963 12.1278C25.0566 7.6928 24.6587 4.15558 23.4521 3.75646C22.2456 3.35734 19.9521 5.99832 18.5942 10.4282C18.4731 10.8182 18.3677 11.2173 18.2695 11.6149C18.4178 11.6083 18.5653 11.6403 18.6987 11.7079L20.0854 12.4274ZM21.4526 6.3553C21.4902 6.23864 21.5707 6.14225 21.6765 6.08731C21.7824 6.03237 21.9049 6.02338 22.0171 6.06231L23.3564 6.52642C23.4689 6.56534 23.5619 6.64913 23.615 6.75936C23.668 6.86958 23.6768 6.99722 23.6394 7.11418C23.602 7.23114 23.5214 7.32786 23.4154 7.38304C23.3094 7.43822 23.1867 7.44736 23.0742 7.40844L21.7349 6.94433C21.6225 6.90527 21.5297 6.82149 21.4767 6.71136C21.4237 6.60122 21.4149 6.47372 21.4521 6.35682L21.4526 6.3553ZM20.5596 8.21226C20.597 8.09563 20.6774 7.99921 20.7832 7.94419C20.8889 7.88916 21.0113 7.88001 21.1235 7.91876L22.9092 8.53775C22.9649 8.55699 23.0164 8.58745 23.0607 8.62739C23.1051 8.66732 23.1415 8.71596 23.1678 8.77051C23.1941 8.82507 23.2098 8.88447 23.214 8.94534C23.2182 9.00621 23.2109 9.06735 23.1924 9.12526C23.1739 9.18317 23.1446 9.23673 23.1062 9.28288C23.0678 9.32902 23.021 9.36685 22.9686 9.39419C22.9161 9.42154 22.859 9.43788 22.8004 9.44227C22.7419 9.44666 22.6831 9.43901 22.6274 9.41977L20.8418 8.80079C20.7859 8.78182 20.7343 8.75157 20.6897 8.71177C20.6451 8.67196 20.6086 8.62338 20.5821 8.56883C20.5557 8.51428 20.5398 8.45484 20.5355 8.3939C20.5313 8.33297 20.5386 8.27176 20.5571 8.21379L20.5596 8.21226ZM20.1128 10.0692C20.1503 9.95256 20.2308 9.85614 20.3367 9.80112C20.4425 9.74609 20.565 9.73697 20.6772 9.77573L22.0166 10.2404C22.0732 10.2588 22.1258 10.2888 22.1712 10.3285C22.2166 10.3683 22.2539 10.4171 22.2809 10.4721C22.308 10.527 22.3242 10.587 22.3287 10.6486C22.3332 10.7101 22.3259 10.772 22.3071 10.8306C22.2884 10.8891 22.2586 10.9432 22.2195 10.9897C22.1804 11.0362 22.1328 11.0741 22.0795 11.1012C22.0262 11.1283 21.9682 11.1441 21.9089 11.1476C21.8497 11.1512 21.7903 11.1424 21.7344 11.1219L20.395 10.6572C20.3394 10.638 20.2879 10.6076 20.2436 10.5677C20.1993 10.5278 20.163 10.4792 20.1367 10.4247C20.1105 10.3701 20.0948 10.3108 20.0906 10.25C20.0864 10.1892 20.0938 10.1281 20.1123 10.0702L20.1128 10.0692Z" fill="black"/>
<path d="M11.6055 25.0718C11.6056 25.318 11.6997 25.5541 11.8672 25.7282C12.0347 25.9022 12.2618 26 12.4985 26H24.1054C24.3422 26 24.5693 25.9022 24.7368 25.7282C24.9042 25.5541 24.9984 25.318 24.9985 25.0718V12.7692L24.0556 13.2592C23.9316 13.323 23.7951 13.3563 23.6567 13.3563C23.5183 13.3563 23.3818 13.323 23.2578 13.2592L21.8691 12.5371L20.4829 13.2582C20.3587 13.322 20.222 13.3553 20.0835 13.3553C19.9449 13.3553 19.8083 13.322 19.6841 13.2582L18.2988 12.5371L16.915 13.2582C16.7908 13.322 16.6542 13.3553 16.5156 13.3553C16.3771 13.3553 16.2404 13.322 16.1162 13.2582L14.7305 12.5371L13.3467 13.2582C13.2225 13.322 13.0858 13.3553 12.9473 13.3553C12.8087 13.3553 12.672 13.322 12.5479 13.2582L11.6055 12.7692V13.4577C11.6071 13.461 11.608 13.4647 11.608 13.4684C11.608 13.4721 11.6071 13.4758 11.6055 13.4791V25.0718Z" fill="black"/>
<path d="M7.14257 8.82387H11.5859C11.851 8.27041 12.2306 7.78489 12.6976 7.40217C13.1645 7.01946 13.7072 6.74908 14.2866 6.61044V3.25195H11.4839C11.4061 3.39252 11.2941 3.50938 11.1592 3.59083C11.0244 3.67228 10.8713 3.71546 10.7153 3.71607H5.35644C5.20072 3.7152 5.04794 3.67189 4.91335 3.59045C4.77875 3.50901 4.66704 3.3923 4.58935 3.25195H1.78516V20.8924H10.7139V18.1087H7.14257C7.02421 18.1087 6.91069 18.0598 6.82699 17.9728C6.7433 17.8857 6.69628 17.7677 6.69628 17.6446C6.69628 17.5215 6.7433 17.4035 6.82699 17.3164C6.91069 17.2294 7.02421 17.1805 7.14257 17.1805H10.7139V13.9307H7.14257C7.08269 13.9327 7.02302 13.9222 6.96711 13.8998C6.91121 13.8774 6.86021 13.8435 6.81715 13.8002C6.77409 13.7569 6.73984 13.705 6.71646 13.6476C6.69307 13.5903 6.68102 13.5286 6.68102 13.4663C6.68102 13.404 6.69307 13.3423 6.71646 13.2849C6.73984 13.2276 6.77409 13.1757 6.81715 13.1324C6.86021 13.089 6.91121 13.0552 6.96711 13.0328C7.02302 13.0103 7.08269 12.9999 7.14257 13.0019H10.7139V12.7699C10.7134 12.6116 10.7521 12.4558 10.8264 12.3176C10.9006 12.1794 11.0078 12.0634 11.1377 11.9808C11.2008 11.9406 11.2683 11.9085 11.3388 11.8853C11.1294 11.1944 11.1035 10.4576 11.2637 9.75261H7.14257C7.08269 9.75467 7.02302 9.74418 6.96711 9.72177C6.91121 9.69936 6.86021 9.66549 6.81715 9.62216C6.77409 9.57884 6.73984 9.52695 6.71646 9.46958C6.69307 9.41222 6.68102 9.35055 6.68102 9.28824C6.68102 9.22593 6.69307 9.16426 6.71646 9.10689C6.73984 9.04953 6.77409 8.99764 6.81715 8.95432C6.86021 8.91099 6.91121 8.87712 6.96711 8.85471C7.02302 8.8323 7.08269 8.82181 7.14257 8.82387ZM5.26757 17.9229L3.92822 19.7798C3.88995 19.8333 3.84106 19.8776 3.78486 19.9097C3.72866 19.9417 3.66647 19.9608 3.60254 19.9657H3.5708C3.51219 19.9657 3.45416 19.9537 3.40002 19.9304C3.34589 19.907 3.29673 19.8728 3.25537 19.8296L2.80908 19.3655C2.72699 19.2781 2.68132 19.1606 2.68198 19.0385C2.68263 18.9164 2.72955 18.7994 2.81256 18.713C2.89558 18.6266 3.00799 18.5778 3.12544 18.577C3.24288 18.5762 3.35588 18.6236 3.43994 18.7089L3.52295 18.7947L4.55322 17.3684C4.62444 17.2698 4.73038 17.2048 4.84773 17.1875C4.96508 17.1702 5.08422 17.2021 5.17895 17.2762C5.27368 17.3503 5.33623 17.4604 5.35285 17.5825C5.36947 17.7045 5.3388 17.8284 5.26757 17.9269V17.9229ZM5.26757 13.7448L3.92822 15.6018C3.88995 15.6553 3.84106 15.6995 3.78486 15.7316C3.72866 15.7637 3.66647 15.7828 3.60254 15.7876H3.5708C3.45247 15.7875 3.33904 15.7385 3.25537 15.6515L2.80908 15.1874C2.72699 15.1001 2.68132 14.9826 2.68198 14.8605C2.68263 14.7383 2.72955 14.6214 2.81256 14.535C2.89558 14.4486 3.00799 14.3997 3.12544 14.3989C3.24288 14.3982 3.35588 14.4456 3.43994 14.5309L3.52295 14.6167L4.55322 13.1878C4.62444 13.0893 4.73038 13.0242 4.84773 13.0069C4.96508 12.9896 5.08422 13.0215 5.17895 13.0956C5.27368 13.1697 5.33623 13.2798 5.35285 13.4019C5.36947 13.5239 5.3388 13.6478 5.26757 13.7463V13.7448ZM5.26757 9.56676L3.92822 11.4237C3.88986 11.4771 3.84094 11.5213 3.78476 11.5534C3.72858 11.5854 3.66644 11.6046 3.60254 11.6096H3.5708C3.45247 11.6094 3.33904 11.5605 3.25537 11.4735L2.80908 11.0094C2.72699 10.922 2.68132 10.8045 2.68198 10.6824C2.68263 10.5603 2.72955 10.4433 2.81256 10.3569C2.89558 10.2705 3.00799 10.2217 3.12544 10.2209C3.24288 10.2201 3.35588 10.2675 3.43994 10.3528L3.52295 10.4386L4.55322 9.00972C4.62444 8.91121 4.73038 8.84615 4.84773 8.82887C4.96508 8.81158 5.08422 8.84349 5.17895 8.91756C5.27368 8.99163 5.33623 9.1018 5.35285 9.22383C5.36947 9.34587 5.3388 9.46977 5.26757 9.56828V9.56676ZM5.26757 5.38871L3.92822 7.24568C3.88986 7.29907 3.84094 7.34328 3.78476 7.37534C3.72858 7.4074 3.66644 7.42656 3.60254 7.43153H3.5708C3.45247 7.43139 3.33904 7.38245 3.25537 7.29544L2.80908 6.83132C2.72699 6.74398 2.68132 6.6265 2.68198 6.50436C2.68263 6.38223 2.72955 6.26528 2.81256 6.17888C2.89558 6.09249 3.00799 6.0436 3.12544 6.04283C3.24288 6.04206 3.35588 6.08946 3.43994 6.17476L3.52295 6.26058L4.55322 4.83167C4.58848 4.78289 4.63264 4.74181 4.68318 4.71078C4.73371 4.67975 4.78962 4.65938 4.84773 4.65082C4.90583 4.64226 4.96499 4.64569 5.02182 4.66091C5.07865 4.67612 5.13204 4.70283 5.17895 4.73951C5.22585 4.77618 5.26535 4.82211 5.29519 4.87466C5.32503 4.92721 5.34462 4.98536 5.35285 5.04578C5.36108 5.10621 5.35779 5.16773 5.34315 5.22683C5.32852 5.28593 5.30284 5.34145 5.26757 5.39023V5.38871ZM7.14257 19.0374H8.92821C9.04657 19.0374 9.16009 19.0863 9.24378 19.1734C9.32748 19.2604 9.3745 19.3785 9.3745 19.5016C9.3745 19.6246 9.32748 19.7427 9.24378 19.8297C9.16009 19.9168 9.04657 19.9657 8.92821 19.9657H7.14257C7.08396 19.9657 7.02593 19.9537 6.97178 19.9303C6.91763 19.907 6.86844 19.8728 6.82699 19.8297C6.78555 19.7866 6.75268 19.7355 6.73025 19.6792C6.70782 19.6229 6.69628 19.5625 6.69628 19.5016C6.69628 19.4406 6.70782 19.3803 6.73025 19.3239C6.75268 19.2676 6.78555 19.2165 6.82699 19.1734C6.86844 19.1303 6.91763 19.0961 6.97178 19.0728C7.02593 19.0494 7.08396 19.0374 7.14257 19.0374ZM7.14257 14.8589H8.92821C9.04408 14.8629 9.15393 14.9135 9.23454 15.0002C9.31515 15.0868 9.36022 15.2027 9.36022 15.3233C9.36022 15.4438 9.31515 15.5597 9.23454 15.6463C9.15393 15.733 9.04408 15.7836 8.92821 15.7876H7.14257C7.08269 15.7897 7.02302 15.7792 6.96711 15.7568C6.91121 15.7344 6.86021 15.7005 6.81715 15.6572C6.77409 15.6139 6.73984 15.562 6.71646 15.5046C6.69307 15.4472 6.68102 15.3856 6.68102 15.3233C6.68102 15.2609 6.69307 15.1993 6.71646 15.1419C6.73984 15.0845 6.77409 15.0327 6.81715 14.9893C6.86021 14.946 6.91121 14.9121 6.96711 14.8897C7.02302 14.8673 7.08269 14.8568 7.14257 14.8589ZM7.14257 10.6808H8.92821C9.04408 10.6848 9.15393 10.7355 9.23454 10.8221C9.31515 10.9088 9.36022 11.0246 9.36022 11.1452C9.36022 11.2658 9.31515 11.3816 9.23454 11.4683C9.15393 11.5549 9.04408 11.6056 8.92821 11.6096H7.14257C7.08269 11.6116 7.02302 11.6011 6.96711 11.5787C6.91121 11.5563 6.86021 11.5225 6.81715 11.4791C6.77409 11.4358 6.73984 11.3839 6.71646 11.3266C6.69307 11.2692 6.68102 11.2075 6.68102 11.1452C6.68102 11.0829 6.69307 11.0212 6.71646 10.9639C6.73984 10.9065 6.77409 10.8546 6.81715 10.8113C6.86021 10.768 6.91121 10.7341 6.96711 10.7117C7.02302 10.6893 7.08269 10.6788 7.14257 10.6808ZM7.14257 4.64582H12.4995C12.6154 4.64981 12.7252 4.70048 12.8058 4.78713C12.8864 4.87378 12.9315 4.98962 12.9315 5.11019C12.9315 5.23076 12.8864 5.3466 12.8058 5.43325C12.7252 5.5199 12.6154 5.57057 12.4995 5.57456H7.14257C7.08269 5.57662 7.02302 5.56613 6.96711 5.54372C6.91121 5.52131 6.86021 5.48744 6.81715 5.44411C6.77409 5.40079 6.73984 5.3489 6.71646 5.29154C6.69307 5.23417 6.68102 5.1725 6.68102 5.11019C6.68102 5.04788 6.69307 4.98621 6.71646 4.92884C6.73984 4.87148 6.77409 4.81959 6.81715 4.77627C6.86021 4.73294 6.91121 4.69907 6.96711 4.67666C7.02302 4.65425 7.08269 4.64376 7.14257 4.64582ZM7.14257 6.50279H8.92821C9.04408 6.50677 9.15393 6.55744 9.23454 6.64409C9.31515 6.73075 9.36022 6.84659 9.36022 6.96716C9.36022 7.08772 9.31515 7.20357 9.23454 7.29022C9.15393 7.37687 9.04408 7.42754 8.92821 7.43153H7.14257C7.08269 7.43359 7.02302 7.4231 6.96711 7.40069C6.91121 7.37828 6.86021 7.3444 6.81715 7.30108C6.77409 7.25776 6.73984 7.20587 6.71646 7.1485C6.69307 7.09114 6.68102 7.02946 6.68102 6.96716C6.68102 6.90485 6.69307 6.84318 6.71646 6.78581C6.73984 6.72845 6.77409 6.67656 6.81715 6.63323C6.86021 6.58991 6.91121 6.55604 6.96711 6.53363C7.02302 6.51122 7.08269 6.50073 7.14257 6.50279Z" fill="black"/>
<path d="M0.893065 22.7508H10.7143V21.8226H1.78564C1.66839 21.8226 1.55228 21.7986 1.44395 21.7519C1.33563 21.7052 1.23721 21.6368 1.15432 21.5506C1.07143 21.4643 1.0057 21.3619 0.960868 21.2493C0.916041 21.1366 0.893001 21.0158 0.893065 20.8939V3.25193C0.893324 3.00592 0.987477 2.77008 1.15484 2.59623C1.3222 2.42237 1.54908 2.32471 1.78564 2.32471H4.46435V1.39648H0.893065C0.775809 1.39642 0.659689 1.42038 0.551341 1.467C0.442992 1.51361 0.344537 1.58198 0.261602 1.66818C0.178667 1.75438 0.112877 1.85673 0.06799 1.96938C0.0231033 2.08203 -1.7545e-08 2.20277 0 2.32471L0 21.8236C0.000258872 22.0697 0.0944792 22.3056 0.261947 22.4795C0.429415 22.6534 0.656423 22.751 0.893065 22.7508Z" fill="black"/>
</svg>
