<svg width="20" height="20" viewBox="0 0 20 20" fill="none" xmlns="http://www.w3.org/2000/svg">
<path d="M8.6717 1.12114C8.76117 1.11047 8.82798 1.04211 8.82798 0.961252V0.137774C8.82798 0.0863283 8.8384 0 8.90821 0C8.94039 0 8.98238 0.0125391 9.02634 0.0352344L12.3359 1.747C12.4121 1.78637 12.4391 1.82684 12.4391 1.84953C12.4391 1.87223 12.4121 1.9127 12.3359 1.95211L9.02643 3.6638C8.98243 3.68653 8.94048 3.69907 8.9083 3.69907C8.83844 3.69907 8.82802 3.61274 8.82802 3.56126V2.92118C8.82802 2.87368 8.80461 2.82856 8.7641 2.7979C8.72354 2.76723 8.66991 2.75411 8.61771 2.76219C6.73475 3.04989 5.01016 3.93067 3.76165 5.24228C2.49871 6.56896 1.80321 8.25861 1.80321 10C1.80321 12.3848 3.10413 14.63 5.28322 16.0061C5.48001 16.1304 5.61104 16.3159 5.65207 16.5285C5.69311 16.741 5.63934 16.9552 5.5005 17.1316C5.33192 17.3459 5.05612 17.4739 4.76274 17.4739C4.57646 17.4739 4.3972 17.4229 4.24428 17.3263C1.58667 15.648 0 12.9092 0 10C0 5.52853 3.72803 1.71141 8.6717 1.12114ZM14.3481 3.47165C14.3891 3.68423 14.5201 3.86973 14.7169 3.99399C16.896 5.37005 18.1969 7.61533 18.1969 10C18.1969 11.7414 17.5014 13.431 16.2385 14.7577C14.99 16.0693 13.2653 16.9501 11.3824 17.2378C11.3301 17.2459 11.2765 17.2328 11.236 17.2021C11.1954 17.1715 11.1721 17.1264 11.1721 17.0789V16.4388C11.1721 16.3873 11.1616 16.3009 11.0917 16.3009C11.0596 16.3009 11.0176 16.3135 10.9736 16.3362L7.66411 18.048C7.58793 18.0874 7.56089 18.1278 7.56089 18.1505C7.56089 18.1732 7.58793 18.2137 7.66411 18.253L10.9737 19.9648C11.0176 19.9875 11.0596 20 11.0918 20C11.1192 20 11.1308 19.9912 11.1393 19.9818C11.1601 19.9586 11.172 19.915 11.172 19.8622V19.0387C11.172 18.9579 11.2388 18.8895 11.3283 18.8789C16.272 18.2886 20 14.4715 20 10C20 7.09083 18.4134 4.35208 15.7559 2.67376C15.6029 2.57715 15.4236 2.52614 15.2373 2.52614C14.9441 2.52614 14.6683 2.65415 14.4996 2.86852C14.3608 3.04485 14.307 3.25903 14.3481 3.47165ZM10.18 10.0931V14.7483L14.6804 12.4207V7.76556L10.18 10.0931ZM7.20002 9.67936L8.03567 10.1115V9.07717C8.03567 9.07537 8.03619 9.07369 8.03628 9.07189C8.03641 9.06838 8.03658 9.06486 8.03698 9.06135C8.03733 9.05799 8.03798 9.05467 8.03859 9.05135C8.03929 9.04752 8.03994 9.04373 8.04095 9.04002C8.04182 9.03681 8.04278 9.03373 8.04382 9.03064C8.04487 9.02756 8.04613 9.02447 8.0474 9.02142C8.04893 9.01771 8.05041 9.014 8.05224 9.01045C8.05394 9.00717 8.05586 9.004 8.05773 9.00084C8.05856 8.99947 8.05895 8.99799 8.05987 8.99662C8.06074 8.99525 8.06196 8.9942 8.06288 8.99287C8.06502 8.98978 8.06707 8.9867 8.06946 8.98377C8.07199 8.98056 8.07478 8.9776 8.07762 8.97455C8.07993 8.97205 8.08224 8.96955 8.08473 8.96721C8.08725 8.96482 8.08974 8.96248 8.0924 8.96025C8.09554 8.95764 8.09881 8.95521 8.10217 8.95275C8.10509 8.95064 8.10792 8.94849 8.11098 8.9465C8.1142 8.94439 8.11752 8.94252 8.12092 8.94064C8.12262 8.93971 8.12397 8.93846 8.12567 8.93756L12.716 6.56345L11.8803 6.13122L7.20002 8.55189V9.67936ZM5.49972 7.48619L7.02002 8.27244L11.5203 5.94489L10 5.15864L5.49972 7.48619ZM10 9.81377L14.5003 7.48619L13.0761 6.74962L8.57576 9.07717L10 9.81377ZM9.81995 10.0931L8.39576 9.35658V10.3909C8.39576 10.4486 8.36144 10.5018 8.30572 10.5306C8.2779 10.545 8.24676 10.5522 8.21572 10.5522C8.18467 10.5522 8.15353 10.545 8.12571 10.5306L6.92997 9.91221C6.87424 9.88338 6.83997 9.83014 6.83997 9.77252V8.55185L5.31971 7.7656V12.4207L9.82004 14.7483V10.0931H9.81995Z" fill="white"/>
</svg>
