<?xml version="1.0" standalone="no"?>
<!DOCTYPE svg PUBLIC "-//W3C//DTD SVG 1.1//EN" "http://www.w3.org/Graphics/SVG/1.1/DTD/svg11.dtd" >
<svg xmlns="http://www.w3.org/2000/svg" xmlns:xlink="http://www.w3.org/1999/xlink" version="1.1">
<metadata>
Created by FontForge 20190801 at Mon Aug  3 13:39:49 2020
 By www-data
Copyright (c) 2020 by Sweetest Goods. All rights reserved.
</metadata>
<defs>
<font id="VulturaRegular" horiz-adv-x="284" >
  <font-face 
    font-family="VulturaRegular"
    font-weight="400"
    font-stretch="normal"
    units-per-em="1000"
    panose-1="0 0 5 0 0 0 0 0 0 0"
    ascent="750"
    descent="-250"
    x-height="500"
    cap-height="680"
    bbox="-103 -250 1626 965"
    underline-thickness="50"
    underline-position="-150"
    unicode-range="U+0020-E035"
  />
<missing-glyph horiz-adv-x="500" 
d="M410 -250h-317v1000h317v-1000zM168 683v-33h65v-37h-66v-33h166v33h-66v37h66v33h-165zM167 554v-104h166v34h-66v70h-100zM233 484h-33v36h33v-36zM167 423v-33h66v-37h-66v-33h100v70h66v33h-166zM300 363v-66h-133v-34h166v100h-33zM233 241v-56h34v23h33v-47h-100
v80h-33v-113h166v113h-100zM167 68v-113h166v113h-166zM300 -12h-100v47h100v-47zM167 -68v-33h70l-70 -47v-33h166v33h-102l70 47h32v33h-166z" />
    <glyph glyph-name=".notdef" horiz-adv-x="500" 
d="M410 -250h-317v1000h317v-1000zM168 683v-33h65v-37h-66v-33h166v33h-66v37h66v33h-165zM167 554v-104h166v34h-66v70h-100zM233 484h-33v36h33v-36zM167 423v-33h66v-37h-66v-33h100v70h66v33h-166zM300 363v-66h-133v-34h166v100h-33zM233 241v-56h34v23h33v-47h-100
v80h-33v-113h166v113h-100zM167 68v-113h166v113h-166zM300 -12h-100v47h100v-47zM167 -68v-33h70l-70 -47v-33h166v33h-102l70 47h32v33h-166z" />
    <glyph glyph-name=".null" horiz-adv-x="0" 
 />
    <glyph glyph-name="nonmarkingreturn" horiz-adv-x="333" 
 />
    <glyph glyph-name="space" unicode=" " horiz-adv-x="180" 
 />
    <glyph glyph-name="exclam" unicode="!" horiz-adv-x="170" 
d="M73 328.5q-7 42.5 -20 102.5q-14 64 -21 107t-7 82q0 28 16 49t44 21t44 -21t16 -49q0 -39 -7 -82t-21 -107q-13 -60 -20 -102.5t-7 -78.5v-30h-10v30q0 36 -7 78.5zM39 9q-19 19 -19 46q0 26 19 45.5t46 19.5q26 0 45.5 -19.5t19.5 -45.5q0 -27 -19.5 -46t-45.5 -19
q-27 0 -46 19z" />
    <glyph glyph-name="quotedbl" unicode="&#x22;" horiz-adv-x="330" 
d="M38.5 672.5q18.5 17.5 41.5 17.5t41.5 -17.5t18.5 -42.5q0 -19 -5.5 -34.5t-17.5 -38.5q-15 -30 -23.5 -55.5t-8.5 -61.5h-10q0 36 -8.5 61.5t-23.5 55.5q-12 23 -17.5 38.5t-5.5 34.5q0 25 18.5 42.5zM208.5 672.5q18.5 17.5 41.5 17.5t41.5 -17.5t18.5 -42.5
q0 -19 -5.5 -34.5t-17.5 -38.5q-15 -30 -23.5 -55.5t-8.5 -61.5h-10q0 36 -8.5 61.5t-23.5 55.5q-12 23 -17.5 38.5t-5.5 34.5q0 25 18.5 42.5z" />
    <glyph glyph-name="numbersign" unicode="#" horiz-adv-x="599" 
d="M20 237h140l65 206h-137v10h140l71 227l10 -3l-70 -224h189l71 227l10 -3l-70 -224h140v-10h-144l-64 -206h140v-10h-144l-71 -227l-10 3l70 224h-188l-71 -227l-10 3l70 224h-137v10zM360 237l64 206h-188l-65 -206h189z" />
    <glyph glyph-name="dollar" unicode="$" horiz-adv-x="545" 
d="M497.5 88q-27.5 -43 -73.5 -67.5t-101 -29.5v-61h-10v60h-14q-39 0 -86 10v-70h-10v73q-60 13 -105 32q-13 5 -23 5q-17 0 -27 -10.5t-10 -29.5v-19h-10v244h10q2 -66 49.5 -121t115.5 -83v278l-39 16q-63 25 -103.5 70t-40.5 118q0 41 23 80t64.5 66.5t95.5 36.5v64h10
v-62q24 2 36 2q24 0 64 -6v66h10v-68q12 -2 43 -10q26 -7 34 -7q43 0 43 30v24h19v-244h-10q0 75 -36 124t-93 69v-278l19 -7q183 -63 183 -196q0 -56 -27.5 -99zM213 676v-243l19 -8l81 -32v278q-31 9 -64 9q-21 0 -36 -4zM131 483.5q26 -27.5 72 -46.5v237
q-44 -11 -71 -42t-27 -69q0 -52 26 -79.5zM313 0v254l-27 11q-13 6 -73 30v-278q45 -17 86 -17h14zM409.5 40q30.5 33 30.5 87q0 47 -31.5 74t-85.5 49v-249q56 6 86.5 39z" />
    <glyph glyph-name="percent" unicode="%" horiz-adv-x="690" 
d="M43.5 617q23.5 36 58.5 54.5t69 18.5q33 0 68 -18.5t58 -54.5t23 -85t-23 -84.5t-57.5 -53.5t-68.5 -18t-69 18t-58.5 53.5t-23.5 84.5t23.5 85zM118 423.5q19 -37.5 53 -37.5t52.5 37.5t18.5 108.5q0 72 -18.5 110t-52.5 38t-53 -38t-19 -110q0 -71 19 -108.5zM533 677
l-365 -677l-10 3l365 677zM393.5 231q23.5 36 58.5 54.5t69 18.5q33 0 68 -18.5t58 -54.5t23 -85t-23 -84.5t-57.5 -53.5t-68.5 -18t-69 18t-58.5 53.5t-23.5 84.5t23.5 85zM468 37.5q19 -37.5 53 -37.5t52.5 37.5t18.5 108.5q0 72 -18.5 110t-52.5 38t-53 -38t-19 -110
q0 -71 19 -108.5z" />
    <glyph glyph-name="ampersand" unicode="&#x26;" horiz-adv-x="811" 
d="M791 113q-22 -46 -36.5 -68.5t-40 -38.5t-65.5 -16q-90 0 -182 101q-6 7 -14.5 16.5t-18.5 22.5q-22 -55 -65 -97.5t-117 -42.5q-63 0 -116 24.5t-84.5 66.5t-31.5 92q0 58 33 97t73 59.5t113 49.5l-25 33q-23 28 -39.5 63t-16.5 69q0 41 21 74t59.5 52.5t89.5 19.5
q75 0 117.5 -33.5t42.5 -82.5q0 -58 -41.5 -97.5t-111.5 -68.5q19 -22 34 -41.5t27 -34.5l65 -82q80 199 216 199q26 0 44 -15.5t18 -37.5q0 -23 -15 -38t-37 -15q-12 0 -21.5 5t-24.5 16q-13 10 -20.5 14t-16.5 4q-23 0 -43 -9t-43 -40.5t-47 -95.5q53 -65 91 -107
q6 -7 33.5 -35.5t52 -41.5t51.5 -13q25 0 46.5 22.5t36.5 53.5zM274.5 646.5q-16.5 -33.5 -16.5 -72.5q0 -44 16 -76.5t46 -70.5l7 -8q36 29 53.5 69t17.5 86q0 39 -16.5 72.5t-53.5 33.5t-53.5 -33.5zM379 71q31 31 45 72q-76 92 -178 226q-42 -24 -72 -62.5t-30 -109.5
q0 -68 41.5 -112.5t106.5 -44.5q56 0 87 31z" />
    <glyph glyph-name="quotesingle" unicode="'" horiz-adv-x="160" 
d="M38.5 672.5q18.5 17.5 41.5 17.5t41.5 -17.5t18.5 -42.5q0 -19 -5.5 -34.5t-17.5 -38.5q-15 -30 -23.5 -55.5t-8.5 -61.5h-10q0 36 -8.5 61.5t-23.5 55.5q-12 23 -17.5 38.5t-5.5 34.5q0 25 18.5 42.5z" />
    <glyph glyph-name="parenleft" unicode="(" horiz-adv-x="320" 
d="M300 681q-86 -72 -123 -173.5t-37 -236.5t37 -236.5t123 -173.5l-3 -10q-127 76 -202 178.5t-75 241.5t75 241.5t202 178.5z" />
    <glyph glyph-name="parenright" unicode=")" horiz-adv-x="320" 
d="M225 512.5q75 -102.5 75 -241.5t-75 -241.5t-202 -178.5l-3 10q86 72 123 173.5t37 236.5t-37 236.5t-123 173.5l3 10q127 -76 202 -178.5z" />
    <glyph glyph-name="asterisk" unicode="*" horiz-adv-x="338" 
d="M318 460q0 -9 -5 -19q-5 -9 -15 -14.5t-21 -5.5t-19 5q-11 6 -17.5 14.5t-15.5 22.5q-14 20 -24 32t-29 24q1 -23 6.5 -38t15.5 -35q8 -14 11.5 -24.5t3.5 -23.5q0 -17 -12.5 -28.5t-27.5 -11.5t-27.5 11.5t-12.5 28.5q0 21 16 48q11 22 15.5 36t5.5 36
q-20 -12 -31.5 -25t-21.5 -30q-9 -14 -15.5 -22.5t-17.5 -14.5q-8 -5 -19 -5t-21 5.5t-15 14.5q-5 10 -5 19q0 25 20 36q11 6 22 8t27 2q22 1 38 4t36 14q-20 11 -36 14t-38 4q-16 0 -27 2t-22 8q-20 11 -20 36q0 9 5 19q5 9 15 14.5t21 5.5q12 0 19 -5q11 -6 17.5 -14.5
t15.5 -22.5q10 -17 21.5 -30t31.5 -25q-1 22 -5.5 36t-15.5 36q-16 27 -16 48q0 17 12.5 28.5t27.5 11.5t27.5 -11.5t12.5 -28.5q0 -13 -3.5 -23.5t-11.5 -24.5q-10 -20 -15.5 -35t-6.5 -38q19 12 29 24t24 32q9 14 15.5 22.5t17.5 14.5q8 5 19 5t21 -5.5t15 -14.5
q5 -10 5 -19q0 -25 -20 -36q-11 -6 -22 -8t-27 -2q-21 -1 -37.5 -4t-35.5 -14q19 -11 35.5 -14t37.5 -4q16 0 27 -2t22 -8q20 -11 20 -36z" />
    <glyph glyph-name="plus" unicode="+" horiz-adv-x="440" 
d="M420 326h-195v-195h-10v195h-195v10h195v195h10v-195h195v-10z" />
    <glyph glyph-name="comma" unicode="," horiz-adv-x="180" 
d="M39 9q-19 19 -19 46q0 26 19 45.5t46 19.5q31 0 53 -22.5t22 -62.5q0 -52 -30 -93t-84 -63l-3 10q53 23 77 60t24 79q-8 -16 -23 -27t-36 -11q-27 0 -46 19z" />
    <glyph glyph-name="hyphen" unicode="-" horiz-adv-x="240" 
d="M220 328v-10h-200v10h200z" />
    <glyph glyph-name="period" unicode="." horiz-adv-x="170" 
d="M39 9q-19 19 -19 46q0 26 19 45.5t46 19.5q26 0 45.5 -19.5t19.5 -45.5q0 -27 -19.5 -46t-45.5 -19q-27 0 -46 19z" />
    <glyph glyph-name="slash" unicode="/" horiz-adv-x="307" 
d="M287 700l-257 -850l-10 3l257 850z" />
    <glyph glyph-name="zero" unicode="0" horiz-adv-x="640" 
d="M79.5 531q39.5 79 103.5 119t137 40t137 -40t103.5 -119t39.5 -191t-39.5 -191t-103.5 -119t-137 -40t-137 40t-103.5 119t-39.5 191t39.5 191zM180 149.5q10 -70.5 42.5 -110t97.5 -39.5t97.5 39t42.5 110t10 191t-10 190.5t-42.5 110t-97.5 39.5t-97.5 -39.5
t-42.5 -110t-10 -190.5t10 -190.5z" />
    <glyph glyph-name="one" unicode="1" horiz-adv-x="298" 
d="M206 690h10v-603q0 -46 19.5 -61.5t42.5 -15.5v-10h-244v10q23 0 42.5 15.5t19.5 61.5v452q0 15 -4.5 21t-14.5 6t-18.5 -3t-18.5 -8.5t-14 -7.5l-6 10z" />
    <glyph glyph-name="two" unicode="2" horiz-adv-x="566" 
d="M471 125.5q35 25.5 35 74.5h10v-200h-476l80 100q8 10 75 85q67 74 104.5 122.5t62 105.5t24.5 121q0 61 -21 103.5t-63 42.5t-66.5 -18.5t-36 -45t-22.5 -68.5q-12 -46 -24.5 -68t-40.5 -22q-26 0 -40.5 16t-14.5 43q0 41 34.5 81.5t93.5 66t127 25.5q75 0 123 -29
t69.5 -73t21.5 -89q0 -49 -29 -92t-72 -78t-116 -86q-64 -45 -104.5 -76.5t-71.5 -66.5h218q85 0 120 25.5z" />
    <glyph glyph-name="three" unicode="3" horiz-adv-x="540" 
d="M462 324.5q58 -47.5 58 -134.5q0 -104 -77.5 -152t-186.5 -48q-64 0 -118.5 23.5t-86 63.5t-31.5 86q0 27 14.5 43t40.5 16q28 0 40 -22.5t22 -68.5q10 -42 20 -68t33 -44.5t64 -18.5q70 0 103 51t33 139q0 85 -43 137.5t-121 52.5v10q74 0 99 39.5t25 117.5
q0 58 -23.5 95.5t-70.5 37.5q-36 0 -56 -16t-28 -39t-15 -60q-9 -44 -20.5 -65.5t-40.5 -21.5q-26 0 -40.5 16t-14.5 43q0 40 32 75.5t82.5 56.5t100.5 21q108 0 166 -41.5t58 -111.5q0 -130 -173 -152q97 -13 155 -60.5z" />
    <glyph glyph-name="four" unicode="4" horiz-adv-x="541" 
d="M405 215v-128q0 -46 19.5 -61.5t42.5 -15.5v-10h-244v10q23 0 42.5 15.5t19.5 61.5v128h-265v10l264 454h1v1h120v-455h116v-10h-116zM285 225v436l-254 -436h254z" />
    <glyph glyph-name="five" unicode="5" horiz-adv-x="509" 
d="M368 400.5q56 -29.5 88.5 -80t32.5 -110.5t-32.5 -110.5t-88.5 -80t-123 -29.5q-56 0 -108 21.5t-84.5 59t-32.5 82.5q0 27 14.5 43t40.5 16q32 0 42.5 -21.5t16.5 -66.5q5 -39 12.5 -64t30.5 -42.5t66 -17.5q68 0 92 55.5t24 154.5t-23.5 154.5t-90.5 55.5
q-51 0 -94 -27t-86 -84h-13l20 271l8 100h269q46 0 61.5 19.5t15.5 42.5h10v-162h-351l-19 -251q77 101 179 101q67 0 123 -29.5z" />
    <glyph glyph-name="six" unicode="6" horiz-adv-x="568" 
d="M418 402.5q51 -27.5 80.5 -77.5t29.5 -115t-32.5 -115t-88 -77.5t-123.5 -27.5q-70 0 -125 30.5t-87 93.5t-32 156q0 126 59 221.5t145.5 147t163.5 51.5v-10q-58 0 -105.5 -39.5t-79.5 -106.5t-45 -149q50 45 126 45q63 0 114 -27.5zM374.5 55.5q23.5 55.5 23.5 154.5
q0 68 -6.5 111.5t-29 71t-68.5 27.5q-30 0 -63 -14t-55 -38q-6 -42 -6 -88q0 -99 8.5 -158.5t33.5 -90.5t72 -31q67 0 90.5 55.5z" />
    <glyph glyph-name="seven" unicode="7" horiz-adv-x="459" 
d="M65 554.5q-35 -25.5 -35 -74.5h-10v262h10q0 -23 15.5 -42.5t61.5 -19.5h332q-91 -159 -134.5 -246.5t-66.5 -171.5t-23 -182q0 -43 -19.5 -66.5t-50.5 -23.5t-50.5 21.5t-19.5 58.5q0 55 42.5 129t126.5 190q92 127 127 191h-186q-85 0 -120 -25.5z" />
    <glyph glyph-name="eight" unicode="8" horiz-adv-x="586" 
d="M499.5 300.5q46.5 -51.5 46.5 -113.5q0 -64 -38.5 -108.5t-95.5 -66.5t-114 -22q-58 0 -117.5 18.5t-100 58t-40.5 100.5q0 58 42 98.5t103 63.5q-46 31 -71 77t-25 97q0 50 27.5 93t75.5 68.5t106 25.5q55 0 101 -20.5t72.5 -57.5t26.5 -85q0 -60 -39 -91t-93 -50l9 -3
q78 -31 124.5 -82.5zM199.5 647.5q-36.5 -32.5 -36.5 -84.5q0 -43 22.5 -73.5t53.5 -45.5q35 -17 107 -49q33 21 52.5 56.5t19.5 85.5q0 33 -12 66t-39 55t-69 22q-62 0 -98.5 -32.5zM406.5 38q41.5 38 41.5 97q0 30 -18 52.5t-41.5 37t-66.5 36.5l-106 50l-15 7
q-25 -17 -43 -50.5t-18 -88.5q0 -57 22 -97.5t58.5 -61t77.5 -20.5q67 0 108.5 38z" />
    <glyph glyph-name="nine" unicode="9" horiz-adv-x="568" 
d="M409 659.5q55 -30.5 87 -93.5t32 -156q0 -126 -59 -221.5t-145.5 -147t-163.5 -51.5v10q58 0 105.5 39.5t79.5 106.5t45 149q-50 -45 -126 -45q-63 0 -114 27.5t-80.5 77.5t-29.5 115t32.5 115t88 77.5t123.5 27.5q70 0 125 -30.5zM337 274q33 14 55 38q6 42 6 88
q0 99 -8.5 158.5t-33.5 90.5t-72 31q-67 0 -90.5 -55.5t-23.5 -154.5q0 -68 6.5 -111.5t29 -71t68.5 -27.5q30 0 63 14z" />
    <glyph glyph-name="colon" unicode=":" horiz-adv-x="170" 
d="M39 329q-19 19 -19 46q0 26 19 45.5t46 19.5q26 0 45.5 -19.5t19.5 -45.5q0 -27 -19.5 -46t-45.5 -19q-27 0 -46 19zM39 9q-19 19 -19 46q0 26 19 45.5t46 19.5q26 0 45.5 -19.5t19.5 -45.5q0 -27 -19.5 -46t-45.5 -19q-27 0 -46 19z" />
    <glyph glyph-name="semicolon" unicode=";" horiz-adv-x="180" 
d="M39 329q-19 19 -19 46q0 26 19 45.5t46 19.5q26 0 45.5 -19.5t19.5 -45.5q0 -27 -19.5 -46t-45.5 -19q-27 0 -46 19zM39 9q-19 19 -19 46q0 26 19 45.5t46 19.5q31 0 53 -22.5t22 -62.5q0 -52 -30 -93t-84 -63l-3 10q53 23 77 60t24 79q-8 -16 -23 -27t-36 -11
q-27 0 -46 19z" />
    <glyph glyph-name="less" unicode="&#x3c;" horiz-adv-x="460" 
d="M20 335v10l420 166v-11l-404 -160l404 -160v-11z" />
    <glyph glyph-name="equal" unicode="=" horiz-adv-x="440" 
d="M420 416v-10h-400v10h400zM420 256v-10h-400v10h400z" />
    <glyph glyph-name="greater" unicode="&#x3e;" horiz-adv-x="460" 
d="M20 180l404 160l-404 160v11l420 -166v-10l-420 -166v11z" />
    <glyph glyph-name="question" unicode="?" horiz-adv-x="475" 
d="M52 612.5q32 35.5 82.5 56.5t100.5 21q59 0 109.5 -26t80.5 -71.5t30 -102.5q0 -40 -15.5 -69.5t-38 -50t-60.5 -48.5q-34 -25 -54 -43t-33.5 -43t-13.5 -56h-10q0 46 12 76t37 69q26 40 40 75t16 90q0 190 -100 190q-36 0 -56 -16t-28 -39t-15 -60q-9 -44 -20.5 -65.5
t-40.5 -21.5q-26 0 -40.5 16t-14.5 43q0 40 32 75.5zM189 9q-19 19 -19 46q0 26 19 45.5t46 19.5q26 0 45.5 -19.5t19.5 -45.5q0 -27 -19.5 -46t-45.5 -19q-27 0 -46 19z" />
    <glyph glyph-name="at" unicode="@" horiz-adv-x="874" 
d="M529 61.5q-44 27.5 -41 86.5q-57 -114 -161 -114q-67 0 -106 35.5t-39 103.5q0 70 41 137t107 109.5t137 42.5q45 0 71 -27.5t28 -65.5l19 49l130 14q-63 -176 -104 -295q-7 -20 -7 -37q0 -26 16.5 -39.5t43.5 -13.5q53 0 94 26.5t63.5 74.5t22.5 110q0 114 -54 197
t-146.5 126.5t-205.5 43.5q-111 0 -204.5 -55t-148.5 -148.5t-55 -203.5t55 -203.5t148.5 -148.5t204.5 -55q89 0 169 37t137 101l6 -7q-59 -66 -140 -103.5t-172 -37.5q-114 0 -210 56t-152 152t-56 209t56.5 209t152.5 152t209 56q116 0 210.5 -45t150 -130.5t55.5 -201.5
q0 -100 -54 -162t-156 -62q-71 0 -115 27.5zM443.5 97.5q34.5 43.5 54.5 95.5q1 6 3 10.5t3 7.5l45 115q6 14 6 35q0 32 -17 56.5t-51 24.5q-53 0 -97.5 -47t-71 -115.5t-26.5 -126.5q0 -47 17.5 -73t47.5 -26q52 0 86.5 43.5z" />
    <glyph glyph-name="A" unicode="A" horiz-adv-x="832" 
d="M761 24q27 -14 51 -14v-10h-292v10q30 0 45.5 11.5t15.5 38.5q0 32 -25 92l-5 13h-356l-4 -11q-23 -57 -23 -91q0 -29 16 -41t47 -12v-10h-211v10q49 0 89 32.5t71 111.5l182 462l-13 30q30 0 60.5 18t30.5 51h10l266 -635q18 -42 45 -56zM546 175l-179 427l-168 -427
h347z" />
    <glyph glyph-name="B" unicode="B" horiz-adv-x="665" 
d="M571 295.5q54 -48.5 54 -119.5q0 -53 -31 -93t-88.5 -61.5t-134.5 -21.5h-351v10q23 0 42.5 15.5t19.5 61.5v506q0 46 -19.5 61.5t-42.5 15.5v10h315q124 0 186 -48t62 -121q0 -65 -53 -104t-125 -56q112 -7 166 -55.5zM202 352h123q74 0 106 37.5t32 121.5t-32 121.5
t-106 37.5h-123v-318zM471.5 49.5q33.5 39.5 33.5 126.5t-33.5 126.5t-111.5 39.5h-158v-332h158q78 0 111.5 39.5z" />
    <glyph glyph-name="C" unicode="C" horiz-adv-x="651" 
d="M631 212q-29 -94 -99 -158t-182 -64q-73 0 -145 40t-118.5 117t-46.5 183q0 110 50.5 192t125.5 125t144 43q68 0 121.5 -12t59.5 -13q12 -2 17 -2q39 0 39 42v17h10v-282h-10q0 61 -30.5 116.5t-85 89.5t-121.5 34q-60 0 -105.5 -37t-70 -96.5t-24.5 -126.5
q0 -109 33 -188t94 -120.5t143 -41.5q58 0 106 33.5t87 113.5z" />
    <glyph glyph-name="D" unicode="D" horiz-adv-x="700" 
d="M489 642q74 -38 122.5 -115t48.5 -187t-48.5 -187t-122.5 -115t-149 -38h-138h-182v10q23 0 42.5 15.5t19.5 61.5v506q0 46 -19.5 61.5t-42.5 15.5v10h182h138q75 0 149 -38zM484.5 93.5q45.5 83.5 45.5 246.5t-45.5 246.5t-144.5 83.5h-138v-660h138q99 0 144.5 83.5z
" />
    <glyph glyph-name="E" unicode="E" horiz-adv-x="573" 
d="M533 722v-282h-10q0 31 -16.5 87t-47 99.5t-71.5 43.5h-186v-325h98q34 0 49.5 38.5t15.5 91.5h10v-270h-10q0 53 -15.5 91.5t-49.5 38.5h-98v-325h186q41 0 71.5 43.5t47 99.5t16.5 87h10v-282h-10q0 19 -15 30.5t-62 11.5h-426v10q23 0 42.5 15.5t19.5 61.5v506
q0 46 -19.5 61.5t-42.5 15.5v10h426q47 0 62 11.5t15 30.5h10z" />
    <glyph glyph-name="F" unicode="F" horiz-adv-x="533" 
d="M513 722v-282h-10q0 31 -16.5 87t-47 99.5t-71.5 43.5h-166v-325h98q34 0 49.5 38.5t15.5 91.5h10v-270h-10q0 53 -15.5 91.5t-49.5 38.5h-98v-248q0 -46 19.5 -61.5t42.5 -15.5v-10h-244v10q23 0 42.5 15.5t19.5 61.5v506q0 46 -19.5 61.5t-42.5 15.5v10h406
q47 0 62 11.5t15 30.5h10z" />
    <glyph glyph-name="G" unicode="G" horiz-adv-x="726" 
d="M706 300q-23 0 -42.5 -15.5t-19.5 -61.5v-125q-20 -25 -61 -50t-96.5 -41.5t-116.5 -16.5q-75 0 -151.5 40.5t-127.5 120t-51 189.5t49 189.5t123 120t148 40.5q61 0 118.5 -12t62.5 -13q12 -2 17 -2q39 0 39 42v17h10v-282h-10q0 61 -30.5 116.5t-85 89.5t-121.5 34
q-190 0 -190 -340q0 -160 55 -250t155 -90q104 0 144 98v125q0 46 -19.5 61.5t-42.5 15.5v10h244v-10z" />
    <glyph glyph-name="H" unicode="H" horiz-adv-x="728" 
d="M665.5 654.5q-19.5 -15.5 -19.5 -61.5v-506q0 -46 19.5 -61.5t42.5 -15.5v-10h-244v10q23 0 42.5 15.5t19.5 61.5v248h-324v-248q0 -46 19.5 -61.5t42.5 -15.5v-10h-244v10q23 0 42.5 15.5t19.5 61.5v506q0 46 -19.5 61.5t-42.5 15.5v10h244v-10q-23 0 -42.5 -15.5
t-19.5 -61.5v-248h324v248q0 46 -19.5 61.5t-42.5 15.5v10h244v-10q-23 0 -42.5 -15.5z" />
    <glyph glyph-name="I" unicode="I" 
d="M62.5 654.5q-19.5 15.5 -42.5 15.5v10h244v-10q-23 0 -42.5 -15.5t-19.5 -61.5v-506q0 -46 19.5 -61.5t42.5 -15.5v-10h-244v10q23 0 42.5 15.5t19.5 61.5v506q0 46 -19.5 61.5z" />
    <glyph glyph-name="J" unicode="J" horiz-adv-x="424" 
d="M222 5l120 115zM404 670q-23 0 -42.5 -15.5t-19.5 -61.5v-473q0 -132 -61.5 -195t-162.5 -63q-42 0 -70 17t-28 42q0 23 15.5 36t37.5 13q21 0 33.5 -12.5t25.5 -34.5q12 -20 22 -30.5t26 -10.5q42 0 42 123v588q0 46 -19.5 61.5t-42.5 15.5v10h244v-10z" />
    <glyph glyph-name="K" unicode="K" horiz-adv-x="713" 
d="M639 23q29 -13 54 -13v-10h-303v10q27 0 40.5 8.5t13.5 27.5q0 30 -38 96l-112 189l-92 -124v-120q0 -46 19.5 -61.5t42.5 -15.5v-10h-244v10q23 0 42.5 15.5t19.5 61.5v506q0 46 -19.5 61.5t-42.5 15.5v10h244v-10q-23 0 -42.5 -15.5t-19.5 -61.5v-369l87 117l-44 74h10
q25 -19 67 -30l120 162q48 67 48 95q0 15 -12.5 21.5t-37.5 6.5v10h242v-10q-55 0 -117.5 -28.5t-110.5 -94.5l-121 -164q29 -5 76 -5l178 -303q23 -39 52 -52z" />
    <glyph glyph-name="L" unicode="L" horiz-adv-x="533" 
d="M493 240v-282h-10q0 19 -15 30.5t-62 11.5h-386v10q23 0 42.5 15.5t19.5 61.5v506q0 46 -19.5 61.5t-42.5 15.5v10h244v-10q-23 0 -42.5 -15.5t-19.5 -61.5v-583h146q41 0 71.5 43.5t47 99.5t16.5 87h10z" />
    <glyph glyph-name="M" unicode="M" horiz-adv-x="886" 
d="M823.5 654.5q-19.5 -15.5 -19.5 -61.5v-506q0 -46 19.5 -61.5t42.5 -15.5v-10h-244v10q23 0 42.5 15.5t19.5 61.5v567l-208 -544l18 -41q-24 0 -48.5 -11t-40 -27t-15.5 -31h-10l-249 575v-410q0 -85 25.5 -120t74.5 -35v-10h-211v10q49 0 74.5 35t25.5 120v435
q-18 42 -45.5 56t-51.5 14v10h206l241 -556l213 556h183v-10q-23 0 -42.5 -15.5z" />
    <glyph glyph-name="N" unicode="N" horiz-adv-x="719" 
d="M699 670q-49 0 -74.5 -35t-25.5 -120v-400l30 -46q-24 0 -44.5 -10.5t-32.5 -27t-12 -31.5h-10l-397 607l-2 3v-445q0 -85 25.5 -120t74.5 -35v-10h-211v10q49 0 74.5 35t25.5 120v459q-40 46 -97 46v10h206l359 -548v383q0 85 -25.5 120t-74.5 35v10h211v-10z" />
    <glyph glyph-name="O" unicode="O" horiz-adv-x="720" 
d="M89 529.5q49 79.5 123 120t148 40.5t148 -40.5t123 -120t49 -189.5t-49 -189.5t-123 -120t-148 -40.5t-148 40.5t-123 120t-49 189.5t49 189.5zM360 0q190 0 190 340t-190 340t-190 -340t190 -340z" />
    <glyph glyph-name="P" unicode="P" horiz-adv-x="623" 
d="M473 650q56 -30 83 -76t27 -94t-27 -93.5t-82.5 -75t-138.5 -29.5h-133v-195q0 -46 19.5 -61.5t42.5 -15.5v-10h-244v10q23 0 42.5 15.5t19.5 61.5v506q0 46 -19.5 61.5t-42.5 15.5v10h315q82 0 138 -30zM420 343.5q33 51.5 33 136.5q0 86 -33 138t-95 52h-123v-378h123
q62 0 95 51.5z" />
    <glyph glyph-name="Q" unicode="Q" horiz-adv-x="720" 
d="M501 -65l84 -116q-24 0 -44.5 -10.5t-33 -27t-12.5 -31.5h-10l-173 244q-69 12 -131 55.5t-101.5 117.5t-39.5 173q0 110 49 189.5t123 120t148 40.5t148 -40.5t123 -120t49 -189.5t-49 -189.5t-123 -120t-148 -40.5q-12 0 -36 2q51 -57 177 -57zM360 0q190 0 190 340
t-190 340t-190 -340t190 -340z" />
    <glyph glyph-name="R" unicode="R" horiz-adv-x="671" 
d="M595.5 22q30.5 -12 55.5 -12v-10h-273v10q31 0 31 19q0 15 -19 42l-148 211h-40v-195q0 -46 19.5 -61.5t42.5 -15.5v-10h-244v10q23 0 42.5 15.5t19.5 61.5v506q0 46 -19.5 61.5t-42.5 15.5v10h315q82 0 138 -30t83 -76t27 -94q0 -42 -21 -83.5t-65 -71.5t-108 -39
l150 -215q26 -37 56.5 -49zM202 292h123q62 0 95 51.5t33 136.5q0 86 -33 138t-95 52h-123v-378z" />
    <glyph glyph-name="S" unicode="S" horiz-adv-x="565" 
d="M38 225q2 -61 43 -112.5t101.5 -82t116.5 -30.5q68 0 104.5 34t36.5 93q0 39 -22.5 64.5t-48 38t-83.5 35.5q-62 27 -122 50q-63 25 -103.5 70t-40.5 118q0 46 29.5 89.5t82 70.5t117.5 27q62 0 104.5 -12t46.5 -13q10 -2 14 -2q16 0 27 8.5t11 23.5v24h10v-244h-10
q0 67 -29 113.5t-75.5 69t-98.5 22.5q-40 0 -73 -16t-52 -42.5t-19 -58.5q0 -43 18.5 -69t41 -38t67.5 -31q86 -34 110 -42q183 -63 183 -196q0 -61 -31.5 -105.5t-83.5 -68t-111 -23.5q-52 0 -109.5 15.5t-91.5 29.5q-13 5 -23 5q-17 0 -27 -10.5t-10 -29.5v-19h-10v244h10
z" />
    <glyph glyph-name="T" unicode="T" horiz-adv-x="644" 
d="M624 722v-282h-10q0 31 -16.5 87t-47 99.5t-71.5 43.5h-97v-583q0 -46 19.5 -61.5t42.5 -15.5v-10h-244v10q23 0 42.5 15.5t19.5 61.5v583h-97q-41 0 -71.5 -43.5t-47 -99.5t-16.5 -87h-10v282h10q0 -19 15 -30.5t62 -11.5h430q47 0 62 11.5t15 30.5h10z" />
    <glyph glyph-name="U" unicode="U" horiz-adv-x="695" 
d="M62.5 654.5q-19.5 15.5 -42.5 15.5v10h244v-10q-23 0 -42.5 -15.5t-19.5 -61.5v-339q0 -109 44 -176.5t132 -67.5q50 0 92.5 23t68.5 71t26 120v291q0 85 -25.5 120t-74.5 35v10h210v-10q-49 0 -74.5 -35t-25.5 -120v-291q0 -74 -27 -126.5t-73.5 -80t-106.5 -27.5
q-81 0 -145.5 28t-102.5 83t-38 133v359q0 46 -19.5 61.5z" />
    <glyph glyph-name="V" unicode="V" horiz-adv-x="802" 
d="M782 670q-49 0 -90 -32.5t-73 -110.5l-165 -402l24 -56q-24 0 -45 -10.5t-33.5 -27t-12.5 -31.5h-10l-260 600q-18 42 -45.5 56t-51.5 14v10h292v-10q-29 0 -44.5 -11t-15.5 -37q0 -34 26 -93l170 -391l160 389q24 56 24 92q0 27 -15.5 39t-45.5 12v10h211v-10z" />
    <glyph glyph-name="W" unicode="W" horiz-adv-x="1219" 
d="M1199 670q-49 0 -89 -32.5t-71 -111.5l-163 -413l19 -44q-24 0 -45 -10.5t-33.5 -27t-12.5 -31.5h-10l-206 492l-144 -366l24 -57q-24 0 -45 -10.5t-33.5 -27t-12.5 -31.5h-10l-251 600q-18 42 -45 56t-51 14v10h292v-10q-30 0 -45.5 -11.5t-15.5 -38.5q0 -33 25 -92
l162 -388l144 366l-39 94q-18 42 -45 56t-51 14v10h292v-10q-30 0 -45.5 -11.5t-15.5 -38.5q0 -33 25 -92l168 -401l157 399q23 58 23 91q0 29 -16 41t-47 12v10h211v-10z" />
    <glyph glyph-name="X" unicode="X" horiz-adv-x="773" 
d="M698 22q30 -12 55 -12v-10h-306v10q26 0 39 7t13 24q0 31 -44 96l-106 158l-119 -162q-37 -51 -37 -81q0 -42 69 -42v-10h-242v10q50 0 99 27.5t99 95.5l126 171l-204 304q-25 38 -55 50t-55 12v10h306v-10q-26 0 -39 -7t-13 -24q0 -31 44 -96l91 -137l104 141
q37 51 37 81q0 42 -69 42v10h242v-10q-50 0 -99 -27.5t-99 -95.5l-110 -149l218 -326q25 -38 55 -50z" />
    <glyph glyph-name="Y" unicode="Y" horiz-adv-x="762" 
d="M742 670q-50 0 -96.5 -29.5t-90.5 -100.5l-119 -194v-259q0 -46 19.5 -61.5t42.5 -15.5v-10h-244v10q23 0 42.5 15.5t19.5 61.5v239l-186 281q-25 38 -55 50.5t-55 12.5v10h306v-10q-26 0 -39 -7.5t-13 -24.5q0 -31 43 -96l118 -178l108 176q30 50 30 80q0 50 -73 50v10
h242v-10z" />
    <glyph glyph-name="Z" unicode="Z" horiz-adv-x="590" 
d="M476.5 53.5q30.5 43.5 47 99.5t16.5 87h10v-282h-10q0 19 -15 30.5t-62 11.5h-443l404 670h-223q-41 0 -71.5 -43.5t-47 -99.5t-16.5 -87h-10v282h10q0 -19 15 -30.5t62 -11.5h427l-404 -670h239q41 0 71.5 43.5z" />
    <glyph glyph-name="bracketleft" unicode="[" horiz-adv-x="310" 
d="M140 690v-830h150v-10h-270v850h270v-10h-150z" />
    <glyph glyph-name="backslash" unicode="\" horiz-adv-x="317" 
d="M297 -147l-10 -3l-267 850l10 3z" />
    <glyph glyph-name="bracketright" unicode="]" horiz-adv-x="310" 
d="M290 -150h-270v10h150v830h-150v10h270v-850z" />
    <glyph glyph-name="asciicircum" unicode="^" horiz-adv-x="382" 
d="M186 680h10l166 -420h-11l-160 404l-160 -404h-11z" />
    <glyph glyph-name="underscore" unicode="_" horiz-adv-x="440" 
d="M420 10v-10h-400v10h400z" />
    <glyph glyph-name="grave" unicode="`" horiz-adv-x="203" 
d="M136 594q-19 18 -47 41q-36 30 -52.5 49t-16.5 40q0 19 13 32.5t32 13.5q27 0 43 -27t35 -83q22 -67 40 -97l-12 -8q-16 21 -35 39z" />
    <glyph glyph-name="a" unicode="a" horiz-adv-x="567" 
d="M504.5 25.5q19.5 -15.5 42.5 -15.5v-10h-67h-115v52q-29 -29 -62.5 -45.5t-67.5 -16.5q-57 0 -106 26.5t-79 80t-30 130.5t30 135.5t79.5 90t105.5 31.5q63 0 130 -56v83h10q50 -50 110 -50v-374q0 -46 19.5 -61.5zM365 66v348q-54 50 -105 50q-34 0 -61.5 -31t-43 -85
t-15.5 -121q0 -100 33.5 -158.5t86.5 -58.5q46 0 105 56z" />
    <glyph glyph-name="b" unicode="b" horiz-adv-x="607" 
d="M459 480q51 -30 79.5 -88.5t28.5 -141.5t-28.5 -141.5t-79.5 -88.5t-117 -30q-36 0 -74.5 16.5t-65.5 52.5v-59h-182v10q23 0 42.5 15.5t19.5 61.5v506q0 46 -19.5 61.5t-42.5 15.5v10q40 0 96.5 15.5t75.5 34.5h10v-289q27 36 65.5 52.5t74.5 16.5q66 0 117 -30zM406 63
q33 58 33 187q0 132 -30.5 188.5t-86.5 56.5q-27 0 -58.5 -16t-61.5 -54v-350q30 -38 61.5 -54t58.5 -16q51 0 84 58z" />
    <glyph glyph-name="c" unicode="c" horiz-adv-x="510" 
d="M470 173q-25 -85 -74.5 -134t-134.5 -49q-55 0 -106 29.5t-83 88.5t-32 141q0 79 34 138t87.5 91t109.5 32q51 0 95 -18t70 -48.5t26 -65.5q0 -28 -15 -44t-35 -16t-35 16t-15 44q0 63 -15.5 92.5t-65.5 29.5q-48 0 -77.5 -34t-41.5 -82.5t-12 -94.5q0 -74 22.5 -126
t61 -78t86.5 -26q44 0 81.5 28t60.5 91z" />
    <glyph glyph-name="d" unicode="d" horiz-adv-x="607" 
d="M544.5 25.5q19.5 -15.5 42.5 -15.5v-10h-182v59q-27 -36 -65.5 -52.5t-74.5 -16.5q-66 0 -117 30t-79.5 88.5t-28.5 141.5t28.5 141.5t79.5 88.5t117 30q36 0 74.5 -16.5t65.5 -52.5v152q0 46 -19.5 61.5t-42.5 15.5v10q40 0 96.5 15.5t75.5 34.5h10v-643
q0 -46 19.5 -61.5zM405 425q-30 38 -61.5 54t-58.5 16q-56 0 -86.5 -56.5t-30.5 -188.5q0 -129 33 -187t84 -58q27 0 58.5 16t61.5 54v350z" />
    <glyph glyph-name="e" unicode="e" horiz-adv-x="521" 
d="M411.5 87q37.5 28 60.5 91l8 -5q-25 -85 -74.5 -134t-134.5 -49q-55 0 -108.5 30t-88 88.5t-34.5 140.5q0 76 28.5 135.5t79 92.5t113.5 33q67 0 117 -27t76.5 -73t26.5 -102h-120h-201v-19q0 -74 22.5 -126t61 -78t86.5 -26q44 0 81.5 28zM182 448.5
q-20 -51.5 -22 -130.5h201q-3 182 -100 182q-59 0 -79 -51.5z" />
    <glyph glyph-name="f" unicode="f" horiz-adv-x="417" 
d="M359 677.5q28 -12.5 28 -37.5q0 -19 -14 -33.5t-34 -14.5q-21 0 -33 11.5t-24 34.5q-11 18 -18.5 26t-19.5 8q-42 0 -42 -125v-47h120v-10h-120v-403q0 -46 19.5 -61.5t42.5 -15.5v-10h-244v10q23 0 42.5 15.5t19.5 61.5v335q0 33 5 68h-55v10h57q16 94 70.5 142
t126.5 48q45 0 73 -12.5z" />
    <glyph glyph-name="g" unicode="g" horiz-adv-x="566" 
d="M500 -5q46 -32 46 -98q0 -80 -76 -113.5t-169 -33.5q-71 0 -135.5 16t-105 48t-40.5 78q0 26 13.5 42t36.5 16t36.5 -16t13.5 -42q0 -72 57.5 -102t123.5 -30q77 0 130.5 23t53.5 80q0 30 -32.5 44.5t-87.5 23.5l-183 29q-54 9 -93 35.5t-39 78.5q0 35 27.5 61.5
t67.5 42.5q-38 24 -60.5 61t-22.5 85q0 58 31.5 100t81 64t101.5 22q49 0 93 -18q40 55 107 55q19 0 34.5 -10.5t15.5 -26.5q0 -13 -10 -23.5t-27 -10.5q-12 0 -36 15q-22 14 -32 14q-12 0 -21 -3.5t-20 -14.5q50 -23 80 -65t30 -98q0 -57 -31.5 -98.5t-80.5 -63t-102 -21.5
q-63 0 -118 29q-24 -9 -40 -21.5t-16 -27.5q0 -26 26.5 -36t77.5 -19l160 -25q88 -14 134 -46zM207.5 453q-25.5 -47 -25.5 -129t25.5 -127.5t68.5 -45.5t68.5 45.5t25.5 127.5t-25.5 129t-68.5 47t-68.5 -47z" />
    <glyph glyph-name="h" unicode="h" horiz-adv-x="578" 
d="M515.5 25.5q19.5 -15.5 42.5 -15.5v-10h-244v10q23 0 42.5 15.5t19.5 61.5v346q0 21 -6 29t-22 8q-20 0 -53.5 -19t-92.5 -58v-306q0 -46 19.5 -61.5t42.5 -15.5v-10h-244v10q23 0 42.5 15.5t19.5 61.5v506q0 46 -19.5 61.5t-42.5 15.5v10q40 0 96.5 15.5t75.5 34.5h10
v-325q15 10 21 13q60 41 109 66.5t84 25.5q39 0 59.5 -25t20.5 -72v-326q0 -46 19.5 -61.5z" />
    <glyph glyph-name="i" unicode="i" 
d="M89 579q-19 19 -19 46q0 26 19 45.5t46 19.5q26 0 45.5 -19.5t19.5 -45.5q0 -27 -19.5 -46t-45.5 -19q-27 0 -46 19zM62.5 434.5q-19.5 15.5 -42.5 15.5v10q40 0 96.5 15.5t75.5 34.5h10v-423q0 -46 19.5 -61.5t42.5 -15.5v-10h-244v10q23 0 42.5 15.5t19.5 61.5v286
q0 46 -19.5 61.5z" />
    <glyph glyph-name="j" unicode="j" horiz-adv-x="282" 
d="M89 579q-19 19 -19 46q0 26 19 45.5t46 19.5q26 0 45.5 -19.5t19.5 -45.5q0 -27 -19.5 -46t-45.5 -19q-27 0 -46 19zM202 510v-472q0 -89 -28 -149t-74.5 -89.5t-101.5 -29.5q-45 0 -73 12.5t-28 37.5q0 19 14 33.5t34 14.5t30 -10.5t22 -31.5q9 -18 18 -28t25 -10
q42 0 42 125v460q0 46 -19.5 61.5t-42.5 15.5v10q40 0 96.5 15.5t75.5 34.5h10z" />
    <glyph glyph-name="k" unicode="k" horiz-adv-x="686" 
d="M602 23q29 -13 54 -13v-10h-303v10q27 0 40.5 8.5t13.5 28.5q0 32 -37 96l-78 133l-90 -106v-83q0 -46 19.5 -61.5t42.5 -15.5v-10h-244v10q23 0 42.5 15.5t19.5 61.5v506q0 46 -19.5 61.5t-42.5 15.5v10q40 0 96.5 15.5t75.5 34.5h10v-545l85 100l-44 75h10
q26 -22 72 -31l38 45q55 65 55 92q0 24 -48 24v10h213v-10q-50 0 -101.5 -26t-105.5 -90l-40 -47q28 -4 71 -4l143 -248q23 -39 52 -52z" />
    <glyph glyph-name="l" unicode="l" 
d="M62.5 654.5q-19.5 15.5 -42.5 15.5v10q40 0 96.5 15.5t75.5 34.5h10v-643q0 -46 19.5 -61.5t42.5 -15.5v-10h-244v10q23 0 42.5 15.5t19.5 61.5v506q0 46 -19.5 61.5z" />
    <glyph glyph-name="m" unicode="m" horiz-adv-x="872" 
d="M809.5 25.5q19.5 -15.5 42.5 -15.5v-10h-244v10q23 0 42.5 15.5t19.5 61.5v346q0 21 -6 29t-22 8q-20 0 -53.5 -19t-92.5 -58v-306q0 -46 19.5 -61.5t42.5 -15.5v-10h-244v10q23 0 42.5 15.5t19.5 61.5v346q0 21 -6 29t-22 8q-20 0 -53.5 -19t-92.5 -58v-306
q0 -46 19.5 -61.5t42.5 -15.5v-10h-244v10q23 0 42.5 15.5t19.5 61.5v286q0 46 -19.5 61.5t-42.5 15.5v10q40 0 96.5 15.5t75.5 34.5h10v-105q15 10 21 13q60 41 109 66.5t84 25.5q39 0 59.5 -25t20.5 -72v-8q15 10 21 13q60 41 109 66.5t84 25.5q39 0 59.5 -25t20.5 -72
v-326q0 -46 19.5 -61.5z" />
    <glyph glyph-name="n" unicode="n" horiz-adv-x="578" 
d="M515.5 25.5q19.5 -15.5 42.5 -15.5v-10h-244v10q23 0 42.5 15.5t19.5 61.5v346q0 21 -6 29t-22 8q-20 0 -53.5 -19t-92.5 -58v-306q0 -46 19.5 -61.5t42.5 -15.5v-10h-244v10q23 0 42.5 15.5t19.5 61.5v286q0 46 -19.5 61.5t-42.5 15.5v10q40 0 96.5 15.5t75.5 34.5h10
v-105q15 10 21 13q60 41 109 66.5t84 25.5q39 0 59.5 -25t20.5 -72v-326q0 -46 19.5 -61.5z" />
    <glyph glyph-name="o" unicode="o" horiz-adv-x="569" 
d="M78.5 387.5q38.5 59.5 96 91t110.5 31.5t110 -31.5t95.5 -91t38.5 -139.5t-38.5 -138.5t-95.5 -89t-110 -30.5t-110.5 30.5t-96 89t-38.5 138.5t38.5 139.5zM197.5 64.5q28.5 -64.5 87.5 -64.5t87.5 64.5t28.5 183.5q0 120 -29 186t-87 66t-87 -66t-29 -186
q0 -119 28.5 -183.5z" />
    <glyph glyph-name="p" unicode="p" horiz-adv-x="607" 
d="M459 480q51 -30 79.5 -88.5t28.5 -141.5t-28.5 -141.5t-79.5 -88.5t-117 -30q-36 0 -74.5 16.5t-65.5 52.5v-222q0 -46 19.5 -61.5t42.5 -15.5v-10h-244v10q23 0 42.5 15.5t19.5 61.5v536q0 46 -19.5 61.5t-42.5 15.5v10q40 0 96.5 15.5t75.5 34.5h10v-69
q27 36 65.5 52.5t74.5 16.5q66 0 117 -30zM408.5 61.5q30.5 56.5 30.5 188.5q0 129 -33 187t-84 58q-27 0 -58.5 -16t-61.5 -54v-350q30 -38 61.5 -54t58.5 -16q56 0 86.5 56.5z" />
    <glyph glyph-name="q" unicode="q" horiz-adv-x="587" 
d="M524.5 434.5q-19.5 -15.5 -19.5 -61.5v-536q0 -46 19.5 -61.5t42.5 -15.5v-10h-244v10q23 0 42.5 15.5t19.5 61.5v222q-27 -36 -65.5 -52.5t-74.5 -16.5q-66 0 -117 30t-79.5 88.5t-28.5 141.5t28.5 141.5t79.5 88.5t117 30q36 0 74.5 -16.5t65.5 -52.5v69h10
q19 -19 75.5 -34.5t96.5 -15.5v-10q-23 0 -42.5 -15.5zM385 425q-30 38 -61.5 54t-58.5 16q-56 0 -86.5 -56.5t-30.5 -188.5q0 -129 33 -187t84 -58q27 0 58.5 16t61.5 54v350z" />
    <glyph glyph-name="r" unicode="r" horiz-adv-x="421" 
d="M386 485q15 -15 15 -38t-15 -38t-37 -15q-12 0 -22 5t-23 15q-11 9 -19.5 13t-17.5 4q-10 0 -24.5 -14.5t-40.5 -44.5v-285q0 -46 19.5 -61.5t42.5 -15.5v-10h-244v10q23 0 42.5 15.5t19.5 61.5v286q0 46 -19.5 61.5t-42.5 15.5v10q40 0 96.5 15.5t75.5 34.5h10v-121
q49 53 82.5 82t64.5 29q22 0 37 -15z" />
    <glyph glyph-name="s" unicode="s" horiz-adv-x="437" 
d="M47 164q0 -45 27.5 -82.5t70 -59.5t84.5 -22q51 0 80 24.5t29 67.5q0 24 -18 41t-35 25t-66 28q-35 15 -91 37q-46 18 -77 54t-31 90q0 34 22 67t61.5 54.5t87.5 21.5q35 0 83 -13q22 -5 29 -5q20 0 25.5 9t5.5 31h10v-181h-10q0 45 -21 79t-54 52t-68 18
q-46 0 -79 -24.5t-33 -59.5q0 -31 24.5 -48t51 -27t34.5 -13q44 -18 95 -37q62 -23 87.5 -61t25.5 -93q0 -45 -23.5 -78.5t-62 -51t-82.5 -17.5q-52 0 -94 16t-46 17q-16 4 -20 4q-22 0 -22 -27v-17h-10v181h10z" />
    <glyph glyph-name="t" unicode="t" horiz-adv-x="317" 
d="M297 94q-26 -57 -53 -80.5t-74 -23.5q-52 0 -76 33t-24 97v370h-50v10q34 0 72 23t63 58t25 69h10v-150h100v-10h-100v-380q0 -66 40 -66q17 0 30 11.5t30 42.5z" />
    <glyph glyph-name="u" unicode="u" horiz-adv-x="578" 
d="M515.5 25.5q19.5 -15.5 42.5 -15.5v-10h-182v85q-13 -6 -31 -18q-66 -37 -108 -57t-75 -20q-39 0 -59.5 25t-20.5 72v286q0 46 -19.5 61.5t-42.5 15.5v10q40 0 96.5 15.5t75.5 34.5h10v-443q0 -21 6 -29t22 -8q20 0 53.5 16.5t92.5 50.5v276q0 46 -19.5 61.5t-42.5 15.5
v10q40 0 96.5 15.5t75.5 34.5h10v-423q0 -46 19.5 -61.5z" />
    <glyph glyph-name="v" unicode="v" horiz-adv-x="636" 
d="M616 490q-49 0 -89 -32.5t-71 -111.5l-87 -220l24 -57q-24 0 -45 -10.5t-33.5 -27t-12.5 -31.5h-10l-176 420q-18 42 -45 56t-51 14v10h292v-10q-30 0 -45.5 -11.5t-15.5 -38.5q0 -32 25 -92l87 -208l82 206q23 58 23 91q0 29 -16 41t-47 12v10h211v-10z" />
    <glyph glyph-name="w" unicode="w" horiz-adv-x="991" 
d="M971 490q-49 0 -89 -32.5t-71 -111.5l-87 -220l24 -57q-24 0 -45 -10.5t-33.5 -27t-12.5 -31.5h-10l-167 398q-13 -24 -24 -52l-87 -220l24 -57q-24 0 -45 -10.5t-33.5 -27t-12.5 -31.5h-10l-176 420q-18 42 -45 56t-51 14v10h292v-10q-30 0 -45.5 -11.5t-15.5 -38.5
q0 -32 25 -92l87 -208l82 206q20 51 22 82q-18 37 -43.5 49.5t-48.5 12.5v10h292v-10q-30 0 -45.5 -11.5t-15.5 -38.5q0 -32 25 -92l87 -208l82 206q23 58 23 91q0 29 -16 41t-47 12v10h211v-10z" />
    <glyph glyph-name="x" unicode="x" horiz-adv-x="620" 
d="M545.5 22.5q29.5 -12.5 54.5 -12.5v-10h-268v10q33 0 33 21q0 15 -17 43l-78 125l-44 -64q-34 -50 -34 -80q0 -24 19.5 -34.5t50.5 -10.5v-10h-242v10q50 0 98 28.5t96 97.5l50 72l-136 218q-24 39 -53.5 51.5t-54.5 12.5v10h268v-10q-33 0 -33 -21q0 -15 17 -43l68 -109
l33 47q45 67 45 95q0 17 -13 24t-38 7v10h213v-10q-50 0 -98 -28t-96 -97l-40 -57l146 -234q24 -39 53.5 -51.5z" />
    <glyph glyph-name="y" unicode="y" horiz-adv-x="656" 
d="M636 490q-49 0 -89 -32.5t-70 -111.5l-14 -36q-48 -128 -82 -212l12 -29q-15 0 -26 -4q-48 -115 -85.5 -178t-76.5 -90t-90 -27q-27 0 -48 14.5t-21 38.5q0 17 14 31t35 14q12 0 24 -5.5t28 -15.5q11 -7 22.5 -12.5t20.5 -5.5q24 0 47 20.5t51 71t67 140.5
q-23 -10 -38 -27t-15 -34h-10l-176 420q-18 42 -45 56t-51 14v10h292v-10q-30 0 -45.5 -11.5t-15.5 -38.5q0 -32 25 -92l99 -237q33 78 92 235q21 55 21 89q0 29 -16 42t-47 13v10h211v-10z" />
    <glyph glyph-name="z" unicode="z" horiz-adv-x="499" 
d="M388.5 45.5q36.5 38.5 36.5 91.5h10v-179h-10q0 19 -15 30.5t-62 11.5h-328l297 493h-101q-82 0 -118.5 -38.5t-36.5 -91.5h-10v179h10q0 -19 15 -30.5t62 -11.5h321l-297 -493h108q82 0 118.5 38.5z" />
    <glyph glyph-name="braceleft" unicode="{" horiz-adv-x="300" 
d="M200 53q0 -79 15 -127t65 -65l-3 -10q-48 11 -93 43.5t-74.5 85t-29.5 118.5v113q0 28 -16.5 41.5t-43.5 13.5v10q27 0 43.5 13.5t16.5 41.5v113q0 66 29.5 118.5t74.5 85t93 43.5l3 -10q-50 -17 -65 -65t-15 -127v-45q0 -79 -41 -120t-97 -53q56 -12 97 -53t41 -120v-45
z" />
    <glyph glyph-name="bar" unicode="|" horiz-adv-x="50" 
d="M30 750v-960h-10v960h10z" />
    <glyph glyph-name="braceright" unicode="}" horiz-adv-x="300" 
d="M236.5 289.5q16.5 -13.5 43.5 -13.5v-10q-27 0 -43.5 -13.5t-16.5 -41.5v-113q0 -66 -29.5 -118.5t-74.5 -85t-93 -43.5l-3 10q50 17 65 65t15 127v45q0 79 41 120t97 53q-56 12 -97 53t-41 120v45q0 79 -15 127t-65 65l3 10q48 -11 93 -43.5t74.5 -85t29.5 -118.5v-113
q0 -28 16.5 -41.5z" />
    <glyph glyph-name="asciitilde" unicode="~" horiz-adv-x="440" 
d="M110 386q29 0 53.5 -13t59.5 -38q32 -24 56 -36.5t51 -12.5q54 0 80 53l10 -3q-29 -60 -90 -60q-29 0 -53.5 13t-59.5 38q-32 24 -56 36.5t-51 12.5q-54 0 -80 -53l-10 3q29 60 90 60z" />
    <glyph glyph-name="exclamdown" unicode="&#xa1;" horiz-adv-x="170" 
d="M131 671q19 -19 19 -46q0 -26 -19 -45.5t-46 -19.5q-26 0 -45.5 19.5t-19.5 45.5q0 27 19.5 46t45.5 19q27 0 46 -19zM97 351.5q7 -42.5 20 -102.5q14 -64 21 -107t7 -82q0 -28 -16 -49t-44 -21t-44 21t-16 49q0 39 7 82t21 107q13 60 20 102.5t7 78.5v30h10v-30
q0 -36 7 -78.5z" />
    <glyph glyph-name="cent" unicode="&#xa2;" horiz-adv-x="470" 
d="M450 173q-25 -85 -74.5 -134t-134.5 -49q-42 0 -84 18l-32 -107l-10 3l33 109q-57 29 -92.5 89t-35.5 147q0 79 34 138t87.5 91t109.5 32q26 0 46 -4l34 111l10 -3l-33 -110q58 -13 96 -48t38 -78q0 -28 -15 -44t-35 -16t-35 16t-15 44q0 46 -7.5 73.5t-30.5 39.5
l-116 -383q45 -49 112 -49q44 0 81.5 28t60.5 91zM180 117l114 378q-15 5 -33 5q-48 0 -77.5 -34t-41.5 -82.5t-12 -94.5q0 -111 50 -172z" />
    <glyph glyph-name="sterling" unicode="&#xa3;" horiz-adv-x="641" 
d="M621 207l-7 -24q-16 -58 -32.5 -97t-48 -67.5t-80.5 -28.5q-42 0 -74.5 23.5t-72.5 68.5q-25 -42 -66 -67t-86 -25q-49 0 -81.5 28.5t-32.5 72.5t32.5 72.5t81.5 28.5q44 0 100 -17q-4 43 -15.5 74.5t-34.5 79.5q-3 4 -13 25h-114v10h109q-15 31 -22.5 59.5t-7.5 62.5
q0 59 33 105.5t84.5 72.5t104.5 26q49 0 94.5 -16t73 -41t27.5 -51q0 -24 -14 -39t-36 -15q-21 0 -29.5 14t-15.5 45q-6 30 -14 48.5t-28 31.5t-58 13q-56 0 -78.5 -38t-22.5 -106q0 -39 6.5 -78t19.5 -94h124v-10h-121q15 -62 21.5 -97.5t6.5 -71.5q0 -22 -4 -38l25 -10
q46 -20 76.5 -29.5t56.5 -9.5q47 0 74.5 24t50.5 89zM232.5 38.5q22.5 38.5 23.5 95.5q-25 23 -49.5 35.5t-52.5 12.5q-45 0 -74.5 -27t-29.5 -64t29.5 -64t74.5 -27q56 0 78.5 38.5z" />
    <glyph glyph-name="currency" unicode="&#xa4;" horiz-adv-x="574" 
d="M509.5 249.5q-17.5 -42.5 -49.5 -75.5l94 -94l-7 -7l-94 94q-33 -32 -75.5 -49.5t-90.5 -17.5t-90.5 17.5t-75.5 49.5l-94 -94l-7 7l94 94q-32 33 -49.5 75.5t-17.5 90.5t17.5 90.5t49.5 75.5l-94 94l7 7l94 -94q33 32 75.5 49.5t90.5 17.5t90.5 -17.5t75.5 -49.5l94 94
l7 -7l-94 -94q32 -33 49.5 -75.5t17.5 -90.5t-17.5 -90.5zM402 141q53 31 84 84t31 115t-31 115t-84 84t-115 31t-115 -31t-84 -84t-31 -115t31 -115t84 -84t115 -31t115 31z" />
    <glyph glyph-name="yen" unicode="&#xa5;" horiz-adv-x="762" 
d="M742 670q-50 0 -96.5 -29.5t-90.5 -100.5l-119 -194v-46h165v-10h-165v-100h165v-10h-165v-93q0 -46 19.5 -61.5t42.5 -15.5v-10h-244v10q23 0 42.5 15.5t19.5 61.5v93h-165v10h165v100h-165v10h165v26l-186 281q-25 38 -55 50.5t-55 12.5v10h306v-10q-26 0 -39 -7.5
t-13 -24.5q0 -31 43 -96l118 -178l108 176q30 50 30 80q0 50 -73 50v10h242v-10z" />
    <glyph glyph-name="brokenbar" unicode="&#xa6;" horiz-adv-x="50" 
d="M30 750v-420h-10v420h10zM30 210v-420h-10v420h10z" />
    <glyph glyph-name="section" unicode="&#xa7;" horiz-adv-x="376" 
d="M334.5 187.5q21.5 -27.5 21.5 -65.5q0 -61 -44.5 -96.5t-105.5 -35.5q-43 0 -85.5 14t-48.5 16h-4q-8 0 -15 -5t-7 -15v-15h-10v162h11q0 -49 23.5 -82t59.5 -49t76 -16q46 0 70 21t24 61q0 25 -15 42t-30.5 24.5t-56.5 24.5q-3 2 -57 25q-7 3 -25 10q-96 39 -96 125
q0 34 24 65t65 46q-89 42 -89 124q0 30 19.5 58.5t54 46t78.5 17.5q35 0 66.5 -7t35.5 -8q9 -2 19.5 2.5t10.5 17.5v16h12q1 -5 -1 -162h-11q0 43 -19.5 72.5t-50 44t-62.5 14.5q-41 0 -69 -21t-28 -52q0 -30 12.5 -47.5t28 -25.5t46.5 -20l72 -28q61 -23 91.5 -54t30.5 -76
q0 -43 -23.5 -74t-61.5 -46q42 -21 63.5 -48.5zM204.5 262.5q22.5 -8.5 29.5 -11.5l21 -8q45 19 45 73q0 26 -15 43t-30.5 24.5t-56.5 24.5q-53 22 -71 29q-24 -8 -38 -25.5t-14 -38.5q0 -30 12.5 -47.5t28 -25.5t46.5 -20q20 -9 42.5 -17.5z" />
    <glyph glyph-name="dieresis" unicode="&#xa8;" horiz-adv-x="378" 
d="M39 580q-19 19 -19 45q0 27 19 46t46 19q26 0 45 -19t19 -46q0 -26 -19 -45t-45 -19q-27 0 -46 19zM248 580q-19 19 -19 45q0 27 19 46t46 19q26 0 45 -19t19 -46q0 -26 -19 -45t-45 -19q-27 0 -46 19z" />
    <glyph glyph-name="copyright" unicode="&#xa9;" horiz-adv-x="740" 
d="M67 515.5q47 80.5 127.5 127.5t175.5 47t175.5 -47t127.5 -127.5t47 -175.5t-47 -175.5t-127.5 -127.5t-175.5 -47t-175.5 47t-127.5 127.5t-47 175.5t47 175.5zM75.5 169.5q45.5 -78.5 124 -124t170.5 -45.5t170 45.5t124 124t46 170.5t-46 170t-124 124t-170 46
t-170.5 -46t-124 -124t-45.5 -170t45.5 -170.5zM226.5 436q27.5 45 68.5 68.5t79 23.5q36 0 65.5 -6.5t33.5 -7.5q3 -1 9 -1q22 0 22 23v10h5v-155h-5q0 34 -17 64t-46.5 48.5t-66.5 18.5q-50 0 -80 -42.5t-30 -99.5q0 -90 40 -141t108 -51q32 0 58.5 18.5t47.5 62.5l4 -3
q-16 -51 -54.5 -86t-99.5 -35q-40 0 -79 21.5t-64.5 64t-25.5 100.5q0 60 27.5 105z" />
    <glyph glyph-name="guillemotleft" unicode="&#xab;" horiz-adv-x="529" 
d="M140 250l149 -190l-10 -10l-259 200l259 200l10 -10zM360 250l149 -190l-10 -10l-259 200l259 200l10 -10z" />
    <glyph glyph-name="logicalnot" unicode="&#xac;" horiz-adv-x="440" 
d="M420 176h-10v150h-390v10h400v-160z" />
    <glyph glyph-name="registered" unicode="&#xae;" horiz-adv-x="490" 
d="M50.5 577.5q30.5 51.5 82 82t112.5 30.5t112.5 -30.5t82 -82t30.5 -112.5t-30.5 -112.5t-82 -82t-112.5 -30.5t-112.5 30.5t-82 82t-30.5 112.5t30.5 112.5zM59 357.5q29 -49.5 78.5 -78.5t107.5 -29t107.5 29t78.5 78.5t29 107.5t-29 107.5t-78.5 78.5t-107.5 29
t-107.5 -29t-78.5 -78.5t-29 -107.5t29 -107.5zM147 364q20 0 20 25v154q0 25 -20 25v8h102q39 0 60 -20t21 -45q0 -22 -16 -40t-47 -22l44 -64q8 -12 20 -16.5t21 -4.5v-8h-89v8q8 0 8 5t-8 16l-43 62h-14v-58q0 -14 6.5 -19.5t13.5 -5.5v-8h-79v8zM246 455q21 0 31.5 14.5
t10.5 41.5t-10.5 42t-31.5 15h-40v-113h40z" />
    <glyph glyph-name="macron" unicode="&#xaf;" horiz-adv-x="290" 
d="M270 610v-20h-250v20h250z" />
    <glyph glyph-name="degree" unicode="&#xb0;" horiz-adv-x="280" 
d="M55.5 655q35.5 35 84.5 35q50 0 85 -35t35 -85q0 -49 -35 -84.5t-85 -35.5q-49 0 -84.5 35.5t-35.5 84.5q0 50 35.5 85zM62.5 492q32.5 -32 77.5 -32q46 0 78 32t32 78t-32 78t-78 32q-45 0 -77.5 -32t-32.5 -78t32.5 -78z" />
    <glyph glyph-name="plusminus" unicode="&#xb1;" horiz-adv-x="340" 
d="M320 386v-10h-145v-145h-10v145h-145v10h145v145h10v-145h145zM20 144h300v-10h-300v10z" />
    <glyph glyph-name="uni00B2" unicode="&#xb2;" horiz-adv-x="173" 
d="M138.5 534q9.5 7 9.5 21h3v-55h-131l22 27q24 27 23 26q26 30 38 49.5t12 44.5q0 17 -6 28.5t-17 11.5q-17 0 -23.5 -9.5t-10.5 -26.5q-4 -13 -7.5 -19t-10.5 -6q-15 0 -15 16q0 18 21 32.5t49 14.5q30 0 44 -16t14 -36q0 -19 -15 -34.5t-44 -35.5q-5 -4 -21.5 -16
t-26.5 -24h59q24 0 33.5 7z" />
    <glyph glyph-name="uni00B3" unicode="&#xb3;" horiz-adv-x="176" 
d="M140.5 590.5q15.5 -13.5 15.5 -36.5q0 -28 -21 -41t-51 -13q-26 0 -45 14t-19 33q0 7 4 11.5t11 4.5t10.5 -6t6.5 -19q3 -17 9 -26t22 -9q38 0 38 51q0 23 -12 37.5t-33 14.5v3q20 0 27 10.5t7 31.5q0 15 -6.5 25.5t-19.5 10.5q-14 0 -19 -8t-8 -23q-2 -12 -5 -18t-11 -6
q-7 0 -11 4.5t-4 11.5q0 17 18.5 29.5t39.5 12.5q29 0 45 -11.5t16 -30.5q0 -35 -46 -41q26 -3 41.5 -16.5z" />
    <glyph glyph-name="acute" unicode="&#xb4;" horiz-adv-x="203" 
d="M20 563q18 30 40 97q19 56 35 83t43 27q19 0 32 -13.5t13 -32.5q0 -21 -16.5 -40t-52.5 -49q-28 -23 -47 -41t-35 -39z" />
    <glyph glyph-name="paragraph" unicode="&#xb6;" horiz-adv-x="464" 
d="M444 670q-23 0 -42.5 -15.5t-19.5 -61.5v-593h-10v670h-90v-670h-10v322h-44q-65 0 -112 25t-71.5 66t-24.5 87t24.5 87.5t71.5 67t112 25.5h216v-10z" />
    <glyph glyph-name="periodcentered" unicode="&#xb7;" horiz-adv-x="170" 
d="M39 319q-19 19 -19 46q0 26 19 45.5t46 19.5q26 0 45.5 -19.5t19.5 -45.5q0 -27 -19.5 -46t-45.5 -19q-27 0 -46 19z" />
    <glyph glyph-name="cedilla" unicode="&#xb8;" horiz-adv-x="276" 
d="M31 -230q30 0 64 10.5t58.5 32t24.5 52.5q0 20 -10.5 36t-33.5 16q-13 0 -22.5 -2.5t-18.5 -6t-13 -5.5l-7 6l85 91h12l-33 -45q10 4 20.5 6.5t25.5 2.5q34 0 53.5 -22.5t19.5 -50.5q0 -39 -37 -69t-92 -46t-107 -16z" />
    <glyph glyph-name="uni00B9" unicode="&#xb9;" horiz-adv-x="111" 
d="M71 690h3v-166q0 -21 17 -21v-3h-68v3q17 0 17 21v124q0 8 -5 8q-4 0 -14 -5l-1 2z" />
    <glyph glyph-name="guillemotright" unicode="&#xbb;" horiz-adv-x="529" 
d="M289 250l-259 -200l-10 10l149 190l-149 190l10 10zM509 250l-259 -200l-10 10l149 190l-149 190l10 10z" />
    <glyph glyph-name="onequarter" unicode="&#xbc;" horiz-adv-x="300" 
d="M175 690h5v-262q0 -33 26 -33v-5h-106v5q27 0 27 33v192q0 12 -8 12q-6 0 -13 -3.5l-9 -4.5l-3 8zM20 328h260v-10h-260v10zM48 88l103 176h47v-171h49v-10h-49v-50q0 -17 7.5 -23.5t16.5 -6.5v-3h-96v3q9 0 17 6.5t8 23.5v50h-103v5zM151 93v152l-88 -152h88z" />
    <glyph glyph-name="onehalf" unicode="&#xbd;" horiz-adv-x="300" 
d="M175 690h5v-262q0 -33 26 -33v-5h-106v5q27 0 27 33v192q0 12 -8 12q-6 0 -13 -3.5l-9 -4.5l-3 8zM20 328h260v-10h-260v10zM88 38q10 13 34 39q35 40 51.5 67t16.5 60q0 24 -8 40t-24 16q-23 0 -32.5 -13t-15.5 -38q-5 -18 -9.5 -26t-15.5 -8q-21 0 -21 23q0 25 29 45.5
t69 20.5q42 0 61.5 -22.5t19.5 -50.5q0 -27 -20.5 -48t-61.5 -49q-19 -13 -37.5 -27.5t-30.5 -28.5h84q32 0 45 10t13 29h4v-77h-182z" />
    <glyph glyph-name="threequarters" unicode="&#xbe;" horiz-adv-x="300" 
d="M175 690h5v-262q0 -33 26 -33v-5h-106v5q27 0 27 33v192q0 12 -8 12q-6 0 -13 -3.5l-9 -4.5l-3 8zM20 328h260v-10h-260v10zM57.5 74.5q5.5 6.5 15.5 6.5q11 0 15.5 -7.5t9.5 -26.5q5 -23 14.5 -36t32.5 -13q27 0 39 18t12 52q0 33 -16.5 53t-46.5 20v8q29 0 38.5 14.5
t9.5 44.5q0 22 -8.5 35t-27.5 13q-20 0 -27.5 -11t-11.5 -32q-4 -17 -8.5 -24.5t-15.5 -7.5q-10 0 -16 6t-6 17q0 23 27 41.5t58 18.5q42 0 64.5 -16.5t22.5 -43.5q0 -49 -68 -59q38 -6 61 -24.5t23 -52.5q0 -41 -30 -59.5t-73 -18.5q-39 0 -66 20t-27 47q0 11 5.5 17.5z
" />
    <glyph glyph-name="questiondown" unicode="&#xbf;" horiz-adv-x="475" 
d="M286 671q19 -19 19 -46q0 -26 -19 -45.5t-46 -19.5q-26 0 -45.5 19.5t-19.5 45.5q0 27 19.5 46t45.5 19q27 0 46 -19zM423 67.5q-32 -35.5 -82.5 -56.5t-100.5 -21q-59 0 -109.5 26t-80.5 71.5t-30 102.5q0 40 15.5 69.5t38 50t60.5 48.5q34 25 54 43t33.5 43t13.5 56h10
q0 -46 -12 -76t-37 -69q-26 -40 -40 -75t-16 -90q0 -190 100 -190q36 0 56 16t28 39t15 60q9 44 20.5 65.5t40.5 21.5q26 0 40.5 -16t14.5 -43q0 -40 -32 -75.5z" />
    <glyph glyph-name="Agrave" unicode="&#xc0;" horiz-adv-x="832" 
d="M374 789q-19 18 -47 41q-36 30 -52.5 49t-16.5 40q0 19 13 32.5t32 13.5q27 0 43 -27t35 -83q22 -67 40 -97l-12 -8q-16 21 -35 39zM761 24q27 -14 51 -14v-10h-292v10q30 0 45.5 11.5t15.5 38.5q0 32 -25 92l-5 13h-356l-4 -11q-23 -57 -23 -91q0 -29 16 -41t47 -12v-10
h-211v10q49 0 89 32.5t71 111.5l182 462l-13 30q30 0 60.5 18t30.5 51h10l266 -635q18 -42 45 -56zM546 175l-179 427l-168 -427h347z" />
    <glyph glyph-name="Aacute" unicode="&#xc1;" horiz-adv-x="832" 
d="M543.5 879q-16.5 -19 -52.5 -49q-28 -23 -47 -41t-35 -39l-12 8q18 30 40 97q19 56 35 83t43 27q19 0 32 -13.5t13 -32.5q0 -21 -16.5 -40zM761 24q27 -14 51 -14v-10h-292v10q30 0 45.5 11.5t15.5 38.5q0 32 -25 92l-5 13h-356l-4 -11q-23 -57 -23 -91q0 -29 16 -41
t47 -12v-10h-211v10q49 0 89 32.5t71 111.5l182 462l-13 30q30 0 60.5 18t30.5 51h10l266 -635q18 -42 45 -56zM546 175l-179 427l-168 -427h347z" />
    <glyph glyph-name="Acircumflex" unicode="&#xc2;" horiz-adv-x="832" 
d="M355.5 840q-27.5 -33 -72.5 -90l-12 8q15 27 29.5 52t25.5 44l51 89q12 22 32 22t32 -22l48 -84l58 -101l-12 -8q-45 57 -72.5 90t-53.5 53q-26 -20 -53.5 -53zM761 24q27 -14 51 -14v-10h-292v10q30 0 45.5 11.5t15.5 38.5q0 32 -25 92l-5 13h-356l-4 -11
q-23 -57 -23 -91q0 -29 16 -41t47 -12v-10h-211v10q49 0 89 32.5t71 111.5l182 462l-13 30q30 0 60.5 18t30.5 51h10l266 -635q18 -42 45 -56zM546 175l-179 427l-168 -427h347z" />
    <glyph glyph-name="Atilde" unicode="&#xc3;" horiz-adv-x="832" 
d="M257 740l-7 5q4 7 23 37.5t45.5 52.5t55.5 22q21 0 34 -5.5t27 -15.5q13 -10 23 -14.5t26 -4.5q43 0 77 50l7 -5q-4 -7 -23 -37.5t-45.5 -52.5t-55.5 -22q-21 0 -34 5.5t-27 15.5q-13 10 -23 14.5t-26 4.5q-43 0 -77 -50zM761 24q27 -14 51 -14v-10h-292v10
q30 0 45.5 11.5t15.5 38.5q0 32 -25 92l-5 13h-356l-4 -11q-23 -57 -23 -91q0 -29 16 -41t47 -12v-10h-211v10q49 0 89 32.5t71 111.5l182 462l-13 30q30 0 60.5 18t30.5 51h10l266 -635q18 -42 45 -56zM546 175l-179 427l-168 -427h347z" />
    <glyph glyph-name="Adieresis" unicode="&#xc4;" horiz-adv-x="832" 
d="M259 769q-19 19 -19 45q0 27 19 46t46 19q26 0 45 -19t19 -46q0 -26 -19 -45t-45 -19q-27 0 -46 19zM468 769q-19 19 -19 45q0 27 19 46t46 19q26 0 45 -19t19 -46q0 -26 -19 -45t-45 -19q-27 0 -46 19zM761 24q27 -14 51 -14v-10h-292v10q30 0 45.5 11.5t15.5 38.5
q0 32 -25 92l-5 13h-356l-4 -11q-23 -57 -23 -91q0 -29 16 -41t47 -12v-10h-211v10q49 0 89 32.5t71 111.5l182 462l-13 30q30 0 60.5 18t30.5 51h10l266 -635q18 -42 45 -56zM546 175l-179 427l-168 -427h347z" />
    <glyph glyph-name="Aring" unicode="&#xc5;" horiz-adv-x="832" 
d="M345.5 776.5q-26.5 26.5 -26.5 63.5q0 38 26.5 64t63.5 26q38 0 64 -26t26 -64q0 -37 -26 -63.5t-64 -26.5q-37 0 -63.5 26.5zM352.5 896.5q-23.5 -23.5 -23.5 -56.5t23.5 -56.5t56.5 -23.5t56.5 23.5t23.5 56.5t-23.5 56.5t-56.5 23.5t-56.5 -23.5zM761 24
q27 -14 51 -14v-10h-292v10q30 0 45.5 11.5t15.5 38.5q0 32 -25 92l-5 13h-356l-4 -11q-23 -57 -23 -91q0 -29 16 -41t47 -12v-10h-211v10q49 0 89 32.5t71 111.5l182 462l-13 30q30 0 60.5 18t30.5 51h10l266 -635q18 -42 45 -56zM546 175l-179 427l-168 -427h347z" />
    <glyph glyph-name="AE" unicode="&#xc6;" horiz-adv-x="1020" 
d="M1000 722v-282h-10q0 31 -16.5 87t-47 99.5t-71.5 43.5h-186v-325h98q34 0 49.5 38.5t15.5 91.5h10v-270h-10q0 53 -15.5 91.5t-49.5 38.5h-98v-325h186q41 0 71.5 43.5t47 99.5t16.5 87h10v-282h-10q0 19 -15 30.5t-62 11.5h-426v10q23 0 42.5 15.5t19.5 61.5v78h-304
l-20 -29q-45 -65 -45 -95q0 -17 13 -24t39 -7v-10h-212v10q50 0 97.5 28.5t95.5 97.5l332 489q-7 26 -23.5 35.5t-34.5 9.5v10h426q47 0 62 11.5t15 30.5h10zM549 175v418q0 12 -1 18l-296 -436h297z" />
    <glyph glyph-name="Ccedilla" unicode="&#xc7;" horiz-adv-x="651" 
d="M532 54q-70 -64 -182 -64q-73 0 -145 40t-118.5 117t-46.5 183q0 110 50.5 192t125.5 125t144 43q68 0 121.5 -12t59.5 -13q12 -2 17 -2q39 0 39 42v17h10v-282h-10q0 61 -30.5 116.5t-85 89.5t-121.5 34q-60 0 -105.5 -37t-70 -96.5t-24.5 -126.5q0 -109 33 -188
t94 -120.5t143 -41.5q58 0 106 33.5t87 113.5l8 -5q-29 -94 -99 -158zM344 -10h12l-33 -45q10 4 20.5 6.5t25.5 2.5q34 0 53.5 -22.5t19.5 -50.5q0 -39 -37 -69t-92 -46t-107 -16l11 10q30 0 64 10.5t58.5 32t24.5 52.5q0 20 -10.5 36t-33.5 16q-13 0 -22.5 -2.5t-18.5 -6
t-13 -5.5l-7 6z" />
    <glyph glyph-name="Egrave" unicode="&#xc8;" horiz-adv-x="573" 
d="M266 789q-19 18 -47 41q-36 30 -52.5 49t-16.5 40q0 19 13 32.5t32 13.5q27 0 43 -27t35 -83q22 -67 40 -97l-12 -8q-16 21 -35 39zM533 722v-282h-10q0 31 -16.5 87t-47 99.5t-71.5 43.5h-186v-325h98q34 0 49.5 38.5t15.5 91.5h10v-270h-10q0 53 -15.5 91.5t-49.5 38.5
h-98v-325h186q41 0 71.5 43.5t47 99.5t16.5 87h10v-282h-10q0 19 -15 30.5t-62 11.5h-426v10q23 0 42.5 15.5t19.5 61.5v506q0 46 -19.5 61.5t-42.5 15.5v10h426q47 0 62 11.5t15 30.5h10z" />
    <glyph glyph-name="Eacute" unicode="&#xc9;" horiz-adv-x="573" 
d="M435.5 879q-16.5 -19 -52.5 -49q-28 -23 -47 -41t-35 -39l-12 8q18 30 40 97q19 56 35 83t43 27q19 0 32 -13.5t13 -32.5q0 -21 -16.5 -40zM533 722v-282h-10q0 31 -16.5 87t-47 99.5t-71.5 43.5h-186v-325h98q34 0 49.5 38.5t15.5 91.5h10v-270h-10q0 53 -15.5 91.5
t-49.5 38.5h-98v-325h186q41 0 71.5 43.5t47 99.5t16.5 87h10v-282h-10q0 19 -15 30.5t-62 11.5h-426v10q23 0 42.5 15.5t19.5 61.5v506q0 46 -19.5 61.5t-42.5 15.5v10h426q47 0 62 11.5t15 30.5h10z" />
    <glyph glyph-name="Ecircumflex" unicode="&#xca;" horiz-adv-x="573" 
d="M247.5 840q-27.5 -33 -72.5 -90l-12 8q15 27 29.5 52t25.5 44l51 89q12 22 32 22t32 -22l48 -84l58 -101l-12 -8q-45 57 -72.5 90t-53.5 53q-26 -20 -53.5 -53zM533 722v-282h-10q0 31 -16.5 87t-47 99.5t-71.5 43.5h-186v-325h98q34 0 49.5 38.5t15.5 91.5h10v-270h-10
q0 53 -15.5 91.5t-49.5 38.5h-98v-325h186q41 0 71.5 43.5t47 99.5t16.5 87h10v-282h-10q0 19 -15 30.5t-62 11.5h-426v10q23 0 42.5 15.5t19.5 61.5v506q0 46 -19.5 61.5t-42.5 15.5v10h426q47 0 62 11.5t15 30.5h10z" />
    <glyph glyph-name="Edieresis" unicode="&#xcb;" horiz-adv-x="573" 
d="M151 769q-19 19 -19 45q0 27 19 46t46 19q26 0 45 -19t19 -46q0 -26 -19 -45t-45 -19q-27 0 -46 19zM360 769q-19 19 -19 45q0 27 19 46t46 19q26 0 45 -19t19 -46q0 -26 -19 -45t-45 -19q-27 0 -46 19zM533 722v-282h-10q0 31 -16.5 87t-47 99.5t-71.5 43.5h-186v-325
h98q34 0 49.5 38.5t15.5 91.5h10v-270h-10q0 53 -15.5 91.5t-49.5 38.5h-98v-325h186q41 0 71.5 43.5t47 99.5t16.5 87h10v-282h-10q0 19 -15 30.5t-62 11.5h-426v10q23 0 42.5 15.5t19.5 61.5v506q0 46 -19.5 61.5t-42.5 15.5v10h426q47 0 62 11.5t15 30.5h10z" />
    <glyph glyph-name="Igrave" unicode="&#xcc;" 
d="M157 789q-19 18 -47 41q-36 30 -52.5 49t-16.5 40q0 19 13 32.5t32 13.5q27 0 43 -27t35 -83q22 -67 40 -97l-12 -8q-16 21 -35 39zM62.5 654.5q-19.5 15.5 -42.5 15.5v10h244v-10q-23 0 -42.5 -15.5t-19.5 -61.5v-506q0 -46 19.5 -61.5t42.5 -15.5v-10h-244v10
q23 0 42.5 15.5t19.5 61.5v506q0 46 -19.5 61.5z" />
    <glyph glyph-name="Iacute" unicode="&#xcd;" 
d="M80 758q18 30 40 97q19 56 35 83t43 27q19 0 32 -13.5t13 -32.5q0 -21 -16.5 -40t-52.5 -49q-28 -23 -47 -41t-35 -39zM62.5 654.5q-19.5 15.5 -42.5 15.5v10h244v-10q-23 0 -42.5 -15.5t-19.5 -61.5v-506q0 -46 19.5 -61.5t42.5 -15.5v-10h-244v10q23 0 42.5 15.5
t19.5 61.5v506q0 46 -19.5 61.5z" />
    <glyph glyph-name="Icircumflex" unicode="&#xce;" 
d="M33.5 810q14.5 25 25.5 44l51 89q12 22 32 22t32 -22l48 -84l58 -101l-12 -8q-45 57 -72.5 90t-53.5 53q-26 -20 -53.5 -53t-72.5 -90l-12 8q15 27 29.5 52zM62.5 654.5q-19.5 15.5 -42.5 15.5v10h244v-10q-23 0 -42.5 -15.5t-19.5 -61.5v-506q0 -46 19.5 -61.5
t42.5 -15.5v-10h-244v10q23 0 42.5 15.5t19.5 61.5v506q0 46 -19.5 61.5z" />
    <glyph glyph-name="Idieresis" unicode="&#xcf;" 
d="M-8 769q-19 19 -19 45q0 27 19 46t46 19q26 0 45 -19t19 -46q0 -26 -19 -45t-45 -19q-27 0 -46 19zM201 769q-19 19 -19 45q0 27 19 46t46 19q26 0 45 -19t19 -46q0 -26 -19 -45t-45 -19q-27 0 -46 19zM62.5 654.5q-19.5 15.5 -42.5 15.5v10h244v-10q-23 0 -42.5 -15.5
t-19.5 -61.5v-506q0 -46 19.5 -61.5t42.5 -15.5v-10h-244v10q23 0 42.5 15.5t19.5 61.5v506q0 46 -19.5 61.5z" />
    <glyph glyph-name="Ntilde" unicode="&#xd1;" horiz-adv-x="719" 
d="M223 740l-7 5q4 7 23 37.5t45.5 52.5t55.5 22q21 0 34 -5.5t27 -15.5q13 -10 23 -14.5t26 -4.5q43 0 77 50l7 -5q-4 -7 -23 -37.5t-45.5 -52.5t-55.5 -22q-21 0 -34 5.5t-27 15.5q-13 10 -23 14.5t-26 4.5q-43 0 -77 -50zM699 670q-49 0 -74.5 -35t-25.5 -120v-400
l30 -46q-24 0 -44.5 -10.5t-32.5 -27t-12 -31.5h-10l-397 607l-2 3v-445q0 -85 25.5 -120t74.5 -35v-10h-211v10q49 0 74.5 35t25.5 120v459q-40 46 -97 46v10h206l359 -548v383q0 85 -25.5 120t-74.5 35v10h211v-10z" />
    <glyph glyph-name="Ograve" unicode="&#xd2;" horiz-adv-x="720" 
d="M325 789q-19 18 -47 41q-36 30 -52.5 49t-16.5 40q0 19 13 32.5t32 13.5q27 0 43 -27t35 -83q22 -67 40 -97l-12 -8q-16 21 -35 39zM89 529.5q49 79.5 123 120t148 40.5t148 -40.5t123 -120t49 -189.5t-49 -189.5t-123 -120t-148 -40.5t-148 40.5t-123 120t-49 189.5
t49 189.5zM360 0q190 0 190 340t-190 340t-190 -340t190 -340z" />
    <glyph glyph-name="Oacute" unicode="&#xd3;" horiz-adv-x="720" 
d="M348 758q18 30 40 97q19 56 35 83t43 27q19 0 32 -13.5t13 -32.5q0 -21 -16.5 -40t-52.5 -49q-28 -23 -47 -41t-35 -39zM89 529.5q49 79.5 123 120t148 40.5t148 -40.5t123 -120t49 -189.5t-49 -189.5t-123 -120t-148 -40.5t-148 40.5t-123 120t-49 189.5t49 189.5z
M360 0q190 0 190 340t-190 340t-190 -340t190 -340z" />
    <glyph glyph-name="Ocircumflex" unicode="&#xd4;" horiz-adv-x="720" 
d="M251.5 810q14.5 25 25.5 44l51 89q12 22 32 22t32 -22l48 -84l58 -101l-12 -8q-45 57 -72.5 90t-53.5 53q-26 -20 -53.5 -53t-72.5 -90l-12 8q15 27 29.5 52zM89 529.5q49 79.5 123 120t148 40.5t148 -40.5t123 -120t49 -189.5t-49 -189.5t-123 -120t-148 -40.5
t-148 40.5t-123 120t-49 189.5t49 189.5zM360 0q190 0 190 340t-190 340t-190 -340t190 -340z" />
    <glyph glyph-name="Otilde" unicode="&#xd5;" horiz-adv-x="720" 
d="M361 755.5q-13 5.5 -27 15.5q-13 10 -23 14.5t-26 4.5q-43 0 -77 -50l-7 5q4 7 23 37.5t45.5 52.5t55.5 22q21 0 34 -5.5t27 -15.5q13 -10 23 -14.5t26 -4.5q43 0 77 50l7 -5q-4 -7 -23 -37.5t-45.5 -52.5t-55.5 -22q-21 0 -34 5.5zM89 529.5q49 79.5 123 120t148 40.5
t148 -40.5t123 -120t49 -189.5t-49 -189.5t-123 -120t-148 -40.5t-148 40.5t-123 120t-49 189.5t49 189.5zM360 0q190 0 190 340t-190 340t-190 -340t190 -340z" />
    <glyph glyph-name="Odieresis" unicode="&#xd6;" horiz-adv-x="720" 
d="M210 769q-19 19 -19 45q0 27 19 46t46 19q26 0 45 -19t19 -46q0 -26 -19 -45t-45 -19q-27 0 -46 19zM419 769q-19 19 -19 45q0 27 19 46t46 19q26 0 45 -19t19 -46q0 -26 -19 -45t-45 -19q-27 0 -46 19zM89 529.5q49 79.5 123 120t148 40.5t148 -40.5t123 -120t49 -189.5
t-49 -189.5t-123 -120t-148 -40.5t-148 40.5t-123 120t-49 189.5t49 189.5zM360 0q190 0 190 340t-190 340t-190 -340t190 -340z" />
    <glyph glyph-name="multiply" unicode="&#xd7;" horiz-adv-x="330" 
d="M172 331l138 -138l-7 -7l-138 138l-138 -138l-7 7l138 138l-138 138l7 7l138 -138l138 138l7 -7z" />
    <glyph glyph-name="Oslash" unicode="&#xd8;" horiz-adv-x="700" 
d="M642.5 508.5q37.5 -72.5 37.5 -168.5q0 -110 -49 -189.5t-123 -120t-148 -40.5q-43 0 -88 14.5t-86 41.5l-53 -86l-9 5l54 87q-63 46 -100.5 119t-37.5 169q0 110 49 189.5t123 120t148 40.5q44 0 89.5 -14.5t85.5 -42.5l53 87l9 -5l-54 -88q62 -46 99.5 -118.5zM209 103
l298 484q-48 93 -147 93q-190 0 -190 -340q0 -153 39 -237zM550 340q0 151 -38 236l-298 -484q48 -92 146 -92q190 0 190 340z" />
    <glyph glyph-name="Ugrave" unicode="&#xd9;" horiz-adv-x="695" 
d="M330 789q-19 18 -47 41q-36 30 -52.5 49t-16.5 40q0 19 13 32.5t32 13.5q27 0 43 -27t35 -83q22 -67 40 -97l-12 -8q-16 21 -35 39zM62.5 654.5q-19.5 15.5 -42.5 15.5v10h244v-10q-23 0 -42.5 -15.5t-19.5 -61.5v-339q0 -109 44 -176.5t132 -67.5q50 0 92.5 23t68.5 71
t26 120v291q0 85 -25.5 120t-74.5 35v10h210v-10q-49 0 -74.5 -35t-25.5 -120v-291q0 -74 -27 -126.5t-73.5 -80t-106.5 -27.5q-81 0 -145.5 28t-102.5 83t-38 133v359q0 46 -19.5 61.5z" />
    <glyph glyph-name="Uacute" unicode="&#xda;" horiz-adv-x="695" 
d="M353 758q18 30 40 97q19 56 35 83t43 27q19 0 32 -13.5t13 -32.5q0 -21 -16.5 -40t-52.5 -49q-28 -23 -47 -41t-35 -39zM62.5 654.5q-19.5 15.5 -42.5 15.5v10h244v-10q-23 0 -42.5 -15.5t-19.5 -61.5v-339q0 -109 44 -176.5t132 -67.5q50 0 92.5 23t68.5 71t26 120v291
q0 85 -25.5 120t-74.5 35v10h210v-10q-49 0 -74.5 -35t-25.5 -120v-291q0 -74 -27 -126.5t-73.5 -80t-106.5 -27.5q-81 0 -145.5 28t-102.5 83t-38 133v359q0 46 -19.5 61.5z" />
    <glyph glyph-name="Ucircumflex" unicode="&#xdb;" horiz-adv-x="695" 
d="M256.5 810q14.5 25 25.5 44l51 89q12 22 32 22t32 -22l48 -84l58 -101l-12 -8q-45 57 -72.5 90t-53.5 53q-26 -20 -53.5 -53t-72.5 -90l-12 8q15 27 29.5 52zM62.5 654.5q-19.5 15.5 -42.5 15.5v10h244v-10q-23 0 -42.5 -15.5t-19.5 -61.5v-339q0 -109 44 -176.5
t132 -67.5q50 0 92.5 23t68.5 71t26 120v291q0 85 -25.5 120t-74.5 35v10h210v-10q-49 0 -74.5 -35t-25.5 -120v-291q0 -74 -27 -126.5t-73.5 -80t-106.5 -27.5q-81 0 -145.5 28t-102.5 83t-38 133v359q0 46 -19.5 61.5z" />
    <glyph glyph-name="Udieresis" unicode="&#xdc;" horiz-adv-x="695" 
d="M215 769q-19 19 -19 45q0 27 19 46t46 19q26 0 45 -19t19 -46q0 -26 -19 -45t-45 -19q-27 0 -46 19zM424 769q-19 19 -19 45q0 27 19 46t46 19q26 0 45 -19t19 -46q0 -26 -19 -45t-45 -19q-27 0 -46 19zM62.5 654.5q-19.5 15.5 -42.5 15.5v10h244v-10q-23 0 -42.5 -15.5
t-19.5 -61.5v-339q0 -109 44 -176.5t132 -67.5q50 0 92.5 23t68.5 71t26 120v291q0 85 -25.5 120t-74.5 35v10h210v-10q-49 0 -74.5 -35t-25.5 -120v-291q0 -74 -27 -126.5t-73.5 -80t-106.5 -27.5q-81 0 -145.5 28t-102.5 83t-38 133v359q0 46 -19.5 61.5z" />
    <glyph glyph-name="Yacute" unicode="&#xdd;" horiz-adv-x="762" 
d="M549.5 879q-16.5 -19 -52.5 -49q-28 -23 -47 -41t-35 -39l-12 8q18 30 40 97q19 56 35 83t43 27q19 0 32 -13.5t13 -32.5q0 -21 -16.5 -40zM742 670q-50 0 -96.5 -29.5t-90.5 -100.5l-119 -194v-259q0 -46 19.5 -61.5t42.5 -15.5v-10h-244v10q23 0 42.5 15.5t19.5 61.5
v239l-186 281q-25 38 -55 50.5t-55 12.5v10h306v-10q-26 0 -39 -7.5t-13 -24.5q0 -31 43 -96l118 -178l108 176q30 50 30 80q0 50 -73 50v10h242v-10z" />
    <glyph glyph-name="Thorn" unicode="&#xde;" horiz-adv-x="603" 
d="M473 509q56 -30 83 -76t27 -94t-27 -93.5t-82.5 -75t-138.5 -29.5h-133v-54q0 -46 19.5 -61.5t42.5 -15.5v-10h-244v10q23 0 42.5 15.5t19.5 61.5v506q0 46 -19.5 61.5t-42.5 15.5v10h244v-10q-23 0 -42.5 -15.5t-19.5 -61.5v-54h133q82 0 138 -30zM420 202.5
q33 51.5 33 136.5q0 86 -33 138t-95 52h-123v-378h123q62 0 95 51.5z" />
    <glyph glyph-name="germandbls" unicode="&#xdf;" horiz-adv-x="619" 
d="M545.5 233.5q33.5 -45.5 33.5 -96.5q0 -45 -19.5 -78.5t-51 -51t-67.5 -17.5q-40 0 -73 15.5t-38 17.5q-2 0 -7.5 2t-11.5 2q-23 0 -23 -26v-18h-10l-1 181h10q0 -46 24 -83.5t60 -59t70 -21.5q41 0 65.5 23t24.5 59q0 34 -26.5 57t-71.5 47l-25 13q-41 19 -58 29
q-42 24 -61 56.5t-19 77.5q0 38 18 63t53 53q29 24 44 42.5t15 44.5q0 38 -16.5 64t-41 38.5t-48.5 12.5q-37 0 -64.5 -29t-27.5 -86v-565h-182v10q23 0 42.5 15.5t19.5 61.5v410q0 51 24 95t72 71t116 27q46 0 85 -14t62 -38t23 -53q0 -33 -19 -53t-57 -42
q-35 -21 -52.5 -38.5t-17.5 -45.5q0 -25 20.5 -40.5t42 -25t27.5 -12.5l50 -24q54 -25 87.5 -70.5z" />
    <glyph glyph-name="agrave" unicode="&#xe0;" horiz-adv-x="567" 
d="M260 594q-19 18 -47 41q-36 30 -52.5 49t-16.5 40q0 19 13 32.5t32 13.5q27 0 43 -27t35 -83q22 -67 40 -97l-12 -8q-16 21 -35 39zM504.5 25.5q19.5 -15.5 42.5 -15.5v-10h-67h-115v52q-29 -29 -62.5 -45.5t-67.5 -16.5q-57 0 -106 26.5t-79 80t-30 130.5t30 135.5
t79.5 90t105.5 31.5q63 0 130 -56v83h10q50 -50 110 -50v-374q0 -46 19.5 -61.5zM365 66v348q-54 50 -105 50q-34 0 -61.5 -31t-43 -85t-15.5 -121q0 -100 33.5 -158.5t86.5 -58.5q46 0 105 56z" />
    <glyph glyph-name="aacute" unicode="&#xe1;" horiz-adv-x="567" 
d="M349.5 684q-16.5 -19 -52.5 -49q-28 -23 -47 -41t-35 -39l-12 8q18 30 40 97q19 56 35 83t43 27q19 0 32 -13.5t13 -32.5q0 -21 -16.5 -40zM504.5 25.5q19.5 -15.5 42.5 -15.5v-10h-67h-115v52q-29 -29 -62.5 -45.5t-67.5 -16.5q-57 0 -106 26.5t-79 80t-30 130.5
t30 135.5t79.5 90t105.5 31.5q63 0 130 -56v83h10q50 -50 110 -50v-374q0 -46 19.5 -61.5zM365 66v348q-54 50 -105 50q-34 0 -61.5 -31t-43 -85t-15.5 -121q0 -100 33.5 -158.5t86.5 -58.5q46 0 105 56z" />
    <glyph glyph-name="acircumflex" unicode="&#xe2;" horiz-adv-x="567" 
d="M201.5 645q-27.5 -33 -72.5 -90l-12 8q15 27 29.5 52t25.5 44l51 89q12 22 32 22t32 -22l48 -84l58 -101l-12 -8q-45 57 -72.5 90t-53.5 53q-26 -20 -53.5 -53zM504.5 25.5q19.5 -15.5 42.5 -15.5v-10h-67h-115v52q-29 -29 -62.5 -45.5t-67.5 -16.5q-57 0 -106 26.5
t-79 80t-30 130.5t30 135.5t79.5 90t105.5 31.5q63 0 130 -56v83h10q50 -50 110 -50v-374q0 -46 19.5 -61.5zM365 66v348q-54 50 -105 50q-34 0 -61.5 -31t-43 -85t-15.5 -121q0 -100 33.5 -158.5t86.5 -58.5q46 0 105 56z" />
    <glyph glyph-name="atilde" unicode="&#xe3;" horiz-adv-x="567" 
d="M103 595l-7 5q4 7 23 37.5t45.5 52.5t55.5 22q21 0 34 -5.5t27 -15.5q13 -10 23 -14.5t26 -4.5q43 0 77 50l7 -5q-4 -7 -23 -37.5t-45.5 -52.5t-55.5 -22q-21 0 -34 5.5t-27 15.5q-13 10 -23 14.5t-26 4.5q-43 0 -77 -50zM504.5 25.5q19.5 -15.5 42.5 -15.5v-10h-67h-115
v52q-29 -29 -62.5 -45.5t-67.5 -16.5q-57 0 -106 26.5t-79 80t-30 130.5t30 135.5t79.5 90t105.5 31.5q63 0 130 -56v83h10q50 -50 110 -50v-374q0 -46 19.5 -61.5zM365 66v348q-54 50 -105 50q-34 0 -61.5 -31t-43 -85t-15.5 -121q0 -100 33.5 -158.5t86.5 -58.5
q46 0 105 56z" />
    <glyph glyph-name="adieresis" unicode="&#xe4;" horiz-adv-x="567" 
d="M105 590q-19 19 -19 45q0 27 19 46t46 19q26 0 45 -19t19 -46q0 -26 -19 -45t-45 -19q-27 0 -46 19zM314 590q-19 19 -19 45q0 27 19 46t46 19q26 0 45 -19t19 -46q0 -26 -19 -45t-45 -19q-27 0 -46 19zM504.5 25.5q19.5 -15.5 42.5 -15.5v-10h-67h-115v52
q-29 -29 -62.5 -45.5t-67.5 -16.5q-57 0 -106 26.5t-79 80t-30 130.5t30 135.5t79.5 90t105.5 31.5q63 0 130 -56v83h10q50 -50 110 -50v-374q0 -46 19.5 -61.5zM365 66v348q-54 50 -105 50q-34 0 -61.5 -31t-43 -85t-15.5 -121q0 -100 33.5 -158.5t86.5 -58.5q46 0 105 56z
" />
    <glyph glyph-name="aring" unicode="&#xe5;" horiz-adv-x="567" 
d="M191.5 584.5q-26.5 26.5 -26.5 63.5q0 38 26.5 64t63.5 26q38 0 64 -26t26 -64q0 -37 -26 -63.5t-64 -26.5q-37 0 -63.5 26.5zM198.5 704.5q-23.5 -23.5 -23.5 -56.5t23.5 -56.5t56.5 -23.5t56.5 23.5t23.5 56.5t-23.5 56.5t-56.5 23.5t-56.5 -23.5zM504.5 25.5
q19.5 -15.5 42.5 -15.5v-10h-67h-115v52q-29 -29 -62.5 -45.5t-67.5 -16.5q-57 0 -106 26.5t-79 80t-30 130.5t30 135.5t79.5 90t105.5 31.5q63 0 130 -56v83h10q50 -50 110 -50v-374q0 -46 19.5 -61.5zM365 66v348q-54 50 -105 50q-34 0 -61.5 -31t-43 -85t-15.5 -121
q0 -100 33.5 -158.5t86.5 -58.5q46 0 105 56z" />
    <glyph glyph-name="ae" unicode="&#xe6;" horiz-adv-x="826" 
d="M736.5 87q37.5 28 60.5 91l8 -5q-25 -85 -74.5 -134t-134.5 -49q-52 0 -103.5 27t-84.5 77q-45 -57 -86 -80.5t-87 -23.5q-57 0 -106 26.5t-79 80t-30 130.5t30 135.5t79.5 90t105.5 31.5q63 0 130 -56v83h10q37 -37 80 -47q55 46 131 46q67 0 117 -27t76.5 -73
t26.5 -102h-2h-118h-201v-19q0 -74 22.5 -126t61 -78t86.5 -26q44 0 81.5 28zM507 448.5q-20 -51.5 -22 -130.5h201q-3 182 -100 182q-59 0 -79 -51.5zM326.5 30.5q31.5 20.5 75.5 73.5q-37 61 -37 145v1v0v164q-54 50 -105 50q-34 0 -61.5 -31t-43 -85t-15.5 -121
q0 -100 33.5 -158.5t86.5 -58.5q35 0 66.5 20.5z" />
    <glyph glyph-name="ccedilla" unicode="&#xe7;" horiz-adv-x="510" 
d="M395.5 39q-49.5 -49 -134.5 -49q-55 0 -106 29.5t-83 88.5t-32 141q0 79 34 138t87.5 91t109.5 32q51 0 95 -18t70 -48.5t26 -65.5q0 -28 -15 -44t-35 -16t-35 16t-15 44q0 63 -15.5 92.5t-65.5 29.5q-48 0 -77.5 -34t-41.5 -82.5t-12 -94.5q0 -74 22.5 -126t61 -78
t86.5 -26q44 0 81.5 28t60.5 91l8 -5q-25 -85 -74.5 -134zM255 -10h12l-33 -45q10 4 20.5 6.5t25.5 2.5q34 0 53.5 -22.5t19.5 -50.5q0 -39 -37 -69t-92 -46t-107 -16l11 10q30 0 64 10.5t58.5 32t24.5 52.5q0 20 -10.5 36t-33.5 16q-13 0 -22.5 -2.5t-18.5 -6t-13 -5.5
l-7 6z" />
    <glyph glyph-name="egrave" unicode="&#xe8;" horiz-adv-x="521" 
d="M266 594q-19 18 -47 41q-36 30 -52.5 49t-16.5 40q0 19 13 32.5t32 13.5q27 0 43 -27t35 -83q22 -67 40 -97l-12 -8q-16 21 -35 39zM411.5 87q37.5 28 60.5 91l8 -5q-25 -85 -74.5 -134t-134.5 -49q-55 0 -108.5 30t-88 88.5t-34.5 140.5q0 76 28.5 135.5t79 92.5
t113.5 33q67 0 117 -27t76.5 -73t26.5 -102h-120h-201v-19q0 -74 22.5 -126t61 -78t86.5 -26q44 0 81.5 28zM182 448.5q-20 -51.5 -22 -130.5h201q-3 182 -100 182q-59 0 -79 -51.5z" />
    <glyph glyph-name="eacute" unicode="&#xe9;" horiz-adv-x="521" 
d="M355.5 684q-16.5 -19 -52.5 -49q-28 -23 -47 -41t-35 -39l-12 8q18 30 40 97q19 56 35 83t43 27q19 0 32 -13.5t13 -32.5q0 -21 -16.5 -40zM411.5 87q37.5 28 60.5 91l8 -5q-25 -85 -74.5 -134t-134.5 -49q-55 0 -108.5 30t-88 88.5t-34.5 140.5q0 76 28.5 135.5t79 92.5
t113.5 33q67 0 117 -27t76.5 -73t26.5 -102h-120h-201v-19q0 -74 22.5 -126t61 -78t86.5 -26q44 0 81.5 28zM182 448.5q-20 -51.5 -22 -130.5h201q-3 182 -100 182q-59 0 -79 -51.5z" />
    <glyph glyph-name="ecircumflex" unicode="&#xea;" horiz-adv-x="521" 
d="M207.5 645q-27.5 -33 -72.5 -90l-12 8q15 27 29.5 52t25.5 44l51 89q12 22 32 22t32 -22l48 -84l58 -101l-12 -8q-45 57 -72.5 90t-53.5 53q-26 -20 -53.5 -53zM411.5 87q37.5 28 60.5 91l8 -5q-25 -85 -74.5 -134t-134.5 -49q-55 0 -108.5 30t-88 88.5t-34.5 140.5
q0 76 28.5 135.5t79 92.5t113.5 33q67 0 117 -27t76.5 -73t26.5 -102h-120h-201v-19q0 -74 22.5 -126t61 -78t86.5 -26q44 0 81.5 28zM182 448.5q-20 -51.5 -22 -130.5h201q-3 182 -100 182q-59 0 -79 -51.5z" />
    <glyph glyph-name="edieresis" unicode="&#xeb;" horiz-adv-x="521" 
d="M111 590q-19 19 -19 45q0 27 19 46t46 19q26 0 45 -19t19 -46q0 -26 -19 -45t-45 -19q-27 0 -46 19zM320 590q-19 19 -19 45q0 27 19 46t46 19q26 0 45 -19t19 -46q0 -26 -19 -45t-45 -19q-27 0 -46 19zM411.5 87q37.5 28 60.5 91l8 -5q-25 -85 -74.5 -134t-134.5 -49
q-55 0 -108.5 30t-88 88.5t-34.5 140.5q0 76 28.5 135.5t79 92.5t113.5 33q67 0 117 -27t76.5 -73t26.5 -102h-120h-201v-19q0 -74 22.5 -126t61 -78t86.5 -26q44 0 81.5 28zM182 448.5q-20 -51.5 -22 -130.5h201q-3 182 -100 182q-59 0 -79 -51.5z" />
    <glyph glyph-name="igrave" unicode="&#xec;" 
d="M132 594q-19 18 -47 41q-36 30 -52.5 49t-16.5 40q0 19 13 32.5t32 13.5q27 0 43 -27t35 -83q22 -67 40 -97l-12 -8q-16 21 -35 39zM62.5 434.5q-19.5 15.5 -42.5 15.5v10q40 0 96.5 15.5t75.5 34.5h10v-423q0 -46 19.5 -61.5t42.5 -15.5v-10h-244v10q23 0 42.5 15.5
t19.5 61.5v286q0 46 -19.5 61.5z" />
    <glyph glyph-name="iacute" unicode="&#xed;" 
d="M75 563q18 30 40 97q19 56 35 83t43 27q19 0 32 -13.5t13 -32.5q0 -21 -16.5 -40t-52.5 -49q-28 -23 -47 -41t-35 -39zM62.5 434.5q-19.5 15.5 -42.5 15.5v10q40 0 96.5 15.5t75.5 34.5h10v-423q0 -46 19.5 -61.5t42.5 -15.5v-10h-244v10q23 0 42.5 15.5t19.5 61.5v286
q0 46 -19.5 61.5z" />
    <glyph glyph-name="icircumflex" unicode="&#xee;" 
d="M18.5 615q14.5 25 25.5 44l51 89q12 22 32 22t32 -22l48 -84l58 -101l-12 -8q-45 57 -72.5 90t-53.5 53q-26 -20 -53.5 -53t-72.5 -90l-12 8q15 27 29.5 52zM62.5 434.5q-19.5 15.5 -42.5 15.5v10q40 0 96.5 15.5t75.5 34.5h10v-423q0 -46 19.5 -61.5t42.5 -15.5v-10
h-244v10q23 0 42.5 15.5t19.5 61.5v286q0 46 -19.5 61.5z" />
    <glyph glyph-name="idieresis" unicode="&#xef;" 
d="M-23 590q-19 19 -19 45q0 27 19 46t46 19q26 0 45 -19t19 -46q0 -26 -19 -45t-45 -19q-27 0 -46 19zM186 590q-19 19 -19 45q0 27 19 46t46 19q26 0 45 -19t19 -46q0 -26 -19 -45t-45 -19q-27 0 -46 19zM62.5 434.5q-19.5 15.5 -42.5 15.5v10q40 0 96.5 15.5t75.5 34.5
h10v-423q0 -46 19.5 -61.5t42.5 -15.5v-10h-244v10q23 0 42.5 15.5t19.5 61.5v286q0 46 -19.5 61.5z" />
    <glyph glyph-name="ntilde" unicode="&#xf1;" horiz-adv-x="578" 
d="M137 595l-7 5q4 7 23 37.5t45.5 52.5t55.5 22q21 0 34 -5.5t27 -15.5q13 -10 23 -14.5t26 -4.5q43 0 77 50l7 -5q-4 -7 -23 -37.5t-45.5 -52.5t-55.5 -22q-21 0 -34 5.5t-27 15.5q-13 10 -23 14.5t-26 4.5q-43 0 -77 -50zM515.5 25.5q19.5 -15.5 42.5 -15.5v-10h-244v10
q23 0 42.5 15.5t19.5 61.5v346q0 21 -6 29t-22 8q-20 0 -53.5 -19t-92.5 -58v-306q0 -46 19.5 -61.5t42.5 -15.5v-10h-244v10q23 0 42.5 15.5t19.5 61.5v286q0 46 -19.5 61.5t-42.5 15.5v10q40 0 96.5 15.5t75.5 34.5h10v-105q15 10 21 13q60 41 109 66.5t84 25.5
q39 0 59.5 -25t20.5 -72v-326q0 -46 19.5 -61.5z" />
    <glyph glyph-name="ograve" unicode="&#xf2;" horiz-adv-x="569" 
d="M290 594q-19 18 -47 41q-36 30 -52.5 49t-16.5 40q0 19 13 32.5t32 13.5q27 0 43 -27t35 -83q22 -67 40 -97l-12 -8q-16 21 -35 39zM78.5 387.5q38.5 59.5 96 91t110.5 31.5t110 -31.5t95.5 -91t38.5 -139.5t-38.5 -138.5t-95.5 -89t-110 -30.5t-110.5 30.5t-96 89
t-38.5 138.5t38.5 139.5zM197.5 64.5q28.5 -64.5 87.5 -64.5t87.5 64.5t28.5 183.5q0 120 -29 186t-87 66t-87 -66t-29 -186q0 -119 28.5 -183.5z" />
    <glyph glyph-name="oacute" unicode="&#xf3;" horiz-adv-x="569" 
d="M233 563q18 30 40 97q19 56 35 83t43 27q19 0 32 -13.5t13 -32.5q0 -21 -16.5 -40t-52.5 -49q-28 -23 -47 -41t-35 -39zM78.5 387.5q38.5 59.5 96 91t110.5 31.5t110 -31.5t95.5 -91t38.5 -139.5t-38.5 -138.5t-95.5 -89t-110 -30.5t-110.5 30.5t-96 89t-38.5 138.5
t38.5 139.5zM197.5 64.5q28.5 -64.5 87.5 -64.5t87.5 64.5t28.5 183.5q0 120 -29 186t-87 66t-87 -66t-29 -186q0 -119 28.5 -183.5z" />
    <glyph glyph-name="ocircumflex" unicode="&#xf4;" horiz-adv-x="569" 
d="M176.5 615q14.5 25 25.5 44l51 89q12 22 32 22t32 -22l48 -84l58 -101l-12 -8q-45 57 -72.5 90t-53.5 53q-26 -20 -53.5 -53t-72.5 -90l-12 8q15 27 29.5 52zM78.5 387.5q38.5 59.5 96 91t110.5 31.5t110 -31.5t95.5 -91t38.5 -139.5t-38.5 -138.5t-95.5 -89t-110 -30.5
t-110.5 30.5t-96 89t-38.5 138.5t38.5 139.5zM197.5 64.5q28.5 -64.5 87.5 -64.5t87.5 64.5t28.5 183.5q0 120 -29 186t-87 66t-87 -66t-29 -186q0 -119 28.5 -183.5z" />
    <glyph glyph-name="otilde" unicode="&#xf5;" horiz-adv-x="569" 
d="M286 610.5q-13 5.5 -27 15.5q-13 10 -23 14.5t-26 4.5q-43 0 -77 -50l-7 5q4 7 23 37.5t45.5 52.5t55.5 22q21 0 34 -5.5t27 -15.5q13 -10 23 -14.5t26 -4.5q43 0 77 50l7 -5q-4 -7 -23 -37.5t-45.5 -52.5t-55.5 -22q-21 0 -34 5.5zM78.5 387.5q38.5 59.5 96 91
t110.5 31.5t110 -31.5t95.5 -91t38.5 -139.5t-38.5 -138.5t-95.5 -89t-110 -30.5t-110.5 30.5t-96 89t-38.5 138.5t38.5 139.5zM197.5 64.5q28.5 -64.5 87.5 -64.5t87.5 64.5t28.5 183.5q0 120 -29 186t-87 66t-87 -66t-29 -186q0 -119 28.5 -183.5z" />
    <glyph glyph-name="odieresis" unicode="&#xf6;" horiz-adv-x="569" 
d="M135 590q-19 19 -19 45q0 27 19 46t46 19q26 0 45 -19t19 -46q0 -26 -19 -45t-45 -19q-27 0 -46 19zM344 590q-19 19 -19 45q0 27 19 46t46 19q26 0 45 -19t19 -46q0 -26 -19 -45t-45 -19q-27 0 -46 19zM78.5 387.5q38.5 59.5 96 91t110.5 31.5t110 -31.5t95.5 -91
t38.5 -139.5t-38.5 -138.5t-95.5 -89t-110 -30.5t-110.5 30.5t-96 89t-38.5 138.5t38.5 139.5zM197.5 64.5q28.5 -64.5 87.5 -64.5t87.5 64.5t28.5 183.5q0 120 -29 186t-87 66t-87 -66t-29 -186q0 -119 28.5 -183.5z" />
    <glyph glyph-name="divide" unicode="&#xf7;" horiz-adv-x="440" 
d="M184.5 450.5q-14.5 14.5 -14.5 35.5q0 20 14.5 35t35.5 15q20 0 35 -15t15 -35q0 -21 -15 -35.5t-35 -14.5q-21 0 -35.5 14.5zM420 336v-10h-400v10h400zM184.5 140.5q-14.5 14.5 -14.5 35.5q0 20 14.5 35t35.5 15q20 0 35 -15t15 -35q0 -21 -15 -35.5t-35 -14.5
q-21 0 -35.5 14.5z" />
    <glyph glyph-name="oslash" unicode="&#xf8;" horiz-adv-x="549" 
d="M500 370.5q29 -53.5 29 -122.5q0 -80 -38.5 -138.5t-95.5 -89t-110 -30.5q-30 0 -62.5 10t-62.5 29l-43 -69l-9 5l43 70q-50 34 -80.5 88t-30.5 125q0 80 38.5 139.5t96 91t110.5 31.5q31 0 65 -11.5t66 -32.5l36 59l9 -5l-37 -60q47 -36 76 -89.5zM187 93l194 317
q-28 90 -96 90q-58 0 -87 -66t-29 -186q0 -93 18 -155zM372.5 64.5q28.5 64.5 28.5 183.5q0 91 -16 149l-194 -316q30 -81 94 -81q59 0 87.5 64.5z" />
    <glyph glyph-name="ugrave" unicode="&#xf9;" horiz-adv-x="578" 
d="M289 584q-19 18 -47 41q-36 30 -52.5 49t-16.5 40q0 19 13 32.5t32 13.5q27 0 43 -27t35 -83q22 -67 40 -97l-12 -8q-16 21 -35 39zM515.5 25.5q19.5 -15.5 42.5 -15.5v-10h-182v85q-13 -6 -31 -18q-66 -37 -108 -57t-75 -20q-39 0 -59.5 25t-20.5 72v286
q0 46 -19.5 61.5t-42.5 15.5v10q40 0 96.5 15.5t75.5 34.5h10v-443q0 -21 6 -29t22 -8q20 0 53.5 16.5t92.5 50.5v276q0 46 -19.5 61.5t-42.5 15.5v10q40 0 96.5 15.5t75.5 34.5h10v-423q0 -46 19.5 -61.5z" />
    <glyph glyph-name="uacute" unicode="&#xfa;" horiz-adv-x="578" 
d="M378.5 674q-16.5 -19 -52.5 -49q-28 -23 -47 -41t-35 -39l-12 8q18 30 40 97q19 56 35 83t43 27q19 0 32 -13.5t13 -32.5q0 -21 -16.5 -40zM515.5 25.5q19.5 -15.5 42.5 -15.5v-10h-182v85q-13 -6 -31 -18q-66 -37 -108 -57t-75 -20q-39 0 -59.5 25t-20.5 72v286
q0 46 -19.5 61.5t-42.5 15.5v10q40 0 96.5 15.5t75.5 34.5h10v-443q0 -21 6 -29t22 -8q20 0 53.5 16.5t92.5 50.5v276q0 46 -19.5 61.5t-42.5 15.5v10q40 0 96.5 15.5t75.5 34.5h10v-423q0 -46 19.5 -61.5z" />
    <glyph glyph-name="ucircumflex" unicode="&#xfb;" horiz-adv-x="578" 
d="M230.5 635q-27.5 -33 -72.5 -90l-12 8q15 27 29.5 52t25.5 44l51 89q12 22 32 22t32 -22l48 -84l58 -101l-12 -8q-45 57 -72.5 90t-53.5 53q-26 -20 -53.5 -53zM515.5 25.5q19.5 -15.5 42.5 -15.5v-10h-182v85q-13 -6 -31 -18q-66 -37 -108 -57t-75 -20q-39 0 -59.5 25
t-20.5 72v286q0 46 -19.5 61.5t-42.5 15.5v10q40 0 96.5 15.5t75.5 34.5h10v-443q0 -21 6 -29t22 -8q20 0 53.5 16.5t92.5 50.5v276q0 46 -19.5 61.5t-42.5 15.5v10q40 0 96.5 15.5t75.5 34.5h10v-423q0 -46 19.5 -61.5z" />
    <glyph glyph-name="udieresis" unicode="&#xfc;" horiz-adv-x="578" 
d="M134 580q-19 19 -19 45q0 27 19 46t46 19q26 0 45 -19t19 -46q0 -26 -19 -45t-45 -19q-27 0 -46 19zM343 580q-19 19 -19 45q0 27 19 46t46 19q26 0 45 -19t19 -46q0 -26 -19 -45t-45 -19q-27 0 -46 19zM515.5 25.5q19.5 -15.5 42.5 -15.5v-10h-182v85q-13 -6 -31 -18
q-66 -37 -108 -57t-75 -20q-39 0 -59.5 25t-20.5 72v286q0 46 -19.5 61.5t-42.5 15.5v10q40 0 96.5 15.5t75.5 34.5h10v-443q0 -21 6 -29t22 -8q20 0 53.5 16.5t92.5 50.5v276q0 46 -19.5 61.5t-42.5 15.5v10q40 0 96.5 15.5t75.5 34.5h10v-423q0 -46 19.5 -61.5z" />
    <glyph glyph-name="yacute" unicode="&#xfd;" horiz-adv-x="656" 
d="M462.5 684q-16.5 -19 -52.5 -49q-28 -23 -47 -41t-35 -39l-12 8q18 30 40 97q19 56 35 83t43 27q19 0 32 -13.5t13 -32.5q0 -21 -16.5 -40zM636 490q-49 0 -89 -32.5t-70 -111.5l-14 -36q-48 -128 -82 -212l12 -29q-15 0 -26 -4q-48 -115 -85.5 -178t-76.5 -90t-90 -27
q-27 0 -48 14.5t-21 38.5q0 17 14 31t35 14q12 0 24 -5.5t28 -15.5q11 -7 22.5 -12.5t20.5 -5.5q24 0 47 20.5t51 71t67 140.5q-23 -10 -38 -27t-15 -34h-10l-176 420q-18 42 -45 56t-51 14v10h292v-10q-30 0 -45.5 -11.5t-15.5 -38.5q0 -32 25 -92l99 -237q33 78 92 235
q21 55 21 89q0 29 -16 42t-47 13v10h211v-10z" />
    <glyph glyph-name="thorn" unicode="&#xfe;" horiz-adv-x="607" 
d="M459 570q51 -30 79.5 -88.5t28.5 -141.5t-28.5 -141.5t-79.5 -88.5t-117 -30q-36 0 -74.5 16.5t-65.5 52.5v-62q0 -46 19.5 -61.5t42.5 -15.5v-10h-244v10q23 0 42.5 15.5t19.5 61.5v506q0 46 -19.5 61.5t-42.5 15.5v10h244v-10q-23 0 -42.5 -15.5t-19.5 -61.5v-62
q27 36 65.5 52.5t74.5 16.5q66 0 117 -30zM408.5 151.5q30.5 56.5 30.5 188.5q0 129 -33 187t-84 58q-27 0 -58.5 -16t-61.5 -54v-350q30 -38 61.5 -54t58.5 -16q56 0 86.5 56.5z" />
    <glyph glyph-name="ydieresis" unicode="&#xff;" horiz-adv-x="656" 
d="M218 590q-19 19 -19 45q0 27 19 46t46 19q26 0 45 -19t19 -46q0 -26 -19 -45t-45 -19q-27 0 -46 19zM427 590q-19 19 -19 45q0 27 19 46t46 19q26 0 45 -19t19 -46q0 -26 -19 -45t-45 -19q-27 0 -46 19zM636 490q-49 0 -89 -32.5t-70 -111.5l-14 -36q-48 -128 -82 -212
l12 -29q-15 0 -26 -4q-48 -115 -85.5 -178t-76.5 -90t-90 -27q-27 0 -48 14.5t-21 38.5q0 17 14 31t35 14q12 0 24 -5.5t28 -15.5q11 -7 22.5 -12.5t20.5 -5.5q24 0 47 20.5t51 71t67 140.5q-23 -10 -38 -27t-15 -34h-10l-176 420q-18 42 -45 56t-51 14v10h292v-10
q-30 0 -45.5 -11.5t-15.5 -38.5q0 -32 25 -92l99 -237q33 78 92 235q21 55 21 89q0 29 -16 42t-47 13v10h211v-10z" />
    <glyph glyph-name="Amacron" unicode="&#x100;" horiz-adv-x="832" 
d="M534 790h-250v20h250v-20zM761 24q27 -14 51 -14v-10h-292v10q30 0 45.5 11.5t15.5 38.5q0 32 -25 92l-5 13h-356l-4 -11q-23 -57 -23 -91q0 -29 16 -41t47 -12v-10h-211v10q49 0 89 32.5t71 111.5l182 462l-13 30q30 0 60.5 18t30.5 51h10l266 -635q18 -42 45 -56z
M546 175l-179 427l-168 -427h347z" />
    <glyph glyph-name="amacron" unicode="&#x101;" horiz-adv-x="567" 
d="M380 590h-250v20h250v-20zM504.5 25.5q19.5 -15.5 42.5 -15.5v-10h-67h-115v52q-29 -29 -62.5 -45.5t-67.5 -16.5q-57 0 -106 26.5t-79 80t-30 130.5t30 135.5t79.5 90t105.5 31.5q63 0 130 -56v83h10q50 -50 110 -50v-374q0 -46 19.5 -61.5zM365 66v348q-54 50 -105 50
q-34 0 -61.5 -31t-43 -85t-15.5 -121q0 -100 33.5 -158.5t86.5 -58.5q46 0 105 56z" />
    <glyph glyph-name="Abreve" unicode="&#x102;" horiz-adv-x="832" 
d="M333 807.5q-34 37.5 -54 109.5l10 3q14 -35 48 -49t72 -14t72 14t48 49l10 -3q-20 -73 -53.5 -110t-76.5 -37q-42 0 -76 37.5zM761 24q27 -14 51 -14v-10h-292v10q30 0 45.5 11.5t15.5 38.5q0 32 -25 92l-5 13h-356l-4 -11q-23 -57 -23 -91q0 -29 16 -41t47 -12v-10h-211
v10q49 0 89 32.5t71 111.5l182 462l-13 30q30 0 60.5 18t30.5 51h10l266 -635q18 -42 45 -56zM546 175l-179 427l-168 -427h347z" />
    <glyph glyph-name="abreve" unicode="&#x103;" horiz-adv-x="567" 
d="M179 627.5q-34 37.5 -54 109.5l10 3q14 -35 48 -49t72 -14t72 14t48 49l10 -3q-20 -73 -53.5 -110t-76.5 -37q-42 0 -76 37.5zM504.5 25.5q19.5 -15.5 42.5 -15.5v-10h-67h-115v52q-29 -29 -62.5 -45.5t-67.5 -16.5q-57 0 -106 26.5t-79 80t-30 130.5t30 135.5t79.5 90
t105.5 31.5q63 0 130 -56v83h10q50 -50 110 -50v-374q0 -46 19.5 -61.5zM365 66v348q-54 50 -105 50q-34 0 -61.5 -31t-43 -85t-15.5 -121q0 -100 33.5 -158.5t86.5 -58.5q46 0 105 56z" />
    <glyph glyph-name="Aogonek" unicode="&#x104;" horiz-adv-x="832" 
d="M761 24q27 -14 51 -14v-10h-171q-39 -17 -69.5 -42t-30.5 -55q0 -21 14.5 -37t42.5 -16q42 0 89 34l7 -7q-40 -29 -67 -43t-64 -14t-62.5 19.5t-25.5 49.5q0 29 22.5 50t49.5 32.5t74 28.5h-101v10q30 0 45.5 11.5t15.5 38.5q0 32 -25 92l-5 13h-356l-4 -11
q-23 -57 -23 -91q0 -29 16 -41t47 -12v-10h-211v10q49 0 89 32.5t71 111.5l182 462l-13 30q30 0 60.5 18t30.5 51h10l266 -635q18 -42 45 -56zM546 175l-179 427l-168 -427h347z" />
    <glyph glyph-name="aogonek" unicode="&#x105;" horiz-adv-x="567" 
d="M549 -123q-40 -29 -67 -43t-64 -14t-62.5 19.5t-25.5 49.5q0 29 22.5 50t49.5 32.5t74 28.5h-111v52q-29 -29 -62.5 -45.5t-67.5 -16.5q-57 0 -106 26.5t-79 80t-30 130.5t30 135.5t79.5 90t105.5 31.5q63 0 130 -56v83h10q50 -50 110 -50v-374q0 -46 19.5 -61.5
t42.5 -15.5v-10h-51q-39 -17 -69.5 -42t-30.5 -55q0 -21 14.5 -37t42.5 -16q42 0 89 34zM365 66v348q-54 50 -105 50q-34 0 -61.5 -31t-43 -85t-15.5 -121q0 -100 33.5 -158.5t86.5 -58.5q46 0 105 56z" />
    <glyph glyph-name="Cacute" unicode="&#x106;" horiz-adv-x="651" 
d="M494.5 879q-16.5 -19 -52.5 -49q-28 -23 -47 -41t-35 -39l-12 8q18 30 40 97q19 56 35 83t43 27q19 0 32 -13.5t13 -32.5q0 -21 -16.5 -40zM631 212q-29 -94 -99 -158t-182 -64q-73 0 -145 40t-118.5 117t-46.5 183q0 110 50.5 192t125.5 125t144 43q68 0 121.5 -12
t59.5 -13q12 -2 17 -2q39 0 39 42v17h10v-282h-10q0 61 -30.5 116.5t-85 89.5t-121.5 34q-60 0 -105.5 -37t-70 -96.5t-24.5 -126.5q0 -109 33 -188t94 -120.5t143 -41.5q58 0 106 33.5t87 113.5z" />
    <glyph glyph-name="cacute" unicode="&#x107;" horiz-adv-x="510" 
d="M365.5 684q-16.5 -19 -52.5 -49q-28 -23 -47 -41t-35 -39l-12 8q18 30 40 97q19 56 35 83t43 27q19 0 32 -13.5t13 -32.5q0 -21 -16.5 -40zM470 173q-25 -85 -74.5 -134t-134.5 -49q-55 0 -106 29.5t-83 88.5t-32 141q0 79 34 138t87.5 91t109.5 32q51 0 95 -18t70 -48.5
t26 -65.5q0 -28 -15 -44t-35 -16t-35 16t-15 44q0 63 -15.5 92.5t-65.5 29.5q-48 0 -77.5 -34t-41.5 -82.5t-12 -94.5q0 -74 22.5 -126t61 -78t86.5 -26q44 0 81.5 28t60.5 91z" />
    <glyph glyph-name="Ccircumflex" unicode="&#x108;" horiz-adv-x="651" 
d="M306.5 840q-27.5 -33 -72.5 -90l-12 8q15 27 29.5 52t25.5 44l51 89q12 22 32 22t32 -22l48 -84l58 -101l-12 -8q-45 57 -72.5 90t-53.5 53q-26 -20 -53.5 -53zM631 212q-29 -94 -99 -158t-182 -64q-73 0 -145 40t-118.5 117t-46.5 183q0 110 50.5 192t125.5 125t144 43
q68 0 121.5 -12t59.5 -13q12 -2 17 -2q39 0 39 42v17h10v-282h-10q0 61 -30.5 116.5t-85 89.5t-121.5 34q-60 0 -105.5 -37t-70 -96.5t-24.5 -126.5q0 -109 33 -188t94 -120.5t143 -41.5q58 0 106 33.5t87 113.5z" />
    <glyph glyph-name="ccircumflex" unicode="&#x109;" horiz-adv-x="510" 
d="M217.5 645q-27.5 -33 -72.5 -90l-12 8q15 27 29.5 52t25.5 44l51 89q12 22 32 22t32 -22l48 -84l58 -101l-12 -8q-45 57 -72.5 90t-53.5 53q-26 -20 -53.5 -53zM470 173q-25 -85 -74.5 -134t-134.5 -49q-55 0 -106 29.5t-83 88.5t-32 141q0 79 34 138t87.5 91t109.5 32
q51 0 95 -18t70 -48.5t26 -65.5q0 -28 -15 -44t-35 -16t-35 16t-15 44q0 63 -15.5 92.5t-65.5 29.5q-48 0 -77.5 -34t-41.5 -82.5t-12 -94.5q0 -74 22.5 -126t61 -78t86.5 -26q44 0 81.5 28t60.5 91z" />
    <glyph glyph-name="Ccaron" unicode="&#x10c;" horiz-adv-x="651" 
d="M328 772l-48 84l-58 101l12 8q45 -57 72.5 -90t53.5 -53q26 20 53.5 53t72.5 90l12 -8q-15 -27 -29.5 -52t-25.5 -44l-51 -89q-12 -22 -32 -22t-32 22zM631 212q-29 -94 -99 -158t-182 -64q-73 0 -145 40t-118.5 117t-46.5 183q0 110 50.5 192t125.5 125t144 43
q68 0 121.5 -12t59.5 -13q12 -2 17 -2q39 0 39 42v17h10v-282h-10q0 61 -30.5 116.5t-85 89.5t-121.5 34q-60 0 -105.5 -37t-70 -96.5t-24.5 -126.5q0 -109 33 -188t94 -120.5t143 -41.5q58 0 106 33.5t87 113.5z" />
    <glyph glyph-name="ccaron" unicode="&#x10d;" horiz-adv-x="510" 
d="M239 577l-48 84l-58 101l12 8q45 -57 72.5 -90t53.5 -53q26 20 53.5 53t72.5 90l12 -8q-15 -27 -29.5 -52t-25.5 -44l-51 -89q-12 -22 -32 -22t-32 22zM470 173q-25 -85 -74.5 -134t-134.5 -49q-55 0 -106 29.5t-83 88.5t-32 141q0 79 34 138t87.5 91t109.5 32
q51 0 95 -18t70 -48.5t26 -65.5q0 -28 -15 -44t-35 -16t-35 16t-15 44q0 63 -15.5 92.5t-65.5 29.5q-48 0 -77.5 -34t-41.5 -82.5t-12 -94.5q0 -74 22.5 -126t61 -78t86.5 -26q44 0 81.5 28t60.5 91z" />
    <glyph glyph-name="Dcaron" unicode="&#x10e;" horiz-adv-x="700" 
d="M268 772l-48 84l-58 101l12 8q45 -57 72.5 -90t53.5 -53q26 20 53.5 53t72.5 90l12 -8q-15 -27 -29.5 -52t-25.5 -44l-51 -89q-12 -22 -32 -22t-32 22zM489 642q74 -38 122.5 -115t48.5 -187t-48.5 -187t-122.5 -115t-149 -38h-138h-182v10q23 0 42.5 15.5t19.5 61.5v506
q0 46 -19.5 61.5t-42.5 15.5v10h182h138q75 0 149 -38zM484.5 93.5q45.5 83.5 45.5 246.5t-45.5 246.5t-144.5 83.5h-138v-660h138q99 0 144.5 83.5z" />
    <glyph glyph-name="dcaron" unicode="&#x10f;" horiz-adv-x="607" 
d="M544.5 25.5q19.5 -15.5 42.5 -15.5v-10h-182v59q-27 -36 -65.5 -52.5t-74.5 -16.5q-66 0 -117 30t-79.5 88.5t-28.5 141.5t28.5 141.5t79.5 88.5t117 30q36 0 74.5 -16.5t65.5 -52.5v152q0 46 -19.5 61.5t-42.5 15.5v10q40 0 96.5 15.5t75.5 34.5h10v-643
q0 -46 19.5 -61.5zM685 711.5q13 -13.5 13 -32.5q0 -21 -16.5 -40t-52.5 -49q-28 -23 -47 -41t-35 -39l-12 8q18 30 40 97q19 56 35 83t43 27q19 0 32 -13.5zM405 425q-30 38 -61.5 54t-58.5 16q-56 0 -86.5 -56.5t-30.5 -188.5q0 -129 33 -187t84 -58q27 0 58.5 16t61.5 54
v350z" />
    <glyph glyph-name="Dcroat" unicode="&#x110;" horiz-adv-x="680" 
d="M489 642q74 -38 122.5 -115t48.5 -187t-48.5 -187t-122.5 -115t-149 -38h-138h-182v10q23 0 42.5 15.5t19.5 61.5v248h-80v10h80v248q0 46 -19.5 61.5t-42.5 15.5v10h182h138q75 0 149 -38zM484.5 93.5q45.5 83.5 45.5 246.5t-45.5 246.5t-144.5 83.5h-138v-325h130v-10
h-130v-325h138q99 0 144.5 83.5z" />
    <glyph glyph-name="dcroat" unicode="&#x111;" horiz-adv-x="607" 
d="M525 590v-503q0 -46 19.5 -61.5t42.5 -15.5v-10h-182v59q-27 -36 -65.5 -52.5t-74.5 -16.5q-66 0 -117 30t-79.5 88.5t-28.5 141.5t28.5 141.5t79.5 88.5t117 30q36 0 74.5 -16.5t65.5 -52.5v149h-148v10h148q-2 41 -21 55.5t-41 14.5v10q40 0 96.5 15.5t75.5 34.5h10
v-130h62v-10h-62zM405 425q-30 38 -61.5 54t-58.5 16q-56 0 -86.5 -56.5t-30.5 -188.5q0 -129 33 -187t84 -58q27 0 58.5 16t61.5 54v350z" />
    <glyph glyph-name="Emacron" unicode="&#x112;" horiz-adv-x="573" 
d="M426 790h-250v20h250v-20zM533 722v-282h-10q0 31 -16.5 87t-47 99.5t-71.5 43.5h-186v-325h98q34 0 49.5 38.5t15.5 91.5h10v-270h-10q0 53 -15.5 91.5t-49.5 38.5h-98v-325h186q41 0 71.5 43.5t47 99.5t16.5 87h10v-282h-10q0 19 -15 30.5t-62 11.5h-426v10
q23 0 42.5 15.5t19.5 61.5v506q0 46 -19.5 61.5t-42.5 15.5v10h426q47 0 62 11.5t15 30.5h10z" />
    <glyph glyph-name="emacron" unicode="&#x113;" horiz-adv-x="521" 
d="M386 590h-250v20h250v-20zM411.5 87q37.5 28 60.5 91l8 -5q-25 -85 -74.5 -134t-134.5 -49q-55 0 -108.5 30t-88 88.5t-34.5 140.5q0 76 28.5 135.5t79 92.5t113.5 33q67 0 117 -27t76.5 -73t26.5 -102h-120h-201v-19q0 -74 22.5 -126t61 -78t86.5 -26q44 0 81.5 28z
M182 448.5q-20 -51.5 -22 -130.5h201q-3 182 -100 182q-59 0 -79 -51.5z" />
    <glyph glyph-name="Ebreve" unicode="&#x114;" horiz-adv-x="573" 
d="M225 807.5q-34 37.5 -54 109.5l10 3q14 -35 48 -49t72 -14t72 14t48 49l10 -3q-20 -73 -53.5 -110t-76.5 -37q-42 0 -76 37.5zM533 722v-282h-10q0 31 -16.5 87t-47 99.5t-71.5 43.5h-186v-325h98q34 0 49.5 38.5t15.5 91.5h10v-270h-10q0 53 -15.5 91.5t-49.5 38.5h-98
v-325h186q41 0 71.5 43.5t47 99.5t16.5 87h10v-282h-10q0 19 -15 30.5t-62 11.5h-426v10q23 0 42.5 15.5t19.5 61.5v506q0 46 -19.5 61.5t-42.5 15.5v10h426q47 0 62 11.5t15 30.5h10z" />
    <glyph glyph-name="ebreve" unicode="&#x115;" horiz-adv-x="521" 
d="M185 627.5q-34 37.5 -54 109.5l10 3q14 -35 48 -49t72 -14t72 14t48 49l10 -3q-20 -73 -53.5 -110t-76.5 -37q-42 0 -76 37.5zM411.5 87q37.5 28 60.5 91l8 -5q-25 -85 -74.5 -134t-134.5 -49q-55 0 -108.5 30t-88 88.5t-34.5 140.5q0 76 28.5 135.5t79 92.5t113.5 33
q67 0 117 -27t76.5 -73t26.5 -102h-120h-201v-19q0 -74 22.5 -126t61 -78t86.5 -26q44 0 81.5 28zM182 448.5q-20 -51.5 -22 -130.5h201q-3 182 -100 182q-59 0 -79 -51.5z" />
    <glyph glyph-name="Edotaccent" unicode="&#x116;" horiz-adv-x="573" 
d="M255 769q-19 19 -19 45q0 27 19 46t46 19q26 0 45 -19t19 -46q0 -26 -19 -45t-45 -19q-27 0 -46 19zM533 722v-282h-10q0 31 -16.5 87t-47 99.5t-71.5 43.5h-186v-325h98q34 0 49.5 38.5t15.5 91.5h10v-270h-10q0 53 -15.5 91.5t-49.5 38.5h-98v-325h186q41 0 71.5 43.5
t47 99.5t16.5 87h10v-282h-10q0 19 -15 30.5t-62 11.5h-426v10q23 0 42.5 15.5t19.5 61.5v506q0 46 -19.5 61.5t-42.5 15.5v10h426q47 0 62 11.5t15 30.5h10z" />
    <glyph glyph-name="edotaccent" unicode="&#x117;" horiz-adv-x="521" 
d="M215 590q-19 19 -19 45q0 27 19 46t46 19q26 0 45 -19t19 -46q0 -26 -19 -45t-45 -19q-27 0 -46 19zM411.5 87q37.5 28 60.5 91l8 -5q-25 -85 -74.5 -134t-134.5 -49q-55 0 -108.5 30t-88 88.5t-34.5 140.5q0 76 28.5 135.5t79 92.5t113.5 33q67 0 117 -27t76.5 -73
t26.5 -102h-120h-201v-19q0 -74 22.5 -126t61 -78t86.5 -26q44 0 81.5 28zM182 448.5q-20 -51.5 -22 -130.5h201q-3 182 -100 182q-59 0 -79 -51.5z" />
    <glyph glyph-name="Eogonek" unicode="&#x118;" horiz-adv-x="573" 
d="M533 722v-282h-10q0 31 -16.5 87t-47 99.5t-71.5 43.5h-186v-325h98q34 0 49.5 38.5t15.5 91.5h10v-270h-10q0 53 -15.5 91.5t-49.5 38.5h-98v-325h186q41 0 71.5 43.5t47 99.5t16.5 87h10v-282h-10q0 19 -15 30.5t-62 11.5h-101q-39 -17 -69.5 -42t-30.5 -55
q0 -21 14.5 -37t42.5 -16q42 0 89 34l7 -7q-40 -29 -67 -43t-64 -14t-62.5 19.5t-25.5 49.5q0 29 22.5 50t49.5 32.5t74 28.5h-305v10q23 0 42.5 15.5t19.5 61.5v506q0 46 -19.5 61.5t-42.5 15.5v10h426q47 0 62 11.5t15 30.5h10z" />
    <glyph glyph-name="eogonek" unicode="&#x119;" horiz-adv-x="521" 
d="M411.5 87q37.5 28 60.5 91l8 -5q-25 -85 -74.5 -134t-134.5 -49q-55 0 -108.5 30t-88 88.5t-34.5 140.5q0 76 28.5 135.5t79 92.5t113.5 33q67 0 117 -27t76.5 -73t26.5 -102h-120h-201v-19q0 -74 22.5 -126t61 -78t86.5 -26q44 0 81.5 28zM182 448.5
q-20 -51.5 -22 -130.5h201q-3 182 -100 182q-59 0 -79 -51.5zM138.5 -71q22.5 21 49.5 32.5t74 28.5h20q-39 -17 -69.5 -42t-30.5 -55q0 -21 14.5 -37t42.5 -16q42 0 89 34l7 -7q-40 -29 -67 -43t-64 -14t-62.5 19.5t-25.5 49.5q0 29 22.5 50z" />
    <glyph glyph-name="Ecaron" unicode="&#x11a;" horiz-adv-x="573" 
d="M269 772l-48 84l-58 101l12 8q45 -57 72.5 -90t53.5 -53q26 20 53.5 53t72.5 90l12 -8q-15 -27 -29.5 -52t-25.5 -44l-51 -89q-12 -22 -32 -22t-32 22zM533 722v-282h-10q0 31 -16.5 87t-47 99.5t-71.5 43.5h-186v-325h98q34 0 49.5 38.5t15.5 91.5h10v-270h-10
q0 53 -15.5 91.5t-49.5 38.5h-98v-325h186q41 0 71.5 43.5t47 99.5t16.5 87h10v-282h-10q0 19 -15 30.5t-62 11.5h-426v10q23 0 42.5 15.5t19.5 61.5v506q0 46 -19.5 61.5t-42.5 15.5v10h426q47 0 62 11.5t15 30.5h10z" />
    <glyph glyph-name="ecaron" unicode="&#x11b;" horiz-adv-x="521" 
d="M229 577l-48 84l-58 101l12 8q45 -57 72.5 -90t53.5 -53q26 20 53.5 53t72.5 90l12 -8q-15 -27 -29.5 -52t-25.5 -44l-51 -89q-12 -22 -32 -22t-32 22zM411.5 87q37.5 28 60.5 91l8 -5q-25 -85 -74.5 -134t-134.5 -49q-55 0 -108.5 30t-88 88.5t-34.5 140.5
q0 76 28.5 135.5t79 92.5t113.5 33q67 0 117 -27t76.5 -73t26.5 -102h-120h-201v-19q0 -74 22.5 -126t61 -78t86.5 -26q44 0 81.5 28zM182 448.5q-20 -51.5 -22 -130.5h201q-3 182 -100 182q-59 0 -79 -51.5z" />
    <glyph glyph-name="Gcircumflex" unicode="&#x11c;" horiz-adv-x="726" 
d="M306.5 840q-27.5 -33 -72.5 -90l-12 8q15 27 29.5 52t25.5 44l51 89q12 22 32 22t32 -22l48 -84l58 -101l-12 -8q-45 57 -72.5 90t-53.5 53q-26 -20 -53.5 -53zM706 300q-23 0 -42.5 -15.5t-19.5 -61.5v-125q-20 -25 -61 -50t-96.5 -41.5t-116.5 -16.5q-75 0 -151.5 40.5
t-127.5 120t-51 189.5t49 189.5t123 120t148 40.5q61 0 118.5 -12t62.5 -13q12 -2 17 -2q39 0 39 42v17h10v-282h-10q0 61 -30.5 116.5t-85 89.5t-121.5 34q-190 0 -190 -340q0 -160 55 -250t155 -90q104 0 144 98v125q0 46 -19.5 61.5t-42.5 15.5v10h244v-10z" />
    <glyph glyph-name="gcircumflex" unicode="&#x11d;" horiz-adv-x="566" 
d="M222.5 645q-27.5 -33 -72.5 -90l-12 8q15 27 29.5 52t25.5 44l51 89q12 22 32 22t32 -22l48 -84l58 -101l-12 -8q-45 57 -72.5 90t-53.5 53q-26 -20 -53.5 -53zM500 -5q46 -32 46 -98q0 -80 -76 -113.5t-169 -33.5q-71 0 -135.5 16t-105 48t-40.5 78q0 26 13.5 42
t36.5 16t36.5 -16t13.5 -42q0 -72 57.5 -102t123.5 -30q77 0 130.5 23t53.5 80q0 30 -32.5 44.5t-87.5 23.5l-183 29q-54 9 -93 35.5t-39 78.5q0 35 27.5 61.5t67.5 42.5q-38 24 -60.5 61t-22.5 85q0 58 31.5 100t81 64t101.5 22q49 0 93 -18q40 55 107 55q19 0 34.5 -10.5
t15.5 -26.5q0 -13 -10 -23.5t-27 -10.5q-12 0 -36 15q-22 14 -32 14q-12 0 -21 -3.5t-20 -14.5q50 -23 80 -65t30 -98q0 -57 -31.5 -98.5t-80.5 -63t-102 -21.5q-63 0 -118 29q-24 -9 -40 -21.5t-16 -27.5q0 -26 26.5 -36t77.5 -19l160 -25q88 -14 134 -46zM207.5 453
q-25.5 -47 -25.5 -129t25.5 -127.5t68.5 -45.5t68.5 45.5t25.5 127.5t-25.5 129t-68.5 47t-68.5 -47z" />
    <glyph glyph-name="Gbreve" unicode="&#x11e;" horiz-adv-x="726" 
d="M284 807.5q-34 37.5 -54 109.5l10 3q14 -35 48 -49t72 -14t72 14t48 49l10 -3q-20 -73 -53.5 -110t-76.5 -37q-42 0 -76 37.5zM706 300q-23 0 -42.5 -15.5t-19.5 -61.5v-125q-20 -25 -61 -50t-96.5 -41.5t-116.5 -16.5q-75 0 -151.5 40.5t-127.5 120t-51 189.5t49 189.5
t123 120t148 40.5q61 0 118.5 -12t62.5 -13q12 -2 17 -2q39 0 39 42v17h10v-282h-10q0 61 -30.5 116.5t-85 89.5t-121.5 34q-190 0 -190 -340q0 -160 55 -250t155 -90q104 0 144 98v125q0 46 -19.5 61.5t-42.5 15.5v10h244v-10z" />
    <glyph glyph-name="gbreve" unicode="&#x11f;" horiz-adv-x="566" 
d="M200 627.5q-34 37.5 -54 109.5l10 3q14 -35 48 -49t72 -14t72 14t48 49l10 -3q-20 -73 -53.5 -110t-76.5 -37q-42 0 -76 37.5zM500 -5q46 -32 46 -98q0 -80 -76 -113.5t-169 -33.5q-71 0 -135.5 16t-105 48t-40.5 78q0 26 13.5 42t36.5 16t36.5 -16t13.5 -42
q0 -72 57.5 -102t123.5 -30q77 0 130.5 23t53.5 80q0 30 -32.5 44.5t-87.5 23.5l-183 29q-54 9 -93 35.5t-39 78.5q0 35 27.5 61.5t67.5 42.5q-38 24 -60.5 61t-22.5 85q0 58 31.5 100t81 64t101.5 22q49 0 93 -18q40 55 107 55q19 0 34.5 -10.5t15.5 -26.5q0 -13 -10 -23.5
t-27 -10.5q-12 0 -36 15q-22 14 -32 14q-12 0 -21 -3.5t-20 -14.5q50 -23 80 -65t30 -98q0 -57 -31.5 -98.5t-80.5 -63t-102 -21.5q-63 0 -118 29q-24 -9 -40 -21.5t-16 -27.5q0 -26 26.5 -36t77.5 -19l160 -25q88 -14 134 -46zM207.5 453q-25.5 -47 -25.5 -129t25.5 -127.5
t68.5 -45.5t68.5 45.5t25.5 127.5t-25.5 129t-68.5 47t-68.5 -47z" />
    <glyph glyph-name="Hcircumflex" unicode="&#x124;" horiz-adv-x="728" 
d="M310.5 840q-27.5 -33 -72.5 -90l-12 8q15 27 29.5 52t25.5 44l51 89q12 22 32 22t32 -22l48 -84l58 -101l-12 -8q-45 57 -72.5 90t-53.5 53q-26 -20 -53.5 -53zM665.5 654.5q-19.5 -15.5 -19.5 -61.5v-506q0 -46 19.5 -61.5t42.5 -15.5v-10h-244v10q23 0 42.5 15.5
t19.5 61.5v248h-324v-248q0 -46 19.5 -61.5t42.5 -15.5v-10h-244v10q23 0 42.5 15.5t19.5 61.5v506q0 46 -19.5 61.5t-42.5 15.5v10h244v-10q-23 0 -42.5 -15.5t-19.5 -61.5v-248h324v248q0 46 -19.5 61.5t-42.5 15.5v10h244v-10q-23 0 -42.5 -15.5z" />
    <glyph glyph-name="hcircumflex" unicode="&#x125;" horiz-adv-x="578" 
d="M72.5 840q-27.5 -33 -72.5 -90l-12 8q15 27 29.5 52t25.5 44l51 89q12 22 32 22t32 -22l48 -84l58 -101l-12 -8q-45 57 -72.5 90t-53.5 53q-26 -20 -53.5 -53zM515.5 25.5q19.5 -15.5 42.5 -15.5v-10h-244v10q23 0 42.5 15.5t19.5 61.5v346q0 21 -6 29t-22 8
q-20 0 -53.5 -19t-92.5 -58v-306q0 -46 19.5 -61.5t42.5 -15.5v-10h-244v10q23 0 42.5 15.5t19.5 61.5v506q0 46 -19.5 61.5t-42.5 15.5v10q40 0 96.5 15.5t75.5 34.5h10v-325q15 10 21 13q60 41 109 66.5t84 25.5q39 0 59.5 -25t20.5 -72v-326q0 -46 19.5 -61.5z" />
    <glyph glyph-name="Itilde" unicode="&#x128;" 
d="M143 755.5q-13 5.5 -27 15.5q-13 10 -23 14.5t-26 4.5q-43 0 -77 -50l-7 5q4 7 23 37.5t45.5 52.5t55.5 22q21 0 34 -5.5t27 -15.5q13 -10 23 -14.5t26 -4.5q43 0 77 50l7 -5q-4 -7 -23 -37.5t-45.5 -52.5t-55.5 -22q-21 0 -34 5.5zM62.5 654.5q-19.5 15.5 -42.5 15.5v10
h244v-10q-23 0 -42.5 -15.5t-19.5 -61.5v-506q0 -46 19.5 -61.5t42.5 -15.5v-10h-244v10q23 0 42.5 15.5t19.5 61.5v506q0 46 -19.5 61.5z" />
    <glyph glyph-name="itilde" unicode="&#x129;" 
d="M128 610.5q-13 5.5 -27 15.5q-13 10 -23 14.5t-26 4.5q-43 0 -77 -50l-7 5q4 7 23 37.5t45.5 52.5t55.5 22q21 0 34 -5.5t27 -15.5q13 -10 23 -14.5t26 -4.5q43 0 77 50l7 -5q-4 -7 -23 -37.5t-45.5 -52.5t-55.5 -22q-21 0 -34 5.5zM62.5 434.5q-19.5 15.5 -42.5 15.5v10
q40 0 96.5 15.5t75.5 34.5h10v-423q0 -46 19.5 -61.5t42.5 -15.5v-10h-244v10q23 0 42.5 15.5t19.5 61.5v286q0 46 -19.5 61.5z" />
    <glyph glyph-name="Imacron" unicode="&#x12a;" 
d="M267 810v-20h-250v20h250zM62.5 654.5q-19.5 15.5 -42.5 15.5v10h244v-10q-23 0 -42.5 -15.5t-19.5 -61.5v-506q0 -46 19.5 -61.5t42.5 -15.5v-10h-244v10q23 0 42.5 15.5t19.5 61.5v506q0 46 -19.5 61.5z" />
    <glyph glyph-name="imacron" unicode="&#x12b;" 
d="M252 610v-20h-250v20h250zM62.5 434.5q-19.5 15.5 -42.5 15.5v10q40 0 96.5 15.5t75.5 34.5h10v-423q0 -46 19.5 -61.5t42.5 -15.5v-10h-244v10q23 0 42.5 15.5t19.5 61.5v286q0 46 -19.5 61.5z" />
    <glyph glyph-name="Ibreve" unicode="&#x12c;" 
d="M66 807.5q-34 37.5 -54 109.5l10 3q14 -35 48 -49t72 -14t72 14t48 49l10 -3q-20 -73 -53.5 -110t-76.5 -37q-42 0 -76 37.5zM62.5 654.5q-19.5 15.5 -42.5 15.5v10h244v-10q-23 0 -42.5 -15.5t-19.5 -61.5v-506q0 -46 19.5 -61.5t42.5 -15.5v-10h-244v10q23 0 42.5 15.5
t19.5 61.5v506q0 46 -19.5 61.5z" />
    <glyph glyph-name="ibreve" unicode="&#x12d;" 
d="M51 627.5q-34 37.5 -54 109.5l10 3q14 -35 48 -49t72 -14t72 14t48 49l10 -3q-20 -73 -53.5 -110t-76.5 -37q-42 0 -76 37.5zM62.5 434.5q-19.5 15.5 -42.5 15.5v10q40 0 96.5 15.5t75.5 34.5h10v-423q0 -46 19.5 -61.5t42.5 -15.5v-10h-244v10q23 0 42.5 15.5t19.5 61.5
v286q0 46 -19.5 61.5z" />
    <glyph glyph-name="Iogonek" unicode="&#x12e;" 
d="M221.5 654.5q-19.5 -15.5 -19.5 -61.5v-506q0 -46 19.5 -61.5t42.5 -15.5v-10h-61q-39 -17 -69.5 -42t-30.5 -55q0 -21 14.5 -37t42.5 -16q42 0 89 34l7 -7q-40 -29 -67 -43t-64 -14t-62.5 19.5t-25.5 49.5q0 29 22.5 50t49.5 32.5t74 28.5h-163v10q23 0 42.5 15.5
t19.5 61.5v506q0 46 -19.5 61.5t-42.5 15.5v10h244v-10q-23 0 -42.5 -15.5z" />
    <glyph glyph-name="iogonek" unicode="&#x12f;" 
d="M81 590q-19 19 -19 45q0 27 19 46t46 19q26 0 45 -19t19 -46q0 -26 -19 -45t-45 -19q-27 0 -46 19zM116.5 -42q-30.5 -25 -30.5 -55q0 -21 14.5 -37t42.5 -16q42 0 89 34l7 -7q-40 -29 -67 -43t-64 -14t-62.5 19.5t-25.5 49.5q0 29 22.5 50t49.5 32.5t74 28.5h-146v10
q23 0 42.5 15.5t19.5 61.5v286q0 46 -19.5 61.5t-42.5 15.5v10q40 0 96.5 15.5t75.5 34.5h10v-423q0 -46 19.5 -61.5t42.5 -15.5v-10h-78q-39 -17 -69.5 -42z" />
    <glyph glyph-name="Idotaccent" unicode="&#x130;" 
d="M96 769q-19 19 -19 45q0 27 19 46t46 19q26 0 45 -19t19 -46q0 -26 -19 -45t-45 -19q-27 0 -46 19zM62.5 654.5q-19.5 15.5 -42.5 15.5v10h244v-10q-23 0 -42.5 -15.5t-19.5 -61.5v-506q0 -46 19.5 -61.5t42.5 -15.5v-10h-244v10q23 0 42.5 15.5t19.5 61.5v506
q0 46 -19.5 61.5z" />
    <glyph glyph-name="Jcircumflex" unicode="&#x134;" horiz-adv-x="424" 
d="M222 5l120 115zM362 859l58 -101l-12 -8q-45 57 -72.5 90t-53.5 53q-26 -20 -53.5 -53t-72.5 -90l-12 8q15 27 29.5 52t25.5 44l51 89q12 22 32 22t32 -22zM404 670q-23 0 -42.5 -15.5t-19.5 -61.5v-473q0 -132 -61.5 -195t-162.5 -63q-42 0 -70 17t-28 42q0 23 15.5 36
t37.5 13q21 0 33.5 -12.5t25.5 -34.5q12 -20 22 -30.5t26 -10.5q42 0 42 123v588q0 46 -19.5 61.5t-42.5 15.5v10h244v-10z" />
    <glyph glyph-name="jcircumflex" unicode="&#x135;" horiz-adv-x="282" 
d="M207 664l58 -101l-12 -8q-45 57 -72.5 90t-53.5 53q-26 -20 -53.5 -53t-72.5 -90l-12 8q15 27 29.5 52t25.5 44l51 89q12 22 32 22t32 -22zM116.5 475.5q56.5 15.5 75.5 34.5h10v-472q0 -89 -28 -149t-74.5 -89.5t-101.5 -29.5q-45 0 -73 12.5t-28 37.5q0 19 14 33.5
t34 14.5t30 -10.5t22 -31.5q9 -18 18 -28t25 -10q42 0 42 125v460q0 46 -19.5 61.5t-42.5 15.5v10q40 0 96.5 15.5z" />
    <glyph glyph-name="Lacute" unicode="&#x139;" horiz-adv-x="533" 
d="M276.5 879q-16.5 -19 -52.5 -49q-28 -23 -47 -41t-35 -39l-12 8q18 30 40 97q19 56 35 83t43 27q19 0 32 -13.5t13 -32.5q0 -21 -16.5 -40zM493 240v-282h-10q0 19 -15 30.5t-62 11.5h-386v10q23 0 42.5 15.5t19.5 61.5v506q0 46 -19.5 61.5t-42.5 15.5v10h244v-10
q-23 0 -42.5 -15.5t-19.5 -61.5v-583h146q41 0 71.5 43.5t47 99.5t16.5 87h10z" />
    <glyph glyph-name="lacute" unicode="&#x13a;" 
d="M115 758q18 30 40 97q19 56 35 83t43 27q19 0 32 -13.5t13 -32.5q0 -21 -16.5 -40t-52.5 -49q-28 -23 -47 -41t-35 -39zM62.5 654.5q-19.5 15.5 -42.5 15.5v10q40 0 96.5 15.5t75.5 34.5h10v-643q0 -46 19.5 -61.5t42.5 -15.5v-10h-244v10q23 0 42.5 15.5t19.5 61.5v506
q0 46 -19.5 61.5z" />
    <glyph glyph-name="Lcaron" unicode="&#x13d;" horiz-adv-x="533" 
d="M110 772l-48 84l-58 101l12 8q45 -57 72.5 -90t53.5 -53q26 20 53.5 53t72.5 90l12 -8q-15 -27 -29.5 -52t-25.5 -44l-51 -89q-12 -22 -32 -22t-32 22zM493 240v-282h-10q0 19 -15 30.5t-62 11.5h-386v10q23 0 42.5 15.5t19.5 61.5v506q0 46 -19.5 61.5t-42.5 15.5v10
h244v-10q-23 0 -42.5 -15.5t-19.5 -61.5v-583h146q41 0 71.5 43.5t47 99.5t16.5 87h10z" />
    <glyph glyph-name="lcaron" unicode="&#x13e;" 
d="M62.5 654.5q-19.5 15.5 -42.5 15.5v10q40 0 96.5 15.5t75.5 34.5h10v-643q0 -46 19.5 -61.5t42.5 -15.5v-10h-244v10q23 0 42.5 15.5t19.5 61.5v506q0 46 -19.5 61.5zM252 518q18 30 40 97q19 56 35 83t43 27q19 0 32 -13.5t13 -32.5q0 -21 -16.5 -40t-52.5 -49
q-28 -23 -47 -41t-35 -39z" />
    <glyph glyph-name="Nacute" unicode="&#x143;" horiz-adv-x="719" 
d="M509.5 879q-16.5 -19 -52.5 -49q-28 -23 -47 -41t-35 -39l-12 8q18 30 40 97q19 56 35 83t43 27q19 0 32 -13.5t13 -32.5q0 -21 -16.5 -40zM699 670q-49 0 -74.5 -35t-25.5 -120v-400l30 -46q-24 0 -44.5 -10.5t-32.5 -27t-12 -31.5h-10l-397 607l-2 3v-445
q0 -85 25.5 -120t74.5 -35v-10h-211v10q49 0 74.5 35t25.5 120v459q-40 46 -97 46v10h206l359 -548v383q0 85 -25.5 120t-74.5 35v10h211v-10z" />
    <glyph glyph-name="nacute" unicode="&#x144;" horiz-adv-x="578" 
d="M383.5 684q-16.5 -19 -52.5 -49q-28 -23 -47 -41t-35 -39l-12 8q18 30 40 97q19 56 35 83t43 27q19 0 32 -13.5t13 -32.5q0 -21 -16.5 -40zM515.5 25.5q19.5 -15.5 42.5 -15.5v-10h-244v10q23 0 42.5 15.5t19.5 61.5v346q0 21 -6 29t-22 8q-20 0 -53.5 -19t-92.5 -58
v-306q0 -46 19.5 -61.5t42.5 -15.5v-10h-244v10q23 0 42.5 15.5t19.5 61.5v286q0 46 -19.5 61.5t-42.5 15.5v10q40 0 96.5 15.5t75.5 34.5h10v-105q15 10 21 13q60 41 109 66.5t84 25.5q39 0 59.5 -25t20.5 -72v-326q0 -46 19.5 -61.5z" />
    <glyph glyph-name="Ncaron" unicode="&#x147;" horiz-adv-x="719" 
d="M343 772l-48 84l-58 101l12 8q45 -57 72.5 -90t53.5 -53q26 20 53.5 53t72.5 90l12 -8q-15 -27 -29.5 -52t-25.5 -44l-51 -89q-12 -22 -32 -22t-32 22zM699 670q-49 0 -74.5 -35t-25.5 -120v-400l30 -46q-24 0 -44.5 -10.5t-32.5 -27t-12 -31.5h-10l-397 607l-2 3v-445
q0 -85 25.5 -120t74.5 -35v-10h-211v10q49 0 74.5 35t25.5 120v459q-40 46 -97 46v10h206l359 -548v383q0 85 -25.5 120t-74.5 35v10h211v-10z" />
    <glyph glyph-name="ncaron" unicode="&#x148;" horiz-adv-x="578" 
d="M257 577l-48 84l-58 101l12 8q45 -57 72.5 -90t53.5 -53q26 20 53.5 53t72.5 90l12 -8q-15 -27 -29.5 -52t-25.5 -44l-51 -89q-12 -22 -32 -22t-32 22zM515.5 25.5q19.5 -15.5 42.5 -15.5v-10h-244v10q23 0 42.5 15.5t19.5 61.5v346q0 21 -6 29t-22 8q-20 0 -53.5 -19
t-92.5 -58v-306q0 -46 19.5 -61.5t42.5 -15.5v-10h-244v10q23 0 42.5 15.5t19.5 61.5v286q0 46 -19.5 61.5t-42.5 15.5v10q40 0 96.5 15.5t75.5 34.5h10v-105q15 10 21 13q60 41 109 66.5t84 25.5q39 0 59.5 -25t20.5 -72v-326q0 -46 19.5 -61.5z" />
    <glyph glyph-name="Omacron" unicode="&#x14c;" horiz-adv-x="720" 
d="M485 810v-20h-250v20h250zM89 529.5q49 79.5 123 120t148 40.5t148 -40.5t123 -120t49 -189.5t-49 -189.5t-123 -120t-148 -40.5t-148 40.5t-123 120t-49 189.5t49 189.5zM360 0q190 0 190 340t-190 340t-190 -340t190 -340z" />
    <glyph glyph-name="omacron" unicode="&#x14d;" horiz-adv-x="569" 
d="M410 610v-20h-250v20h250zM78.5 387.5q38.5 59.5 96 91t110.5 31.5t110 -31.5t95.5 -91t38.5 -139.5t-38.5 -138.5t-95.5 -89t-110 -30.5t-110.5 30.5t-96 89t-38.5 138.5t38.5 139.5zM197.5 64.5q28.5 -64.5 87.5 -64.5t87.5 64.5t28.5 183.5q0 120 -29 186t-87 66
t-87 -66t-29 -186q0 -119 28.5 -183.5z" />
    <glyph glyph-name="Obreve" unicode="&#x14e;" horiz-adv-x="720" 
d="M284 807.5q-34 37.5 -54 109.5l10 3q14 -35 48 -49t72 -14t72 14t48 49l10 -3q-20 -73 -53.5 -110t-76.5 -37q-42 0 -76 37.5zM89 529.5q49 79.5 123 120t148 40.5t148 -40.5t123 -120t49 -189.5t-49 -189.5t-123 -120t-148 -40.5t-148 40.5t-123 120t-49 189.5t49 189.5
zM360 0q190 0 190 340t-190 340t-190 -340t190 -340z" />
    <glyph glyph-name="obreve" unicode="&#x14f;" horiz-adv-x="569" 
d="M209 627.5q-34 37.5 -54 109.5l10 3q14 -35 48 -49t72 -14t72 14t48 49l10 -3q-20 -73 -53.5 -110t-76.5 -37q-42 0 -76 37.5zM78.5 387.5q38.5 59.5 96 91t110.5 31.5t110 -31.5t95.5 -91t38.5 -139.5t-38.5 -138.5t-95.5 -89t-110 -30.5t-110.5 30.5t-96 89
t-38.5 138.5t38.5 139.5zM197.5 64.5q28.5 -64.5 87.5 -64.5t87.5 64.5t28.5 183.5q0 120 -29 186t-87 66t-87 -66t-29 -186q0 -119 28.5 -183.5z" />
    <glyph glyph-name="Ohungarumlaut" unicode="&#x150;" horiz-adv-x="720" 
d="M259 758q18 30 40 97q19 56 35 83t43 27q19 0 32 -13.5t13 -32.5q0 -21 -16.5 -40t-52.5 -49q-28 -23 -47 -41t-35 -39zM439 758q18 30 40 97q19 56 35 83t43 27q19 0 32 -13.5t13 -32.5q0 -21 -16.5 -40t-52.5 -49q-28 -23 -47 -41t-35 -39zM89 529.5q49 79.5 123 120
t148 40.5t148 -40.5t123 -120t49 -189.5t-49 -189.5t-123 -120t-148 -40.5t-148 40.5t-123 120t-49 189.5t49 189.5zM360 0q190 0 190 340t-190 340t-190 -340t190 -340z" />
    <glyph glyph-name="ohungarumlaut" unicode="&#x151;" horiz-adv-x="569" 
d="M184 563q18 30 40 97q19 56 35 83t43 27q19 0 32 -13.5t13 -32.5q0 -21 -16.5 -40t-52.5 -49q-28 -23 -47 -41t-35 -39zM364 563q18 30 40 97q19 56 35 83t43 27q19 0 32 -13.5t13 -32.5q0 -21 -16.5 -40t-52.5 -49q-28 -23 -47 -41t-35 -39zM78.5 387.5q38.5 59.5 96 91
t110.5 31.5t110 -31.5t95.5 -91t38.5 -139.5t-38.5 -138.5t-95.5 -89t-110 -30.5t-110.5 30.5t-96 89t-38.5 138.5t38.5 139.5zM197.5 64.5q28.5 -64.5 87.5 -64.5t87.5 64.5t28.5 183.5q0 120 -29 186t-87 66t-87 -66t-29 -186q0 -119 28.5 -183.5z" />
    <glyph glyph-name="OE" unicode="&#x152;" horiz-adv-x="931" 
d="M911 722v-282h-10q0 31 -16.5 87t-47 99.5t-71.5 43.5h-166v-325h98q34 0 49.5 38.5t15.5 91.5h10v-270h-10q0 53 -15.5 91.5t-49.5 38.5h-98v-325h166q41 0 71.5 43.5t47 99.5t16.5 87h10v-282h-10q0 19 -15 30.5t-62 11.5h-464q-75 0 -149 38t-122.5 115t-48.5 187
t48.5 187t122.5 115t149 38h464q47 0 62 11.5t15 30.5h10zM480 670h-120q-99 0 -144.5 -83.5t-45.5 -246.5t45.5 -246.5t144.5 -83.5h120v660z" />
    <glyph glyph-name="oe" unicode="&#x153;" horiz-adv-x="870" 
d="M780.5 87q37.5 28 60.5 91l8 -5q-25 -85 -74.5 -134t-134.5 -49q-47 0 -94 22t-81 64q-36 -41 -85 -63.5t-95 -22.5q-53 0 -110.5 30.5t-96 89t-38.5 138.5t38.5 139.5t96 91t110.5 31.5q44 0 92 -22t85 -63q29 41 72.5 63t95.5 22q67 0 117 -27t76.5 -73t26.5 -102h-120
h-201v-19q0 -74 22.5 -126t61 -78t86.5 -26q44 0 81.5 28zM372.5 64.5q28.5 64.5 28.5 183.5q0 120 -29 186t-87 66t-87 -66t-29 -186q0 -119 28.5 -183.5t87.5 -64.5t87.5 64.5zM551 448.5q-20 -51.5 -22 -130.5h201q-3 182 -100 182q-59 0 -79 -51.5z" />
    <glyph glyph-name="Racute" unicode="&#x154;" horiz-adv-x="671" 
d="M412.5 879q-16.5 -19 -52.5 -49q-28 -23 -47 -41t-35 -39l-12 8q18 30 40 97q19 56 35 83t43 27q19 0 32 -13.5t13 -32.5q0 -21 -16.5 -40zM595.5 22q30.5 -12 55.5 -12v-10h-273v10q31 0 31 19q0 15 -19 42l-148 211h-40v-195q0 -46 19.5 -61.5t42.5 -15.5v-10h-244v10
q23 0 42.5 15.5t19.5 61.5v506q0 46 -19.5 61.5t-42.5 15.5v10h315q82 0 138 -30t83 -76t27 -94q0 -42 -21 -83.5t-65 -71.5t-108 -39l150 -215q26 -37 56.5 -49zM202 292h123q62 0 95 51.5t33 136.5q0 86 -33 138t-95 52h-123v-378z" />
    <glyph glyph-name="racute" unicode="&#x155;" horiz-adv-x="421" 
d="M296.5 684q-16.5 -19 -52.5 -49q-28 -23 -47 -41t-35 -39l-12 8q18 30 40 97q19 56 35 83t43 27q19 0 32 -13.5t13 -32.5q0 -21 -16.5 -40zM386 485q15 -15 15 -38t-15 -38t-37 -15q-12 0 -22 5t-23 15q-11 9 -19.5 13t-17.5 4q-10 0 -24.5 -14.5t-40.5 -44.5v-285
q0 -46 19.5 -61.5t42.5 -15.5v-10h-244v10q23 0 42.5 15.5t19.5 61.5v286q0 46 -19.5 61.5t-42.5 15.5v10q40 0 96.5 15.5t75.5 34.5h10v-121q49 53 82.5 82t64.5 29q22 0 37 -15z" />
    <glyph glyph-name="Rcaron" unicode="&#x158;" horiz-adv-x="671" 
d="M246 772l-48 84l-58 101l12 8q45 -57 72.5 -90t53.5 -53q26 20 53.5 53t72.5 90l12 -8q-15 -27 -29.5 -52t-25.5 -44l-51 -89q-12 -22 -32 -22t-32 22zM595.5 22q30.5 -12 55.5 -12v-10h-273v10q31 0 31 19q0 15 -19 42l-148 211h-40v-195q0 -46 19.5 -61.5t42.5 -15.5
v-10h-244v10q23 0 42.5 15.5t19.5 61.5v506q0 46 -19.5 61.5t-42.5 15.5v10h315q82 0 138 -30t83 -76t27 -94q0 -42 -21 -83.5t-65 -71.5t-108 -39l150 -215q26 -37 56.5 -49zM202 292h123q62 0 95 51.5t33 136.5q0 86 -33 138t-95 52h-123v-378z" />
    <glyph glyph-name="rcaron" unicode="&#x159;" horiz-adv-x="421" 
d="M170 577l-48 84l-58 101l12 8q45 -57 72.5 -90t53.5 -53q26 20 53.5 53t72.5 90l12 -8q-15 -27 -29.5 -52t-25.5 -44l-51 -89q-12 -22 -32 -22t-32 22zM386 485q15 -15 15 -38t-15 -38t-37 -15q-12 0 -22 5t-23 15q-11 9 -19.5 13t-17.5 4q-10 0 -24.5 -14.5t-40.5 -44.5
v-285q0 -46 19.5 -61.5t42.5 -15.5v-10h-244v10q23 0 42.5 15.5t19.5 61.5v286q0 46 -19.5 61.5t-42.5 15.5v10q40 0 96.5 15.5t75.5 34.5h10v-121q49 53 82.5 82t64.5 29q22 0 37 -15z" />
    <glyph glyph-name="Sacute" unicode="&#x15a;" horiz-adv-x="565" 
d="M237 758q18 30 40 97q19 56 35 83t43 27q19 0 32 -13.5t13 -32.5q0 -21 -16.5 -40t-52.5 -49q-28 -23 -47 -41t-35 -39zM38 225q2 -61 43 -112.5t101.5 -82t116.5 -30.5q68 0 104.5 34t36.5 93q0 39 -22.5 64.5t-48 38t-83.5 35.5q-62 27 -122 50q-63 25 -103.5 70
t-40.5 118q0 46 29.5 89.5t82 70.5t117.5 27q62 0 104.5 -12t46.5 -13q10 -2 14 -2q16 0 27 8.5t11 23.5v24h10v-244h-10q0 67 -29 113.5t-75.5 69t-98.5 22.5q-40 0 -73 -16t-52 -42.5t-19 -58.5q0 -43 18.5 -69t41 -38t67.5 -31q86 -34 110 -42q183 -63 183 -196
q0 -61 -31.5 -105.5t-83.5 -68t-111 -23.5q-52 0 -109.5 15.5t-91.5 29.5q-13 5 -23 5q-17 0 -27 -10.5t-10 -29.5v-19h-10v244h10z" />
    <glyph glyph-name="sacute" unicode="&#x15b;" horiz-adv-x="437" 
d="M139 563q18 30 40 97q19 56 35 83t43 27q19 0 32 -13.5t13 -32.5q0 -21 -16.5 -40t-52.5 -49q-28 -23 -47 -41t-35 -39zM47 164q0 -45 27.5 -82.5t70 -59.5t84.5 -22q51 0 80 24.5t29 67.5q0 24 -18 41t-35 25t-66 28q-35 15 -91 37q-46 18 -77 54t-31 90q0 34 22 67
t61.5 54.5t87.5 21.5q35 0 83 -13q22 -5 29 -5q20 0 25.5 9t5.5 31h10v-181h-10q0 45 -21 79t-54 52t-68 18q-46 0 -79 -24.5t-33 -59.5q0 -31 24.5 -48t51 -27t34.5 -13q44 -18 95 -37q62 -23 87.5 -61t25.5 -93q0 -45 -23.5 -78.5t-62 -51t-82.5 -17.5q-52 0 -94 16
t-46 17q-16 4 -20 4q-22 0 -22 -27v-17h-10v181h10z" />
    <glyph glyph-name="Scircumflex" unicode="&#x15c;" horiz-adv-x="565" 
d="M140.5 810q14.5 25 25.5 44l51 89q12 22 32 22t32 -22l48 -84l58 -101l-12 -8q-45 57 -72.5 90t-53.5 53q-26 -20 -53.5 -53t-72.5 -90l-12 8q15 27 29.5 52zM38 225q2 -61 43 -112.5t101.5 -82t116.5 -30.5q68 0 104.5 34t36.5 93q0 39 -22.5 64.5t-48 38t-83.5 35.5
q-62 27 -122 50q-63 25 -103.5 70t-40.5 118q0 46 29.5 89.5t82 70.5t117.5 27q62 0 104.5 -12t46.5 -13q10 -2 14 -2q16 0 27 8.5t11 23.5v24h10v-244h-10q0 67 -29 113.5t-75.5 69t-98.5 22.5q-40 0 -73 -16t-52 -42.5t-19 -58.5q0 -43 18.5 -69t41 -38t67.5 -31
q86 -34 110 -42q183 -63 183 -196q0 -61 -31.5 -105.5t-83.5 -68t-111 -23.5q-52 0 -109.5 15.5t-91.5 29.5q-13 5 -23 5q-17 0 -27 -10.5t-10 -29.5v-19h-10v244h10z" />
    <glyph glyph-name="scircumflex" unicode="&#x15d;" horiz-adv-x="437" 
d="M82.5 615q14.5 25 25.5 44l51 89q12 22 32 22t32 -22l48 -84l58 -101l-12 -8q-45 57 -72.5 90t-53.5 53q-26 -20 -53.5 -53t-72.5 -90l-12 8q15 27 29.5 52zM47 164q0 -45 27.5 -82.5t70 -59.5t84.5 -22q51 0 80 24.5t29 67.5q0 24 -18 41t-35 25t-66 28q-35 15 -91 37
q-46 18 -77 54t-31 90q0 34 22 67t61.5 54.5t87.5 21.5q35 0 83 -13q22 -5 29 -5q20 0 25.5 9t5.5 31h10v-181h-10q0 45 -21 79t-54 52t-68 18q-46 0 -79 -24.5t-33 -59.5q0 -31 24.5 -48t51 -27t34.5 -13q44 -18 95 -37q62 -23 87.5 -61t25.5 -93q0 -45 -23.5 -78.5
t-62 -51t-82.5 -17.5q-52 0 -94 16t-46 17q-16 4 -20 4q-22 0 -22 -27v-17h-10v181h10z" />
    <glyph glyph-name="Scedilla" unicode="&#x15e;" horiz-adv-x="565" 
d="M38 225q2 -61 43 -112.5t101.5 -82t116.5 -30.5q68 0 104.5 34t36.5 93q0 39 -22.5 64.5t-48 38t-83.5 35.5q-62 27 -122 50q-63 25 -103.5 70t-40.5 118q0 46 29.5 89.5t82 70.5t117.5 27q62 0 104.5 -12t46.5 -13q10 -2 14 -2q16 0 27 8.5t11 23.5v24h10v-244h-10
q0 67 -29 113.5t-75.5 69t-98.5 22.5q-40 0 -73 -16t-52 -42.5t-19 -58.5q0 -43 18.5 -69t41 -38t67.5 -31q86 -34 110 -42q183 -63 183 -196q0 -61 -31.5 -105.5t-83.5 -68t-111 -23.5q-52 0 -109.5 15.5t-91.5 29.5q-13 5 -23 5q-17 0 -27 -10.5t-10 -29.5v-19h-10v244h10
zM166 -240q30 0 64 10.5t58.5 32t24.5 52.5q0 20 -10.5 36t-33.5 16q-13 0 -22.5 -2.5t-18.5 -6t-13 -5.5l-7 6l85 91h12l-33 -45q10 4 20.5 6.5t25.5 2.5q34 0 53.5 -22.5t19.5 -50.5q0 -39 -37 -69t-92 -46t-107 -16z" />
    <glyph glyph-name="scedilla" unicode="&#x15f;" horiz-adv-x="437" 
d="M47 164q0 -45 27.5 -82.5t70 -59.5t84.5 -22q51 0 80 24.5t29 67.5q0 24 -18 41t-35 25t-66 28q-35 15 -91 37q-46 18 -77 54t-31 90q0 34 22 67t61.5 54.5t87.5 21.5q35 0 83 -13q22 -5 29 -5q20 0 25.5 9t5.5 31h10v-181h-10q0 45 -21 79t-54 52t-68 18
q-46 0 -79 -24.5t-33 -59.5q0 -31 24.5 -48t51 -27t34.5 -13q44 -18 95 -37q62 -23 87.5 -61t25.5 -93q0 -45 -23.5 -78.5t-62 -51t-82.5 -17.5q-52 0 -94 16t-46 17q-16 4 -20 4q-22 0 -22 -27v-17h-10v181h10zM96 -240q30 0 64 10.5t58.5 32t24.5 52.5q0 20 -10.5 36
t-33.5 16q-13 0 -22.5 -2.5t-18.5 -6t-13 -5.5l-7 6l85 91h12l-33 -45q10 4 20.5 6.5t25.5 2.5q34 0 53.5 -22.5t19.5 -50.5q0 -39 -37 -69t-92 -46t-107 -16z" />
    <glyph glyph-name="Scaron" unicode="&#x160;" horiz-adv-x="565" 
d="M357.5 905q-14.5 -25 -25.5 -44l-51 -89q-12 -22 -32 -22t-32 22l-48 84l-58 101l12 8q45 -57 72.5 -90t53.5 -53q26 20 53.5 53t72.5 90l12 -8q-15 -27 -29.5 -52zM38 225q2 -61 43 -112.5t101.5 -82t116.5 -30.5q68 0 104.5 34t36.5 93q0 39 -22.5 64.5t-48 38
t-83.5 35.5q-62 27 -122 50q-63 25 -103.5 70t-40.5 118q0 46 29.5 89.5t82 70.5t117.5 27q62 0 104.5 -12t46.5 -13q10 -2 14 -2q16 0 27 8.5t11 23.5v24h10v-244h-10q0 67 -29 113.5t-75.5 69t-98.5 22.5q-40 0 -73 -16t-52 -42.5t-19 -58.5q0 -43 18.5 -69t41 -38
t67.5 -31q86 -34 110 -42q183 -63 183 -196q0 -61 -31.5 -105.5t-83.5 -68t-111 -23.5q-52 0 -109.5 15.5t-91.5 29.5q-13 5 -23 5q-17 0 -27 -10.5t-10 -29.5v-19h-10v244h10z" />
    <glyph glyph-name="scaron" unicode="&#x161;" horiz-adv-x="437" 
d="M299.5 710q-14.5 -25 -25.5 -44l-51 -89q-12 -22 -32 -22t-32 22l-48 84l-58 101l12 8q45 -57 72.5 -90t53.5 -53q26 20 53.5 53t72.5 90l12 -8q-15 -27 -29.5 -52zM47 164q0 -45 27.5 -82.5t70 -59.5t84.5 -22q51 0 80 24.5t29 67.5q0 24 -18 41t-35 25t-66 28
q-35 15 -91 37q-46 18 -77 54t-31 90q0 34 22 67t61.5 54.5t87.5 21.5q35 0 83 -13q22 -5 29 -5q20 0 25.5 9t5.5 31h10v-181h-10q0 45 -21 79t-54 52t-68 18q-46 0 -79 -24.5t-33 -59.5q0 -31 24.5 -48t51 -27t34.5 -13q44 -18 95 -37q62 -23 87.5 -61t25.5 -93
q0 -45 -23.5 -78.5t-62 -51t-82.5 -17.5q-52 0 -94 16t-46 17q-16 4 -20 4q-22 0 -22 -27v-17h-10v181h10z" />
    <glyph glyph-name="Tcaron" unicode="&#x164;" horiz-adv-x="644" 
d="M290 772l-48 84l-58 101l12 8q45 -57 72.5 -90t53.5 -53q26 20 53.5 53t72.5 90l12 -8q-15 -27 -29.5 -52t-25.5 -44l-51 -89q-12 -22 -32 -22t-32 22zM624 722v-282h-10q0 31 -16.5 87t-47 99.5t-71.5 43.5h-97v-583q0 -46 19.5 -61.5t42.5 -15.5v-10h-244v10
q23 0 42.5 15.5t19.5 61.5v583h-97q-41 0 -71.5 -43.5t-47 -99.5t-16.5 -87h-10v282h10q0 -19 15 -30.5t62 -11.5h430q47 0 62 11.5t15 30.5h10z" />
    <glyph glyph-name="tcaron" unicode="&#x165;" horiz-adv-x="317" 
d="M389 736.5q13 -13.5 13 -32.5q0 -21 -16.5 -40t-52.5 -49q-28 -23 -47 -41t-35 -39l-12 8q18 30 40 97q19 56 35 83t43 27q19 0 32 -13.5zM260 55.5q13 11.5 30 42.5l7 -4q-26 -57 -53 -80.5t-74 -23.5q-52 0 -76 33t-24 97v370h-50v10q34 0 72 23t63 58t25 69h10v-150
h100v-10h-100v-380q0 -66 40 -66q17 0 30 11.5z" />
    <glyph glyph-name="Utilde" unicode="&#x168;" horiz-adv-x="695" 
d="M366 755.5q-13 5.5 -27 15.5q-13 10 -23 14.5t-26 4.5q-43 0 -77 -50l-7 5q4 7 23 37.5t45.5 52.5t55.5 22q21 0 34 -5.5t27 -15.5q13 -10 23 -14.5t26 -4.5q43 0 77 50l7 -5q-4 -7 -23 -37.5t-45.5 -52.5t-55.5 -22q-21 0 -34 5.5zM62.5 654.5q-19.5 15.5 -42.5 15.5v10
h244v-10q-23 0 -42.5 -15.5t-19.5 -61.5v-339q0 -109 44 -176.5t132 -67.5q50 0 92.5 23t68.5 71t26 120v291q0 85 -25.5 120t-74.5 35v10h210v-10q-49 0 -74.5 -35t-25.5 -120v-291q0 -74 -27 -126.5t-73.5 -80t-106.5 -27.5q-81 0 -145.5 28t-102.5 83t-38 133v359
q0 46 -19.5 61.5z" />
    <glyph glyph-name="utilde" unicode="&#x169;" horiz-adv-x="578" 
d="M132 585l-7 5q4 7 23 37.5t45.5 52.5t55.5 22q21 0 34 -5.5t27 -15.5q13 -10 23 -14.5t26 -4.5q43 0 77 50l7 -5q-4 -7 -23 -37.5t-45.5 -52.5t-55.5 -22q-21 0 -34 5.5t-27 15.5q-13 10 -23 14.5t-26 4.5q-43 0 -77 -50zM515.5 25.5q19.5 -15.5 42.5 -15.5v-10h-182v85
q-13 -6 -31 -18q-66 -37 -108 -57t-75 -20q-39 0 -59.5 25t-20.5 72v286q0 46 -19.5 61.5t-42.5 15.5v10q40 0 96.5 15.5t75.5 34.5h10v-443q0 -21 6 -29t22 -8q20 0 53.5 16.5t92.5 50.5v276q0 46 -19.5 61.5t-42.5 15.5v10q40 0 96.5 15.5t75.5 34.5h10v-423
q0 -46 19.5 -61.5z" />
    <glyph glyph-name="Umacron" unicode="&#x16a;" horiz-adv-x="695" 
d="M490 810v-20h-250v20h250zM62.5 654.5q-19.5 15.5 -42.5 15.5v10h244v-10q-23 0 -42.5 -15.5t-19.5 -61.5v-339q0 -109 44 -176.5t132 -67.5q50 0 92.5 23t68.5 71t26 120v291q0 85 -25.5 120t-74.5 35v10h210v-10q-49 0 -74.5 -35t-25.5 -120v-291q0 -74 -27 -126.5
t-73.5 -80t-106.5 -27.5q-81 0 -145.5 28t-102.5 83t-38 133v359q0 46 -19.5 61.5z" />
    <glyph glyph-name="umacron" unicode="&#x16b;" horiz-adv-x="578" 
d="M409 580h-250v20h250v-20zM515.5 25.5q19.5 -15.5 42.5 -15.5v-10h-182v85q-13 -6 -31 -18q-66 -37 -108 -57t-75 -20q-39 0 -59.5 25t-20.5 72v286q0 46 -19.5 61.5t-42.5 15.5v10q40 0 96.5 15.5t75.5 34.5h10v-443q0 -21 6 -29t22 -8q20 0 53.5 16.5t92.5 50.5v276
q0 46 -19.5 61.5t-42.5 15.5v10q40 0 96.5 15.5t75.5 34.5h10v-423q0 -46 19.5 -61.5z" />
    <glyph glyph-name="Ubreve" unicode="&#x16c;" horiz-adv-x="695" 
d="M289 807.5q-34 37.5 -54 109.5l10 3q14 -35 48 -49t72 -14t72 14t48 49l10 -3q-20 -73 -53.5 -110t-76.5 -37q-42 0 -76 37.5zM62.5 654.5q-19.5 15.5 -42.5 15.5v10h244v-10q-23 0 -42.5 -15.5t-19.5 -61.5v-339q0 -109 44 -176.5t132 -67.5q50 0 92.5 23t68.5 71
t26 120v291q0 85 -25.5 120t-74.5 35v10h210v-10q-49 0 -74.5 -35t-25.5 -120v-291q0 -74 -27 -126.5t-73.5 -80t-106.5 -27.5q-81 0 -145.5 28t-102.5 83t-38 133v359q0 46 -19.5 61.5z" />
    <glyph glyph-name="ubreve" unicode="&#x16d;" horiz-adv-x="578" 
d="M208 617.5q-34 37.5 -54 109.5l10 3q14 -35 48 -49t72 -14t72 14t48 49l10 -3q-20 -73 -53.5 -110t-76.5 -37q-42 0 -76 37.5zM515.5 25.5q19.5 -15.5 42.5 -15.5v-10h-182v85q-13 -6 -31 -18q-66 -37 -108 -57t-75 -20q-39 0 -59.5 25t-20.5 72v286q0 46 -19.5 61.5
t-42.5 15.5v10q40 0 96.5 15.5t75.5 34.5h10v-443q0 -21 6 -29t22 -8q20 0 53.5 16.5t92.5 50.5v276q0 46 -19.5 61.5t-42.5 15.5v10q40 0 96.5 15.5t75.5 34.5h10v-423q0 -46 19.5 -61.5z" />
    <glyph glyph-name="Uring" unicode="&#x16e;" horiz-adv-x="695" 
d="M301.5 904q26.5 26 63.5 26q38 0 64 -26t26 -64q0 -37 -26 -63.5t-64 -26.5q-37 0 -63.5 26.5t-26.5 63.5q0 38 26.5 64zM308.5 783.5q23.5 -23.5 56.5 -23.5t56.5 23.5t23.5 56.5t-23.5 56.5t-56.5 23.5t-56.5 -23.5t-23.5 -56.5t23.5 -56.5zM62.5 654.5
q-19.5 15.5 -42.5 15.5v10h244v-10q-23 0 -42.5 -15.5t-19.5 -61.5v-339q0 -109 44 -176.5t132 -67.5q50 0 92.5 23t68.5 71t26 120v291q0 85 -25.5 120t-74.5 35v10h210v-10q-49 0 -74.5 -35t-25.5 -120v-291q0 -74 -27 -126.5t-73.5 -80t-106.5 -27.5q-81 0 -145.5 28
t-102.5 83t-38 133v359q0 46 -19.5 61.5z" />
    <glyph glyph-name="uring" unicode="&#x16f;" horiz-adv-x="578" 
d="M220.5 574.5q-26.5 26.5 -26.5 63.5q0 38 26.5 64t63.5 26q38 0 64 -26t26 -64q0 -37 -26 -63.5t-64 -26.5q-37 0 -63.5 26.5zM227.5 694.5q-23.5 -23.5 -23.5 -56.5t23.5 -56.5t56.5 -23.5t56.5 23.5t23.5 56.5t-23.5 56.5t-56.5 23.5t-56.5 -23.5zM515.5 25.5
q19.5 -15.5 42.5 -15.5v-10h-182v85q-13 -6 -31 -18q-66 -37 -108 -57t-75 -20q-39 0 -59.5 25t-20.5 72v286q0 46 -19.5 61.5t-42.5 15.5v10q40 0 96.5 15.5t75.5 34.5h10v-443q0 -21 6 -29t22 -8q20 0 53.5 16.5t92.5 50.5v276q0 46 -19.5 61.5t-42.5 15.5v10
q40 0 96.5 15.5t75.5 34.5h10v-423q0 -46 19.5 -61.5z" />
    <glyph glyph-name="Uhungarumlaut" unicode="&#x170;" horiz-adv-x="695" 
d="M264 758q18 30 40 97q19 56 35 83t43 27q19 0 32 -13.5t13 -32.5q0 -21 -16.5 -40t-52.5 -49q-28 -23 -47 -41t-35 -39zM444 758q18 30 40 97q19 56 35 83t43 27q19 0 32 -13.5t13 -32.5q0 -21 -16.5 -40t-52.5 -49q-28 -23 -47 -41t-35 -39zM62.5 654.5
q-19.5 15.5 -42.5 15.5v10h244v-10q-23 0 -42.5 -15.5t-19.5 -61.5v-339q0 -109 44 -176.5t132 -67.5q50 0 92.5 23t68.5 71t26 120v291q0 85 -25.5 120t-74.5 35v10h210v-10q-49 0 -74.5 -35t-25.5 -120v-291q0 -74 -27 -126.5t-73.5 -80t-106.5 -27.5q-81 0 -145.5 28
t-102.5 83t-38 133v359q0 46 -19.5 61.5z" />
    <glyph glyph-name="uhungarumlaut" unicode="&#x171;" horiz-adv-x="578" 
d="M329.5 674q-16.5 -19 -52.5 -49q-28 -23 -47 -41t-35 -39l-12 8q18 30 40 97q19 56 35 83t43 27q19 0 32 -13.5t13 -32.5q0 -21 -16.5 -40zM509.5 674q-16.5 -19 -52.5 -49q-28 -23 -47 -41t-35 -39l-12 8q18 30 40 97q19 56 35 83t43 27q19 0 32 -13.5t13 -32.5
q0 -21 -16.5 -40zM515.5 25.5q19.5 -15.5 42.5 -15.5v-10h-182v85q-13 -6 -31 -18q-66 -37 -108 -57t-75 -20q-39 0 -59.5 25t-20.5 72v286q0 46 -19.5 61.5t-42.5 15.5v10q40 0 96.5 15.5t75.5 34.5h10v-443q0 -21 6 -29t22 -8q20 0 53.5 16.5t92.5 50.5v276
q0 46 -19.5 61.5t-42.5 15.5v10q40 0 96.5 15.5t75.5 34.5h10v-423q0 -46 19.5 -61.5z" />
    <glyph glyph-name="Uogonek" unicode="&#x172;" horiz-adv-x="695" 
d="M62.5 654.5q-19.5 15.5 -42.5 15.5v10h244v-10q-23 0 -42.5 -15.5t-19.5 -61.5v-339q0 -109 44 -176.5t132 -67.5q50 0 92.5 23t68.5 71t26 120v291q0 85 -25.5 120t-74.5 35v10h210v-10q-49 0 -74.5 -35t-25.5 -120v-291q0 -74 -27 -126.5t-73.5 -80t-106.5 -27.5
q-81 0 -145.5 28t-102.5 83t-38 133v359q0 46 -19.5 61.5zM309.5 -52q-30.5 -25 -30.5 -55q0 -21 14.5 -37t42.5 -16q42 0 89 34l7 -7q-40 -29 -67 -43t-64 -14t-62.5 19.5t-25.5 49.5q0 29 22.5 50t49.5 32.5t74 28.5h20q-39 -17 -69.5 -42z" />
    <glyph glyph-name="uogonek" unicode="&#x173;" horiz-adv-x="578" 
d="M407.5 -42q-30.5 -25 -30.5 -55q0 -21 14.5 -37t42.5 -16q42 0 89 34l7 -7q-40 -29 -67 -43t-64 -14t-62.5 19.5t-25.5 49.5q0 29 22.5 50t49.5 32.5t74 28.5h-81v85q-13 -6 -31 -18q-66 -37 -108 -57t-75 -20q-39 0 -59.5 25t-20.5 72v286q0 46 -19.5 61.5t-42.5 15.5
v10q40 0 96.5 15.5t75.5 34.5h10v-443q0 -21 6 -29t22 -8q20 0 53.5 16.5t92.5 50.5v276q0 46 -19.5 61.5t-42.5 15.5v10q40 0 96.5 15.5t75.5 34.5h10v-423q0 -46 19.5 -61.5t42.5 -15.5v-10h-81q-39 -17 -69.5 -42z" />
    <glyph glyph-name="Wcircumflex" unicode="&#x174;" horiz-adv-x="1219" 
d="M539.5 840q-27.5 -33 -72.5 -90l-12 8q15 27 29.5 52t25.5 44l51 89q12 22 32 22t32 -22l48 -84l58 -101l-12 -8q-45 57 -72.5 90t-53.5 53q-26 -20 -53.5 -53zM1199 670q-49 0 -89 -32.5t-71 -111.5l-163 -413l19 -44q-24 0 -45 -10.5t-33.5 -27t-12.5 -31.5h-10
l-206 492l-144 -366l24 -57q-24 0 -45 -10.5t-33.5 -27t-12.5 -31.5h-10l-251 600q-18 42 -45 56t-51 14v10h292v-10q-30 0 -45.5 -11.5t-15.5 -38.5q0 -33 25 -92l162 -388l144 366l-39 94q-18 42 -45 56t-51 14v10h292v-10q-30 0 -45.5 -11.5t-15.5 -38.5q0 -33 25 -92
l168 -401l157 399q23 58 23 91q0 29 -16 41t-47 12v10h211v-10z" />
    <glyph glyph-name="wcircumflex" unicode="&#x175;" horiz-adv-x="991" 
d="M467.5 645q-27.5 -33 -72.5 -90l-12 8q15 27 29.5 52t25.5 44l51 89q12 22 32 22t32 -22l48 -84l58 -101l-12 -8q-45 57 -72.5 90t-53.5 53q-26 -20 -53.5 -53zM971 490q-49 0 -89 -32.5t-71 -111.5l-87 -220l24 -57q-24 0 -45 -10.5t-33.5 -27t-12.5 -31.5h-10l-167 398
q-13 -24 -24 -52l-87 -220l24 -57q-24 0 -45 -10.5t-33.5 -27t-12.5 -31.5h-10l-176 420q-18 42 -45 56t-51 14v10h292v-10q-30 0 -45.5 -11.5t-15.5 -38.5q0 -32 25 -92l87 -208l82 206q20 51 22 82q-18 37 -43.5 49.5t-48.5 12.5v10h292v-10q-30 0 -45.5 -11.5
t-15.5 -38.5q0 -32 25 -92l87 -208l82 206q23 58 23 91q0 29 -16 41t-47 12v10h211v-10z" />
    <glyph glyph-name="Ycircumflex" unicode="&#x176;" horiz-adv-x="762" 
d="M361.5 840q-27.5 -33 -72.5 -90l-12 8q15 27 29.5 52t25.5 44l51 89q12 22 32 22t32 -22l48 -84l58 -101l-12 -8q-45 57 -72.5 90t-53.5 53q-26 -20 -53.5 -53zM742 670q-50 0 -96.5 -29.5t-90.5 -100.5l-119 -194v-259q0 -46 19.5 -61.5t42.5 -15.5v-10h-244v10
q23 0 42.5 15.5t19.5 61.5v239l-186 281q-25 38 -55 50.5t-55 12.5v10h306v-10q-26 0 -39 -7.5t-13 -24.5q0 -31 43 -96l118 -178l108 176q30 50 30 80q0 50 -73 50v10h242v-10z" />
    <glyph glyph-name="ycircumflex" unicode="&#x177;" horiz-adv-x="656" 
d="M314.5 645q-27.5 -33 -72.5 -90l-12 8q15 27 29.5 52t25.5 44l51 89q12 22 32 22t32 -22l48 -84l58 -101l-12 -8q-45 57 -72.5 90t-53.5 53q-26 -20 -53.5 -53zM636 490q-49 0 -89 -32.5t-70 -111.5l-14 -36q-48 -128 -82 -212l12 -29q-15 0 -26 -4q-48 -115 -85.5 -178
t-76.5 -90t-90 -27q-27 0 -48 14.5t-21 38.5q0 17 14 31t35 14q12 0 24 -5.5t28 -15.5q11 -7 22.5 -12.5t20.5 -5.5q24 0 47 20.5t51 71t67 140.5q-23 -10 -38 -27t-15 -34h-10l-176 420q-18 42 -45 56t-51 14v10h292v-10q-30 0 -45.5 -11.5t-15.5 -38.5q0 -32 25 -92
l99 -237q33 78 92 235q21 55 21 89q0 29 -16 42t-47 13v10h211v-10z" />
    <glyph glyph-name="Ydieresis" unicode="&#x178;" horiz-adv-x="762" 
d="M265 769q-19 19 -19 45q0 27 19 46t46 19q26 0 45 -19t19 -46q0 -26 -19 -45t-45 -19q-27 0 -46 19zM474 769q-19 19 -19 45q0 27 19 46t46 19q26 0 45 -19t19 -46q0 -26 -19 -45t-45 -19q-27 0 -46 19zM742 670q-50 0 -96.5 -29.5t-90.5 -100.5l-119 -194v-259
q0 -46 19.5 -61.5t42.5 -15.5v-10h-244v10q23 0 42.5 15.5t19.5 61.5v239l-186 281q-25 38 -55 50.5t-55 12.5v10h306v-10q-26 0 -39 -7.5t-13 -24.5q0 -31 43 -96l118 -178l108 176q30 50 30 80q0 50 -73 50v10h242v-10z" />
    <glyph glyph-name="Zdotaccent" unicode="&#x17b;" horiz-adv-x="590" 
d="M256 769q-19 19 -19 45q0 27 19 46t46 19q26 0 45 -19t19 -46q0 -26 -19 -45t-45 -19q-27 0 -46 19zM476.5 53.5q30.5 43.5 47 99.5t16.5 87h10v-282h-10q0 19 -15 30.5t-62 11.5h-443l404 670h-223q-41 0 -71.5 -43.5t-47 -99.5t-16.5 -87h-10v282h10q0 -19 15 -30.5
t62 -11.5h427l-404 -670h239q41 0 71.5 43.5z" />
    <glyph glyph-name="zdotaccent" unicode="&#x17c;" horiz-adv-x="499" 
d="M220 590q-19 19 -19 45q0 27 19 46t46 19q26 0 45 -19t19 -46q0 -26 -19 -45t-45 -19q-27 0 -46 19zM388.5 45.5q36.5 38.5 36.5 91.5h10v-179h-10q0 19 -15 30.5t-62 11.5h-328l297 493h-101q-82 0 -118.5 -38.5t-36.5 -91.5h-10v179h10q0 -19 15 -30.5t62 -11.5h321
l-297 -493h108q82 0 118.5 38.5z" />
    <glyph glyph-name="Zcaron" unicode="&#x17d;" horiz-adv-x="590" 
d="M270 772l-48 84l-58 101l12 8q45 -57 72.5 -90t53.5 -53q26 20 53.5 53t72.5 90l12 -8q-15 -27 -29.5 -52t-25.5 -44l-51 -89q-12 -22 -32 -22t-32 22zM476.5 53.5q30.5 43.5 47 99.5t16.5 87h10v-282h-10q0 19 -15 30.5t-62 11.5h-443l404 670h-223q-41 0 -71.5 -43.5
t-47 -99.5t-16.5 -87h-10v282h10q0 -19 15 -30.5t62 -11.5h427l-404 -670h239q41 0 71.5 43.5z" />
    <glyph glyph-name="zcaron" unicode="&#x17e;" horiz-adv-x="499" 
d="M234 577l-48 84l-58 101l12 8q45 -57 72.5 -90t53.5 -53q26 20 53.5 53t72.5 90l12 -8q-15 -27 -29.5 -52t-25.5 -44l-51 -89q-12 -22 -32 -22t-32 22zM388.5 45.5q36.5 38.5 36.5 91.5h10v-179h-10q0 19 -15 30.5t-62 11.5h-328l297 493h-101q-82 0 -118.5 -38.5
t-36.5 -91.5h-10v179h10q0 -19 15 -30.5t62 -11.5h321l-297 -493h108q82 0 118.5 38.5z" />
    <glyph glyph-name="uni0228" unicode="&#x228;" horiz-adv-x="573" 
d="M533 722v-282h-10q0 31 -16.5 87t-47 99.5t-71.5 43.5h-186v-325h98q34 0 49.5 38.5t15.5 91.5h10v-270h-10q0 53 -15.5 91.5t-49.5 38.5h-98v-325h186q41 0 71.5 43.5t47 99.5t16.5 87h10v-282h-10q0 19 -15 30.5t-62 11.5h-106l-33 -45q10 4 20.5 6.5t25.5 2.5
q34 0 53.5 -22.5t19.5 -50.5q0 -39 -37 -69t-92 -46t-107 -16l11 10q30 0 64 10.5t58.5 32t24.5 52.5q0 20 -10.5 36t-33.5 16q-13 0 -22.5 -2.5t-18.5 -6t-13 -5.5l-7 6l85 91h-308v10q23 0 42.5 15.5t19.5 61.5v506q0 46 -19.5 61.5t-42.5 15.5v10h426q47 0 62 11.5
t15 30.5h10z" />
    <glyph glyph-name="uni0229" unicode="&#x229;" horiz-adv-x="521" 
d="M411.5 87q37.5 28 60.5 91l8 -5q-25 -85 -74.5 -134t-134.5 -49q-55 0 -108.5 30t-88 88.5t-34.5 140.5q0 76 28.5 135.5t79 92.5t113.5 33q67 0 117 -27t76.5 -73t26.5 -102h-120h-201v-19q0 -74 22.5 -126t61 -78t86.5 -26q44 0 81.5 28zM182 448.5
q-20 -51.5 -22 -130.5h201q-3 182 -100 182q-59 0 -79 -51.5zM265 -10h12l-33 -45q10 4 20.5 6.5t25.5 2.5q34 0 53.5 -22.5t19.5 -50.5q0 -39 -37 -69t-92 -46t-107 -16l11 10q30 0 64 10.5t58.5 32t24.5 52.5q0 20 -10.5 36t-33.5 16q-13 0 -22.5 -2.5t-18.5 -6t-13 -5.5
l-7 6z" />
    <glyph glyph-name="circumflex" unicode="&#x2c6;" horiz-adv-x="336" 
d="M59.5 615q14.5 25 25.5 44l51 89q12 22 32 22t32 -22l48 -84l58 -101l-12 -8q-45 57 -72.5 90t-53.5 53q-26 -20 -53.5 -53t-72.5 -90l-12 8q15 27 29.5 52z" />
    <glyph glyph-name="caron" unicode="&#x2c7;" horiz-adv-x="336" 
d="M276.5 710q-14.5 -25 -25.5 -44l-51 -89q-12 -22 -32 -22t-32 22l-48 84l-58 101l12 8q45 -57 72.5 -90t53.5 -53q26 20 53.5 53t72.5 90l12 -8q-15 -27 -29.5 -52z" />
    <glyph glyph-name="breve" unicode="&#x2d8;" horiz-adv-x="300" 
d="M74 627.5q-34 37.5 -54 109.5l10 3q14 -35 48 -49t72 -14t72 14t48 49l10 -3q-20 -73 -53.5 -110t-76.5 -37q-42 0 -76 37.5z" />
    <glyph glyph-name="dotaccent" unicode="&#x2d9;" horiz-adv-x="169" 
d="M39 580q-19 19 -19 45q0 27 19 46t46 19q26 0 45 -19t19 -46q0 -26 -19 -45t-45 -19q-27 0 -46 19z" />
    <glyph glyph-name="ring" unicode="&#x2da;" horiz-adv-x="220" 
d="M46.5 712q26.5 26 63.5 26q38 0 64 -26t26 -64q0 -37 -26 -63.5t-64 -26.5q-37 0 -63.5 26.5t-26.5 63.5q0 38 26.5 64zM53.5 591.5q23.5 -23.5 56.5 -23.5t56.5 23.5t23.5 56.5t-23.5 56.5t-56.5 23.5t-56.5 -23.5t-23.5 -56.5t23.5 -56.5z" />
    <glyph glyph-name="ogonek" unicode="&#x2db;" horiz-adv-x="259" 
d="M116.5 -42q-30.5 -25 -30.5 -55q0 -21 14.5 -37t42.5 -16q42 0 89 34l7 -7q-40 -29 -67 -43t-64 -14t-62.5 19.5t-25.5 49.5q0 29 22.5 50t49.5 32.5t74 28.5h20q-39 -17 -69.5 -42z" />
    <glyph glyph-name="tilde" unicode="&#x2dc;" horiz-adv-x="378" 
d="M190 610.5q-13 5.5 -27 15.5q-13 10 -23 14.5t-26 4.5q-43 0 -77 -50l-7 5q4 7 23 37.5t45.5 52.5t55.5 22q21 0 34 -5.5t27 -15.5q13 -10 23 -14.5t26 -4.5q43 0 77 50l7 -5q-4 -7 -23 -37.5t-45.5 -52.5t-55.5 -22q-21 0 -34 5.5z" />
    <glyph glyph-name="hungarumlaut" unicode="&#x2dd;" horiz-adv-x="383" 
d="M20 563q18 30 40 97q19 56 35 83t43 27q19 0 32 -13.5t13 -32.5q0 -21 -16.5 -40t-52.5 -49q-28 -23 -47 -41t-35 -39zM200 563q18 30 40 97q19 56 35 83t43 27q19 0 32 -13.5t13 -32.5q0 -21 -16.5 -40t-52.5 -49q-28 -23 -47 -41t-35 -39z" />
    <glyph glyph-name="Wgrave" unicode="&#x1e80;" horiz-adv-x="1219" 
d="M558 789q-19 18 -47 41q-36 30 -52.5 49t-16.5 40q0 19 13 32.5t32 13.5q27 0 43 -27t35 -83q22 -67 40 -97l-12 -8q-16 21 -35 39zM1199 670q-49 0 -89 -32.5t-71 -111.5l-163 -413l19 -44q-24 0 -45 -10.5t-33.5 -27t-12.5 -31.5h-10l-206 492l-144 -366l24 -57
q-24 0 -45 -10.5t-33.5 -27t-12.5 -31.5h-10l-251 600q-18 42 -45 56t-51 14v10h292v-10q-30 0 -45.5 -11.5t-15.5 -38.5q0 -33 25 -92l162 -388l144 366l-39 94q-18 42 -45 56t-51 14v10h292v-10q-30 0 -45.5 -11.5t-15.5 -38.5q0 -33 25 -92l168 -401l157 399q23 58 23 91
q0 29 -16 41t-47 12v10h211v-10z" />
    <glyph glyph-name="wgrave" unicode="&#x1e81;" horiz-adv-x="991" 
d="M526 594q-19 18 -47 41q-36 30 -52.5 49t-16.5 40q0 19 13 32.5t32 13.5q27 0 43 -27t35 -83q22 -67 40 -97l-12 -8q-16 21 -35 39zM971 490q-49 0 -89 -32.5t-71 -111.5l-87 -220l24 -57q-24 0 -45 -10.5t-33.5 -27t-12.5 -31.5h-10l-167 398q-13 -24 -24 -52l-87 -220
l24 -57q-24 0 -45 -10.5t-33.5 -27t-12.5 -31.5h-10l-176 420q-18 42 -45 56t-51 14v10h292v-10q-30 0 -45.5 -11.5t-15.5 -38.5q0 -32 25 -92l87 -208l82 206q20 51 22 82q-18 37 -43.5 49.5t-48.5 12.5v10h292v-10q-30 0 -45.5 -11.5t-15.5 -38.5q0 -32 25 -92l87 -208
l82 206q23 58 23 91q0 29 -16 41t-47 12v10h211v-10z" />
    <glyph glyph-name="Wacute" unicode="&#x1e82;" horiz-adv-x="1219" 
d="M727.5 879q-16.5 -19 -52.5 -49q-28 -23 -47 -41t-35 -39l-12 8q18 30 40 97q19 56 35 83t43 27q19 0 32 -13.5t13 -32.5q0 -21 -16.5 -40zM1199 670q-49 0 -89 -32.5t-71 -111.5l-163 -413l19 -44q-24 0 -45 -10.5t-33.5 -27t-12.5 -31.5h-10l-206 492l-144 -366l24 -57
q-24 0 -45 -10.5t-33.5 -27t-12.5 -31.5h-10l-251 600q-18 42 -45 56t-51 14v10h292v-10q-30 0 -45.5 -11.5t-15.5 -38.5q0 -33 25 -92l162 -388l144 366l-39 94q-18 42 -45 56t-51 14v10h292v-10q-30 0 -45.5 -11.5t-15.5 -38.5q0 -33 25 -92l168 -401l157 399q23 58 23 91
q0 29 -16 41t-47 12v10h211v-10z" />
    <glyph glyph-name="wacute" unicode="&#x1e83;" horiz-adv-x="991" 
d="M615.5 684q-16.5 -19 -52.5 -49q-28 -23 -47 -41t-35 -39l-12 8q18 30 40 97q19 56 35 83t43 27q19 0 32 -13.5t13 -32.5q0 -21 -16.5 -40zM971 490q-49 0 -89 -32.5t-71 -111.5l-87 -220l24 -57q-24 0 -45 -10.5t-33.5 -27t-12.5 -31.5h-10l-167 398q-13 -24 -24 -52
l-87 -220l24 -57q-24 0 -45 -10.5t-33.5 -27t-12.5 -31.5h-10l-176 420q-18 42 -45 56t-51 14v10h292v-10q-30 0 -45.5 -11.5t-15.5 -38.5q0 -32 25 -92l87 -208l82 206q20 51 22 82q-18 37 -43.5 49.5t-48.5 12.5v10h292v-10q-30 0 -45.5 -11.5t-15.5 -38.5q0 -32 25 -92
l87 -208l82 206q23 58 23 91q0 29 -16 41t-47 12v10h211v-10z" />
    <glyph glyph-name="Wdieresis" unicode="&#x1e84;" horiz-adv-x="1219" 
d="M443 769q-19 19 -19 45q0 27 19 46t46 19q26 0 45 -19t19 -46q0 -26 -19 -45t-45 -19q-27 0 -46 19zM652 769q-19 19 -19 45q0 27 19 46t46 19q26 0 45 -19t19 -46q0 -26 -19 -45t-45 -19q-27 0 -46 19zM1199 670q-49 0 -89 -32.5t-71 -111.5l-163 -413l19 -44
q-24 0 -45 -10.5t-33.5 -27t-12.5 -31.5h-10l-206 492l-144 -366l24 -57q-24 0 -45 -10.5t-33.5 -27t-12.5 -31.5h-10l-251 600q-18 42 -45 56t-51 14v10h292v-10q-30 0 -45.5 -11.5t-15.5 -38.5q0 -33 25 -92l162 -388l144 366l-39 94q-18 42 -45 56t-51 14v10h292v-10
q-30 0 -45.5 -11.5t-15.5 -38.5q0 -33 25 -92l168 -401l157 399q23 58 23 91q0 29 -16 41t-47 12v10h211v-10z" />
    <glyph glyph-name="wdieresis" unicode="&#x1e85;" horiz-adv-x="991" 
d="M371 590q-19 19 -19 45q0 27 19 46t46 19q26 0 45 -19t19 -46q0 -26 -19 -45t-45 -19q-27 0 -46 19zM580 590q-19 19 -19 45q0 27 19 46t46 19q26 0 45 -19t19 -46q0 -26 -19 -45t-45 -19q-27 0 -46 19zM971 490q-49 0 -89 -32.5t-71 -111.5l-87 -220l24 -57
q-24 0 -45 -10.5t-33.5 -27t-12.5 -31.5h-10l-167 398q-13 -24 -24 -52l-87 -220l24 -57q-24 0 -45 -10.5t-33.5 -27t-12.5 -31.5h-10l-176 420q-18 42 -45 56t-51 14v10h292v-10q-30 0 -45.5 -11.5t-15.5 -38.5q0 -32 25 -92l87 -208l82 206q20 51 22 82q-18 37 -43.5 49.5
t-48.5 12.5v10h292v-10q-30 0 -45.5 -11.5t-15.5 -38.5q0 -32 25 -92l87 -208l82 206q23 58 23 91q0 29 -16 41t-47 12v10h211v-10z" />
    <glyph glyph-name="Ygrave" unicode="&#x1ef2;" horiz-adv-x="762" 
d="M380 789q-19 18 -47 41q-36 30 -52.5 49t-16.5 40q0 19 13 32.5t32 13.5q27 0 43 -27t35 -83q22 -67 40 -97l-12 -8q-16 21 -35 39zM742 670q-50 0 -96.5 -29.5t-90.5 -100.5l-119 -194v-259q0 -46 19.5 -61.5t42.5 -15.5v-10h-244v10q23 0 42.5 15.5t19.5 61.5v239
l-186 281q-25 38 -55 50.5t-55 12.5v10h306v-10q-26 0 -39 -7.5t-13 -24.5q0 -31 43 -96l118 -178l108 176q30 50 30 80q0 50 -73 50v10h242v-10z" />
    <glyph glyph-name="ygrave" unicode="&#x1ef3;" horiz-adv-x="656" 
d="M373 594q-19 18 -47 41q-36 30 -52.5 49t-16.5 40q0 19 13 32.5t32 13.5q27 0 43 -27t35 -83q22 -67 40 -97l-12 -8q-16 21 -35 39zM636 490q-49 0 -89 -32.5t-70 -111.5l-14 -36q-48 -128 -82 -212l12 -29q-15 0 -26 -4q-48 -115 -85.5 -178t-76.5 -90t-90 -27
q-27 0 -48 14.5t-21 38.5q0 17 14 31t35 14q12 0 24 -5.5t28 -15.5q11 -7 22.5 -12.5t20.5 -5.5q24 0 47 20.5t51 71t67 140.5q-23 -10 -38 -27t-15 -34h-10l-176 420q-18 42 -45 56t-51 14v10h292v-10q-30 0 -45.5 -11.5t-15.5 -38.5q0 -32 25 -92l99 -237q33 78 92 235
q21 55 21 89q0 29 -16 42t-47 13v10h211v-10z" />
    <glyph glyph-name="endash" unicode="&#x2013;" horiz-adv-x="440" 
d="M420 328v-10h-400v10h400z" />
    <glyph glyph-name="emdash" unicode="&#x2014;" horiz-adv-x="940" 
d="M920 328v-10h-900v10h900z" />
    <glyph glyph-name="quoteleft" unicode="&#x2018;" horiz-adv-x="180" 
d="M141 562q19 -19 19 -46q0 -26 -19 -45.5t-46 -19.5q-31 0 -53 22.5t-22 62.5q0 52 30 93t84 63l3 -10q-53 -23 -77 -60t-24 -79q8 16 23 27t36 11q27 0 46 -19z" />
    <glyph glyph-name="quoteright" unicode="&#x2019;" horiz-adv-x="180" 
d="M39 581q-19 19 -19 46q0 26 19 45.5t46 19.5q31 0 53 -22.5t22 -62.5q0 -52 -30 -93t-84 -63l-3 10q53 23 77 60t24 79q-8 -16 -23 -27t-36 -11q-27 0 -46 19z" />
    <glyph glyph-name="quotesinglbase" unicode="&#x201a;" horiz-adv-x="180" 
d="M39 9q-19 19 -19 46q0 26 19 45.5t46 19.5q31 0 53 -22.5t22 -62.5q0 -52 -30 -93t-84 -63l-3 10q53 23 77 60t24 79q-8 -16 -23 -27t-36 -11q-27 0 -46 19z" />
    <glyph glyph-name="quotedblleft" unicode="&#x201c;" horiz-adv-x="370" 
d="M141 562q19 -19 19 -46q0 -26 -19 -45.5t-46 -19.5q-31 0 -53 22.5t-22 62.5q0 52 30 93t84 63l3 -10q-53 -23 -77 -60t-24 -79q8 16 23 27t36 11q27 0 46 -19zM331 562q19 -19 19 -46q0 -26 -19 -45.5t-46 -19.5q-31 0 -53 22.5t-22 62.5q0 52 30 93t84 63l3 -10
q-53 -23 -77 -60t-24 -79q8 16 23 27t36 11q27 0 46 -19z" />
    <glyph glyph-name="quotedblright" unicode="&#x201d;" horiz-adv-x="370" 
d="M39 581q-19 19 -19 46q0 26 19 45.5t46 19.5q31 0 53 -22.5t22 -62.5q0 -52 -30 -93t-84 -63l-3 10q53 23 77 60t24 79q-8 -16 -23 -27t-36 -11q-27 0 -46 19zM229 581q-19 19 -19 46q0 26 19 45.5t46 19.5q31 0 53 -22.5t22 -62.5q0 -52 -30 -93t-84 -63l-3 10
q53 23 77 60t24 79q-8 -16 -23 -27t-36 -11q-27 0 -46 19z" />
    <glyph glyph-name="quotedblbase" unicode="&#x201e;" horiz-adv-x="370" 
d="M39 9q-19 19 -19 46q0 26 19 45.5t46 19.5q31 0 53 -22.5t22 -62.5q0 -52 -30 -93t-84 -63l-3 10q53 23 77 60t24 79q-8 -16 -23 -27t-36 -11q-27 0 -46 19zM229 9q-19 19 -19 46q0 26 19 45.5t46 19.5q31 0 53 -22.5t22 -62.5q0 -52 -30 -93t-84 -63l-3 10q53 23 77 60
t24 79q-8 -16 -23 -27t-36 -11q-27 0 -46 19z" />
    <glyph glyph-name="dagger" unicode="&#x2020;" horiz-adv-x="504" 
d="M468.5 496q15.5 -17 15.5 -38t-15.5 -38t-39.5 -17q-17 0 -31 5t-35 16q-29 15 -51 22.5t-56 7.5q0 -28 13.5 -54t42.5 -69q-20 -57 -38 -164.5t-18 -166.5h-8q0 59 -18 166.5t-38 164.5q28 40 42 67t14 56q-34 0 -56 -7.5t-51 -22.5q-21 -11 -35 -16t-31 -5
q-24 0 -39.5 17t-15.5 38t15.5 38t39.5 17q17 0 31 -5t35 -16q29 -15 51 -22.5t56 -7.5q0 34 -7.5 56t-22.5 51q-11 21 -16 35t-5 31q0 24 17 39.5t38 15.5t38 -15.5t17 -39.5q0 -17 -5 -31t-16 -35q-15 -29 -22.5 -51t-7.5 -56q34 0 56 7.5t51 22.5q21 11 35 16t31 5
q24 0 39.5 -17z" />
    <glyph glyph-name="daggerdbl" unicode="&#x2021;" horiz-adv-x="504" 
d="M468.5 270q15.5 -17 15.5 -38t-15.5 -38t-39.5 -17q-17 0 -31 5t-35 16q-29 15 -51 22.5t-56 7.5q0 -34 7.5 -56t22.5 -51q11 -21 16 -35t5 -31q0 -24 -17 -39.5t-38 -15.5t-38 15.5t-17 39.5q0 17 5 31t16 35q15 29 22.5 51t7.5 56q-34 0 -56 -7.5t-51 -22.5
q-21 -11 -35 -16t-31 -5q-24 0 -39.5 17t-15.5 38t15.5 38t39.5 17q17 0 31 -5t35 -16q29 -15 51 -22.5t56 -7.5q0 28 -13.5 52.5t-42.5 56.5q29 32 42.5 56.5t13.5 52.5q-34 0 -56 -7.5t-51 -22.5q-21 -11 -35 -16t-31 -5q-24 0 -39.5 17t-15.5 38t15.5 38t39.5 17
q17 0 31 -5t35 -16q29 -15 51 -22.5t56 -7.5q0 34 -7.5 56t-22.5 51q-11 21 -16 35t-5 31q0 24 17 39.5t38 15.5t38 -15.5t17 -39.5q0 -17 -5 -31t-16 -35q-15 -29 -22.5 -51t-7.5 -56q34 0 56 7.5t51 22.5q21 11 35 16t31 5q24 0 39.5 -17t15.5 -38t-15.5 -38t-39.5 -17
q-17 0 -31 5t-35 16q-29 15 -51 22.5t-56 7.5q0 -28 13.5 -52.5t42.5 -56.5q-29 -32 -42.5 -56.5t-13.5 -52.5q34 0 56 7.5t51 22.5q21 11 35 16t31 5q24 0 39.5 -17z" />
    <glyph glyph-name="bullet" unicode="&#x2022;" horiz-adv-x="170" 
d="M39 319q-19 19 -19 46q0 26 19 45.5t46 19.5q26 0 45.5 -19.5t19.5 -45.5q0 -27 -19.5 -46t-45.5 -19q-27 0 -46 19z" />
    <glyph glyph-name="ellipsis" unicode="&#x2026;" horiz-adv-x="630" 
d="M39 9q-19 19 -19 46q0 26 19 45.5t46 19.5q26 0 45.5 -19.5t19.5 -45.5q0 -27 -19.5 -46t-45.5 -19q-27 0 -46 19zM269 9q-19 19 -19 46q0 26 19 45.5t46 19.5q26 0 45.5 -19.5t19.5 -45.5q0 -27 -19.5 -46t-45.5 -19q-27 0 -46 19zM499 9q-19 19 -19 46q0 26 19 45.5
t46 19.5q26 0 45.5 -19.5t19.5 -45.5q0 -27 -19.5 -46t-45.5 -19q-27 0 -46 19z" />
    <glyph glyph-name="guilsinglleft" unicode="&#x2039;" horiz-adv-x="309" 
d="M140 250l149 -190l-10 -10l-259 200l259 200l10 -10z" />
    <glyph glyph-name="guilsinglright" unicode="&#x203a;" horiz-adv-x="309" 
d="M289 250l-259 -200l-10 10l149 190l-149 190l10 10z" />
    <glyph glyph-name="Euro" unicode="&#x20ac;" horiz-adv-x="721" 
d="M701 212q-29 -94 -99 -158t-182 -64q-71 0 -140 37t-116.5 108.5t-52.5 170.5h-91v10h90v14q0 46 9 86h-99v10h101q20 82 71.5 142t115.5 91t122 31q68 0 121.5 -12t59.5 -13q12 -2 17 -2q39 0 39 42v17h10v-282h-10q0 61 -30.5 116.5t-85 89.5t-121.5 34q-59 0 -104 -36
t-70 -94t-26 -124h240v-10h-240q0 -53 9 -100h231v-10h-229q22 -113 90 -174.5t169 -61.5q58 0 106 33.5t87 113.5z" />
    <glyph glyph-name="trademark" unicode="&#x2122;" horiz-adv-x="573" 
d="M229.5 683.5q5.5 4.5 5.5 11.5h3v-102h-3q0 11 -6 30.5t-17 34.5t-26 15h-35v-208q0 -25 22 -25v-6h-88v6q22 0 22 25v208h-35q-15 0 -26 -15t-17 -34.5t-6 -30.5h-3v102h3q0 -7 5.5 -11.5t22.5 -4.5h156q17 0 22.5 4.5zM531 646v-179q0 -27 22 -27v-6h-88v6q22 0 22 27
v197l-71 -186l8 -19q-13 0 -25.5 -8.5t-12.5 -16.5h-4l-89 206v-144q0 -56 37 -56v-6h-79v6q36 0 36 56v157q-11 21 -34 21v6h75l85 -195l74 195h66v-6q-22 0 -22 -28z" />
    <glyph glyph-name="product" unicode="&#x220f;" horiz-adv-x="708" 
d="M645.5 654.5q-19.5 -15.5 -19.5 -61.5v-506q0 -46 19.5 -61.5t42.5 -15.5v-10h-244v10q23 0 42.5 15.5t19.5 61.5v583h-304v-583q0 -46 19.5 -61.5t42.5 -15.5v-10h-244v10q23 0 42.5 15.5t19.5 61.5v506q0 46 -19.5 61.5t-42.5 15.5v10h668v-10q-23 0 -42.5 -15.5z" />
    <glyph glyph-name="minus" unicode="&#x2212;" horiz-adv-x="440" 
d="M420 336v-10h-400v10h400z" />
    <glyph glyph-name="notequal" unicode="&#x2260;" horiz-adv-x="440" 
d="M259 406l-64 -150h225v-10h-229l-47 -110l-10 3l46 107h-160v10h164l64 150h-228v10h232l47 110l10 -3l-46 -107h157v-10h-161z" />
    <glyph glyph-name="lessequal" unicode="&#x2264;" horiz-adv-x="460" 
d="M20 390v10l416 145l4 -10l-405 -140l405 -140l-4 -10zM440 144h-420v-10h420v10z" />
    <glyph glyph-name="greaterequal" unicode="&#x2265;" horiz-adv-x="459" 
d="M20 255l405 140l-405 140l4 10l416 -145v-10l-416 -145zM440 134v10h-420v-10h420z" />
    <glyph glyph-name="A_H" unicode="&#xe000;" horiz-adv-x="1195" 
d="M1132.5 654.5q-19.5 -15.5 -19.5 -61.5v-506q0 -46 19.5 -61.5t42.5 -15.5v-10h-244v10q23 0 42.5 15.5t19.5 61.5v248h-324v-248q0 -46 19.5 -61.5t42.5 -15.5v-10h-244v10q23 0 42.5 15.5t19.5 61.5v78h-304l-20 -29q-45 -65 -45 -95q0 -17 13 -24t39 -7v-10h-212v10
q50 0 97.5 28.5t95.5 97.5l332 489q-7 26 -23.5 35.5t-34.5 9.5v10h244v-10q-23 0 -42.5 -15.5t-19.5 -61.5v-248h324v248q0 46 -19.5 61.5t-42.5 15.5v10h244v-10q-23 0 -42.5 -15.5zM549 175v418q0 12 -1 18l-296 -436h297z" />
    <glyph glyph-name="A_K" unicode="&#xe001;" horiz-adv-x="1180" 
d="M1106 23q29 -13 54 -13v-10h-303v10q27 0 40.5 8.5t13.5 27.5q0 30 -38 96l-112 189l-92 -124v-120q0 -46 19.5 -61.5t42.5 -15.5v-10h-244v10q23 0 42.5 15.5t19.5 61.5v78h-304l-20 -29q-45 -65 -45 -95q0 -17 13 -24t39 -7v-10h-212v10q50 0 97.5 28.5t95.5 97.5
l332 489q-7 26 -23.5 35.5t-34.5 9.5v10h244v-10q-23 0 -42.5 -15.5t-19.5 -61.5v-369l87 117l-44 74h10q25 -19 67 -30l120 162q48 67 48 95q0 15 -12.5 21.5t-37.5 6.5v10h242v-10q-55 0 -117.5 -28.5t-110.5 -94.5l-121 -164q29 -5 76 -5l178 -303q23 -39 52 -52z
M549 175v418q0 12 -1 18l-297 -436h298z" />
    <glyph glyph-name="A_L" unicode="&#xe002;" horiz-adv-x="1000" 
d="M960 240v-282h-10q0 19 -15 30.5t-62 11.5h-386v10q23 0 42.5 15.5t19.5 61.5v78h-304l-20 -29q-45 -65 -45 -95q0 -17 13 -24t39 -7v-10h-212v10q50 0 97.5 28.5t95.5 97.5l332 489q-7 26 -23.5 35.5t-34.5 9.5v10h244v-10q-23 0 -42.5 -15.5t-19.5 -61.5v-583h146
q41 0 71.5 43.5t47 99.5t16.5 87h10zM549 175v418q0 12 -1 18l-297 -436h298z" />
    <glyph glyph-name="A_R" unicode="&#xe003;" horiz-adv-x="1138" 
d="M1062.5 22q30.5 -12 55.5 -12v-10h-273v10q31 0 31 19q0 15 -19 42l-148 211h-40v-195q0 -46 19.5 -61.5t42.5 -15.5v-10h-244v10q23 0 42.5 15.5t19.5 61.5v78h-304l-20 -29q-45 -65 -45 -95q0 -17 13 -24t39 -7v-10h-212v10q50 0 97.5 28.5t95.5 97.5l332 489
q-7 26 -23.5 35.5t-34.5 9.5v10h315q82 0 138 -30t83 -76t27 -94q0 -42 -21 -83.5t-65 -71.5t-108 -39l150 -215q26 -37 56.5 -49zM669 292h123q62 0 95 51.5t33 136.5q0 86 -33 138t-95 52h-123v-378zM549 175v418q0 12 -1 18l-297 -436h298z" />
    <glyph glyph-name="A_V" unicode="&#xe004;" horiz-adv-x="1055" 
d="M1035 670q-49 0 -89 -32.5t-71 -111.5l-168 -425l9 -21q18 -42 45 -56t51 -14v-10h-292v10q30 0 45.5 11.5t15.5 38.5q0 32 -25 92l-5 13h-356l-4 -11q-23 -57 -23 -91q0 -29 16 -41t47 -12v-10h-211v10q49 0 89 32.5t71 111.5l182 462l-13 30q30 0 60.5 18t30.5 51h10
l251 -600l163 411q23 58 23 91q0 29 -16 41t-47 12v10h211v-10zM546 175l-179 427l-168 -427h347z" />
    <glyph glyph-name="E_A" unicode="&#xe005;" horiz-adv-x="1245" 
d="M1174 24q27 -14 51 -14v-10h-292v10q30 0 45.5 11.5t15.5 38.5q0 32 -25 92l-5 13h-356l-4 -11q-23 -57 -23 -91q0 -29 16 -41t47 -12v-10h-624v10q23 0 42.5 15.5t19.5 61.5v506q0 46 -19.5 61.5t-42.5 15.5v10h426q47 0 62 11.5t15 30.5h10v-282h-10q0 31 -16.5 87
t-47 99.5t-71.5 43.5h-186v-325h98q34 0 49.5 38.5t15.5 91.5h10v-270h-10q0 53 -15.5 91.5t-49.5 38.5h-98v-325h231q49 0 89 32.5t71 111.5l182 462l-13 30q30 0 60.5 18t30.5 51h10l266 -635q18 -42 45 -56zM959 175l-179 427l-168 -427h347z" />
    <glyph glyph-name="E_V" unicode="&#xe006;" horiz-adv-x="1229" 
d="M1209 670q-49 0 -90 -32.5t-73 -110.5l-165 -402l24 -56q-24 0 -45 -10.5t-33.5 -27t-12.5 -31.5h-10l-260 600q-18 42 -45.5 56t-51.5 14h-245v-325h98q34 0 49.5 38.5t15.5 91.5h10v-270h-10q0 53 -15.5 91.5t-49.5 38.5h-98v-325h186q41 0 71.5 43.5t47 99.5t16.5 87
h10v-282h-10q0 19 -15 30.5t-62 11.5h-426v10q23 0 42.5 15.5t19.5 61.5v506q0 46 -19.5 61.5t-42.5 15.5v10h719v-10q-29 0 -44.5 -11t-15.5 -37q0 -34 26 -93l170 -391l160 389q24 56 24 92q0 27 -15.5 39t-45.5 12v10h211v-10z" />
    <glyph glyph-name="E_W" unicode="&#xe007;" horiz-adv-x="1646" 
d="M1626 670q-49 0 -89 -32.5t-71 -111.5l-163 -413l19 -44q-24 0 -45 -10.5t-33.5 -27t-12.5 -31.5h-10l-206 492l-144 -366l24 -57q-24 0 -45 -10.5t-33.5 -27t-12.5 -31.5h-10l-251 600q-18 42 -45 56t-51 14h-245v-325h98q34 0 49.5 38.5t15.5 91.5h10v-270h-10
q0 53 -15.5 91.5t-49.5 38.5h-98v-325h186q41 0 71.5 43.5t47 99.5t16.5 87h10v-282h-10q0 19 -15 30.5t-62 11.5h-426v10q23 0 42.5 15.5t19.5 61.5v506q0 46 -19.5 61.5t-42.5 15.5v10h719v-10q-30 0 -45.5 -11.5t-15.5 -38.5q0 -33 25 -92l162 -388l144 366l-39 94
q-18 42 -45 56t-51 14v10h292v-10q-30 0 -45.5 -11.5t-15.5 -38.5q0 -33 25 -92l168 -401l157 399q23 58 23 91q0 29 -16 41t-47 12v10h211v-10z" />
    <glyph glyph-name="F_F" unicode="&#xe008;" horiz-adv-x="976" 
d="M956 722v-282h-10q0 31 -16.5 87t-47 99.5t-71.5 43.5h-166v-325h98q34 0 49.5 38.5t15.5 91.5h10v-270h-10q0 53 -15.5 91.5t-49.5 38.5h-98v-248q0 -46 19.5 -61.5t42.5 -15.5v-10h-244v10q23 0 42.5 15.5t19.5 61.5v506q0 46 -19.5 61.5t-42.5 15.5h-261v-325h98
q34 0 49.5 38.5t15.5 91.5h10v-270h-10q0 53 -15.5 91.5t-49.5 38.5h-98v-248q0 -46 19.5 -61.5t42.5 -15.5v-10h-244v10q23 0 42.5 15.5t19.5 61.5v506q0 46 -19.5 61.5t-42.5 15.5v10h849q47 0 62 11.5t15 30.5h10z" />
    <glyph glyph-name="F_T" unicode="&#xe009;" horiz-adv-x="907" 
d="M887 722v-282h-10q0 31 -16.5 87t-47 99.5t-71.5 43.5h-97v-583q0 -46 19.5 -61.5t42.5 -15.5v-10h-244v10q23 0 42.5 15.5t19.5 61.5v583h-323v-325h98q34 0 49.5 38.5t15.5 91.5h10v-270h-10q0 53 -15.5 91.5t-49.5 38.5h-98v-248q0 -46 19.5 -61.5t42.5 -15.5v-10
h-244v10q23 0 42.5 15.5t19.5 61.5v506q0 46 -19.5 61.5t-42.5 15.5v10h780q47 0 62 11.5t15 30.5h10z" />
    <glyph glyph-name="H_E" unicode="&#xe010;" horiz-adv-x="1017" 
d="M977 722v-282h-10q0 31 -16.5 87t-47 99.5t-71.5 43.5h-124q-23 0 -42.5 -15.5t-19.5 -61.5v-248h98q34 0 49.5 38.5t15.5 91.5h10v-270h-10q0 53 -15.5 91.5t-49.5 38.5h-98v-248q0 -46 19.5 -61.5t42.5 -15.5h124q41 0 71.5 43.5t47 99.5t16.5 87h10v-282h-10
q0 19 -15 30.5t-62 11.5h-426v10q23 0 42.5 15.5t19.5 61.5v248h-324v-248q0 -46 19.5 -61.5t42.5 -15.5v-10h-244v10q23 0 42.5 15.5t19.5 61.5v506q0 46 -19.5 61.5t-42.5 15.5v10h244v-10q-23 0 -42.5 -15.5t-19.5 -61.5v-248h324v248q0 46 -19.5 61.5t-42.5 15.5v10h426
q47 0 62 11.5t15 30.5h10z" />
    <glyph glyph-name="L_A" unicode="&#xe011;" horiz-adv-x="941" 
d="M870 24q27 -14 51 -14v-10h-292v10q30 0 45.5 11.5t15.5 38.5q0 32 -25 92l-47 113h-225l-2 -6q-23 -57 -23 -91q0 -29 16 -41t47 -12v-10h-173v10q24 0 50.5 14.5t43.5 56.5l145 368l-39 92q30 0 60.5 18t30.5 51h10l266 -635q18 -42 45 -56zM446.5 48.5
q36.5 38.5 36.5 91.5h10v-182h-10q0 19 -15 30.5t-62 11.5h-386v10q23 0 42.5 15.5t19.5 61.5v506q0 46 -19.5 61.5t-42.5 15.5v10h244v-10q-23 0 -42.5 -15.5t-19.5 -61.5v-583h126q82 0 118.5 38.5zM613 275l-111 266l-105 -266h216z" />
    <glyph glyph-name="N_N" unicode="&#xe012;" horiz-adv-x="1184" 
d="M1164 670q-49 0 -74.5 -35t-25.5 -120v-400l30 -46q-24 0 -44.5 -10.5t-32.5 -27t-12 -31.5h-10l-396 605v-90v-400l30 -46q-24 0 -44.5 -10.5t-32.5 -27t-12 -31.5h-10l-397 607l-2 3v-445q0 -85 25.5 -120t74.5 -35v-10h-211v10q49 0 74.5 35t25.5 120v459
q-40 46 -97 46v10h206l359 -548v489q-39 49 -100 49v10h206l359 -548v383q0 85 -25.5 120t-74.5 35v10h211v-10z" />
    <glyph glyph-name="O_G" unicode="&#xe013;" horiz-adv-x="1006" 
d="M986 300q-23 0 -42.5 -15.5t-19.5 -61.5v-125q-20 -25 -61 -50t-96.5 -41.5t-116.5 -16.5q-73 0 -146 38q-71 -38 -144 -38q-74 0 -148 40.5t-123 120t-49 189.5t49 189.5t123 120t148 40.5q71 0 140 -36q69 36 140 36q61 0 118.5 -12t62.5 -13q12 -2 17 -2q39 0 39 42
v17h10v-282h-10q0 61 -30.5 116.5t-85 89.5t-121.5 34q-68 0 -111 -43q68 -44 109.5 -119.5t41.5 -177.5q0 -98 -39 -172t-104 -119q51 -49 123 -49q104 0 144 98v125q0 46 -19.5 61.5t-42.5 15.5v10h244v-10zM474 46q-69 45 -111.5 119.5t-42.5 174.5q0 102 41.5 177.5
t109.5 119.5q-43 43 -111 43q-190 0 -190 -340t190 -340q70 0 114 46zM550 340q0 176 -50 259q-50 -83 -50 -259q0 -161 55 -250q45 84 45 250z" />
    <glyph glyph-name="O_O" unicode="&#xe014;" horiz-adv-x="1000" 
d="M788 649.5q74 -40.5 123 -120t49 -189.5t-49 -189.5t-123 -120t-148 -40.5q-71 0 -140 36q-69 -36 -140 -36q-74 0 -148 40.5t-123 120t-49 189.5t49 189.5t123 120t148 40.5q71 0 140 -36q69 36 140 36q74 0 148 -40.5zM471 43q-68 44 -109.5 119.5t-41.5 177.5
t41.5 177.5t109.5 119.5q-43 43 -111 43q-190 0 -190 -340t190 -340q68 0 111 43zM830 340q0 340 -190 340q-68 0 -111 -43q68 -44 109.5 -119.5t41.5 -177.5t-41.5 -177.5t-109.5 -119.5q43 -43 111 -43q190 0 190 340zM550 340q0 176 -50 259q-50 -83 -50 -259t50 -259
q50 83 50 259z" />
    <glyph glyph-name="O_Q" unicode="&#xe015;" horiz-adv-x="1000" 
d="M781 -65l84 -116q-24 0 -44.5 -10.5t-33 -27t-12.5 -31.5h-10l-173 244q-50 10 -92 32q-69 -36 -140 -36q-74 0 -148 40.5t-123 120t-49 189.5t49 189.5t123 120t148 40.5q71 0 140 -36q69 36 140 36q74 0 148 -40.5t123 -120t49 -189.5t-49 -189.5t-123 -120t-148 -40.5
q-12 0 -36 2q51 -57 177 -57zM471 43q-68 44 -109.5 119.5t-41.5 177.5t41.5 177.5t109.5 119.5q-43 43 -111 43q-190 0 -190 -340t190 -340q68 0 111 43zM638.5 162.5q-41.5 -75.5 -109.5 -119.5q43 -43 111 -43q190 0 190 340t-190 340q-68 0 -111 -43
q68 -44 109.5 -119.5t41.5 -177.5t-41.5 -177.5zM550 340q0 176 -50 259q-50 -83 -50 -259t50 -259q50 83 50 259z" />
    <glyph glyph-name="T_E" unicode="&#xe016;" horiz-adv-x="1131" 
d="M1091 722v-282h-10q0 31 -16.5 87t-47 99.5t-71.5 43.5h-186v-325h98q34 0 49.5 38.5t15.5 91.5h10v-270h-10q0 53 -15.5 91.5t-49.5 38.5h-98v-325h186q41 0 71.5 43.5t47 99.5t16.5 87h10v-282h-10q0 19 -15 30.5t-62 11.5h-426v10q23 0 42.5 15.5t19.5 61.5v506
q0 46 -19.5 61.5t-42.5 15.5h-196v-583q0 -46 19.5 -61.5t42.5 -15.5v-10h-244v10q23 0 42.5 15.5t19.5 61.5v583h-97q-41 0 -71.5 -43.5t-47 -99.5t-16.5 -87h-10v282h10q0 -19 15 -30.5t62 -11.5h897q47 0 62 11.5t15 30.5h10z" />
    <glyph glyph-name="T_T" unicode="&#xe017;" horiz-adv-x="1022" 
d="M1002 722v-282h-10q0 31 -16.5 87t-47 99.5t-71.5 43.5h-97v-583q0 -46 19.5 -61.5t42.5 -15.5v-10h-244v10q23 0 42.5 15.5t19.5 61.5v583h-258v-583q0 -46 19.5 -61.5t42.5 -15.5v-10h-244v10q23 0 42.5 15.5t19.5 61.5v583h-97q-41 0 -71.5 -43.5t-47 -99.5t-16.5 -87
h-10v282h10q0 -19 15 -30.5t62 -11.5h808q47 0 62 11.5t15 30.5h10z" />
    <glyph glyph-name="T_Y" unicode="&#xe018;" horiz-adv-x="1256" 
d="M1236 670q-50 0 -96.5 -29.5t-90.5 -100.5l-119 -194v-259q0 -46 19.5 -61.5t42.5 -15.5v-10h-244v10q23 0 42.5 15.5t19.5 61.5v239l-186 281q-25 38 -55 50.5t-55 12.5h-132v-583q0 -46 19.5 -61.5t42.5 -15.5v-10h-244v10q23 0 42.5 15.5t19.5 61.5v583h-97
q-41 0 -71.5 -43.5t-47 -99.5t-16.5 -87h-10v282h10q0 -19 15 -30.5t62 -11.5h713v-10q-26 0 -39 -7.5t-13 -24.5q0 -31 43 -96l118 -178l108 176q30 50 30 80q0 50 -73 50v10h242v-10z" />
    <glyph glyph-name="V_A" unicode="&#xe019;" horiz-adv-x="1047" 
d="M976 24q27 -14 51 -14v-10h-292v10q30 0 45.5 11.5t15.5 38.5q0 32 -25 92l-5 13h-307l-15 -39l24 -57q-24 0 -45 -10.5t-33.5 -27t-12.5 -31.5h-10l-251 600q-18 42 -45 56t-51 14v10h292v-10q-30 0 -45.5 -11.5t-15.5 -38.5q0 -33 25 -92l162 -388l153 386q23 58 23 91
q0 29 -16 41t-47 12v10h211v-10q-40 0 -70 -19l239 -571q18 -42 45 -56zM761 175l-153 366l-6 -15l-139 -351h298z" />
    <glyph glyph-name="W_A" unicode="&#xe020;" horiz-adv-x="1484" 
d="M1413 24q27 -14 51 -14v-10h-292v10q30 0 45.5 11.5t15.5 38.5q0 32 -25 92l-5 13h-306l-21 -52l19 -44q-24 0 -45 -10.5t-33.5 -27t-12.5 -31.5h-10l-206 492l-144 -366l24 -57q-24 0 -45 -10.5t-33.5 -27t-12.5 -31.5h-10l-251 600q-18 42 -45 56t-51 14v10h292v-10
q-30 0 -45.5 -11.5t-15.5 -38.5q0 -33 25 -92l162 -388l144 366l-39 94q-18 42 -45 56t-51 14v10h292v-10q-30 0 -45.5 -11.5t-15.5 -38.5q0 -33 25 -92l168 -401l157 399q23 58 23 91q0 29 -16 41t-47 12v10h211v-10q-40 0 -70 -19l239 -571q18 -42 45 -56zM1198 175
l-153 366l-6 -15l-138 -351h297z" />
    <glyph glyph-name="f_f" unicode="&#xe021;" horiz-adv-x="691" 
d="M633 677.5q28 -12.5 28 -37.5q0 -19 -14 -33.5t-34 -14.5q-21 0 -33 11.5t-24 34.5q-11 18 -18.5 26t-19.5 8q-42 0 -42 -125v-47h120v-10h-120v-403q0 -46 19.5 -61.5t42.5 -15.5v-10h-244v10q23 0 42.5 15.5t19.5 61.5v335q0 33 5 68h-159v-403q0 -46 19.5 -61.5
t42.5 -15.5v-10h-244v10q23 0 42.5 15.5t19.5 61.5v365q0 14 2 38h-52v10h53q12 93 68.5 141.5t132.5 48.5q42 0 74 -20.5t48 -56.5q29 38 68 57.5t84 19.5t73 -12.5zM401 603q-15 36 -44 56t-61 20q-43 0 -68.5 -35.5t-25.5 -96.5v-47h161q10 56 38 103z" />
    <glyph glyph-name="f_f_b" unicode="&#xe022;" horiz-adv-x="1155" 
d="M1007 480q51 -30 79.5 -88.5t28.5 -141.5t-28.5 -141.5t-79.5 -88.5t-117 -30q-36 0 -74.5 16.5t-65.5 52.5v-59h-114h-67v10q23 0 42 15t19 60v575q-30 19 -60 19q-43 0 -68.5 -35.5t-25.5 -96.5v-47h120v-10h-120v-403q0 -46 19.5 -61.5t42.5 -15.5v-10h-244v10
q23 0 42.5 15.5t19.5 61.5v365q0 14 2 38h-156v-403q0 -46 19.5 -61.5t42.5 -15.5v-10h-244v10q23 0 42.5 15.5t19.5 61.5v365q0 14 2 38h-52v10h53q12 93 68.5 141.5t132.5 48.5q40 0 71 -19t48 -53q28 36 68.5 54t86.5 18q39 0 71 -19q36 0 72.5 13t36.5 46h10v-289
q27 36 65.5 52.5t74.5 16.5q66 0 117 -30zM399 609q-15 33 -44 51.5t-59 18.5q-43 0 -68.5 -35.5t-25.5 -96.5v-47h157q9 66 40 109zM954 63q33 58 33 187q0 132 -30.5 188.5t-86.5 56.5q-27 0 -58.5 -16t-61.5 -54v-350q30 -38 61.5 -54t58.5 -16q51 0 84 58z" />
    <glyph glyph-name="f_f_h" unicode="&#xe023;" horiz-adv-x="1126" 
d="M1063.5 25.5q19.5 -15.5 42.5 -15.5v-10h-244v10q23 0 42.5 15.5t19.5 61.5v336q0 21 -6 29t-22 8q-20 0 -53.5 -16.5t-92.5 -50.5v-306q0 -46 19.5 -61.5t42.5 -15.5v-10h-244v10q23 0 42.5 15.5t19.5 61.5v573q-30 19 -60 19q-43 0 -68.5 -35.5t-25.5 -96.5v-47h120
v-10h-120v-403q0 -46 19.5 -61.5t42.5 -15.5v-10h-244v10q23 0 42.5 15.5t19.5 61.5v365q0 14 2 38h-156v-403q0 -46 19.5 -61.5t42.5 -15.5v-10h-244v10q23 0 42.5 15.5t19.5 61.5v365q0 14 2 38h-52v10h53q12 93 68.5 141.5t132.5 48.5q40 0 71 -19t48 -53q28 36 68.5 54
t86.5 18q39 0 71 -19q36 0 72.5 13t36.5 46h10v-325q13 6 31 18q66 37 108 57t75 20q39 0 59.5 -25t20.5 -72v-316q0 -46 19.5 -61.5zM399 609q-15 33 -44 51.5t-59 18.5q-43 0 -68.5 -35.5t-25.5 -96.5v-47h157q9 66 40 109z" />
    <glyph glyph-name="f_f_i" unicode="&#xe024;" horiz-adv-x="832" 
d="M495.5 25.5q19.5 -15.5 42.5 -15.5v-10h-244v10q23 0 42.5 15.5t19.5 61.5v335q0 33 5 68h-159v-403q0 -46 19.5 -61.5t42.5 -15.5v-10h-244v10q23 0 42.5 15.5t19.5 61.5v365q0 14 2 38h-52v10h53q12 93 68.5 141.5t132.5 48.5q42 0 74 -20.5t48 -56.5q29 38 68 57.5
t84 19.5t73 -12.5t28 -37.5q0 -19 -14 -33.5t-34 -14.5q-21 0 -33 11.5t-24 34.5q-11 18 -18.5 26t-19.5 8q-42 0 -42 -125v-47h120v-10h-120v-403q0 -46 19.5 -61.5zM401 603q-15 36 -44 56t-61 20q-43 0 -68.5 -35.5t-25.5 -96.5v-47h161q10 56 38 103zM769.5 25.5
q19.5 -15.5 42.5 -15.5v-10h-244v10q23 0 42.5 15.5t19.5 61.5v276q0 46 -19.5 61.5t-42.5 15.5v10q40 0 96.5 15.5t75.5 34.5h10v-413q0 -46 19.5 -61.5z" />
    <glyph glyph-name="f_f_j" unicode="&#xe025;" horiz-adv-x="830" 
d="M294 0v10q23 0 42.5 15.5t19.5 61.5v335q0 33 5 68h-159v-403q0 -46 19.5 -61.5t42.5 -15.5v-10h-244v10q23 0 42.5 15.5t19.5 61.5v365q0 14 2 38h-52v10h53q12 93 68.5 141.5t132.5 48.5q42 0 74 -20.5t48 -56.5q29 38 68 57.5t84 19.5t73 -12.5t28 -37.5
q0 -19 -14 -33.5t-34 -14.5q-21 0 -33 11.5t-24 34.5q-11 18 -18.5 26t-19.5 8q-42 0 -42 -125v-47h120v-10h-120v-403q0 -46 19.5 -61.5t42.5 -15.5v-10h-244zM401 603q-15 36 -44 56t-61 20q-43 0 -68.5 -35.5t-25.5 -96.5v-47h161q10 56 38 103zM750 500v-462
q0 -89 -28 -149t-74.5 -89.5t-101.5 -29.5q-45 0 -73 12.5t-28 37.5q0 19 14.5 33.5t33.5 14.5q20 0 30 -10.5t22 -31.5q9 -18 18 -28t25 -10q42 0 42 125v450q0 46 -19.5 61.5t-42.5 15.5v10q40 0 96.5 15.5t75.5 34.5h10z" />
    <glyph glyph-name="f_f_k" unicode="&#xe026;" horiz-adv-x="1234" 
d="M1150 23q29 -13 54 -13v-10h-303v10q27 0 40.5 8.5t13.5 28.5q0 32 -37 96l-78 133l-90 -106v-83q0 -46 19.5 -61.5t42.5 -15.5v-10h-244v10q23 0 42.5 15.5t19.5 61.5v573q-30 19 -60 19q-43 0 -68.5 -35.5t-25.5 -96.5v-47h121v-10h-121v-403q0 -46 19.5 -61.5
t42.5 -15.5v-10h-244v10q23 0 42.5 15.5t19.5 61.5v365q0 14 2 38h-156v-403q0 -46 19.5 -61.5t42.5 -15.5v-10h-244v10q23 0 42.5 15.5t19.5 61.5v365q0 14 2 38h-52v10h53q12 93 68.5 141.5t132.5 48.5q40 0 71 -19t48 -53q28 36 68.5 54t86.5 18q39 0 71 -19
q38 0 73.5 18.5t35.5 40.5h10v-545l85 100l-44 75h10q26 -22 72 -31l38 45q55 65 55 92q0 24 -48 24v10h213v-10q-50 0 -101.5 -26t-105.5 -90l-40 -47q28 -4 71 -4l143 -248q23 -39 52 -52zM399 609q-15 33 -44 51.5t-59 18.5q-43 0 -68.5 -35.5t-25.5 -96.5v-47h157
q9 66 40 109z" />
    <glyph glyph-name="f_f_l" unicode="&#xe027;" horiz-adv-x="832" 
d="M769.5 25.5q19.5 -15.5 42.5 -15.5v-10h-244v10q23 0 42.5 15.5t19.5 61.5v573q-30 19 -60 19q-43 0 -68.5 -35.5t-25.5 -96.5v-47h121v-10h-121v-403q0 -46 19.5 -61.5t42.5 -15.5v-10h-244v10q23 0 42.5 15.5t19.5 61.5v365q0 14 2 38h-156v-403q0 -46 19.5 -61.5
t42.5 -15.5v-10h-244v10q23 0 42.5 15.5t19.5 61.5v365q0 14 2 38h-52v10h53q12 93 68.5 141.5t132.5 48.5q40 0 71 -19t48 -53q28 36 68.5 54t86.5 18q39 0 71 -19q38 0 73.5 18.5t35.5 40.5h10v-643q0 -46 19.5 -61.5zM399 609q-15 33 -44 51.5t-59 18.5
q-43 0 -68.5 -35.5t-25.5 -96.5v-47h157q9 66 40 109z" />
    <glyph glyph-name="f_f_t" unicode="&#xe028;" horiz-adv-x="877" 
d="M857 94q-26 -57 -53 -80.5t-74 -23.5q-52 0 -76 33t-24 97v370h-154v-403q0 -46 19.5 -61.5t42.5 -15.5v-10h-244v10q23 0 42.5 15.5t19.5 61.5v335q0 33 5 68h-159v-403q0 -46 19.5 -61.5t42.5 -15.5v-10h-244v10q23 0 42.5 15.5t19.5 61.5v365q0 14 2 38h-52v10h53
q12 93 68.5 141.5t132.5 48.5q42 0 74 -20.5t48 -56.5q29 38 68 57.5t84 19.5t73 -12.5t28 -37.5q0 -19 -14 -33.5t-34 -14.5q-21 0 -33 11.5t-24 34.5q-11 18 -18.5 26t-19.5 8q-42 0 -42 -125v-47h104q34 0 72 23t63 58t25 69h10v-150h100v-10h-100v-380q0 -66 40 -66
q17 0 30 11.5t30 42.5zM401 603q-15 36 -44 56t-61 20q-43 0 -68.5 -35.5t-25.5 -96.5v-47h161q10 56 38 103z" />
    <glyph glyph-name="f_h" unicode="&#xe029;" horiz-adv-x="852" 
d="M789.5 25.5q19.5 -15.5 42.5 -15.5v-10h-244v10q23 0 42.5 15.5t19.5 61.5v336q0 21 -6 29t-22 8q-20 0 -53.5 -16.5t-92.5 -50.5v-306q0 -46 19.5 -61.5t42.5 -15.5v-10h-244v10q23 0 42.5 15.5t19.5 61.5v573q-30 19 -60 19q-43 0 -68.5 -35.5t-25.5 -96.5v-47h120v-10
h-120v-403q0 -46 19.5 -61.5t42.5 -15.5v-10h-244v10q23 0 42.5 15.5t19.5 61.5v365q0 14 2 38h-52v10h53q12 93 68.5 141.5t132.5 48.5q39 0 71 -19q36 0 72.5 13t36.5 46h10v-325q13 6 31 18q66 37 108 57t75 20q39 0 59.5 -25t20.5 -72v-316q0 -46 19.5 -61.5z" />
    <glyph glyph-name="f_i" unicode="&#xe030;" horiz-adv-x="558" 
d="M221.5 25.5q19.5 -15.5 42.5 -15.5v-10h-244v10q23 0 42.5 15.5t19.5 61.5v335q0 33 5 68h-55v10h57q16 94 70.5 142t126.5 48q45 0 73 -12.5t28 -37.5q0 -19 -14 -33.5t-34 -14.5q-21 0 -33 11.5t-24 34.5q-11 18 -18.5 26t-19.5 8q-42 0 -42 -125v-47h120v-10h-120
v-403q0 -46 19.5 -61.5zM495.5 25.5q19.5 -15.5 42.5 -15.5v-10h-244v10q23 0 42.5 15.5t19.5 61.5v276q0 46 -19.5 61.5t-42.5 15.5v10q40 0 96.5 15.5t75.5 34.5h10v-413q0 -46 19.5 -61.5z" />
    <glyph glyph-name="f_j" unicode="&#xe031;" horiz-adv-x="556" 
d="M20 0v10q23 0 42.5 15.5t19.5 61.5v335q0 33 5 68h-55v10h57q16 94 70.5 142t126.5 48q45 0 73 -12.5t28 -37.5q0 -19 -14 -33.5t-34 -14.5q-21 0 -33 11.5t-24 34.5q-11 18 -18.5 26t-19.5 8q-42 0 -42 -125v-47h120v-10h-120v-403q0 -46 19.5 -61.5t42.5 -15.5v-10
h-244zM476 500v-462q0 -89 -28 -149t-74.5 -89.5t-101.5 -29.5q-45 0 -73 12.5t-28 37.5q0 19 14.5 33.5t33.5 14.5q20 0 30 -10.5t22 -31.5q9 -18 18 -28t25 -10q42 0 42 125v450q0 46 -19.5 61.5t-42.5 15.5v10q40 0 96.5 15.5t75.5 34.5h10z" />
    <glyph glyph-name="f_k" unicode="&#xe032;" horiz-adv-x="960" 
d="M876 23q29 -13 54 -13v-10h-303v10q27 0 40.5 8.5t13.5 28.5q0 32 -37 96l-78 133l-90 -106v-83q0 -46 19.5 -61.5t42.5 -15.5v-10h-244v10q23 0 42.5 15.5t19.5 61.5v573q-30 19 -60 19q-43 0 -68.5 -35.5t-25.5 -96.5v-47h120v-10h-120v-403q0 -46 19.5 -61.5
t42.5 -15.5v-10h-244v10q23 0 42.5 15.5t19.5 61.5v365q0 14 2 38h-52v10h53q12 93 68.5 141.5t132.5 48.5q39 0 71 -19q38 0 73.5 18.5t35.5 40.5h10v-545l85 100l-44 75h10q26 -22 72 -31l38 45q55 65 55 92q0 24 -48 24v10h213v-10q-50 0 -101.5 -26t-105.5 -90l-40 -47
q28 -4 71 -4l143 -248q23 -39 52 -52z" />
    <glyph glyph-name="f_l" unicode="&#xe033;" horiz-adv-x="558" 
d="M495.5 25.5q19.5 -15.5 42.5 -15.5v-10h-244v10q23 0 42.5 15.5t19.5 61.5v573q-30 19 -60 19q-43 0 -68.5 -35.5t-25.5 -96.5v-47h120v-10h-120v-403q0 -46 19.5 -61.5t42.5 -15.5v-10h-244v10q23 0 42.5 15.5t19.5 61.5v365q0 14 2 38h-52v10h53q12 93 68.5 141.5
t132.5 48.5q39 0 71 -19q38 0 73.5 18.5t35.5 40.5h10v-643q0 -46 19.5 -61.5z" />
    <glyph glyph-name="f_t" unicode="&#xe034;" horiz-adv-x="603" 
d="M583 94q-26 -57 -53 -80.5t-74 -23.5q-52 0 -76 33t-24 97v370h-154v-403q0 -46 19.5 -61.5t42.5 -15.5v-10h-244v10q23 0 42.5 15.5t19.5 61.5v335q0 33 5 68h-55v10h57q16 94 70.5 142t126.5 48q45 0 73 -12.5t28 -37.5q0 -19 -14 -33.5t-34 -14.5q-21 0 -33 11.5
t-24 34.5q-11 18 -18.5 26t-19.5 8q-42 0 -42 -125v-47h104q34 0 72 23t63 58t25 69h10v-150h100v-10h-100v-380q0 -66 40 -66q17 0 30 11.5t30 42.5z" />
    <glyph glyph-name="t_t" unicode="&#xe035;" horiz-adv-x="527" 
d="M507 94q-26 -57 -53 -80.5t-74 -23.5q-78 0 -95 79q-23 -42 -48 -60.5t-67 -18.5q-52 0 -76 33t-24 97v370h-50v10q34 0 72 23t63 58t25 69h10v-150h40q34 0 72 23t63 58t25 69h10v-150h100v-10h-100v-380q0 -66 40 -66q17 0 30 11.5t30 42.5zM256.5 52.5
q11.5 8.5 25.5 31.5q-2 22 -2 36v370h-90v-380q0 -66 40 -66q15 0 26.5 8.5z" />
    </font>
</defs>
</svg>
