<svg width="540" height="156" viewBox="0 0 540 156" fill="none" xmlns="http://www.w3.org/2000/svg">
<path d="M537 138.009C537 146.323 530.126 153.057 521.623 153.057H18.3973C9.8985 153.057 3 146.323 3 138.009V18.0105C3 9.70097 9.8985 2.94336 18.3973 2.94336H521.619C530.126 2.94336 536.996 9.70097 536.996 18.0105L537 138.009Z" fill="black"/>
<path d="M520 3.12488C529.26 3.12488 536.795 10.4715 536.795 19.5V136.5C536.795 145.529 529.26 152.875 520 152.875H20C10.74 152.875 3.205 145.529 3.205 136.5V19.5C3.205 10.4715 10.74 3.12488 20 3.12488H520ZM520 1.52588e-05H20C9.005 1.52588e-05 0 8.77989 0 19.5V136.5C0 147.22 9.005 156 20 156H520C530.995 156 540 147.22 540 136.5V19.5C540 8.77989 530.995 1.52588e-05 520 1.52588e-05Z" fill="#A6A6A6"/>
<path d="M125.727 78.8618C125.622 67.4917 135.275 61.9601 135.717 61.7025C130.249 53.9308 121.776 52.8689 118.798 52.7842C111.681 52.054 104.777 56.9365 101.151 56.9365C97.4535 56.9365 91.8705 52.8548 85.8533 52.9747C78.1102 53.0912 70.8665 57.4621 66.8936 64.2496C58.6946 78.0892 64.8095 98.4271 72.6647 109.614C76.5942 115.092 81.1858 121.21 87.1957 120.994C93.0754 120.758 95.2717 117.34 102.367 117.34C109.397 117.34 111.46 120.994 117.589 120.857C123.899 120.758 127.872 115.354 131.664 109.825C136.205 103.546 138.029 97.3617 138.101 97.0442C137.953 96.9948 125.846 92.4898 125.727 78.8618Z" fill="white"/>
<path d="M114.148 45.4252C117.311 41.5693 119.474 36.3235 118.874 31C114.297 31.1976 108.572 34.0868 105.276 37.8581C102.36 41.1813 99.7547 46.6282 100.428 51.7506C105.569 52.1245 110.848 49.2212 114.148 45.4252Z" fill="white"/>
<path d="M176.271 49.336C174.367 49.336 172.678 48.9067 171.203 48.048C169.729 47.1707 168.571 45.976 167.731 44.464C166.891 42.9333 166.471 41.1787 166.471 39.2C166.471 37.2213 166.891 35.476 167.731 33.964C168.571 32.4333 169.719 31.2387 171.175 30.38C172.65 29.5027 174.339 29.064 176.243 29.064C177.587 29.064 178.838 29.3067 179.995 29.792C181.153 30.2587 182.161 30.9213 183.019 31.78C183.897 32.62 184.569 33.5907 185.035 34.692L181.479 36.008C181.162 35.3173 180.742 34.72 180.219 34.216C179.697 33.6933 179.099 33.292 178.427 33.012C177.755 32.7133 177.027 32.564 176.243 32.564C175.105 32.564 174.087 32.8533 173.191 33.432C172.314 33.992 171.623 34.7667 171.119 35.756C170.634 36.7453 170.391 37.8933 170.391 39.2C170.391 40.5067 170.643 41.664 171.147 42.672C171.651 43.6613 172.351 44.4453 173.247 45.024C174.143 45.584 175.17 45.864 176.327 45.864C177.13 45.864 177.858 45.7147 178.511 45.416C179.183 45.0987 179.771 44.6693 180.275 44.128C180.798 43.5867 181.218 42.9613 181.535 42.252L185.091 43.54C184.625 44.6787 183.953 45.6867 183.075 46.564C182.217 47.4413 181.209 48.1227 180.051 48.608C178.894 49.0933 177.634 49.336 176.271 49.336ZM200.788 49.336C198.81 49.336 197.055 48.9067 195.524 48.048C194.012 47.1707 192.827 45.976 191.968 44.464C191.11 42.9333 190.68 41.188 190.68 39.228C190.68 37.2307 191.11 35.476 191.968 33.964C192.827 32.4333 194.003 31.2387 195.496 30.38C197.008 29.5213 198.744 29.092 200.704 29.092C202.683 29.092 204.419 29.5307 205.912 30.408C207.424 31.2667 208.61 32.4613 209.468 33.992C210.327 35.504 210.756 37.2493 210.756 39.228C210.756 41.188 210.327 42.9333 209.468 44.464C208.628 45.976 207.452 47.1707 205.94 48.048C204.447 48.9067 202.73 49.336 200.788 49.336ZM200.788 45.836C201.983 45.836 203.028 45.556 203.924 44.996C204.839 44.4173 205.548 43.6333 206.052 42.644C206.575 41.6547 206.836 40.516 206.836 39.228C206.836 37.9213 206.575 36.7733 206.052 35.784C205.53 34.7947 204.811 34.02 203.896 33.46C202.982 32.8813 201.918 32.592 200.704 32.592C199.528 32.592 198.474 32.8813 197.54 33.46C196.626 34.02 195.907 34.7947 195.384 35.784C194.862 36.7733 194.6 37.9213 194.6 39.228C194.6 40.516 194.862 41.6547 195.384 42.644C195.907 43.6333 196.635 44.4173 197.568 44.996C198.502 45.556 199.575 45.836 200.788 45.836ZM217.788 49V29.4H221.96L227.672 37.856L233.384 29.4H237.528V49H233.72V35.392L227.672 44.296L221.624 35.42V49H217.788ZM245.715 49V29.4H249.551V49H245.715ZM257.729 49V29.4H261.733L271.309 42.56V29.4H275.117V49H271.309L261.565 35.588V49H257.729ZM292.405 49.336C290.408 49.336 288.635 48.9067 287.085 48.048C285.555 47.1707 284.351 45.976 283.473 44.464C282.596 42.9333 282.157 41.1787 282.157 39.2C282.157 37.2213 282.596 35.476 283.473 33.964C284.351 32.4333 285.555 31.2387 287.085 30.38C288.635 29.5027 290.408 29.064 292.405 29.064C293.6 29.064 294.701 29.2413 295.709 29.596C296.717 29.9507 297.604 30.4453 298.369 31.08C299.153 31.696 299.807 32.4053 300.329 33.208L297.193 35.168C296.876 34.664 296.456 34.216 295.933 33.824C295.429 33.432 294.869 33.124 294.253 32.9C293.637 32.676 293.021 32.564 292.405 32.564C291.173 32.564 290.081 32.8533 289.129 33.432C288.177 33.992 287.431 34.7667 286.889 35.756C286.348 36.7453 286.077 37.8933 286.077 39.2C286.077 40.488 286.339 41.636 286.861 42.644C287.403 43.652 288.159 44.4453 289.129 45.024C290.1 45.584 291.22 45.864 292.489 45.864C293.479 45.864 294.356 45.668 295.121 45.276C295.905 44.884 296.521 44.3333 296.969 43.624C297.417 42.9147 297.641 42.0933 297.641 41.16L301.281 40.6C301.281 42.448 300.899 44.0253 300.133 45.332C299.387 46.6387 298.341 47.6373 296.997 48.328C295.672 49 294.141 49.336 292.405 49.336ZM293.049 41.496V38.5H301.281V40.88L299.209 41.496H293.049ZM325.206 49.336C324.216 49.336 323.292 49.2147 322.434 48.972C321.575 48.7293 320.81 48.3933 320.138 47.964C319.466 47.516 318.906 47.0213 318.458 46.48C318.028 45.9387 317.748 45.3693 317.618 44.772L321.37 43.652C321.612 44.2867 322.042 44.8373 322.658 45.304C323.274 45.752 324.048 45.9853 324.982 46.004C325.971 46.0227 326.774 45.808 327.39 45.36C328.024 44.912 328.342 44.3333 328.342 43.624C328.342 43.008 328.09 42.4947 327.586 42.084C327.1 41.6547 326.428 41.328 325.57 41.104L323.022 40.432C322.07 40.1893 321.23 39.8253 320.502 39.34C319.774 38.836 319.204 38.22 318.794 37.492C318.383 36.764 318.178 35.9147 318.178 34.944C318.178 33.096 318.784 31.6587 319.998 30.632C321.23 29.5867 322.966 29.064 325.206 29.064C326.456 29.064 327.548 29.2507 328.482 29.624C329.434 29.9787 330.227 30.492 330.862 31.164C331.496 31.836 331.982 32.6293 332.318 33.544L328.594 34.692C328.37 34.0573 327.959 33.516 327.362 33.068C326.764 32.62 326.008 32.396 325.094 32.396C324.16 32.396 323.423 32.6107 322.882 33.04C322.359 33.4693 322.098 34.076 322.098 34.86C322.098 35.476 322.303 35.9613 322.714 36.316C323.143 36.6707 323.722 36.9413 324.45 37.128L327.026 37.772C328.706 38.1827 330.012 38.92 330.946 39.984C331.879 41.048 332.346 42.2333 332.346 43.54C332.346 44.6973 332.066 45.7147 331.506 46.592C330.946 47.4507 330.134 48.1227 329.07 48.608C328.006 49.0933 326.718 49.336 325.206 49.336ZM348.514 49.336C346.535 49.336 344.78 48.9067 343.25 48.048C341.738 47.1707 340.552 45.976 339.694 44.464C338.835 42.9333 338.406 41.188 338.406 39.228C338.406 37.2307 338.835 35.476 339.694 33.964C340.552 32.4333 341.728 31.2387 343.222 30.38C344.734 29.5213 346.47 29.092 348.43 29.092C350.408 29.092 352.144 29.5307 353.638 30.408C355.15 31.2667 356.335 32.4613 357.194 33.992C358.052 35.504 358.482 37.2493 358.482 39.228C358.482 41.188 358.052 42.9333 357.194 44.464C356.354 45.976 355.178 47.1707 353.666 48.048C352.172 48.9067 350.455 49.336 348.514 49.336ZM348.514 45.836C349.708 45.836 350.754 45.556 351.65 44.996C352.564 44.4173 353.274 43.6333 353.778 42.644C354.3 41.6547 354.562 40.516 354.562 39.228C354.562 37.9213 354.3 36.7733 353.778 35.784C353.255 34.7947 352.536 34.02 351.622 33.46C350.707 32.8813 349.643 32.592 348.43 32.592C347.254 32.592 346.199 32.8813 345.266 33.46C344.351 34.02 343.632 34.7947 343.11 35.784C342.587 36.7733 342.326 37.9213 342.326 39.228C342.326 40.516 342.587 41.6547 343.11 42.644C343.632 43.6333 344.36 44.4173 345.294 44.996C346.227 45.556 347.3 45.836 348.514 45.836ZM374.473 49.336C372.494 49.336 370.739 48.9067 369.209 48.048C367.697 47.1707 366.511 45.976 365.653 44.464C364.794 42.9333 364.365 41.188 364.365 39.228C364.365 37.2307 364.794 35.476 365.653 33.964C366.511 32.4333 367.687 31.2387 369.181 30.38C370.693 29.5213 372.429 29.092 374.389 29.092C376.367 29.092 378.103 29.5307 379.597 30.408C381.109 31.2667 382.294 32.4613 383.153 33.992C384.011 35.504 384.441 37.2493 384.441 39.228C384.441 41.188 384.011 42.9333 383.153 44.464C382.313 45.976 381.137 47.1707 379.625 48.048C378.131 48.9067 376.414 49.336 374.473 49.336ZM374.473 45.836C375.667 45.836 376.713 45.556 377.609 44.996C378.523 44.4173 379.233 43.6333 379.737 42.644C380.259 41.6547 380.521 40.516 380.521 39.228C380.521 37.9213 380.259 36.7733 379.737 35.784C379.214 34.7947 378.495 34.02 377.581 33.46C376.666 32.8813 375.602 32.592 374.389 32.592C373.213 32.592 372.158 32.8813 371.225 33.46C370.31 34.02 369.591 34.7947 369.069 35.784C368.546 36.7733 368.285 37.9213 368.285 39.228C368.285 40.516 368.546 41.6547 369.069 42.644C369.591 43.6333 370.319 44.4173 371.253 44.996C372.186 45.556 373.259 45.836 374.473 45.836ZM391.472 49V29.4H395.476L405.052 42.56V29.4H408.86V49H405.052L395.308 35.588V49H391.472Z" fill="white"/>
<path d="M202.29 121L184.818 76.2H192.242L210.162 121H202.29ZM166.514 121L184.37 76.2H191.858L174.385 121H166.514ZM174.898 109.992V103.4H201.714V109.992H174.898ZM214.976 133.8V89H221.696L222.144 94.888V133.8H214.976ZM232.256 121.768C229.568 121.768 227.242 121.085 225.28 119.72C223.36 118.312 221.888 116.349 220.864 113.832C219.84 111.315 219.328 108.371 219.328 105C219.328 101.587 219.84 98.6427 220.864 96.168C221.888 93.6507 223.36 91.7093 225.28 90.344C227.242 88.936 229.568 88.232 232.256 88.232C235.157 88.232 237.674 88.936 239.808 90.344C241.984 91.7093 243.669 93.6507 244.864 96.168C246.101 98.6427 246.72 101.587 246.72 105C246.72 108.371 246.101 111.315 244.864 113.832C243.669 116.349 241.984 118.312 239.808 119.72C237.674 121.085 235.157 121.768 232.256 121.768ZM230.464 115.24C232.17 115.24 233.685 114.813 235.008 113.96C236.33 113.064 237.376 111.848 238.144 110.312C238.954 108.776 239.36 107.005 239.36 105C239.36 102.995 238.976 101.224 238.208 99.688C237.482 98.152 236.458 96.9573 235.136 96.104C233.813 95.2507 232.277 94.824 230.528 94.824C228.906 94.824 227.456 95.2507 226.176 96.104C224.896 96.9573 223.893 98.152 223.168 99.688C222.485 101.224 222.144 102.995 222.144 105C222.144 107.005 222.485 108.776 223.168 110.312C223.893 111.848 224.874 113.064 226.112 113.96C227.392 114.813 228.842 115.24 230.464 115.24ZM253.163 133.8V89H259.883L260.331 94.888V133.8H253.163ZM270.443 121.768C267.755 121.768 265.43 121.085 263.467 119.72C261.547 118.312 260.075 116.349 259.051 113.832C258.027 111.315 257.515 108.371 257.515 105C257.515 101.587 258.027 98.6427 259.051 96.168C260.075 93.6507 261.547 91.7093 263.467 90.344C265.43 88.936 267.755 88.232 270.443 88.232C273.344 88.232 275.862 88.936 277.995 90.344C280.171 91.7093 281.856 93.6507 283.051 96.168C284.288 98.6427 284.907 101.587 284.907 105C284.907 108.371 284.288 111.315 283.051 113.832C281.856 116.349 280.171 118.312 277.995 119.72C275.862 121.085 273.344 121.768 270.443 121.768ZM268.651 115.24C270.358 115.24 271.872 114.813 273.195 113.96C274.518 113.064 275.563 111.848 276.331 110.312C277.142 108.776 277.547 107.005 277.547 105C277.547 102.995 277.163 101.224 276.395 99.688C275.67 98.152 274.646 96.9573 273.323 96.104C272 95.2507 270.464 94.824 268.715 94.824C267.094 94.824 265.643 95.2507 264.363 96.104C263.083 96.9573 262.08 98.152 261.355 99.688C260.672 101.224 260.331 102.995 260.331 105C260.331 107.005 260.672 108.776 261.355 110.312C262.08 111.848 263.062 113.064 264.299 113.96C265.579 114.813 267.03 115.24 268.651 115.24ZM322.532 121.768C320.185 121.768 318.031 121.491 316.068 120.936C314.148 120.381 312.441 119.613 310.948 118.632C309.497 117.651 308.281 116.563 307.3 115.368C306.361 114.131 305.7 112.851 305.316 111.528L312.612 109.288C313.167 110.867 314.255 112.253 315.876 113.448C317.497 114.643 319.503 115.261 321.892 115.304C324.665 115.304 326.863 114.728 328.484 113.576C330.105 112.424 330.916 110.909 330.916 109.032C330.916 107.325 330.233 105.939 328.868 104.872C327.503 103.763 325.668 102.909 323.364 102.312L317.86 100.904C315.769 100.349 313.871 99.5387 312.164 98.472C310.5 97.4053 309.177 96.0613 308.196 94.44C307.257 92.8187 306.788 90.8987 306.788 88.68C306.788 84.4987 308.153 81.256 310.884 78.952C313.615 76.6053 317.519 75.432 322.596 75.432C325.455 75.432 327.951 75.88 330.084 76.776C332.26 77.6293 334.052 78.824 335.46 80.36C336.868 81.8533 337.913 83.56 338.596 85.48L331.428 87.784C330.788 86.0773 329.679 84.6693 328.1 83.56C326.521 82.4507 324.559 81.896 322.212 81.896C319.78 81.896 317.86 82.472 316.452 83.624C315.087 84.776 314.404 86.376 314.404 88.424C314.404 90.088 314.937 91.3893 316.004 92.328C317.113 93.224 318.607 93.9067 320.484 94.376L325.988 95.72C329.999 96.7013 333.113 98.3867 335.332 100.776C337.551 103.165 338.66 105.811 338.66 108.712C338.66 111.272 338.041 113.533 336.804 115.496C335.567 117.459 333.732 118.995 331.3 120.104C328.911 121.213 325.988 121.768 322.532 121.768ZM358.267 121.768C354.896 121.768 352.315 120.936 350.523 119.272C348.773 117.565 347.899 115.133 347.899 111.976V79.016H355.003V110.632C355.003 112.125 355.344 113.256 356.027 114.024C356.752 114.792 357.797 115.176 359.163 115.176C359.589 115.176 360.059 115.091 360.571 114.92C361.083 114.749 361.659 114.429 362.299 113.96L364.923 119.4C363.813 120.168 362.704 120.744 361.595 121.128C360.485 121.555 359.376 121.768 358.267 121.768ZM342.587 95.144V89H363.643V95.144H342.587ZM385.001 121.768C381.801 121.768 378.942 121.064 376.425 119.656C373.95 118.205 372.009 116.221 370.601 113.704C369.193 111.187 368.489 108.285 368.489 105C368.489 101.715 369.171 98.8133 370.536 96.296C371.945 93.7787 373.886 91.816 376.361 90.408C378.835 88.9573 381.673 88.232 384.873 88.232C388.073 88.232 390.91 88.9573 393.385 90.408C395.859 91.816 397.779 93.7787 399.145 96.296C400.553 98.8133 401.257 101.715 401.257 105C401.257 108.285 400.574 111.187 399.208 113.704C397.843 116.221 395.923 118.205 393.449 119.656C390.974 121.064 388.158 121.768 385.001 121.768ZM385.001 115.176C386.75 115.176 388.307 114.749 389.673 113.896C391.038 113 392.105 111.805 392.873 110.312C393.641 108.776 394.025 107.005 394.025 105C394.025 102.995 393.619 101.245 392.809 99.752C392.041 98.216 390.974 97.0213 389.609 96.168C388.243 95.272 386.665 94.824 384.873 94.824C383.081 94.824 381.502 95.2507 380.137 96.104C378.771 96.9573 377.705 98.152 376.937 99.688C376.169 101.224 375.785 102.995 375.785 105C375.785 107.005 376.169 108.776 376.937 110.312C377.747 111.805 378.835 113 380.201 113.896C381.609 114.749 383.209 115.176 385.001 115.176ZM412.204 103.976C412.204 100.52 412.865 97.6827 414.188 95.464C415.511 93.2453 417.217 91.6027 419.308 90.536C421.441 89.4267 423.66 88.872 425.964 88.872V95.72C424.001 95.72 422.145 95.9973 420.396 96.552C418.689 97.064 417.303 97.9173 416.236 99.112C415.169 100.307 414.636 101.885 414.636 103.848L412.204 103.976ZM407.468 121V89H414.636V121H407.468ZM444.99 121.768C441.875 121.768 439.102 121.064 436.67 119.656C434.281 118.205 432.382 116.221 430.974 113.704C429.609 111.187 428.926 108.285 428.926 105C428.926 101.715 429.63 98.8133 431.038 96.296C432.446 93.7787 434.366 91.816 436.798 90.408C439.273 88.9573 442.089 88.232 445.246 88.232C448.105 88.232 450.686 88.9787 452.99 90.472C455.294 91.9227 457.107 94.0347 458.43 96.808C459.795 99.5813 460.478 102.888 460.478 106.728H435.326L436.286 105.832C436.286 107.795 436.713 109.501 437.566 110.952C438.419 112.36 439.55 113.448 440.958 114.216C442.366 114.984 443.923 115.368 445.63 115.368C447.593 115.368 449.214 114.941 450.494 114.088C451.774 113.192 452.777 112.04 453.502 110.632L459.838 113.32C458.942 115.027 457.79 116.52 456.382 117.8C455.017 119.08 453.374 120.061 451.454 120.744C449.577 121.427 447.422 121.768 444.99 121.768ZM436.734 102.12L435.71 101.224H453.758L452.798 102.12C452.798 100.371 452.414 98.9413 451.646 97.832C450.878 96.68 449.897 95.8267 448.702 95.272C447.55 94.6747 446.334 94.376 445.054 94.376C443.774 94.376 442.494 94.6747 441.214 95.272C439.934 95.8267 438.867 96.68 438.014 97.832C437.161 98.9413 436.734 100.371 436.734 102.12Z" fill="white"/>
</svg>
