<svg width="540" height="156" viewBox="0 0 540 156" fill="none" xmlns="http://www.w3.org/2000/svg">
<path d="M537 138.009C537 146.323 530.126 153.057 521.623 153.057H18.3973C9.8985 153.057 3 146.323 3 138.009V18.0105C3 9.70097 9.8985 2.94336 18.3973 2.94336H521.619C530.126 2.94336 536.996 9.70097 536.996 18.0105L537 138.009Z" fill="black"/>
<path d="M520 3.12488C529.26 3.12488 536.795 10.4715 536.795 19.5V136.5C536.795 145.529 529.26 152.875 520 152.875H20C10.74 152.875 3.205 145.529 3.205 136.5V19.5C3.205 10.4715 10.74 3.12488 20 3.12488H520ZM520 1.52588e-05H20C9.005 1.52588e-05 0 8.77989 0 19.5V136.5C0 147.22 9.005 156 20 156H520C530.995 156 540 147.22 540 136.5V19.5C540 8.77989 530.995 1.52588e-05 520 1.52588e-05Z" fill="#A6A6A6"/>
<path d="M46.3959 41.4227C45.5117 42.3251 45 43.7302 45 45.5497V110.452C45 112.272 45.5117 113.677 46.3959 114.579L46.6141 114.777L83.9158 78.4229V77.5644L46.6141 41.2099L46.3959 41.4227Z" fill="white"/>
<path d="M100.851 90.5479L88.4307 78.4236V77.5651L100.866 65.4409L101.144 65.5986L115.871 73.7683C120.074 76.0868 120.074 79.902 115.871 82.2351L101.144 90.3901L100.851 90.5479V90.5479Z" fill="white"/>
<path d="M98.8868 92.647L86.1733 80.2513L48.6533 116.837C50.0492 118.268 52.3255 118.44 54.9142 117.009L98.8868 92.647" fill="white"/>
<path d="M98.8868 63.3406L54.9142 38.9783C52.3255 37.5623 50.0492 37.7347 48.6533 39.1654L86.1733 75.7363L98.8868 63.3406Z" fill="white"/>
<path d="M157.294 49.336C155.39 49.336 153.701 48.9067 152.226 48.048C150.751 47.1707 149.594 45.976 148.754 44.464C147.914 42.9333 147.494 41.1787 147.494 39.2C147.494 37.2213 147.914 35.476 148.754 33.964C149.594 32.4333 150.742 31.2387 152.198 30.38C153.673 29.5027 155.362 29.064 157.266 29.064C158.61 29.064 159.861 29.3067 161.018 29.792C162.175 30.2587 163.183 30.9213 164.042 31.78C164.919 32.62 165.591 33.5907 166.058 34.692L162.502 36.008C162.185 35.3173 161.765 34.72 161.242 34.216C160.719 33.6933 160.122 33.292 159.45 33.012C158.778 32.7133 158.05 32.564 157.266 32.564C156.127 32.564 155.11 32.8533 154.214 33.432C153.337 33.992 152.646 34.7667 152.142 35.756C151.657 36.7453 151.414 37.8933 151.414 39.2C151.414 40.5067 151.666 41.664 152.17 42.672C152.674 43.6613 153.374 44.4453 154.27 45.024C155.166 45.584 156.193 45.864 157.35 45.864C158.153 45.864 158.881 45.7147 159.534 45.416C160.206 45.0987 160.794 44.6693 161.298 44.128C161.821 43.5867 162.241 42.9613 162.558 42.252L166.114 43.54C165.647 44.6787 164.975 45.6867 164.098 46.564C163.239 47.4413 162.231 48.1227 161.074 48.608C159.917 49.0933 158.657 49.336 157.294 49.336ZM181.811 49.336C179.832 49.336 178.078 48.9067 176.547 48.048C175.035 47.1707 173.85 45.976 172.991 44.464C172.132 42.9333 171.703 41.188 171.703 39.228C171.703 37.2307 172.132 35.476 172.991 33.964C173.85 32.4333 175.026 31.2387 176.519 30.38C178.031 29.5213 179.767 29.092 181.727 29.092C183.706 29.092 185.442 29.5307 186.935 30.408C188.447 31.2667 189.632 32.4613 190.491 33.992C191.35 35.504 191.779 37.2493 191.779 39.228C191.779 41.188 191.35 42.9333 190.491 44.464C189.651 45.976 188.475 47.1707 186.963 48.048C185.47 48.9067 183.752 49.336 181.811 49.336ZM181.811 45.836C183.006 45.836 184.051 45.556 184.947 44.996C185.862 44.4173 186.571 43.6333 187.075 42.644C187.598 41.6547 187.859 40.516 187.859 39.228C187.859 37.9213 187.598 36.7733 187.075 35.784C186.552 34.7947 185.834 34.02 184.919 33.46C184.004 32.8813 182.94 32.592 181.727 32.592C180.551 32.592 179.496 32.8813 178.563 33.46C177.648 34.02 176.93 34.7947 176.407 35.784C175.884 36.7733 175.623 37.9213 175.623 39.228C175.623 40.516 175.884 41.6547 176.407 42.644C176.93 43.6333 177.658 44.4173 178.591 44.996C179.524 45.556 180.598 45.836 181.811 45.836ZM198.81 49V29.4H202.982L208.694 37.856L214.406 29.4H218.55V49H214.742V35.392L208.694 44.296L202.646 35.42V49H198.81ZM226.738 49V29.4H230.574V49H226.738ZM238.752 49V29.4H242.756L252.332 42.56V29.4H256.14V49H252.332L242.588 35.588V49H238.752ZM273.428 49.336C271.43 49.336 269.657 48.9067 268.108 48.048C266.577 47.1707 265.373 45.976 264.496 44.464C263.618 42.9333 263.18 41.1787 263.18 39.2C263.18 37.2213 263.618 35.476 264.496 33.964C265.373 32.4333 266.577 31.2387 268.108 30.38C269.657 29.5027 271.43 29.064 273.428 29.064C274.622 29.064 275.724 29.2413 276.732 29.596C277.74 29.9507 278.626 30.4453 279.392 31.08C280.176 31.696 280.829 32.4053 281.352 33.208L278.216 35.168C277.898 34.664 277.478 34.216 276.956 33.824C276.452 33.432 275.892 33.124 275.276 32.9C274.66 32.676 274.044 32.564 273.428 32.564C272.196 32.564 271.104 32.8533 270.152 33.432C269.2 33.992 268.453 34.7667 267.912 35.756C267.37 36.7453 267.1 37.8933 267.1 39.2C267.1 40.488 267.361 41.636 267.884 42.644C268.425 43.652 269.181 44.4453 270.152 45.024C271.122 45.584 272.242 45.864 273.512 45.864C274.501 45.864 275.378 45.668 276.144 45.276C276.928 44.884 277.544 44.3333 277.992 43.624C278.44 42.9147 278.664 42.0933 278.664 41.16L282.304 40.6C282.304 42.448 281.921 44.0253 281.156 45.332C280.409 46.6387 279.364 47.6373 278.02 48.328C276.694 49 275.164 49.336 273.428 49.336ZM274.072 41.496V38.5H282.304V40.88L280.232 41.496H274.072ZM306.228 49.336C305.239 49.336 304.315 49.2147 303.456 48.972C302.598 48.7293 301.832 48.3933 301.16 47.964C300.488 47.516 299.928 47.0213 299.48 46.48C299.051 45.9387 298.771 45.3693 298.64 44.772L302.392 43.652C302.635 44.2867 303.064 44.8373 303.68 45.304C304.296 45.752 305.071 45.9853 306.004 46.004C306.994 46.0227 307.796 45.808 308.412 45.36C309.047 44.912 309.364 44.3333 309.364 43.624C309.364 43.008 309.112 42.4947 308.608 42.084C308.123 41.6547 307.451 41.328 306.592 41.104L304.044 40.432C303.092 40.1893 302.252 39.8253 301.524 39.34C300.796 38.836 300.227 38.22 299.816 37.492C299.406 36.764 299.2 35.9147 299.2 34.944C299.2 33.096 299.807 31.6587 301.02 30.632C302.252 29.5867 303.988 29.064 306.228 29.064C307.479 29.064 308.571 29.2507 309.504 29.624C310.456 29.9787 311.25 30.492 311.884 31.164C312.519 31.836 313.004 32.6293 313.34 33.544L309.616 34.692C309.392 34.0573 308.982 33.516 308.384 33.068C307.787 32.62 307.031 32.396 306.116 32.396C305.183 32.396 304.446 32.6107 303.904 33.04C303.382 33.4693 303.12 34.076 303.12 34.86C303.12 35.476 303.326 35.9613 303.736 36.316C304.166 36.6707 304.744 36.9413 305.472 37.128L308.048 37.772C309.728 38.1827 311.035 38.92 311.968 39.984C312.902 41.048 313.368 42.2333 313.368 43.54C313.368 44.6973 313.088 45.7147 312.528 46.592C311.968 47.4507 311.156 48.1227 310.092 48.608C309.028 49.0933 307.74 49.336 306.228 49.336ZM329.536 49.336C327.557 49.336 325.803 48.9067 324.272 48.048C322.76 47.1707 321.575 45.976 320.716 44.464C319.857 42.9333 319.428 41.188 319.428 39.228C319.428 37.2307 319.857 35.476 320.716 33.964C321.575 32.4333 322.751 31.2387 324.244 30.38C325.756 29.5213 327.492 29.092 329.452 29.092C331.431 29.092 333.167 29.5307 334.66 30.408C336.172 31.2667 337.357 32.4613 338.216 33.992C339.075 35.504 339.504 37.2493 339.504 39.228C339.504 41.188 339.075 42.9333 338.216 44.464C337.376 45.976 336.2 47.1707 334.688 48.048C333.195 48.9067 331.477 49.336 329.536 49.336ZM329.536 45.836C330.731 45.836 331.776 45.556 332.672 44.996C333.587 44.4173 334.296 43.6333 334.8 42.644C335.323 41.6547 335.584 40.516 335.584 39.228C335.584 37.9213 335.323 36.7733 334.8 35.784C334.277 34.7947 333.559 34.02 332.644 33.46C331.729 32.8813 330.665 32.592 329.452 32.592C328.276 32.592 327.221 32.8813 326.288 33.46C325.373 34.02 324.655 34.7947 324.132 35.784C323.609 36.7733 323.348 37.9213 323.348 39.228C323.348 40.516 323.609 41.6547 324.132 42.644C324.655 43.6333 325.383 44.4173 326.316 44.996C327.249 45.556 328.323 45.836 329.536 45.836ZM355.495 49.336C353.516 49.336 351.762 48.9067 350.231 48.048C348.719 47.1707 347.534 45.976 346.675 44.464C345.816 42.9333 345.387 41.188 345.387 39.228C345.387 37.2307 345.816 35.476 346.675 33.964C347.534 32.4333 348.71 31.2387 350.203 30.38C351.715 29.5213 353.451 29.092 355.411 29.092C357.39 29.092 359.126 29.5307 360.619 30.408C362.131 31.2667 363.316 32.4613 364.175 33.992C365.034 35.504 365.463 37.2493 365.463 39.228C365.463 41.188 365.034 42.9333 364.175 44.464C363.335 45.976 362.159 47.1707 360.647 48.048C359.154 48.9067 357.436 49.336 355.495 49.336ZM355.495 45.836C356.69 45.836 357.735 45.556 358.631 44.996C359.546 44.4173 360.255 43.6333 360.759 42.644C361.282 41.6547 361.543 40.516 361.543 39.228C361.543 37.9213 361.282 36.7733 360.759 35.784C360.236 34.7947 359.518 34.02 358.603 33.46C357.688 32.8813 356.624 32.592 355.411 32.592C354.235 32.592 353.18 32.8813 352.247 33.46C351.332 34.02 350.614 34.7947 350.091 35.784C349.568 36.7733 349.307 37.9213 349.307 39.228C349.307 40.516 349.568 41.6547 350.091 42.644C350.614 43.6333 351.342 44.4173 352.275 44.996C353.208 45.556 354.282 45.836 355.495 45.836ZM372.494 49V29.4H376.498L386.074 42.56V29.4H389.882V49H386.074L376.33 35.588V49H372.494Z" fill="white"/>
<path d="M172.003 121.768C167.481 121.768 163.449 120.787 159.907 118.824C156.409 116.819 153.657 114.088 151.651 110.632C149.646 107.133 148.643 103.144 148.643 98.664C148.643 94.0987 149.646 90.088 151.651 86.632C153.657 83.1333 156.409 80.4027 159.907 78.44C163.449 76.4347 167.481 75.432 172.003 75.432C174.606 75.432 177.038 75.8373 179.299 76.648C181.603 77.4587 183.673 78.568 185.507 79.976C187.342 81.3413 188.835 82.9413 189.987 84.776L183.971 88.616C183.161 87.3787 182.115 86.2693 180.835 85.288C179.555 84.3067 178.147 83.56 176.611 83.048C175.118 82.4933 173.582 82.216 172.003 82.216C168.931 82.216 166.201 82.92 163.811 84.328C161.465 85.736 159.609 87.6773 158.243 90.152C156.878 92.584 156.195 95.4213 156.195 98.664C156.195 101.821 156.857 104.637 158.179 107.112C159.545 109.587 161.422 111.528 163.811 112.936C166.243 114.344 169.038 115.048 172.195 115.048C174.67 115.048 176.889 114.536 178.851 113.512C180.814 112.488 182.35 111.059 183.459 109.224C184.611 107.389 185.187 105.277 185.187 102.888L192.291 101.992C192.291 106.045 191.417 109.565 189.667 112.552C187.961 115.496 185.571 117.779 182.499 119.4C179.47 120.979 175.971 121.768 172.003 121.768ZM174.435 103.464V97.448H192.291V102.44L188.323 103.464H174.435ZM212.835 121.768C209.635 121.768 206.777 121.064 204.259 119.656C201.785 118.205 199.843 116.221 198.435 113.704C197.027 111.187 196.323 108.285 196.323 105C196.323 101.715 197.006 98.8133 198.371 96.296C199.779 93.7787 201.721 91.816 204.195 90.408C206.67 88.9573 209.507 88.232 212.707 88.232C215.907 88.232 218.745 88.9573 221.219 90.408C223.694 91.816 225.614 93.7787 226.979 96.296C228.387 98.8133 229.091 101.715 229.091 105C229.091 108.285 228.409 111.187 227.043 113.704C225.678 116.221 223.758 118.205 221.283 119.656C218.809 121.064 215.993 121.768 212.835 121.768ZM212.835 115.176C214.585 115.176 216.142 114.749 217.507 113.896C218.873 113 219.939 111.805 220.707 110.312C221.475 108.776 221.859 107.005 221.859 105C221.859 102.995 221.454 101.245 220.643 99.752C219.875 98.216 218.809 97.0213 217.443 96.168C216.078 95.272 214.499 94.824 212.707 94.824C210.915 94.824 209.337 95.2507 207.971 96.104C206.606 96.9573 205.539 98.152 204.771 99.688C204.003 101.224 203.619 102.995 203.619 105C203.619 107.005 204.003 108.776 204.771 110.312C205.582 111.805 206.67 113 208.035 113.896C209.443 114.749 211.043 115.176 212.835 115.176ZM250.023 121.768C246.823 121.768 243.964 121.064 241.447 119.656C238.972 118.205 237.031 116.221 235.623 113.704C234.215 111.187 233.511 108.285 233.511 105C233.511 101.715 234.194 98.8133 235.559 96.296C236.967 93.7787 238.908 91.816 241.383 90.408C243.858 88.9573 246.695 88.232 249.895 88.232C253.095 88.232 255.932 88.9573 258.407 90.408C260.882 91.816 262.802 93.7787 264.167 96.296C265.575 98.8133 266.279 101.715 266.279 105C266.279 108.285 265.596 111.187 264.231 113.704C262.866 116.221 260.946 118.205 258.471 119.656C255.996 121.064 253.18 121.768 250.023 121.768ZM250.023 115.176C251.772 115.176 253.33 114.749 254.695 113.896C256.06 113 257.127 111.805 257.895 110.312C258.663 108.776 259.047 107.005 259.047 105C259.047 102.995 258.642 101.245 257.831 99.752C257.063 98.216 255.996 97.0213 254.631 96.168C253.266 95.272 251.687 94.824 249.895 94.824C248.103 94.824 246.524 95.2507 245.159 96.104C243.794 96.9573 242.727 98.152 241.959 99.688C241.191 101.224 240.807 102.995 240.807 105C240.807 107.005 241.191 108.776 241.959 110.312C242.77 111.805 243.858 113 245.223 113.896C246.631 114.749 248.231 115.176 250.023 115.176ZM286.25 134.632C283.989 134.632 281.941 134.44 280.106 134.056C278.314 133.672 276.8 133.224 275.562 132.712C274.325 132.2 273.365 131.709 272.682 131.24L275.434 125.48C276.032 125.779 276.821 126.141 277.802 126.568C278.826 127.037 280.021 127.443 281.386 127.784C282.752 128.125 284.288 128.296 285.994 128.296C287.829 128.296 289.472 127.912 290.922 127.144C292.373 126.419 293.504 125.288 294.314 123.752C295.125 122.216 295.53 120.253 295.53 117.864V89H302.698V117.672C302.698 121.299 302.016 124.371 300.65 126.888C299.285 129.448 297.365 131.368 294.89 132.648C292.416 133.971 289.536 134.632 286.25 134.632ZM285.162 120.36C282.261 120.36 279.722 119.699 277.546 118.376C275.413 117.053 273.728 115.219 272.49 112.872C271.296 110.483 270.698 107.731 270.698 104.616C270.698 101.288 271.296 98.408 272.49 95.976C273.728 93.544 275.413 91.6453 277.546 90.28C279.722 88.9147 282.261 88.232 285.162 88.232C287.765 88.232 290.026 88.9147 291.946 90.28C293.909 91.6453 295.424 93.5653 296.49 96.04C297.557 98.472 298.09 101.352 298.09 104.68C298.09 107.837 297.557 110.589 296.49 112.936C295.424 115.283 293.909 117.117 291.946 118.44C290.026 119.72 287.765 120.36 285.162 120.36ZM287.146 114.28C288.768 114.28 290.176 113.853 291.37 113C292.608 112.147 293.568 110.995 294.25 109.544C294.933 108.051 295.274 106.344 295.274 104.424C295.274 102.461 294.933 100.755 294.25 99.304C293.568 97.8107 292.608 96.6587 291.37 95.848C290.133 94.9947 288.704 94.568 287.082 94.568C285.376 94.568 283.861 94.9947 282.538 95.848C281.258 96.6587 280.234 97.8107 279.466 99.304C278.741 100.755 278.378 102.461 278.378 104.424C278.378 106.344 278.741 108.051 279.466 109.544C280.234 110.995 281.28 112.147 282.602 113C283.925 113.853 285.44 114.28 287.146 114.28ZM310.615 121V76.2H317.783V121H310.615ZM340.012 121.768C336.898 121.768 334.124 121.064 331.692 119.656C329.303 118.205 327.404 116.221 325.996 113.704C324.631 111.187 323.948 108.285 323.948 105C323.948 101.715 324.652 98.8133 326.06 96.296C327.468 93.7787 329.388 91.816 331.82 90.408C334.295 88.9573 337.111 88.232 340.268 88.232C343.127 88.232 345.708 88.9787 348.012 90.472C350.316 91.9227 352.13 94.0347 353.452 96.808C354.818 99.5813 355.5 102.888 355.5 106.728H330.348L331.308 105.832C331.308 107.795 331.735 109.501 332.588 110.952C333.442 112.36 334.572 113.448 335.98 114.216C337.388 114.984 338.946 115.368 340.652 115.368C342.615 115.368 344.236 114.941 345.516 114.088C346.796 113.192 347.799 112.04 348.524 110.632L354.86 113.32C353.964 115.027 352.812 116.52 351.404 117.8C350.039 119.08 348.396 120.061 346.476 120.744C344.599 121.427 342.444 121.768 340.012 121.768ZM331.756 102.12L330.732 101.224H348.78L347.82 102.12C347.82 100.371 347.436 98.9413 346.668 97.832C345.9 96.68 344.919 95.8267 343.724 95.272C342.572 94.6747 341.356 94.376 340.076 94.376C338.796 94.376 337.516 94.6747 336.236 95.272C334.956 95.8267 333.89 96.68 333.036 97.832C332.183 98.9413 331.756 100.371 331.756 102.12ZM377.772 121V76.2H393.58C396.652 76.2 399.361 76.8187 401.708 78.056C404.055 79.2933 405.889 81.0213 407.212 83.24C408.535 85.416 409.196 87.9547 409.196 90.856C409.196 93.672 408.577 96.1893 407.34 98.408C406.103 100.627 404.375 102.376 402.156 103.656C399.98 104.893 397.441 105.512 394.54 105.512H385.196V121H377.772ZM385.196 98.664H394.412C396.545 98.664 398.295 97.9387 399.66 96.488C401.025 95.0373 401.708 93.16 401.708 90.856C401.708 88.5093 400.94 86.6107 399.404 85.16C397.868 83.7093 395.884 82.984 393.452 82.984H385.196V98.664ZM414.428 121V76.2H421.596V121H414.428ZM449.073 121L448.753 114.984V104.552C448.753 102.376 448.518 100.563 448.049 99.112C447.622 97.6187 446.897 96.488 445.873 95.72C444.892 94.9093 443.569 94.504 441.905 94.504C440.369 94.504 439.025 94.824 437.873 95.464C436.721 96.104 435.74 97.1067 434.929 98.472L428.657 96.168C429.34 94.76 430.236 93.4587 431.345 92.264C432.497 91.0267 433.926 90.0453 435.633 89.32C437.382 88.5947 439.473 88.232 441.905 88.232C445.02 88.232 447.622 88.8507 449.713 90.088C451.804 91.2827 453.34 93.0107 454.321 95.272C455.345 97.5333 455.857 100.264 455.857 103.464L455.665 121H449.073ZM439.857 121.768C436.017 121.768 433.03 120.915 430.897 119.208C428.806 117.501 427.761 115.091 427.761 111.976C427.761 108.648 428.87 106.109 431.089 104.36C433.35 102.611 436.486 101.736 440.497 101.736H449.073V107.24H442.801C439.942 107.24 437.937 107.645 436.785 108.456C435.633 109.224 435.057 110.333 435.057 111.784C435.057 113.021 435.548 114.003 436.529 114.728C437.553 115.411 438.961 115.752 440.753 115.752C442.374 115.752 443.782 115.389 444.977 114.664C446.172 113.939 447.089 112.979 447.729 111.784C448.412 110.589 448.753 109.245 448.753 107.752H450.865C450.865 112.104 449.99 115.539 448.241 118.056C446.492 120.531 443.697 121.768 439.857 121.768ZM467.484 134.568C466.46 134.568 465.308 134.376 464.028 133.992C462.791 133.608 461.596 133.117 460.444 132.52L463.132 126.696C463.943 127.08 464.689 127.379 465.372 127.592C466.055 127.848 466.609 127.976 467.036 127.976C468.06 127.976 468.913 127.699 469.596 127.144C470.321 126.632 470.897 125.864 471.324 124.84L475.1 116.008L485.916 89H493.724L478.876 124.392C477.98 126.44 477.063 128.232 476.124 129.768C475.228 131.304 474.097 132.477 472.732 133.288C471.367 134.141 469.617 134.568 467.484 134.568ZM473.18 121L458.844 89H466.652L477.788 115.944L480.092 121H473.18Z" fill="white"/>
</svg>
